<svg xmlns="http://www.w3.org/2000/svg" viewBox="0 0 439.38 414.9"><defs><style>.cls-1{fill:#0078a9;fill-rule:evenodd;}</style></defs><title>American Exp Logo</title><g id="Layer_2" data-name="Layer 2"><g id="Vector_Logo" data-name="Vector Logo"><path class="cls-1" d="M11,410.76H9.54c0-.72-.18-1.8-.18-2,0-.36,0-1.08-1.08-1.08H6.12v3.06h-.9v-7.2H8.28c1.26,0,2.34.36,2.34,1.62A2.12,2.12,0,0,1,9.9,407a1.87,1.87,0,0,1,.72,1.44v1.26c0,.36,0,.36.36.36v.72Zm-1.44-5.22c0-.9-.54-.9-.9-.9H6.12v2H8.28c.72,0,1.26-.36,1.26-1.08ZM15.48,407a7.69,7.69,0,0,0-7.92-7.56A7.61,7.61,0,0,0,0,407a7.74,7.74,0,1,0,15.48,0Zm-1.08,0a6.54,6.54,0,0,1-6.84,6.48A6.24,6.24,0,0,1,1.08,407a6.45,6.45,0,0,1,6.48-6.48A6.77,6.77,0,0,1,14.4,407Z"/><path class="cls-1" d="M439.38,267.66c0,10.26-6.66,15.12-18.36,15.12H398.7V272.52H421c2.16,0,3.78-.36,4.5-1.08a4.48,4.48,0,0,0,1.44-3.06,4.67,4.67,0,0,0-1.44-3.42c-.72-.72-2-1.08-4.14-1.08-10.62-.36-24.12.36-24.12-14.94,0-6.84,4.5-14.4,16.56-14.4h23V244.8H415.62c-2.16,0-3.6,0-4.5.72a5.07,5.07,0,0,0-1.8,3.78,3.59,3.59,0,0,0,2.34,3.42,18.1,18.1,0,0,0,4.5.72h6.3c6.48,0,10.62,1.44,13.5,3.78a15.73,15.73,0,0,1,3.42,10.44Zm-48.6-10.44c-2.88-2.34-7-3.78-13.5-3.78H371a18.1,18.1,0,0,1-4.5-.72,3.59,3.59,0,0,1-2.34-3.42,4.1,4.1,0,0,1,1.8-3.78c.9-.72,2.34-.72,4.5-.72h21.24V234.54h-23c-12.42,0-16.56,7.56-16.56,14.4,0,15.3,13.5,14.58,24.12,14.94,2.16,0,3.42.36,4.14,1.08a4.67,4.67,0,0,1,1.44,3.42,4.48,4.48,0,0,1-1.44,3.06,7.53,7.53,0,0,1-4.5,1.08H353.52v10.26h22.32c11.7,0,18.36-4.86,18.36-15.12a15.73,15.73,0,0,0-3.42-10.44ZM346.5,272.88H319.32v-9.72H346v-9.72H319.32v-8.82H346.5V234.54H308v48.24H346.5v-9.9Zm-50.94-36c-3.78-2-8.28-2.34-14.22-2.34H254.88v48.24h11.7V265.14H279c4.14,0,6.48.36,8.28,2.16,2,2.34,2,6.48,2,9.72v5.76h11.52v-9.36c0-4.32-.36-6.48-1.8-8.82a12,12,0,0,0-5.94-4.14c3.24-1.08,8.28-5.22,8.28-12.78,0-5.58-2-8.64-5.76-10.8ZM230,234.54h-36.9L178.2,250.38l-14-15.84H117.54v48.24h45.9l14.76-15.84,14.22,15.84h22.32v-16.2h14.58c9.9,0,20-2.7,20-16.2,0-13.14-10.26-15.84-19.26-15.84Zm56.16,20a14,14,0,0,1-5.58.72l-14,.36v-11h14c2.16,0,4.14,0,5.58.9a4.36,4.36,0,0,1,2.34,4.14,5.81,5.81,0,0,1-2.34,4.86ZM230,256.86h-15.3V244.62H230c4.14,0,6.84,1.62,6.84,5.76s-2.7,6.48-6.84,6.48Zm-44.46,1.8,17.82-18.9v38.88l-17.82-20ZM157.5,272.88H128.88v-9.72h25.56v-9.72H128.88v-8.82h29l12.78,14L157.5,272.88Zm249.84-73.26H390.78L369,163.44v36.18H345.6L341.1,189H317l-4.5,10.62H299c-5.58,0-12.78-1.26-16.92-5.4-3.78-4.14-5.94-9.72-5.94-18.36.18-7.2,1.08-13.68,6.3-18.9,3.42-3.78,9.72-5.58,17.64-5.58h11v10.44h-11c-4.14,0-6.66.72-9,2.7-2.16,2.16-3.06,5.94-3.06,11,0,5.22.9,9,3.06,11.52,1.62,1.62,4.86,2.34,7.92,2.34h5.22l16.56-38h17.1l19.44,45.54V151.38h17.82l20.34,33.48V151.38h11.88v48.24Zm-137-48.24h-11.7v48.24h11.7V151.38Zm-24.48,2.16c-3.78-2.16-7.92-2.16-13.86-2.16H205.56v48.24H216.9V182.16h12.42c4.14,0,6.84.36,8.64,2,2,2.52,1.62,6.66,1.62,9.36v6.12h11.88v-9.54c0-4.14-.36-6.3-2.16-8.64a14.1,14.1,0,0,0-5.58-4.14A13.62,13.62,0,0,0,252,164.52c0-5.58-2.34-8.64-6.12-11Zm-48.6,36.18h-27V180h26.64v-9.9H170.28v-8.64h27V151.38h-38.7v48.24h38.7v-9.9Zm-47.34-38.34H131l-14.22,32.76L101.7,151.38H83.16v45.54l-19.8-45.54H46.26l-20.7,48.24H38L42.3,189H66.6l4.32,10.62H94.5v-37.8l16.92,37.8h9.9l16.92-37.8v37.8h11.7V151.38Zm187,27.36L329,159.66l-7.92,19.08ZM236.88,171c-1.8,1.08-3.42,1.08-5.76,1.08H216.9V161.46h14.22c2,0,4.32,0,5.76.72a4.83,4.83,0,0,1,2.16,4.5c0,2-.72,3.78-2.16,4.32ZM46.44,178.74l8.1-19.08,7.92,19.08ZM436.5,0H25.2V173.88l14-32H69.3l4.14,7.92v-7.92h35.1l7.92,17.1,7.74-17.1h112c5.22,0,9.72.9,13.14,3.78v-3.78h30.78v3.78c5-2.88,11.7-3.78,19.26-3.78H343.8l4.14,7.92v-7.92H380.7l4.86,7.92v-7.92h32v67.5H385.2l-6.3-10.26v10.26H338.58l-4.5-11h-9.9l-4.5,11H298.62a39.75,39.75,0,0,1-18.54-4.14v4.14H230V193.86c0-2.16-.36-2.52-1.8-2.52h-1.62v18H130V200.7l-3.42,8.64H106.2l-3.42-8.28v8.28H63.72l-4.14-11h-9.9l-4.5,11h-20V413.1H436.5V289.44c-4.32,2-10.62,3.06-16.74,3.06H389.7v-4.14c-3.42,2.7-9.72,4.14-15.48,4.14h-94.5V277c0-2.16-.36-2.16-2.16-2.16h-1.62V292.5H244.8V274.14c-5.22,2.52-11,2.52-16.2,2.52h-3.42V292.5h-38l-9-10.44-9.9,10.44h-61V224.82h62.1l8.82,10.44,9.72-10.44h41.76c4.86,0,12.78.72,16.2,4.14v-4.14h37.26c3.78,0,11,.72,15.84,4.14v-4.14h56.16V229c3.24-2.7,9-4.14,14.22-4.14h31.32V229a25.51,25.51,0,0,1,14.58-4.14H436.5V0Z"/></g></g></svg>