<svg xmlns="http://www.w3.org/2000/svg" viewBox="0 0 974.75 901.23"><defs><style>.cls-1{isolation:isolate;}.cls-2{opacity:0.83;}.cls-2,.cls-4,.cls-5,.cls-6{mix-blend-mode:overlay;}.cls-3{fill:#8febf3;}.cls-5{opacity:0.44;}.cls-6{opacity:0.36;}</style></defs><title>BG</title><g class="cls-1"><g id="Layer_2" data-name="Layer 2"><g id="OBJECTS"><g class="cls-2"><path class="cls-3" d="M469.25,46a36.5,36.5,0,0,1,25.81,62.31L239.13,364.19a36.5,36.5,0,0,1-51.62-51.62L443.44,56.64A36.38,36.38,0,0,1,469.25,46Z"/></g><g class="cls-4"><path class="cls-3" d="M931.79,108.73A36.5,36.5,0,0,1,957.6,171L701.67,427a36.5,36.5,0,1,1-51.62-51.62L906,119.42A36.39,36.39,0,0,1,931.79,108.73Z"/></g><g class="cls-4"><path class="cls-3" d="M838.2,0A36.5,36.5,0,0,1,864,62.31L608.09,318.24a36.5,36.5,0,1,1-51.62-51.62L812.39,10.69A36.38,36.38,0,0,1,838.2,0Z"/></g><g class="cls-5"><path class="cls-3" d="M292.43,528.73A36.5,36.5,0,0,1,318.24,591L62.31,847a36.5,36.5,0,1,1-51.62-51.62L266.62,539.42A36.42,36.42,0,0,1,292.43,528.73Z"/></g><g class="cls-4"><path class="cls-3" d="M938.25,572.31a36.5,36.5,0,0,1,25.81,62.3L708.13,890.54a36.5,36.5,0,1,1-51.62-51.62L912.44,583A36.38,36.38,0,0,1,938.25,572.31Z"/></g><g class="cls-6"><path class="cls-3" d="M915.05,306.64A36.5,36.5,0,0,1,940.86,369L684.93,624.88a36.5,36.5,0,0,1-51.62-51.62L889.24,317.33A36.38,36.38,0,0,1,915.05,306.64Z"/></g></g></g></g></svg>