<svg xmlns="http://www.w3.org/2000/svg" viewBox="0 0 478.83 211.39"><defs><style>.cls-1{fill:#231f20;}.cls-2{fill:#d83868;}.cls-3{fill:#b11116;}.cls-4{fill:#d93b2b;}.cls-5{fill:#9e0b0f;}.cls-6{fill:#c4161c;}</style></defs><title>Bkash Logo</title><g id="Layer_2" data-name="Layer 2"><g id="Layer_1-2" data-name="Layer 1"><path class="cls-1" d="M4,91.14A30.69,30.69,0,0,0,3.23,84,8.87,8.87,0,0,0,0,78.83l13-2v38.4a.55.55,0,0,0,.62.62c.24,0,.82-.52,1.71-1.55A32.55,32.55,0,0,1,18.82,111,28.18,28.18,0,0,1,24,107.65a14.59,14.59,0,0,1,6.78-1.55A15.76,15.76,0,0,1,40,108.75a19.64,19.64,0,0,1,6.06,6.77,32.77,32.77,0,0,1,3.3,9.12,48.09,48.09,0,0,1,1,9.79,44.14,44.14,0,0,1-1.52,11.7,29.3,29.3,0,0,1-4.64,9.74,22.26,22.26,0,0,1-8,6.64A25.28,25.28,0,0,1,24.71,165a42,42,0,0,1-5.37-.31c-1.63-.2-3.23-.43-4.82-.67s-3.25-.48-5-.68A50.11,50.11,0,0,0,3.61,163q.2-7.75.31-15.45T4,132.12Zm35.8,37.49a29.09,29.09,0,0,0-2.44-7.45,15.19,15.19,0,0,0-4.4-5.42,10.5,10.5,0,0,0-6.53-2.1,11.3,11.3,0,0,0-9.95,5.12Q13,123.9,13,132.76v9.49a63.13,63.13,0,0,0,.37,7A16.11,16.11,0,0,0,15,155.06,9.78,9.78,0,0,0,18.75,159a12.93,12.93,0,0,0,6.72,1.48,12.22,12.22,0,0,0,7.63-2.27,15.41,15.41,0,0,0,4.65-5.8,27.58,27.58,0,0,0,2.26-7.7,56.49,56.49,0,0,0,.6-8A42.74,42.74,0,0,0,39.82,128.63Z"/><path class="cls-1" d="M65.41,100.71q0-4.17-.31-8.53a15.62,15.62,0,0,0-2.37-7.55h16.4a15.58,15.58,0,0,0-2.37,7.54q-.32,4.35-.31,8.52V119.8A11.1,11.1,0,0,0,81,117.71a43.5,43.5,0,0,0,4.87-4.16c1.67-1.64,3.31-3.41,4.94-5.33s3.21-3.78,4.75-5.58q5-5.88,7.92-9.68t2.92-6V85.61a3.31,3.31,0,0,0-.12-1h15.11q-4.26,3.81-8,7a86.43,86.43,0,0,0-7.73,7.59L86.8,119.8,107,148.92q2.44,3.57,5.36,7.19t5.73,6.83H105.33a3.7,3.7,0,0,1-2.68-.93,13.28,13.28,0,0,1-2-2.4L78.77,126.2a12.6,12.6,0,0,0-.92-1.29c-.37-.45-.67-.68-.91-.68a.4.4,0,0,0-.43.37,4.52,4.52,0,0,0-.06.74v21.5q0,4.17.31,8.54a15.66,15.66,0,0,0,2.37,7.56H62.73a15.59,15.59,0,0,0,2.37-7.56q.32-4.35.31-8.52Z"/><path class="cls-1" d="M155.13,163.75a38.52,38.52,0,0,1-1-5.53c-.13-1.39-.43-2.08-.91-2.08a.74.74,0,0,0-.49.12l-.24.24c-.82,1.15-1.62,2.24-2.39,3.26a13.34,13.34,0,0,1-2.76,2.7,12.27,12.27,0,0,1-3.79,1.84,18.69,18.69,0,0,1-5.4.68,17,17,0,0,1-10.77-3.44Q123,158.09,123,151.33a10.91,10.91,0,0,1,2.25-7,23.24,23.24,0,0,1,5.62-5.1,46.45,46.45,0,0,1,7.21-3.87q3.85-1.66,6.91-3.14c1.71-.83,3.13-1.52,4.27-2.1a8.74,8.74,0,0,0,2.69-2,6.07,6.07,0,0,0,1.34-2.84,23.31,23.31,0,0,0,.37-4.7,13.71,13.71,0,0,0-2.07-7.71q-2.07-3.16-7.43-3.16c-2.93,0-5,.62-6.09,1.84a13.51,13.51,0,0,0-2.62,4.06,32.51,32.51,0,0,1-2,4c-.74,1.23-2.07,1.84-4,1.84a4.87,4.87,0,0,1-3.3-1,4.06,4.06,0,0,1-1.21-3.26,7.25,7.25,0,0,1,2.07-5.22,15.68,15.68,0,0,1,5.24-3.5,28.39,28.39,0,0,1,7-1.9,53.08,53.08,0,0,1,7.38-.55,42.25,42.25,0,0,1,6.21.43,16.66,16.66,0,0,1,5.11,1.54,8.76,8.76,0,0,1,3.46,3.08,8.9,8.9,0,0,1,1.28,4.93v27.09q0,5.54.3,10.77A16.51,16.51,0,0,0,166,163Zm-19.33-7.87a10.4,10.4,0,0,0,6.79,2.15,9.59,9.59,0,0,0,4.78-1.16,11.12,11.12,0,0,0,3.48-3.06,13.1,13.1,0,0,0,2.09-4.35,19.3,19.3,0,0,0,.67-5V132.06L147,135.37c-2.29,1.14-4.29,2.19-6,3.12a25.77,25.77,0,0,0-4.34,2.94,9.81,9.81,0,0,0-2.63,3.44,10.6,10.6,0,0,0-.86,4.46C133.17,152.27,134,154.46,135.8,155.88Z"/><path class="cls-1" d="M185.93,123.46a20.52,20.52,0,0,0,4.69,4.38,56.54,56.54,0,0,0,6.1,3.57,38.35,38.35,0,0,1,6.09,3.81,21,21,0,0,1,4.69,5,12.59,12.59,0,0,1,1.89,7.14,15.08,15.08,0,0,1-1.89,7.7,17.4,17.4,0,0,1-5,5.49,22.66,22.66,0,0,1-7,3.32,27.87,27.87,0,0,1-7.75,1.11,33.64,33.64,0,0,1-6.9-.68,40.91,40.91,0,0,1-6.66-2,4.79,4.79,0,0,1-1.52-.86,2.47,2.47,0,0,1-.55-1.85,41,41,0,0,1,.24-4.43c.16-1.48.29-3,.37-4.56,1,1.55,1.91,2.93,2.81,4.16a14.59,14.59,0,0,0,3,3.12,12.59,12.59,0,0,0,3.85,2,17.13,17.13,0,0,0,5.2.68c3.67,0,6.5-.85,8.5-2.58s3-4.35,3-7.88a10.6,10.6,0,0,0-1.76-6.21,18.15,18.15,0,0,0-4.45-4.42,50.29,50.29,0,0,0-5.85-3.58,35.44,35.44,0,0,1-5.85-3.81,18.57,18.57,0,0,1-4.44-5.17,14.75,14.75,0,0,1-1.77-7.57c0-4.67,1.64-8,4.93-10.08s7.82-3.08,13.58-3.08a35.4,35.4,0,0,1,5.55.43c1.83.29,3.67.64,5.54,1a6.34,6.34,0,0,0,.91.31.78.78,0,0,1,.67.8c0,1.15,0,2.51-.06,4.07s-.1,3-.18,4.3q-1.83-2.22-3.23-3.64a12.62,12.62,0,0,0-2.87-2.22,10.13,10.13,0,0,0-3-1.11,19.84,19.84,0,0,0-3.66-.31,11.53,11.53,0,0,0-6.34,1.79,6.28,6.28,0,0,0-2.81,5.72A9.9,9.9,0,0,0,185.93,123.46Z"/><path class="cls-1" d="M262.35,149.65c0,2.3.08,4.65.24,7.08a14.67,14.67,0,0,0,1.71,6.21H253.36V129.16a58.34,58.34,0,0,0-.31-5.91,15.41,15.41,0,0,0-1.48-5.31,10.09,10.09,0,0,0-3.31-3.82,10.22,10.22,0,0,0-5.84-1.48,9.61,9.61,0,0,0-9.4,5.43,17,17,0,0,0-1.73,5.55,45.43,45.43,0,0,0-.42,6.16v19.84q0,3.45.25,7.09a12.34,12.34,0,0,0,2,6.23H219.68a12.63,12.63,0,0,0,1.95-6.21q.24-3.63.24-7.07V91.13a66.25,66.25,0,0,0-.36-7.13,7.16,7.16,0,0,0-2.81-5.17l12.17-2v34.77c0,.49,0,.94,0,1.35s.15.61.36.61.71-.39,1.41-1.17a18.93,18.93,0,0,1,3-2.57,22.35,22.35,0,0,1,4.85-2.58,18.13,18.13,0,0,1,6.82-1.17q7,0,11,3.69t4,12.3Z"/><polygon class="cls-2" points="250.67 0 354.12 13.49 329.58 99.36 250.67 0"/><path class="cls-2" d="M357.79,13.9l76.88,102.22-88.73,42.53-11-45s-2.86-16.35,1.63-29Z"/><polygon class="cls-3" points="437.53 115.31 408.9 75.23 457.15 67.06 437.53 115.31"/><polygon class="cls-3" points="460.83 67.06 478.82 86.28 452.66 86.28 460.83 67.06"/><polygon class="cls-4" points="361.48 155.79 434.67 119.4 432.21 127.98 361.48 155.79"/><polygon class="cls-5" points="329.58 108.36 298.92 211.4 345.53 174.59 329.58 108.36"/><polygon class="cls-3" points="290.74 55.2 260.89 17.17 249.44 17.58 290.74 55.2"/><path class="cls-6" d="M334.25,108c.26,3.44.65,5.68.65,5.68l11,45,88.73-42.53-.82-1.08Z"/></g></g></svg>