<svg xmlns="http://www.w3.org/2000/svg" xmlns:xlink="http://www.w3.org/1999/xlink" viewBox="0 0 258.8 157.08"><defs><style>.cls-1{fill:#5dd8db;}.cls-2{fill:url(#linear-gradient);}.cls-3{fill:url(#linear-gradient-2);}.cls-4{fill:#f2eada;}.cls-5{fill:url(#linear-gradient-3);}.cls-6{fill:#f1deb4;opacity:0.35;isolation:isolate;}.cls-7{fill:url(#linear-gradient-4);}.cls-8{fill:url(#linear-gradient-5);}.cls-9{fill:url(#linear-gradient-6);}.cls-10{fill:url(#linear-gradient-7);}.cls-11{fill:url(#linear-gradient-8);}.cls-12{fill:url(#linear-gradient-9);}.cls-13{fill:url(#linear-gradient-10);}.cls-14{fill:url(#linear-gradient-11);}.cls-15{fill:url(#linear-gradient-12);}.cls-16{fill:url(#linear-gradient-13);}.cls-17{fill:url(#linear-gradient-14);}.cls-18{fill:url(#linear-gradient-15);}</style><linearGradient id="linear-gradient" x1="106.05" y1="111.66" x2="107.45" y2="172.88" gradientTransform="translate(0 -40)" gradientUnits="userSpaceOnUse"><stop offset="0" stop-color="#ee806c"/><stop offset="1" stop-color="#b72027"/></linearGradient><linearGradient id="linear-gradient-2" x1="33.25" y1="101.55" x2="66.17" y2="101.55" gradientTransform="translate(0 -40)" gradientUnits="userSpaceOnUse"><stop offset="0" stop-color="#fff"/><stop offset="1" stop-color="#fff1e4"/></linearGradient><linearGradient id="linear-gradient-3" x1="59.32" y1="108.02" x2="89.54" y2="108.02" xlink:href="#linear-gradient-2"/><linearGradient id="linear-gradient-4" x1="86.72" y1="82.53" x2="112.33" y2="82.53" xlink:href="#linear-gradient-2"/><linearGradient id="linear-gradient-5" x1="133.98" y1="91.29" x2="149.5" y2="91.29" xlink:href="#linear-gradient-2"/><linearGradient id="linear-gradient-6" x1="135.68" y1="121.32" x2="144.9" y2="121.32" xlink:href="#linear-gradient-2"/><linearGradient id="linear-gradient-7" x1="163.12" y1="112.44" x2="173.65" y2="112.44" xlink:href="#linear-gradient-2"/><linearGradient id="linear-gradient-8" x1="115.58" y1="114.83" x2="117.82" y2="130.85" xlink:href="#linear-gradient"/><linearGradient id="linear-gradient-9" x1="97.85" y1="111.94" x2="95.67" y2="124.18" xlink:href="#linear-gradient"/><linearGradient id="linear-gradient-10" x1="88.43" y1="125.17" x2="103.06" y2="125.17" gradientTransform="translate(0 -40)" gradientUnits="userSpaceOnUse"><stop offset="0" stop-color="#b1b4b5"/><stop offset="0.53" stop-color="#545554"/><stop offset="1" stop-color="#bbb"/></linearGradient><linearGradient id="linear-gradient-11" x1="88.59" y1="122.1" x2="103.09" y2="122.1" gradientTransform="translate(0 -40)" gradientUnits="userSpaceOnUse"><stop offset="0" stop-color="#797a7d"/><stop offset="0.53" stop-color="#242424"/><stop offset="1" stop-color="#727275"/></linearGradient><linearGradient id="linear-gradient-12" x1="108.39" y1="86.07" x2="133.2" y2="86.07" xlink:href="#linear-gradient-2"/><linearGradient id="linear-gradient-13" x1="150.03" y1="117.13" x2="163.12" y2="117.13" xlink:href="#linear-gradient-2"/><linearGradient id="linear-gradient-14" x1="90.6" y1="117.83" x2="102.1" y2="117.83" xlink:href="#linear-gradient-10"/><linearGradient id="linear-gradient-15" x1="92.2" y1="112.05" x2="101.89" y2="112.05" gradientTransform="translate(0 -40)" gradientUnits="userSpaceOnUse"><stop offset="0" stop-color="#b1b4b5"/><stop offset="1" stop-color="#545554"/></linearGradient></defs><title>Bridges</title><g id="Layer_2" data-name="Layer 2"><g id="Layer_1-2" data-name="Layer 1"><polygon class="cls-1" points="0 0 0 157.08 189.44 157.08 258.8 0 0 0"/><path class="cls-2" d="M33.36,62.63a12.74,12.74,0,0,0-5.54,8.31c-.87,5.54-1.91,18.87-1.54,23s.82,4.15,3,5.66,23,9.21,35.21,11a147.88,147.88,0,0,1,27.22,7.17c3.49,1.17,8.15,1.17,10.07,1.68s26.92,6.63,35.51,7.46,16.8-.54,29-4.76,18.18-10.89,18.9-11.84a8.87,8.87,0,0,0,1.3-5.41V78.34s.86-6.43-8.15-9.41c0,0-5.13-1.43-7.17-.85s-23.61,10.11-23.61,10.11a11.66,11.66,0,0,0-4.84,1.25C141,80.6,133.47,79,133.47,79s-.81-1.31-3.36-1S123.89,80,117.55,79s-6.15-3.72-8.5-4.3-3.49,1.3-9.49-.18S82.18,72.2,80.41,72.2,33.36,62.63,33.36,62.63Z"/><path class="cls-3" d="M58.66,70.09c.23-2.56-1-5.16,0-7.84s1.36-3.25,0-4-5,2.84-8.6,1.86-5.58-5.47-9.84-6.1A8,8,0,0,0,34,55.54a.17.17,0,0,1-.23,0,.17.17,0,0,1,0-.18c.23-.81.73-2.23,1.61-2.46,1.16-.35,8.53.17,11.64,2.17s3,1.37,3,1.37-3.2-1.81-3.4-3-.29-3.5,1.25-1.38,1.68,4.24,2.32,4,2.94-3.61,3.6-3.49.32,2.06-1,3.17-1.6,1.85-.43,1.52,4.09-2.93,6.09-2.93a15.23,15.23,0,0,1,3.09.26,16.88,16.88,0,0,0,3.68.49h1c-.87-1.24-3.49-4.58-5.93-4.82-3.07-.29-4.85,1.17-6.82-.08S49.14,45.09,44.75,49a5,5,0,0,1-3.27,2.23c-2,.18-3.83-1.54-5.95.61s-2.11,3.95-2.19,6.27.52,10.95.7,11.46.87.94,2.14,1.17,5.56,1.83,6.57,2.85,2.76,2.47,4.76,2.18,2.53-1.32,4.27-1.57a3.83,3.83,0,0,1,2.32-.82C56.28,73.49,58.43,72.67,58.66,70.09Z"/><path class="cls-4" d="M66.16,55.19h-1a17.07,17.07,0,0,1-3.68-.56,15.89,15.89,0,0,0-3.08-.27c-2,0-5,2.62-6.09,2.94s-.88-.41.46-1.54,1.68-3.13,1-3.17-2.94,3.26-3.6,3.56-.8-1.79-2.33-4-1.45.23-1.25,1.37,3.34,2.93,3.34,2.93.08.64-3-1.36S36.53,52.6,35.28,53c-.87.24-1.37,1.69-1.6,2.47,0,.15.15.29.27.18a7.87,7.87,0,0,1,6.18-1.54c4.3.61,6.24,5.14,9.87,6.1s7.26-2.62,8.6-1.86,1,1.36,0,4,.23,5.25,0,7.83-2.33,3.4-4.66,3.5a4.18,4.18,0,0,0-2.33.81h.21c1.91-.17,3.62.24,5.41-.37a14.57,14.57,0,0,0,3.91-2.53l6.51-4.84L66.4,55.76A2,2,0,0,0,66.16,55.19Z"/><path class="cls-5" d="M89.53,68c.2-3.49-5-3.68-5-3.68a5.27,5.27,0,0,1,2.6-.69c1.75,0,2.51-.45,2.33-3.17-.08-1.69-2.61-3-4.53-3.69h-.31c-3.37-.3-2.78,1-4.8-.78a10.17,10.17,0,0,0-8-3.09c-4,.09-3.24,2.79-5.82,3.17s-4.8,1.16-6,4.15-1,14.28,1.43,17.86a44.47,44.47,0,0,1,6.73,1.59c2.24.88,7.53,3.83,10,3.43a5.8,5.8,0,0,0,2.06-.75c2.21-2.33,4.86-5.52,5.52-7.64C86.66,71.69,89.32,71.58,89.53,68Z"/><path class="cls-4" d="M91,60c-2.33-2.26-2.93-2.9-6-3.19,1.91.72,4.44,2,4.53,3.69.12,2.73-.62,3.1-2.33,3.16a4.93,4.93,0,0,0-2.62.7s5.17.15,5,3.69-2.88,3.66-3.8,6.67c-.64,2.12-3.32,5.38-5.52,7.64A19.75,19.75,0,0,0,84.41,79,47.48,47.48,0,0,1,89.32,75s1.31-5.17,2.18-7.54S93.33,62.34,91,60Z"/><path class="cls-6" d="M82.79,62.78A9.06,9.06,0,0,0,79,64c-1.46,1-2.18-1.17-4.3-1.33A10,10,0,0,1,69.52,61c-1.59-1-3.07-1.85-2.23-2.55s3.91,1.47,4.41,2,2.7,1.95,2.06.61S71,57.29,71.53,56.84s3,4.07,3.36,4.28,4.1-1.63,4.1-1-2.64.93-2.53,1.59,1,1.58,1.86.94S87.2,60.57,82.79,62.78Z"/><path class="cls-7" d="M104.31,51.68c3-4.15,4-4.85,3.28-8.28s-.87-5.34.78-6.53c1.43-1,4.16-2.12,3.95-4.22a4,4,0,0,0-2.7-.4,8.87,8.87,0,0,1-6.5-.81c-1.8-.81-2.93-2-5.38-1.22S94.55,32,91.42,32.81s-5.11,1.79-4.66,3.89c0,0,1.32,5.4,1.69,8.39s-.12,4.59,1,5.6,4.88,1.61,6,3.11a4.51,4.51,0,0,0,3,1.31A8.69,8.69,0,0,0,104.31,51.68Z"/><path class="cls-4" d="M112.32,32.65c.21,2.12-2.55,3.23-3.95,4.22-1.65,1.17-1.51,3.11-.78,6.53s-.32,4.09-3.28,8.28a8.6,8.6,0,0,1-5.82,3.43,8.73,8.73,0,0,0,5.42-1c3-1.75,4.45-2.24,7.38-2.08L114.21,35A5,5,0,0,0,112.32,32.65Z"/><path class="cls-6" d="M108,34s1.45.32,1.48,1-3,2.09-3.49,3.14-5.15-.64-5.73-1.22a7.59,7.59,0,0,0-5.16-2.1c-3-.14-5.41,1.77-6.53,1.4A1.13,1.13,0,0,1,88.79,34c1.62-.25,5.61-.48,6.8-1.34s3.77-2.17,4.29-1.61.32,3.49,1.69,3.21,2.85-2.18,3.5-1.6-1.25,2.12-.15,2A18.29,18.29,0,0,0,108,34Z"/><path class="cls-4" d="M139.16,38.47a10.75,10.75,0,0,1,8.45-1.75,3.38,3.38,0,0,0-1.32-.8c-4.08-1.38-12.91,3.21-14.54,10.48-1.25,5.66,2,15.45,6.65,18.7-3.57-5.64-4.3-14-4.42-17C133.89,44.36,135.11,41.69,139.16,38.47Z"/><path class="cls-8" d="M147.61,36.7a10.75,10.75,0,0,0-8.45,1.74c-4,3.22-5.29,5.9-5.18,9.67.1,3,.85,11.32,4.42,17a4.94,4.94,0,0,0,4.18.93s5.4-1.07,6.28-10.87C149.61,46.6,150.2,39.3,147.61,36.7Z"/><path class="cls-4" d="M138.75,73.71a6.4,6.4,0,0,1,5-1,2,2,0,0,0-.78-.48c-2.42-.81-7.67,1.91-8.63,6.23-.74,3.36,1.21,9.17,3.94,11.1-2.11-3.34-2.55-8.3-2.62-10.07C135.63,77.21,136.35,75.62,138.75,73.71Z"/><path class="cls-9" d="M143.77,72.66a6.4,6.4,0,0,0-5,1c-2.4,1.91-3.14,3.5-3.07,5.74.06,1.76.51,6.72,2.62,10.07a2.93,2.93,0,0,0,2.49.55s3.21-.63,3.72-6.45C145,78.53,145.31,74.21,143.77,72.66Z"/><path class="cls-4" d="M167,61.43c-1.48.24-3.6.15-4.34,1.46s-1.94,10.34-.95,13.67c.46,1.61,1.05,3.69,1.75,5.58a87,87,0,0,1,.25-18c.37-2,3.25-1.65,4.07-2.18a49.25,49.25,0,0,0,4.41-3.38,1.17,1.17,0,0,1,1.42-.19,1.13,1.13,0,0,0-.2-.73C172.66,57,168.52,61.2,167,61.43Z"/><path class="cls-10" d="M172.21,58.59c-1.17,1-3.58,2.82-4.42,3.37s-3.72.17-4.07,2.17a87.94,87.94,0,0,0-.26,18c.76,2,1.65,3.77,2.73,4.29,2.06,1,4.79-1.39,4.76-4.1,0,0,1.37-13,1.63-14.72.23-1.48,1.22-7.14,1-9.2A1.17,1.17,0,0,0,172.21,58.59Z"/><path class="cls-11" d="M109,76.6A18.54,18.54,0,0,0,120.2,81c6.7.14,8.38-2.23,9.31-1.36s-.7,7.14-3.91,10.85-7.41,3.72-11.39,2.51-11.65-4.82-10.27-7.33,3.13-3,3.71-6.3S109,76.6,109,76.6Z"/><path class="cls-12" d="M92.43,76a66.07,66.07,0,0,1-4.9,6c-1.17,1-1.89,1.36-.82,2.72s13.19,6,14.93,4.66,0-4.78,1.31-6.59,4.59-5.82,3.39-6.85-5.57,1.62-9.32.61S93.68,75.14,92.43,76Z"/><path class="cls-13" d="M103.06,82.92l-.26,4.82s-1.07,1.46-4.66,1.32-9.59-2.91-9.76-3.35l.17-4.44Z"/><path class="cls-14" d="M103.06,82.92c-.15,1.37-3.49,2.1-7.52,1.63s-7.11-1.91-7-3.28,3.5-2.09,7.53-1.62S103.24,81.59,103.06,82.92Z"/><path class="cls-15" d="M123.88,47.55c-1.17-1.62-4.85-2.33-8.62-3.62s-2.22-2.39-1.77-2.06,1.53.6,5.17,2.06,8.65,1.79,11.64.17c1.77-1,2.5-3.28,2.82-5.05a2.84,2.84,0,0,0-2.21-2c-1.71-.29-3.77.7-4.93-.55s-4.07-2.23-7-2.41a6.5,6.5,0,0,0-6,2.1c-1.94,1.77-3.24.69-4.18,2.41s-.32,5.82.47,8.07.08,4.32.23,5.43.9,2.72,5.83,4.78a18,18,0,0,0,5.82,1.34C128.15,56.18,124.87,48.87,123.88,47.55Z"/><path class="cls-4" d="M130.4,44.15c-3,1.62-8.05,1.27-11.65-.18s-4.73-1.74-5.17-2.06-2,.76,1.77,2.06,7.41,2,8.63,3.63c1,1.31,4.24,8.63-2.78,10.61a15.32,15.32,0,0,0,7.25-1.34c3.31-1.54,3.35-5.76,3.35-5.76a46.72,46.72,0,0,1,1.36-8.47,5.89,5.89,0,0,0,.11-3.5C132.85,40.82,132.13,43.14,130.4,44.15Z"/><path class="cls-6" d="M113,38.62s2.71-.35,3.21,0a2.24,2.24,0,0,0,2.41-.18c.52-.61,2.43-2.09,2.7-1.92s-2.18,3-1.44,3.72a2.61,2.61,0,0,0,3.22,0c.88-.78,2.33-2.18,2.33-1.83s-1.65,3.65.67,3.49,4.47-1.24,4.33-.78-3.29,2.06-3.5,2.79-2.49-.9-3.71-1.91-3.31.19-3.63.54-1.86-.78-2.07-1.77-3.68-1.74-4.26-1.59S112.71,38.66,113,38.62Z"/><path class="cls-4" d="M151.06,68.93c.38-1.69,6.57-2.93,7.7-3a10,10,0,0,0,3.08-1.32,2.25,2.25,0,0,0-1.16-.29,6.9,6.9,0,0,0-3.5,1.09c-.51.23-1.16.23-2.86.76a26.12,26.12,0,0,1-3.5.7,2.44,2.44,0,0,0-1.53,1l-2.18,12.81c0,1,1.77,3.26,3.2,5A70,70,0,0,1,151.06,68.93Z"/><path class="cls-16" d="M161.84,64.58a10.34,10.34,0,0,1-3.05,1.32c-1.16.1-7.31,1.38-7.7,3a72.14,72.14,0,0,0-.8,16.67c1,1.16,1.85,2.14,1.85,2.14A5.74,5.74,0,0,0,157,89.66c3-.37,3.71-6.39,3.71-6.39s1.25-8,2.26-13.65C163.52,66.28,162.62,65,161.84,64.58Z"/><path class="cls-17" d="M92.2,71.72l-1.6,9.17a6.56,6.56,0,0,0,5.41,3,9.75,9.75,0,0,0,6.09-1.44l-.2-10.06Z"/><path class="cls-18" d="M101.73,72.94a.8.8,0,0,0,0-.91c-.41-.55-1.55-1.44-4.66-1.71-3.5-.29-4.53.73-4.82,1.16a.62.62,0,0,0,0,.59c.31.43,1.32,1.16,4.76,1.63C100.12,74.13,101.28,73.43,101.73,72.94Z"/></g></g></svg>