<svg xmlns="http://www.w3.org/2000/svg" xmlns:xlink="http://www.w3.org/1999/xlink" viewBox="0 0 353.43 251.08"><defs><style>.cls-1{fill:none;}.cls-2{fill:#231f20;}.cls-3{fill:#ed1d24;}.cls-4{fill:#dfe0e4;}.cls-5{clip-path:url(#clip-path);}.cls-6{fill:url(#linear-gradient);}</style><clipPath id="clip-path"><path class="cls-1" d="M230.24,136.76l-.45-.23.45.23m-144-60.89c10.19,14,21.08,29.42,31,44.5,56.23-11.62,107.22,13.44,112.53,16.16-39.07-20.37-66.89-45.17-86.36-68a225,225,0,0,0-57.17,7.37"/></clipPath><linearGradient id="linear-gradient" x1="-139.7" y1="514" x2="-136.72" y2="514" gradientTransform="matrix(48.21, 0, 0, -48.21, 6822.1, 24884.83)" gradientUnits="userSpaceOnUse"><stop offset="0" stop-color="#fff"/><stop offset="0.05" stop-color="#f9f9f9"/><stop offset="0.7" stop-color="#a2a4a6"/><stop offset="1" stop-color="#808285"/></linearGradient></defs><title>City bank</title><g id="Layer_2" data-name="Layer 2"><g id="Layer_1-2" data-name="Layer 1"><path class="cls-2" d="M65,245.23V230.81h2.11v2a5,5,0,0,1,1.79-1.7,4.87,4.87,0,0,1,2.53-.65,4.78,4.78,0,0,1,2.61.66A3.86,3.86,0,0,1,75.48,233a5.14,5.14,0,0,1,4.41-2.52,4.34,4.34,0,0,1,3.26,1.19,5.15,5.15,0,0,1,1.14,3.65v9.89H81.91v-9.07a6.63,6.63,0,0,0-.25-2.11,2,2,0,0,0-.86-1,2.7,2.7,0,0,0-1.45-.39,3.42,3.42,0,0,0-2.52,1,4.55,4.55,0,0,0-1,3.24v8.36H73.46v-9.35a4,4,0,0,0-.61-2.44,2.21,2.21,0,0,0-1.93-.82,3.69,3.69,0,0,0-1.9.54,3.2,3.2,0,0,0-1.24,1.6,9.22,9.22,0,0,0-.39,3v7.47Z"/><path class="cls-2" d="M97.1,243.42a8.15,8.15,0,0,1-2.56,1.65,7.49,7.49,0,0,1-2.67.47,5.23,5.23,0,0,1-3.64-1.15,3.87,3.87,0,0,1-1.27-3,4,4,0,0,1,.5-1.93,3.68,3.68,0,0,1,1.24-1.41,5.8,5.8,0,0,1,1.75-.79,20.41,20.41,0,0,1,2.17-.37,21.2,21.2,0,0,0,4.32-.85c0-.32,0-.54,0-.63a2.64,2.64,0,0,0-.69-2.08,4.1,4.1,0,0,0-2.78-.82,4.24,4.24,0,0,0-2.53.6,3.51,3.51,0,0,0-1.2,2.1l-2.41-.32a5.84,5.84,0,0,1,1.07-2.47A4.66,4.66,0,0,1,90.56,231a9.64,9.64,0,0,1,3.23-.51,8.58,8.58,0,0,1,3,.43,4,4,0,0,1,1.67,1.1,3.59,3.59,0,0,1,.74,1.65,12.37,12.37,0,0,1,.14,2.25v3.26a39.28,39.28,0,0,0,.14,4.31,5.67,5.67,0,0,0,.61,1.73H97.58a5.34,5.34,0,0,1-.48-1.81M97,238a18.49,18.49,0,0,1-4,.92,9.25,9.25,0,0,0-2.13.49,2.13,2.13,0,0,0-.56,3.6,3.21,3.21,0,0,0,2.17.65A5,5,0,0,0,95,243a3.75,3.75,0,0,0,1.61-1.69,5.86,5.86,0,0,0,.38-2.45Z"/><polygon class="cls-2" points="103.03 245.23 103.03 225.32 105.44 225.32 105.44 236.65 111.19 230.81 114.31 230.81 108.83 236.18 114.83 245.23 111.87 245.23 107.13 237.85 105.44 239.53 105.44 245.23 103.03 245.23"/><path class="cls-2" d="M116.71,225.32h2.4v2.79h-2.4Zm0,5.49h2.4v14.42h-2.4Z"/><path class="cls-2" d="M122.81,245.23V230.81H125v2a5,5,0,0,1,4.48-2.35,5.92,5.92,0,0,1,2.36.47,4,4,0,0,1,1.61,1.23,4.61,4.61,0,0,1,.74,1.81,14.29,14.29,0,0,1,.12,2.37v8.85h-2.38v-8.75a6.83,6.83,0,0,0-.27-2.23,2.45,2.45,0,0,0-1-1.18,3.17,3.17,0,0,0-1.7-.45,3.89,3.89,0,0,0-2.65,1q-1.11,1-1.11,3.75v7.86Z"/><path class="cls-2" d="M137.57,246.43l2.33.31a2.4,2.4,0,0,0,.84,1.62,3.93,3.93,0,0,0,2.44.68,4.35,4.35,0,0,0,2.61-.67,3.22,3.22,0,0,0,1.24-1.89,16.84,16.84,0,0,0,.19-3.15,5,5,0,0,1-4,1.9,5.32,5.32,0,0,1-4.55-2.14,8.24,8.24,0,0,1-1.61-5.13,9.74,9.74,0,0,1,.72-3.82,6,6,0,0,1,2.16-2.68,5.68,5.68,0,0,1,3.3-1,5.11,5.11,0,0,1,4.17,2.08v-1.77h2.18v12.47a11.42,11.42,0,0,1-.7,4.75,4.93,4.93,0,0,1-2.13,2.23,7.41,7.41,0,0,1-3.63.82,6.61,6.61,0,0,1-4.08-1.17,3.87,3.87,0,0,1-1.51-3.48m2-8.65a6.23,6.23,0,0,0,1.11,4.12,3.58,3.58,0,0,0,2.81,1.3,3.67,3.67,0,0,0,2.83-1.29,6.15,6.15,0,0,0,1.13-4.06,5.86,5.86,0,0,0-1.17-4,3.6,3.6,0,0,0-2.81-1.35,3.52,3.52,0,0,0-2.77,1.33,5.77,5.77,0,0,0-1.13,3.92"/><path class="cls-2" d="M159.87,240.85l2.38-.31a3.4,3.4,0,0,0,1.13,2.23,4.67,4.67,0,0,0,5,.09,2.08,2.08,0,0,0,.79-1.61,1.48,1.48,0,0,0-.7-1.3,10.06,10.06,0,0,0-2.47-.84,19.94,19.94,0,0,1-3.66-1.17,3.27,3.27,0,0,1-1.57-1.37,3.59,3.59,0,0,1-.55-1.93,3.73,3.73,0,0,1,.46-1.79,4.09,4.09,0,0,1,1.17-1.35,5.33,5.33,0,0,1,1.53-.71,7.11,7.11,0,0,1,2.1-.29,8.13,8.13,0,0,1,2.94.49,4.09,4.09,0,0,1,1.86,1.31,4.94,4.94,0,0,1,.84,2.23l-2.36.3a2.52,2.52,0,0,0-.92-1.71,3.33,3.33,0,0,0-2.16-.62,4,4,0,0,0-2.4.55,1.64,1.64,0,0,0-.7,1.3,1.28,1.28,0,0,0,.3.87,2.22,2.22,0,0,0,.92.65c.23.09,1,.31,2.13.63a29.17,29.17,0,0,1,3.56,1.13,3.72,3.72,0,0,1,1.58,1.27,3.63,3.63,0,0,1,.57,2.1,4.11,4.11,0,0,1-.7,2.29,4.35,4.35,0,0,1-2,1.66,7.16,7.16,0,0,1-3,.59,6.48,6.48,0,0,1-4.21-1.18,5.53,5.53,0,0,1-1.86-3.51"/><path class="cls-2" d="M184.24,240.59l2.46.32a6.2,6.2,0,0,1-2.17,3.42,6.56,6.56,0,0,1-4.05,1.21,6.43,6.43,0,0,1-4.94-1.94,7.75,7.75,0,0,1-1.83-5.45,8,8,0,0,1,1.86-5.64,6.14,6.14,0,0,1,4.77-2,6.06,6.06,0,0,1,4.64,2,7.89,7.89,0,0,1,1.8,5.52v.66H176.2a5.76,5.76,0,0,0,1.31,3.65,4,4,0,0,0,3,1.26,3.56,3.56,0,0,0,2.26-.7,4.74,4.74,0,0,0,1.5-2.26m-7.9-3.94h7.92a4.84,4.84,0,0,0-.9-2.73,3.65,3.65,0,0,0-3-1.42,3.77,3.77,0,0,0-2.78,1.12,4.44,4.44,0,0,0-1.24,3"/><path class="cls-2" d="M189.74,245.23V230.81h2.17v2a5.09,5.09,0,0,1,4.51-2.35,5.64,5.64,0,0,1,2.33.47,3.83,3.83,0,0,1,1.63,1.23,4.92,4.92,0,0,1,.73,1.81,14,14,0,0,1,.13,2.37v8.85h-2.38v-8.75a7.06,7.06,0,0,0-.28-2.23,2.3,2.3,0,0,0-1-1.18,3.13,3.13,0,0,0-1.68-.45,3.82,3.82,0,0,0-2.65,1c-.75.65-1.11,1.9-1.11,3.75v7.86Z"/><path class="cls-2" d="M204,240.85l2.38-.31a3.5,3.5,0,0,0,1.13,2.23,3.82,3.82,0,0,0,2.56.78,3.61,3.61,0,0,0,2.47-.69,2,2,0,0,0,.81-1.61,1.52,1.52,0,0,0-.7-1.3,10.41,10.41,0,0,0-2.47-.84,21.15,21.15,0,0,1-3.68-1.17,3.46,3.46,0,0,1-1.57-1.37,3.74,3.74,0,0,1-.52-1.93,3.81,3.81,0,0,1,.43-1.79A4.5,4.5,0,0,1,206,231.5a5.4,5.4,0,0,1,1.54-.71,7,7,0,0,1,2.08-.29,8.22,8.22,0,0,1,3,.49,4.06,4.06,0,0,1,1.85,1.31,5.18,5.18,0,0,1,.84,2.23l-2.35.3a2.61,2.61,0,0,0-.93-1.71,3.38,3.38,0,0,0-2.17-.62,3.93,3.93,0,0,0-2.38.55,1.61,1.61,0,0,0-.7,1.3,1.43,1.43,0,0,0,.27.87,2.36,2.36,0,0,0,.92.65c.25.09,1,.31,2.13.63a29.81,29.81,0,0,1,3.58,1.13,3.81,3.81,0,0,1,1.59,1.27,3.7,3.7,0,0,1,.56,2.1,4.27,4.27,0,0,1-.7,2.29,4.35,4.35,0,0,1-2,1.66,7.09,7.09,0,0,1-3,.59,6.56,6.56,0,0,1-4.23-1.18,5.63,5.63,0,0,1-1.86-3.51"/><path class="cls-2" d="M228.35,240.59l2.47.32a6.11,6.11,0,0,1-2.18,3.42,6.47,6.47,0,0,1-4.06,1.21,6.4,6.4,0,0,1-4.91-1.94,7.66,7.66,0,0,1-1.83-5.45,7.91,7.91,0,0,1,1.86-5.64,6.12,6.12,0,0,1,4.75-2,6,6,0,0,1,4.64,2,7.76,7.76,0,0,1,1.82,5.52,5.92,5.92,0,0,1,0,.66H220.33a5.6,5.6,0,0,0,1.32,3.65,3.9,3.9,0,0,0,3,1.26,3.62,3.62,0,0,0,2.26-.7,4.65,4.65,0,0,0,1.48-2.26m-7.88-3.94h7.9a4.56,4.56,0,0,0-.91-2.73,3.57,3.57,0,0,0-3-1.42,3.75,3.75,0,0,0-2.79,1.12,4.49,4.49,0,0,0-1.24,3"/><path class="cls-2" d="M240.6,238q0-4,2.17-5.93a6.56,6.56,0,0,1,4.47-1.59,6.3,6.3,0,0,1,4.77,1.95,7.51,7.51,0,0,1,1.85,5.37,9.73,9.73,0,0,1-.81,4.38,6.13,6.13,0,0,1-2.4,2.47,6.76,6.76,0,0,1-3.41.87,6.29,6.29,0,0,1-4.81-1.93A7.75,7.75,0,0,1,240.6,238m2.47,0a6.3,6.3,0,0,0,1.18,4.15,3.91,3.91,0,0,0,5.95,0,6.36,6.36,0,0,0,1.18-4.2,6,6,0,0,0-1.18-4.05,3.89,3.89,0,0,0-5.95,0,6.19,6.19,0,0,0-1.18,4.12"/><path class="cls-2" d="M257.26,245.23V232.7h-2.12v-1.89h2.12v-1.52a6.43,6.43,0,0,1,.25-2.15,3.16,3.16,0,0,1,1.22-1.54,4.44,4.44,0,0,1,2.45-.59,11.54,11.54,0,0,1,2.27.26l-.39,2.13a7.76,7.76,0,0,0-1.4-.13,2.07,2.07,0,0,0-1.56.48,2.52,2.52,0,0,0-.46,1.74v1.32h2.79v1.89h-2.79v12.53Z"/><path class="cls-2" d="M271.89,245.23V230.81H274v2a5.06,5.06,0,0,1,1.77-1.7,4.92,4.92,0,0,1,2.53-.65,4.74,4.74,0,0,1,2.61.66,3.73,3.73,0,0,1,1.45,1.86,5.09,5.09,0,0,1,4.39-2.52,4.37,4.37,0,0,1,3.28,1.19,5.06,5.06,0,0,1,1.13,3.65v9.89h-2.39v-9.07a6.75,6.75,0,0,0-.23-2.11,2.1,2.1,0,0,0-.86-1,2.7,2.7,0,0,0-1.45-.39,3.4,3.4,0,0,0-2.51,1,4.5,4.5,0,0,0-1,3.24v8.36h-2.4v-9.35a4.16,4.16,0,0,0-.59-2.44,2.22,2.22,0,0,0-1.92-.82,3.62,3.62,0,0,0-1.91.54,3.1,3.1,0,0,0-1.24,1.6,8.7,8.7,0,0,0-.39,3v7.47Z"/><path class="cls-2" d="M293.81,238q0-4,2.2-5.93a6.53,6.53,0,0,1,4.46-1.59,6.21,6.21,0,0,1,4.75,1.95,7.39,7.39,0,0,1,1.86,5.37,9.71,9.71,0,0,1-.82,4.38,5.87,5.87,0,0,1-2.37,2.47,6.85,6.85,0,0,1-3.42.87,6.33,6.33,0,0,1-4.82-1.93,7.85,7.85,0,0,1-1.84-5.59m2.49,0a6.25,6.25,0,0,0,1.18,4.15,3.81,3.81,0,0,0,3,1.37,3.69,3.69,0,0,0,2.94-1.38,6.3,6.3,0,0,0,1.21-4.2,6,6,0,0,0-1.21-4.05,3.72,3.72,0,0,0-2.94-1.39,3.79,3.79,0,0,0-3,1.38A6.14,6.14,0,0,0,296.3,238"/><path class="cls-2" d="M309.91,245.23V230.81h2.18v2a5.08,5.08,0,0,1,4.5-2.35A6,6,0,0,1,319,231a3.75,3.75,0,0,1,1.59,1.23,5,5,0,0,1,.76,1.81,17,17,0,0,1,.12,2.37v8.85H319v-8.75a6.23,6.23,0,0,0-.29-2.23,2.3,2.3,0,0,0-1-1.18,3.06,3.06,0,0,0-1.68-.45,3.84,3.84,0,0,0-2.65,1q-1.11,1-1.11,3.75v7.86Z"/><path class="cls-2" d="M334.85,240.59l2.46.32a6.17,6.17,0,0,1-2.15,3.42,6.64,6.64,0,0,1-4.07,1.21,6.37,6.37,0,0,1-4.91-1.94,7.62,7.62,0,0,1-1.84-5.45,8.09,8.09,0,0,1,1.84-5.64,6.19,6.19,0,0,1,4.79-2,6,6,0,0,1,4.62,2A7.89,7.89,0,0,1,337.4,238v.66H326.83a5.65,5.65,0,0,0,1.31,3.65,3.92,3.92,0,0,0,3,1.26,3.66,3.66,0,0,0,2.26-.7,4.8,4.8,0,0,0,1.48-2.26m-7.91-3.94h7.95a5.16,5.16,0,0,0-.93-2.73,3.59,3.59,0,0,0-3-1.42,3.69,3.69,0,0,0-2.78,1.12,4.47,4.47,0,0,0-1.28,3"/><path class="cls-2" d="M340.23,250.78l-.31-2.27a5.65,5.65,0,0,0,1.4.22,2.7,2.7,0,0,0,1.29-.26,2.42,2.42,0,0,0,.82-.77c.13-.25.38-.85.75-1.83,0-.13.11-.33.2-.59L339,230.81h2.56l3,8.34c.4,1.06.74,2.17,1.06,3.34a29.89,29.89,0,0,1,1-3.26l3-8.42H352l-5.37,14.68a32,32,0,0,1-1.36,3.26,4.82,4.82,0,0,1-1.47,1.76,3.56,3.56,0,0,1-2,.57,5,5,0,0,1-1.56-.3"/><path class="cls-3" d="M95,171.76V166H78.49s-14.63.47-15,19.47c0,0,0,17.71,12.84,18.53H95v-5.49H81.21s-11,.54-10.62-14.57c0,0,.83-12.22,11.09-12.22Z"/><rect class="cls-3" x="100.2" y="151.4" width="6.57" height="7.1"/><rect class="cls-3" x="100.21" y="166.1" width="6.57" height="38.05"/><path class="cls-3" d="M118.64,171.59h-7.57v-5.78h7.57V151.4h6.45V166h11.46v5.58H125.34v22.18s-.36,4.85,3.9,4.95h7.19v5.68h-9.78s-7.76.23-8-8.51Z"/><path class="cls-3" d="M146.94,166h-6.57v27.54s.19,11.15,14,11.15h11.84s2,6-4.76,6H140.56v5.66h22.66s9.92.88,10.08-10.44V166h-6.37v32.84H154.55s-7.09,0-7.61-6.37Z"/><path class="cls-3" d="M218.61,165.66H205.52V151.59h-6.66v53.27h21c15.64-1.86,14.51-20,14.51-20-.72-18.77-15.76-19.21-15.76-19.21m8.34,18c.7,14.87-11.17,14.87-11.17,14.87H205.71V171.59h10.07c11.69,1.24,11.17,12,11.17,12"/><path class="cls-3" d="M264.8,166.29H241.43v5.47h20.72c8.34.53,7.43,9.84,7.43,9.84H252.42c-13.09,0-13.27,10.52-13.27,10.52C239.69,205,251,204.34,251,204.34h24.59V175.65c-.36-9-10.81-9.36-10.81-9.36m4.49,32.55H252.2s-5.67.43-5.92-6.07c0,0-.47-5.9,7.2-5.55h15.81Z"/><path class="cls-3" d="M286.4,172v32.3h-6.2v-37.7h22.67s11.14.53,10.8,10.6v27.1h-6.2V179.91s.61-8.15-9.19-7.87Z"/><path class="cls-3" d="M325.33,188v17h-6.95V152.23h6.86V181h1.41l18.86-14.28h7.92l-18.11,15.36h7.9s8.59,0,9,8.71v13.69H346.6V194s.7-6.05-5.44-6Z"/><path class="cls-2" d="M0,55.1s47.24,3,102.34-55.1c0,0,25.61,83.63,127.91,136.77,0,0-167.28-65.93-228.28,89.54,0,0,39.36-117.09-2-171.21"/><path class="cls-3" d="M143.43,68.5C112.07,31.72,102.34,0,102.34,0,86.19,17,70.72,28.77,56.91,36.91c7.25,9.33,17.82,23.18,29.34,39a225.09,225.09,0,0,1,57.18-7.37"/><path class="cls-4" d="M56.91,36.91C23.62,56.54,0,55.1,0,55.1c11.24,14.7,16.51,34.06,18.23,54.47,12.64-10.26,35.14-24.93,68-33.7-11.53-15.78-22.11-29.63-29.35-39"/><path class="cls-3" d="M18.23,109.57C22.85,164.21,2,226.31,2,226.31c30.87-69.73,74.46-97.51,115.29-105.94-9.92-15.08-20.82-30.52-31-44.5-32.88,8.77-55.39,23.44-68,33.7"/><g class="cls-5"><rect class="cls-6" x="86.26" y="68.5" width="143.99" height="68.27"/></g></g></g></svg>