<svg xmlns="http://www.w3.org/2000/svg" xmlns:xlink="http://www.w3.org/1999/xlink" viewBox="0 0 161.14 162.25"><defs><style>.cls-1,.cls-7{fill:none;}.cls-2{fill:#c7ebfb;}.cls-3{clip-path:url(#clip-path);}.cls-4{fill:#38af79;}.cls-5{fill:#57d6a1;}.cls-6{fill:#befea8;}.cls-7{stroke:#14684e;stroke-miterlimit:10;stroke-width:4px;}</style><clipPath id="clip-path"><circle class="cls-1" cx="78.84" cy="78.84" r="78.84"/></clipPath></defs><title>Cost_1</title><g id="Layer_2" data-name="Layer 2"><g id="Objects"><circle class="cls-2" cx="78.84" cy="78.84" r="78.84"/><g class="cls-3"><path class="cls-4" d="M46.23,153.84c27.61-49.41,10.23-83,10.23-83-20.72,1.48-36.8,15.77-36.8,15.77C46,110.74,36.1,147.74,36.1,147.74S43.36,152.78,46.23,153.84Z"/><path class="cls-5" d="M100.53,51.08C76.27,44,52.25,54,52.25,54c20,66.23-6,99.87-6,99.87s15.48,8.41,38.61,8.41C84.84,162.25,119.37,80.79,100.53,51.08Z"/><path class="cls-6" d="M155.11,54.62C133.2,26.64,96.4,29.79,96.4,29.79c20,97.77-41,128-41,128S92.2,171.71,124,150C124,150,177.35,116,155.11,54.62Z"/><path class="cls-7" d="M65.92,160.14c5.94-4,11.56-9.7,16.29-15.56"/><path class="cls-7" d="M159.48,70.79c-12-17.93-28.39-26.11-41.46-30.14-1.14,5.52-5.45,9.09-11.06,10,3.76,40.37-6.85,67.45-17.39,83.79a118.9,118.9,0,0,1-7.36,10.16"/><path class="cls-7" d="M126.77,148.09a18.3,18.3,0,0,1-6.44-.9"/><path class="cls-7" d="M120.33,147.19a18.82,18.82,0,0,1-2.63-1.11c-10.17-5.29-13.36-19.31-7.12-31.31s19.54-17.45,29.72-12.16c6.55,3.41,10.2,10.43,10.31,18.21"/><path class="cls-7" d="M100.18,58.3a107.31,107.31,0,0,0-18.26-2.4,74,74,0,0,0-10.45.77c0,.22,0,.45,0,.67A11.13,11.13,0,0,1,63.46,68c8.95,42,.89,68.16-10.42,88.5"/><path class="cls-7" d="M57.78,77.58A70,70,0,0,0,36,84.49a6.13,6.13,0,0,1-1.67,8c11.49,17.32,12.68,37.32,8.09,58.82"/></g></g></g></svg>