<svg xmlns="http://www.w3.org/2000/svg" xmlns:xlink="http://www.w3.org/1999/xlink" viewBox="0 0 258.8 157.08"><defs><style>.cls-1{fill:#5dd8db;}.cls-2{fill:url(#linear-gradient);}.cls-3{fill:url(#linear-gradient-2);}.cls-25,.cls-4{opacity:0.8;}.cls-12,.cls-13,.cls-15,.cls-16,.cls-22,.cls-23,.cls-25,.cls-26,.cls-27,.cls-29,.cls-4,.cls-5{isolation:isolate;}.cls-4{fill:url(#linear-gradient-3);}.cls-5{fill:#eeaeaa;}.cls-23,.cls-5{opacity:0.6;}.cls-6{fill:#f1f1ec;}.cls-7{fill:url(#linear-gradient-4);}.cls-8{fill:url(#radial-gradient);}.cls-9{fill:url(#linear-gradient-5);}.cls-10{fill:#f0efef;}.cls-11,.cls-15,.cls-23,.cls-25,.cls-26,.cls-27{fill:#fff;}.cls-12,.cls-18,.cls-22{fill:#d2b5b1;}.cls-12,.cls-15,.cls-20{opacity:0.3;}.cls-13{fill:#e9ede6;}.cls-13,.cls-19{opacity:0.4;}.cls-14,.cls-16,.cls-26,.cls-29{opacity:0.7;}.cls-16{fill:url(#linear-gradient-6);}.cls-17{fill:url(#linear-gradient-7);}.cls-21{fill:none;}.cls-22,.cls-27,.cls-28{opacity:0.5;}.cls-24{fill:url(#linear-gradient-8);}.cls-29{fill:url(#linear-gradient-9);}.cls-30{fill:url(#linear-gradient-10);}.cls-31{fill:url(#linear-gradient-11);}.cls-32{opacity:0.2;}.cls-33{fill:url(#linear-gradient-12);}.cls-34{fill:url(#linear-gradient-13);}.cls-35{fill:url(#linear-gradient-14);}.cls-36{fill:url(#linear-gradient-15);}.cls-37{fill:url(#linear-gradient-16);}</style><linearGradient id="linear-gradient" x1="104.94" y1="83.15" x2="104.94" y2="52.82" gradientTransform="matrix(1, 0, 0, -1, 0, 160)" gradientUnits="userSpaceOnUse"><stop offset="0" stop-color="#ee806c"/><stop offset="1" stop-color="#b72027"/></linearGradient><linearGradient id="linear-gradient-2" x1="105.08" y1="90.94" x2="104.87" y2="42.68" xlink:href="#linear-gradient"/><linearGradient id="linear-gradient-3" x1="104.25" y1="85.76" x2="106.09" y2="58.52" gradientTransform="matrix(1, 0, 0, -1, 0, 160)" gradientUnits="userSpaceOnUse"><stop offset="0" stop-color="#e3c1b8"/><stop offset="0.25" stop-color="#e3a3a1"/><stop offset="0.58" stop-color="#d18d88"/><stop offset="0.98" stop-color="#cf8182"/></linearGradient><linearGradient id="linear-gradient-4" x1="107.34" y1="105.11" x2="103.46" y2="124.45" gradientTransform="matrix(1, 0, 0, -1, 0, 160)" gradientUnits="userSpaceOnUse"><stop offset="0.09" stop-color="#6b3a3d"/><stop offset="0.2" stop-color="#703f42"/><stop offset="0.34" stop-color="#7e4f52"/><stop offset="0.5" stop-color="#95686b"/><stop offset="0.66" stop-color="#b48b8f"/><stop offset="0.74" stop-color="#c49ca0"/><stop offset="1" stop-color="#f0ece9"/></linearGradient><radialGradient id="radial-gradient" cx="99.6" cy="121.57" r="20.07" gradientTransform="matrix(1, 0, 0, -1, 0, 160)" gradientUnits="userSpaceOnUse"><stop offset="0.07" stop-color="#4d2527"/><stop offset="0.17" stop-color="#552d30"/><stop offset="0.31" stop-color="#6c4447"/><stop offset="0.5" stop-color="#926a6d"/><stop offset="0.7" stop-color="#c49ca0"/><stop offset="1" stop-color="#d3b7b3"/></radialGradient><linearGradient id="linear-gradient-5" x1="119.94" y1="132.89" x2="74.78" y2="118.07" gradientTransform="matrix(1, 0, 0, -1, 0, 160)" gradientUnits="userSpaceOnUse"><stop offset="0" stop-color="#e9ddd7"/><stop offset="0.05" stop-color="#ede5e0"/><stop offset="0.15" stop-color="#efeae7"/><stop offset="0.38" stop-color="#f0ece9"/><stop offset="0.45" stop-color="#ede7e5"/><stop offset="0.53" stop-color="#e6d9d8"/><stop offset="0.62" stop-color="#d9c2c3"/><stop offset="0.7" stop-color="#c7a2a5"/><stop offset="0.72" stop-color="#c49ca0"/><stop offset="0.82" stop-color="#d6b7b8"/><stop offset="0.93" stop-color="#e4ccca"/><stop offset="1" stop-color="#e9d4d1"/></linearGradient><linearGradient id="linear-gradient-6" x1="70.8" y1="75.29" x2="70.71" y2="55.78" xlink:href="#linear-gradient-3"/><linearGradient id="linear-gradient-7" x1="93.3" y1="77.41" x2="45.32" y2="70.23" gradientTransform="matrix(1, 0, 0, -1, 0, 160)" gradientUnits="userSpaceOnUse"><stop offset="0" stop-color="#e9ddd7"/><stop offset="0" stop-color="#eadfda"/><stop offset="0.03" stop-color="#efe9e6"/><stop offset="0.06" stop-color="#f2eeed"/><stop offset="0.15" stop-color="#f3f0ef"/><stop offset="0.53" stop-color="#f0ece9"/><stop offset="0.63" stop-color="#efe7e4"/><stop offset="0.76" stop-color="#ead9d6"/><stop offset="0.78" stop-color="#e9d4d1"/><stop offset="1" stop-color="#c49ca0"/></linearGradient><linearGradient id="linear-gradient-8" x1="55.87" y1="82" x2="83.67" y2="82" gradientTransform="matrix(1, 0, 0, -1, 0, 160)" gradientUnits="userSpaceOnUse"><stop offset="0" stop-color="#6b3a3d"/><stop offset="0.24" stop-color="#865e61"/><stop offset="0.89" stop-color="#a18080"/><stop offset="1" stop-color="#9f8080"/></linearGradient><linearGradient id="linear-gradient-9" x1="138.88" y1="80.52" x2="138.03" y2="63.52" xlink:href="#linear-gradient-3"/><linearGradient id="linear-gradient-10" x1="156.21" y1="87.53" x2="121.29" y2="67.63" xlink:href="#linear-gradient-7"/><linearGradient id="linear-gradient-11" x1="129.02" y1="90.02" x2="145.35" y2="90.02" xlink:href="#linear-gradient-8"/><linearGradient id="linear-gradient-12" x1="123.84" y1="86.55" x2="147.98" y2="86.55" xlink:href="#linear-gradient-8"/><linearGradient id="linear-gradient-13" x1="147.53" y1="102.79" x2="112.59" y2="82.89" xlink:href="#linear-gradient-7"/><linearGradient id="linear-gradient-14" x1="155.24" y1="89.22" x2="120.35" y2="69.34" xlink:href="#linear-gradient-7"/><linearGradient id="linear-gradient-15" x1="105.85" y1="75.03" x2="105.85" y2="79.45" gradientTransform="matrix(1, 0, 0, -1, 0, 160)" gradientUnits="userSpaceOnUse"><stop offset="0" stop-color="#fff"/><stop offset="1" stop-color="#b5b5b6"/></linearGradient><linearGradient id="linear-gradient-16" x1="94.2" y1="66.62" x2="117.5" y2="66.62" gradientTransform="matrix(1, 0, 0, -1, 0, 160)" gradientUnits="userSpaceOnUse"><stop offset="0" stop-color="#fff"/><stop offset="0.56" stop-color="#999387"/><stop offset="0.68" stop-color="#918a80"/><stop offset="0.83" stop-color="#968f83"/><stop offset="1" stop-color="#a8a398"/></linearGradient></defs><title>Crown</title><g id="Layer_2" data-name="Layer 2"><g id="Layer_1-2" data-name="Layer 1"><polygon class="cls-1" points="0 0 0 157.08 189.44 157.08 258.8 0 0 0"/><path class="cls-2" d="M153.49,80.71a56.41,56.41,0,0,1-5.56,3.16c-2.68,1.27-21,.57-22.72.88s-3,1.1-4.83.53-3.49-.84-12.24,0S94,87.54,91.77,88.86s-2.83,1.08-5.93.23-6.21.85-9.88,1.56-10.58-.43-19.47-.57-12.28,4.71-12.28,4.71v22.6H165.57l.1-25.71V81.26A12.79,12.79,0,0,0,153.49,80.71Z"/><path class="cls-3" d="M165.15,111.25s-10-.42-14.82,2.75-16.09,2.26-21.59.78-13.12-2.26-19.26-.36-11.72,1-15.74.36-6.91-1.84-11.15-1-12.48,2.12-18,1.06-4.87-1.06-13.12-.43-7.2-2.32-7.2-2.32l-.07,1.07v4.22H165.57v-6.12Z"/><path class="cls-4" d="M95.15,87.79s-2.25,12.14-.42,13.55,6.07,3,12.14,2.68,10-2.11,10.72-4c.57-1.69-1.06-15.31-1.48-15.31S95.15,87,95.15,87.79Z"/><path class="cls-5" d="M50.14,92.06a7.41,7.41,0,0,1,4-.57c2.26.28-.43-.14-3.53,1.27S47.74,92.62,50.14,92.06Z"/><path class="cls-5" d="M155.73,81.19a5.31,5.31,0,0,1,2.86-.53c1.8.11,1.27-.74,3.17-.1s.74.42-.63.53S155.42,81.79,155.73,81.19Z"/><path class="cls-5" d="M118.42,87.54a2.81,2.81,0,0,0,2.33.32c1.58-.32,2.33,0,1.37.53S118.42,88.6,118.42,87.54Z"/><path class="cls-5" d="M86.93,91.67s1,.85,3.07-.11,3.28-1.16,3.39,1.06-.53-1.59-1.91-.74-4.44,1-4.86-.21S86.51,91.46,86.93,91.67Z"/><path class="cls-6" d="M110.57,54.2V63h4s-8.42,13.41-8.42,12.55S97.67,63,97.67,63h4V54.2Z"/><path class="cls-7" d="M109.9,41.18c-2.33-.21-4.23-1-9.42,0s-4.55,2.12-5.93,3.5a2.87,2.87,0,0,0-.47.63,11.42,11.42,0,0,1-.41,2.08s1,3.46,5.93,3.88,16.51.85,18-5.43a3.44,3.44,0,0,0-.25-1.42C115.71,42.49,111.9,41.37,109.9,41.18Z"/><path class="cls-8" d="M95.42,45.13s1.2-3,6.35-3,12.13-.42,13.47,2,.78,4.09-4.79,5.5-12.21.56-13.55-1.2S94.73,46.69,95.42,45.13Z"/><path class="cls-9" d="M117.59,41.4a56.52,56.52,0,0,0,3-12.35,14.9,14.9,0,0,0-1.35-6.21c-.56-.92-.42-1.84-1.48-2.4s-.91-2.12-2.82-2-4.59.92-6.42.64-4.16-1.55-6.63-1.77-2.9.07-5.44,1.56-3.81,3.38-5.29,4.51-2.68,3.18-2,4.59a23,23,0,0,1,2.11,5.82,17.72,17.72,0,0,0,1.56,5.37,11.45,11.45,0,0,1,1.25,6.17,2.87,2.87,0,0,1,.47-.63c1.38-1.38.75-2.44,5.93-3.5s7.09-.21,9.42,0c2,.19,5.81,1.31,7.44,3.24A3.6,3.6,0,0,1,117.59,41.4Z"/><path class="cls-10" d="M115.42,22s1.78,9.22-.6,17.09c-1.54,4,2.76,1.81,3.89-4.66C120.81,22.53,115.6,19.47,115.42,22Z"/><path class="cls-11" d="M113,20.11a4.39,4.39,0,0,1,4.22,1.6C118.42,22.85,116.79,18.28,113,20.11Z"/><path class="cls-11" d="M118.93,25.42s.34,8.63-2.06,13.3c-2.17,3.48,1.94.4,2.4-7S119,24.86,118.93,25.42Z"/><path class="cls-11" d="M112.56,38.87s1.62,2.65,3.93,1.8C115.47,41.87,113,41.1,112.56,38.87Z"/><path class="cls-12" d="M119.21,22.84c-.56-.92-.42-1.84-1.48-2.4s-.91-2.12-2.82-2a8.24,8.24,0,0,0-1.32.17,8.68,8.68,0,0,1,2,.47c4.65,1.83,4.94,9.74,4,14.67s-2.82,9-5.22,8.33-2.12-2.12-9.74-1.83c-2.11.07-4.52.12-6.48-.75-2.7-1.19-3-4.78-3.85-7.25a18.93,18.93,0,0,1-1.39-7.76,7.74,7.74,0,0,1,3.34-5.26,9.55,9.55,0,0,1,1.68-1.14c3.81-1.83,7.12,1,10.58,1-1.83-.28-4.16-1.55-6.63-1.77s-2.9.07-5.44,1.56-3.81,3.38-5.29,4.51-2.68,3.18-2,4.59a23.38,23.38,0,0,1,2.12,5.81,17.72,17.72,0,0,0,1.56,5.37,11.45,11.45,0,0,1,1.25,6.17,2.87,2.87,0,0,1,.47-.63c1.38-1.38.75-2.44,5.93-3.5s7.09-.21,9.42,0c2,.19,5.81,1.31,7.44,3.24a3.58,3.58,0,0,1,.25-3,56.52,56.52,0,0,0,3-12.35A14.8,14.8,0,0,0,119.21,22.84Z"/><path class="cls-13" d="M98.82,19.1a5.4,5.4,0,0,0-3.67,5.39c.15,4.23,1,6.31,1.77,9.54s2.47,5,4.58,5.53-1.27-4.38-1.48-6.1-1.2-11.67-.49-13.35S99.42,18.79,98.82,19.1Z"/><path class="cls-11" d="M96,21.07s-1.58,5,2.75,15.72c.63,2.39-.21,1-2-4.18S94.82,23,96,21.07Z"/><path class="cls-11" d="M100.42,18.45A6.38,6.38,0,0,0,97,19.79C97.28,18.79,99.69,17.92,100.42,18.45Z"/><path class="cls-12" d="M90.07,29.54a10.16,10.16,0,0,1-.75-4A2.84,2.84,0,0,0,89.09,28a23.35,23.35,0,0,1,2.18,5.84,17.72,17.72,0,0,0,1.56,5.37,17.55,17.55,0,0,1,.77,1.9,13.35,13.35,0,0,0-1.13-2.89C91.77,36.67,91.77,34.41,90.07,29.54Z"/><g class="cls-14"><path class="cls-11" d="M95.22,44.22c.92-1.13,1.13-2.12,3.89-2.61a27,27,0,0,1,8.6-.57c.76.08,1.45.11,2.08.13-2.28-.23-4.2-1-9.31,0s-4.55,2.12-5.93,3.5a2.87,2.87,0,0,0-.47.63S94.31,45.35,95.22,44.22Z"/></g><path class="cls-15" d="M116.25,43.94c-.22,0,.53.26.69,1.11a2.68,2.68,0,0,1-.32,2.17c-1.37,2.22-4.76,3.17-5.66,3.38a50,50,0,0,1-8.1.64c-1.32-.11,2,.53,6.56-.27,4.19-1,5.51-1.64,6.41-2.43a4.34,4.34,0,0,0,1.59-3.07C117.36,44.41,116.89,44,116.25,43.94Z"/><path class="cls-15" d="M94.73,46.69s-2,.7,1.27,2.4a19.34,19.34,0,0,0,12.49,1.41c4.52-1,8.4-2.19,8.11-4.52s-.56-2.33-.56-2.33a2.12,2.12,0,0,1,1.38,1.82c0,1.29-1.31,3.9-5.9,4.89s-10.86,1.27-13.54.28S93.67,48,94,47.11,94.73,46.69,94.73,46.69Z"/><path class="cls-16" d="M57.19,90.72a13.76,13.76,0,0,0,0,5.5c.64,2.75,1.06,4.23,4.87,5.93s6.46,2.75,11.33,1.9,5.89-1.06,8.43-4.65S84.92,90.29,84.5,89,81.11,95,81.11,95,64.39,96,63.75,95.16,57.83,89.45,57.19,90.72Z"/><path class="cls-17" d="M53.59,80.34A6.22,6.22,0,0,1,54.42,77a46.48,46.48,0,0,0,2.26-4.59A4.8,4.8,0,0,1,62.25,70c3.32.71,6.42,2.19,9.53,0s4.23-1.2,5.43-1.06,6.14,1.56,8.26,4.73a9,9,0,0,1,1.41,7.83c-.59,1.55-3,8.4-3.39,11.93s-1.07,4.09-3.07,6.49-2,2.47-4.59,3-8.25.85-12.49-.91-4.94-4.31-5.22-6.85-.63-7-2.26-9A10.45,10.45,0,0,1,53.59,80.34Z"/><path class="cls-18" d="M83.23,94.79c-.46,1.52-1.62,2.82-2.82,5.09C82.09,97.85,82.8,97.13,83.23,94.79Z"/><g class="cls-19"><path class="cls-18" d="M71,70.43c-2.22,1.16-4.46.63-6.78,0a5.51,5.51,0,0,0,3.1,1.13A4.74,4.74,0,0,0,71,70.43Z"/></g><g class="cls-20"><path class="cls-12" d="M86.58,82.11c0,.27.18-.48.25-.64.63-1.55.7-4.65-1.41-7.83a7.54,7.54,0,0,0-.86-1c.18,6-4.47,4.88-8.1,3.87-3.81-1-5.23.71-6.35,2s-1.2,2-2.4,1.2a3.11,3.11,0,0,0-2.29-.49c-.71-.15-1.27,0-3.21.38s-3.21.89-5.54-.31.56-3.81.28-5.65c-.17-1.08.7-2.31,1.48-3.15a4.44,4.44,0,0,0-1.76,1.88A48.73,48.73,0,0,1,54.42,77a6.31,6.31,0,0,0-.78,3.38,10.36,10.36,0,0,0,2.26,5.79c1.63,2,2,6.49,2.26,9s1,5.08,5.22,6.85a21,21,0,0,0,7.32,1.34C66.47,101.92,64.85,96.86,64,93c0,0-2.23-9.63,3.38-9.31a20.11,20.11,0,0,0,11.82-2.86C81.75,79.39,86.23,77,86.58,82.11Z"/></g><path class="cls-21" d="M57.16,72.26a1.34,1.34,0,0,0-.12.3A1.34,1.34,0,0,1,57.16,72.26Z"/><path class="cls-21" d="M57.33,71.92a1.59,1.59,0,0,0-.15.29Z"/><path class="cls-21" d="M57.54,71.56c-.06.09-.11.18-.16.27S57.48,71.65,57.54,71.56Z"/><path class="cls-21" d="M58,71a.41.41,0,0,0-.1.13A.41.41,0,0,1,58,71Z"/><path class="cls-21" d="M57,72.59a1.58,1.58,0,0,0-.09.31A1.58,1.58,0,0,1,57,72.59Z"/><path class="cls-21" d="M57.73,71.29l-.12.18Z"/><path class="cls-21" d="M56.93,73v.31A.65.65,0,0,1,56.93,73Z"/><path class="cls-21" d="M56.91,73.64a1.71,1.71,0,0,1,0-.32A1.71,1.71,0,0,0,56.91,73.64Z"/><path class="cls-18" d="M56.94,72.9v0Z"/><path class="cls-18" d="M58.42,70.49h0c-.14.15-.28.32-.42.49A2,2,0,0,1,58.42,70.49Z"/><path class="cls-18" d="M57.61,71.47l-.07.09Z"/><path class="cls-18" d="M57.87,71.11l-.14.18Z"/><path class="cls-22" d="M61.42,94.79c.63-2.89.07-4.52-1.13-7.48s.63-5.43,1.55-6.85,4.23-1,3.53-1.19-1.27,0-3.21.38-3,1-5.33-.17.35-4,.07-5.79a1.71,1.71,0,0,1,0-.32h0V73a1.58,1.58,0,0,1,.09-.31h0a1.34,1.34,0,0,1,.12-.3h0a1.59,1.59,0,0,1,.15-.29.37.37,0,0,1,.16-.31c0-.09.1-.18.16-.27l.07-.09.12-.18.14-.18a.41.41,0,0,1,.1-.13c.14-.17.28-.34.42-.49a4.44,4.44,0,0,0-1.76,1.88A49.42,49.42,0,0,1,54.42,77a6.31,6.31,0,0,0-.78,3.38,10.36,10.36,0,0,0,2.26,5.79c1.63,2,2,6.49,2.26,9s1,5.08,5.22,6.85a18.26,18.26,0,0,0,4.67,1.16C63.64,101.48,60.94,97,61.42,94.79Z"/><path class="cls-18" d="M57.18,72.21Z"/><path class="cls-18" d="M57.42,71.79a.19.19,0,0,0-.05.09A.19.19,0,0,1,57.42,71.79Z"/><path class="cls-18" d="M76,71.88a5.82,5.82,0,0,0-.83.41l-.39.24c-.13.09-.28.17-.41.28s-.29.21-.42.33l-.21.19-.1.09-.09.1a2,2,0,0,0-.33.43,1,1,0,0,0-.13.23l-.09.24a.47.47,0,0,0,0,.24.45.45,0,0,0,0,.23,1.55,1.55,0,0,0,0,.43,1.19,1.19,0,0,0,.06.37A.43.43,0,0,0,73,76l.06.25-.28.06a.94.94,0,0,0,0-.25c-.05-.16,0-.18,0-.3a2.54,2.54,0,0,1,0-.39,1.85,1.85,0,0,1,0-.47,1,1,0,0,1,0-.25,1.19,1.19,0,0,1,.07-.27L73,74.1a1,1,0,0,1,.15-.24,1.87,1.87,0,0,1,.36-.43l.1-.11.11-.09.22-.18c.14-.12.3-.21.44-.31a3.23,3.23,0,0,1,.44-.27l.4-.22A5.68,5.68,0,0,1,76,71.88Z"/><path class="cls-18" d="M70.16,78.64h-.5a3.17,3.17,0,0,1-1-.6c-.35-.3-.73-.68-1.12-1.09l-.3-.31c-.09-.1-.21-.2-.31-.31l-.35-.25-.39-.22q-.41-.21-.81-.39l-.82-.3a15.21,15.21,0,0,0-1.48-.45c-.48-.12-.8-.2-1.06-.25a2.07,2.07,0,0,0-.41-.07l.41.06a5.47,5.47,0,0,1,1.07.22c.44.11,1,.23,1.5.4.27.08.55.18.83.29s.56.22.84.36l.4.22.38.26c.11.1.23.19.34.3l.3.31a10.58,10.58,0,0,0,1.14,1,2.77,2.77,0,0,0,.89.53H70Z"/><path class="cls-23" d="M69.36,79.87c-.1.19,2.46-3.28,6.2-2.44s5.62,0,5.62,0a32.46,32.46,0,0,1-4.8-1C74.42,75.79,71.22,76.38,69.36,79.87Z"/><path class="cls-22" d="M60.42,79.87a14.3,14.3,0,0,0,2.81-1.08c1.64-1,3.12-1.59,2-2.49s-3.6-1.45-4-1.92,1.12-.13,2.76.14,2.43.72,4.28.46S71,74.62,72,73.88s3-2.13,4.82-2.13c1.53,0-1.59.42-2.17,1.59s.26,1.48,2.43,2.32,4.55,1.59,5.5,1.17c-.37,0-.56,1.15-6.56-.42-3.44-.59-4.76.47-5.34,1.42S69.17,80.27,68.54,80s-1.75-1.48-3-1A20.71,20.71,0,0,1,60.42,79.87Z"/><path class="cls-22" d="M63.9,79.14A5.76,5.76,0,0,1,66,78.23c1.13-.21,1.13-1.55-.14-2.47s.57-.07,1.41.35a4.53,4.53,0,0,0,3.81-.49c1.27-.78,2-2.26,2.47-2.26s-.91,1.13-.49,1.69,2.19.43,3,.92a12,12,0,0,0,2.33,1c.14,0-4.66-1.34-6.07-.43a14.67,14.67,0,0,0-2.82,2.69c-.56.56-.7,1.12-1.83.49s-1.84-1-2.76-.64S63.42,79.5,63.9,79.14Z"/><g class="cls-19"><path class="cls-24" d="M83.58,75.79l-.21.28a4.83,4.83,0,0,1-.71.72,2.81,2.81,0,0,1-1.48.49,8.91,8.91,0,0,1-2-.16c-.74-.13-1.52-.3-2.36-.5l-1.27-.3a5.51,5.51,0,0,0-1.34-.1,4.49,4.49,0,0,0-1.37.18,3.46,3.46,0,0,0-1.23.68,6.75,6.75,0,0,0-1,1c-.32.37-.6.78-.91,1.17a4,4,0,0,1-.56.53,1.07,1.07,0,0,1-1.5,0l0,0-.28-.23-.15-.1L67,79.38a2.57,2.57,0,0,0-1.36-.23,10.47,10.47,0,0,0-1.38.24L61.67,80l-1.25.2a3.05,3.05,0,0,1-.6.06h-.57a5.89,5.89,0,0,1-2-.35,2,2,0,0,1-1.16-1,1.81,1.81,0,0,1-.11-1,1.09,1.09,0,0,1,.05-.26h0a1.13,1.13,0,0,0,0,.26,1.72,1.72,0,0,0,.13,1,1.92,1.92,0,0,0,1.16,1,6.14,6.14,0,0,0,2,.3h.56a5.77,5.77,0,0,0,.58-.08l1.18-.3,2.61-.6a9.45,9.45,0,0,1,1.41-.25,2.63,2.63,0,0,1,1.46.24l.17.09a.91.91,0,0,0,.16.11c.11.07.19.16.29.23a.88.88,0,0,0,1.22.08,3.45,3.45,0,0,0,.51-.5c.31-.37.6-.79.92-1.16a6.68,6.68,0,0,1,1.06-1,3.75,3.75,0,0,1,1.3-.71,4.27,4.27,0,0,1,1.42-.18,5.44,5.44,0,0,1,1.39.11l1.27.32c.83.21,1.61.39,2.34.53a9.5,9.5,0,0,0,2,.21,2.7,2.7,0,0,0,1.47-.52,4.27,4.27,0,0,0,.72-.69C83.5,75.92,83.58,75.79,83.58,75.79Z"/></g><path class="cls-25" d="M59.1,74.73s2.75.32,3.91,1.49,1,2-2.75,2.85c-2.78.64-4.23-1-3.49-2.11S57.19,74,59.1,74.73Z"/><path class="cls-23" d="M78.89,71.67s-3.39,1.16-3,2.22,5.08,3.17,6.35,1.8,1.58-1.59.74-2.75S81.75,70.4,78.89,71.67Z"/><path class="cls-26" d="M73.17,70a3.15,3.15,0,0,1,3.5-.74c2.33.74,1.59,1.17-1.17,2S71,71.88,73.17,70Z"/><path class="cls-26" d="M64.18,71.67s3.81,1,5.4.31,1.58-.63,1.16.64-3.07,1.9-4.13,1.48S62.42,71.56,64.18,71.67Z"/><path class="cls-27" d="M57.93,72.62A2.66,2.66,0,0,1,61,70.5c2.54.42,1.59.11.53,1.17A3.87,3.87,0,0,1,57.93,72.62Z"/><path class="cls-23" d="M56.66,80A11.61,11.61,0,0,0,63,80C66.82,79.07,59.94,83.2,56.66,80Z"/><path class="cls-11" d="M85.88,80.66a52.85,52.85,0,0,1-1.8,7,14.34,14.34,0,0,0-1.49,5.71c0,1.8-2.64,6.87-5.17,7.42,0,0,4-4.76,4.23-7.51a33.37,33.37,0,0,1,1.9-8.49C84.42,82.57,85.77,82.14,85.88,80.66Z"/><g class="cls-28"><path class="cls-18" d="M77.16,68.91c-1.2-.14-2.33-1.13-5.43,1.06s-6.21.71-9.53,0a5.82,5.82,0,0,0-1.31-.18,11,11,0,0,1,3.22.85c2,.91,5.57.84,6.91,0s2.9-2.47,5.86-1.7,6.14,2,7.9,4l.46.47C83,70.4,78.33,69.05,77.16,68.91Z"/></g><g class="cls-28"><path class="cls-18" d="M83.24,94.73c.08-.4.14-.83.2-1.33.42-3.53,2.75-10.37,3.39-11.93a35.62,35.62,0,0,0-3.41,9.88C83.3,92.31,83.33,93.48,83.24,94.73Z"/><path class="cls-18" d="M58,92.41c.21-2.22-.95-5-3.18-8.15s-.52-6.46.22-8.36q.15-.39.24-.69c-.3.61-.62,1.21-1,1.75a6.31,6.31,0,0,0-.78,3.38,10.36,10.36,0,0,0,2.26,5.79c1.63,2,2,6.49,2.26,9A7.5,7.5,0,0,0,60,99.84,12.92,12.92,0,0,1,58,92.41Z"/></g><path class="cls-29" d="M152.59,81.33c-.71.57-18.06,4.52-19.4,4.31S122.81,85,123,85.35c0,0,.49,1.91,1.12,3.88s1.33,5.53,1.84,7.34a5,5,0,0,0,2.61,3.53,25,25,0,0,0,11.71,2.26c4-.42,6.64-.85,8.47-3.25a9.45,9.45,0,0,0,2-4.94A61,61,0,0,0,153,86.34c.5-2.26,1-5.71,1.45-6A6,6,0,0,0,152.59,81.33Z"/><path class="cls-30" d="M121.42,80.41a3.28,3.28,0,0,1-.35-4.3c1.69-2.33,3-5.08,4.3-6.42s2.26-3.6,4.87-3.39,5.15.78,8.12-.42,5.36-2.12,7.62-.49,4.94,5.15,6.42,6a4.35,4.35,0,0,1,1.81,4.4,110.49,110.49,0,0,1-2.4,13c-1.27,4.59-1.62,6.35-2.11,8s-4.87,4.38-8.4,4.66-11.64-.77-13.48-2.89-2-5.79-2.18-6.49-1.42-4-2.33-6.56A45.83,45.83,0,0,0,121.42,80.41Z"/><g class="cls-19"><path class="cls-31" d="M129,68.84a3.17,3.17,0,0,1,.8.15,5,5,0,0,1,.9.2,10.44,10.44,0,0,1,1.16.35l.64.23.68.3c.23.1.45.25.69.38a5.61,5.61,0,0,1,.68.44c.45.31.91.68,1.37,1a1.66,1.66,0,0,0,.76.28,3.08,3.08,0,0,0,.43,0h.43a4.09,4.09,0,0,0,1.64-.44,6.18,6.18,0,0,0,1.33-1c.39-.38.73-.79,1.07-1.16a9.44,9.44,0,0,1,1-1,3.66,3.66,0,0,1,1-.65,3.12,3.12,0,0,1,.91-.23,2.91,2.91,0,0,1,.59,0h0a2.91,2.91,0,0,0-.59,0,2.64,2.64,0,0,0-.88.26,3.58,3.58,0,0,0-1,.67,9,9,0,0,0-.95,1c-.33.38-.66.81-1.06,1.19a6.1,6.1,0,0,1-1.37,1,4.3,4.3,0,0,1-1.72.48h-.89a1.85,1.85,0,0,1-.85-.33c-.48-.34-.91-.69-1.37-1a7,7,0,0,0-.67-.44,5.69,5.69,0,0,0-.66-.39l-.66-.31-.64-.25-.59-.21c-.19-.06-.37-.13-.54-.17-.34-.1-.64-.19-.89-.25C129.31,68.89,129,68.84,129,68.84Z"/></g><g class="cls-32"><path class="cls-18" d="M136.26,78.23c5.39,1,6-4.45,12.27-3.18,3,.62,4.62,1.25,5.35,3.12.16-1.08.27-1.94.33-2.41A4.62,4.62,0,0,0,153,71.9c-.34.46-1.33.62-3.34.29a15.49,15.49,0,0,0-11.28,2.16c-1.34,1-1,1.34-3.11-.07s-6.45-1-9.42.14-2.54-.85-.42-2.75,1.06-1.06,1.27-2.86a4.82,4.82,0,0,1,.22-1c-.58.63-1.06,1.36-1.6,1.92-1.27,1.34-2.61,4.09-4.3,6.42a3.28,3.28,0,0,0,.35,4.3,47.06,47.06,0,0,1,1.91,5.09c.91,2.54,2.11,5.85,2.33,6.56s.35,4.37,2.18,6.49c1,1.18,4,2,7.06,2.51-2.12-3.73-2.37-7.45-3.71-10.34C128.63,85.21,130.86,77.27,136.26,78.23Z"/></g><g class="cls-28"><path class="cls-18" d="M127.58,76.32c3.91-1.9,3.49-2.5,7.72-2-2-1.13-3.28-1.34-6.14-.82-3.71.69-7.62,2-5.08-.31s2.76-2.44,2.76-5v-.3c-.53.61-1,1.27-1.49,1.8-1.27,1.34-2.61,4.09-4.3,6.42a3.28,3.28,0,0,0,.35,4.3,47.06,47.06,0,0,1,1.91,5.09c.91,2.54,2.11,5.85,2.33,6.56s.35,4.37,2.18,6.49a6.72,6.72,0,0,0,2.74,1.51,14.06,14.06,0,0,1-1.93-5.53C128.32,90.61,123.66,78.23,127.58,76.32Z"/></g><path class="cls-22" d="M130.12,69.13a7,7,0,0,1,2.85,2c1.06,1.37-4.12,1.8-5.18,2.64,1.37-.32,5.61-.6,7.72.71,2,.88,1.84.84,2.9,0a21.21,21.21,0,0,1,7.83-2.69c1.48,0-2.47-1.1-4.69.07s1-3.28,2.22-3.92a7.11,7.11,0,0,0-3.25,1.85c-1.48,1.48-3.42,1.38-5.75.42S131,68.79,130.12,69.13Z"/><path class="cls-22" d="M134.42,70.79s3,2.47,5.71.35c.74-.21-3.28,2.82.32,1.55.74-.21-.53.32-1.48,1.27s-1.48,1.31-3.71.29-3.38-1.13-4-1,.74-.63,2.54-.42,1.52-1.55.28-2.15Z"/><path class="cls-18" d="M131.28,66.58a8.46,8.46,0,0,0,8.14-1C139,65.6,134.53,67.57,131.28,66.58Z"/><path class="cls-23" d="M143.49,69c.19-.11,2.54-1.76,3.74-1.12A15,15,0,0,1,149.77,70c1.06.84,0,1.62-1.63,1.13a10.11,10.11,0,0,0-4.51-.21C142.5,71.1,142.36,69.69,143.49,69Z"/><path class="cls-11" d="M128.42,69.2s3.1.77,3.74,1.9-2.9,1.55-4.17,2-3.24.56-2.54-.43,1.91-1.76,2-2.61S127.42,69.05,128.42,69.2Z"/><path class="cls-11" d="M135.09,69.41s2.68,2,4.31.21,2.61-3.32,1.83-3.53-2,.85-3.32,1.13a7.32,7.32,0,0,1-3.31.42C133.12,67.43,133.89,68.79,135.09,69.41Z"/><g class="cls-19"><path class="cls-33" d="M123.87,75l1-.33,1.19-.36c.47-.14,1-.3,1.56-.45a14.93,14.93,0,0,1,1.87-.44,11.05,11.05,0,0,1,2.15-.14,8.85,8.85,0,0,1,2.28.33A5.28,5.28,0,0,1,135,74a10.87,10.87,0,0,0,1,.58,2.45,2.45,0,0,0,1.1.24,1.8,1.8,0,0,0,1-.45,9.52,9.52,0,0,1,1.91-1.28,10,10,0,0,1,2-.81,6.9,6.9,0,0,1,1-.23L144,72a18.33,18.33,0,0,1,2.87-.11,3.69,3.69,0,0,1,.8.12l.2.07h0l-.21-.06a3.06,3.06,0,0,0-.79-.1,20.93,20.93,0,0,0-2.86.2,5.93,5.93,0,0,0-.91.11,5.61,5.61,0,0,0-1,.24,10.49,10.49,0,0,0-1.95.83,8.81,8.81,0,0,0-1.87,1.27,2.16,2.16,0,0,1-1.12.5,2.48,2.48,0,0,1-1.11-.26,10.87,10.87,0,0,1-1-.58,4.7,4.7,0,0,0-1.07-.43,9.41,9.41,0,0,0-2.23-.34,12.5,12.5,0,0,0-2.12.11,13.27,13.27,0,0,0-1.87.41l-1.56.4-1.21.33Z"/></g><path class="cls-10" d="M152,77.87s-.67,1-2.15,5.86-2.54,15-5.92,16.51c-1.7.85,3.7-1.37,5.08-5.5S152,85.32,152.13,82,153.93,77.87,152,77.87Z"/><path class="cls-11" d="M144.62,100.1c6-2.82,5.15-6.35,6.77-12.77a37.53,37.53,0,0,0,1.27-10.54,23.56,23.56,0,0,1-1.16,6.49A63.94,63.94,0,0,0,149,91.53,16.14,16.14,0,0,1,144.62,100.1Z"/><path class="cls-21" d="M145.21,64.94a4.14,4.14,0,0,1,.75.45A1.66,1.66,0,0,0,145.21,64.94Z"/><path class="cls-21" d="M153.47,72.41l.19.27A3.15,3.15,0,0,0,153.47,72.41Z"/><path class="cls-21" d="M125.35,69.69c.31-.32.6-.7.9-1.08A7.81,7.81,0,0,0,125.35,69.69Z"/><path class="cls-21" d="M152.42,71.38a3.53,3.53,0,0,1,.34.24c-.65-.6-1.47-1.26-2.12-1.77A9.34,9.34,0,0,0,152.42,71.38Z"/><path class="cls-34" d="M124.84,70.3a7.49,7.49,0,0,0,.51-.61A4.23,4.23,0,0,0,124.84,70.3Z"/><path class="cls-22" d="M149.84,69.27l.76.58A44.4,44.4,0,0,0,146,65.39,40.6,40.6,0,0,0,149.84,69.27Z"/><path class="cls-22" d="M129.8,66.44a22.49,22.49,0,0,0,5.5.22,12.89,12.89,0,0,0,3.6-.92c.73-.36,4.45-1.4,6.31-.8-2-1-4.24-.13-6.87.94-3,1.2-5.51.63-8.12.42-2-.16-3,1.1-4,2.31a3,3,0,0,1,1.22-.9S128.81,66.3,129.8,66.44Z"/><path class="cls-35" d="M153.47,72.41a3.52,3.52,0,0,0-.75-.79A9.41,9.41,0,0,1,153.47,72.41Z"/><g class="cls-28"><path class="cls-18" d="M153.88,78.17a6.19,6.19,0,0,0,.25-1.76c-.06.47-.15,1.07-.25,1.77Z"/><path class="cls-18" d="M124,86.79c-.85-2.43-1.06-4.66-2.86-7.3a4.76,4.76,0,0,1-.7-1.6,3.6,3.6,0,0,0,1,2.52,47.06,47.06,0,0,1,1.91,5.09c.91,2.54,2.11,5.85,2.33,6.56a22.65,22.65,0,0,0,1.06,4.59,14.05,14.05,0,0,1-.5-2.86C126.09,91.79,124.82,89.23,124,86.79Z"/><path class="cls-18" d="M149.8,95.9a5.73,5.73,0,0,1-.29,1.29,3,3,0,0,0,.19-.41c.49-1.69.84-3.45,2.11-8a100,100,0,0,0,2.07-10.56c-.9,2.8-1.54,7.56-2.07,9.89S150,94.42,149.8,95.9Z"/><path class="cls-18" d="M153,71.89a12.76,12.76,0,0,1,1.1,4.52,4.6,4.6,0,0,1,.08-.65A4.6,4.6,0,0,0,153,71.89Z"/></g><path class="cls-11" d="M114.54,83.15c0,1-3.9,1.82-8.69,1.82s-8.69-.81-8.69-1.82,4.89-1.36,8.69-1.36C109.27,81.79,114.54,82.15,114.54,83.15Z"/><path class="cls-36" d="M114.54,83.15c0,1-3.9,1.82-8.69,1.82s-8.69-.81-8.69-1.82,4.89-1.36,8.69-1.36C109.27,81.79,114.54,82.15,114.54,83.15Z"/><path class="cls-11" d="M114.54,83.15s1.89,11.51,2.54,14.7c.69,3.41.51,3.57-.28,4.14a17.87,17.87,0,0,1-5.61,1.36,51,51,0,0,1-5.93.25,44.94,44.94,0,0,1-5.57-.41,14.26,14.26,0,0,1-4.45-1.2c-1-.51-1.12-.68-1-1.76s2.91-17.08,2.91-17.08c0,1,3.88,1.82,8.69,1.82S114.54,84.16,114.54,83.15Z"/><path id="SVGID-2" class="cls-37" d="M114.54,83.15s1.89,11.51,2.54,14.7c.69,3.41.51,3.57-.28,4.14a17.87,17.87,0,0,1-5.61,1.36,51,51,0,0,1-5.93.25,44.94,44.94,0,0,1-5.57-.41,14.26,14.26,0,0,1-4.45-1.2c-1-.51-1.12-.68-1-1.76s2.91-17.08,2.91-17.08c0,1,3.88,1.82,8.69,1.82S114.54,84.16,114.54,83.15Z"/></g></g></svg>