<svg xmlns="http://www.w3.org/2000/svg" xmlns:xlink="http://www.w3.org/1999/xlink" viewBox="0 0 297.65 245.95"><defs><style>.cls-1{fill:none;}.cls-2{fill:url(#linear-gradient);}.cls-3{clip-path:url(#clip-path);}.cls-4{stroke:#c5c5c6;stroke-miterlimit:10;stroke-width:0.39px;fill:url(#linear-gradient-2);}.cls-5{fill:#e8242a;}.cls-5,.cls-6,.cls-7{fill-rule:evenodd;}.cls-6{fill:#214596;}.cls-7{fill:#0d984a;}.cls-8{isolation:isolate;font-size:51.18px;fill:#231f20;font-family:FranklinGothic-Medium, Franklin Gothic Medium;font-weight:500;}</style><linearGradient id="linear-gradient" x1="5.07" y1="2444.07" x2="290.05" y2="2444.07" gradientTransform="translate(0 -2347.99)" gradientUnits="userSpaceOnUse"><stop offset="0" stop-color="#949494"/><stop offset="0.06" stop-color="#a6a6a6"/><stop offset="0.16" stop-color="#d5d5d5"/><stop offset="0.25" stop-color="#fff"/><stop offset="0.37" stop-color="#cacaca"/><stop offset="0.51" stop-color="#8f8f8f"/><stop offset="0.62" stop-color="#6a6a6a"/><stop offset="0.68" stop-color="#5c5c5c"/><stop offset="0.72" stop-color="#636464"/><stop offset="0.78" stop-color="#787878"/><stop offset="0.85" stop-color="#9a9a9a"/><stop offset="0.94" stop-color="#c9c9c9"/><stop offset="1" stop-color="#eff0f0"/></linearGradient><clipPath id="clip-path"><ellipse class="cls-1" cx="148.82" cy="87.34" rx="148.51" ry="87.15"/></clipPath><linearGradient id="linear-gradient-2" x1="148.82" y1="2339.08" x2="148.82" y2="2530.45" gradientTransform="translate(0 -2347.99)" gradientUnits="userSpaceOnUse"><stop offset="0" stop-color="#c2c4c6"/><stop offset="0.24" stop-color="#e1e2e3"/><stop offset="0.45" stop-color="#fff"/><stop offset="0.73" stop-color="#cacccd"/><stop offset="1" stop-color="#9c9fa1"/></linearGradient></defs><title>DBBL NEXUS</title><g id="Layer_2" data-name="Layer 2"><g id="Layer_1-2" data-name="Layer 1"><g id="Layer_1-2-2" data-name="Layer 1-2"><path class="cls-2" d="M297.65,96.07c0,47.6-66.63,86.17-148.83,86.17S0,143.67,0,96.07,66.64,9.9,148.82,9.9,297.65,48.5,297.65,96.07Z"/><g class="cls-3"><path class="cls-4" d="M297.33,87.34c0,48.14-66.48,87.15-148.51,87.15S.31,135.48.31,87.34,66.81.19,148.82.19,297.33,39.21,297.33,87.34Z"/><path class="cls-5" d="M195.68,171.75c-4.11.67-7.92,1.45-11.75,1.86-8.51.89-17.05,1.64-25.57,2.39-1.91.17-3.83.17-5.75.17a2,2,0,0,1-1.22-.5C133,158.42,115.58,140.41,101.3,119.8A107.58,107.58,0,0,1,89.94,99.07c-4.88-12-3-23.09,4.38-33.59C100,57.36,107.44,50.87,115.48,45c12.2-8.91,25.51-16,39.2-22.49A411.5,411.5,0,0,1,202,3.92a6,6,0,0,1,3.08-.17c3.48.74,6.91,1.69,10.37,2.79-2.54.93-5.1,1.82-7.63,2.75-18.25,6.77-35.86,14.78-52.22,25.15-8.78,5.56-17,11.79-23.89,19.56-5.19,5.82-9.35,12.2-11.08,19.82A28.28,28.28,0,0,0,122.35,92a102.43,102.43,0,0,0,14,22,304.63,304.63,0,0,0,34.09,35.64c8,7.25,16.28,14.23,24.44,21.31C195.11,171.2,195.27,171.37,195.68,171.75Z"/><path class="cls-6" d="M137.33,176.14c-3.21-.14-6.05-.17-8.88-.41-5.81-.48-11.65-.86-17.41-1.68-7.61-1.08-15.17-2.56-22.74-3.89a2,2,0,0,1-.92-.58C74,154,61.68,137.81,52.68,119.49A78.12,78.12,0,0,1,45.4,97.6C44,89.1,46,81.33,50.4,74c4.77-7.8,11.28-14.13,18.37-19.88C79.61,45.44,91.58,38.37,104,32,128.68,19.36,154.63,9.57,181.1,1c3.82-1.24,7.25-.49,10.86.13,1.64.26,3.25.6,5.22,1-2.85,1-5.39,1.87-7.92,2.79-21,7.63-41.5,16.39-60.91,27.34-11.21,6.32-21.92,13.3-31.36,22a72,72,0,0,0-12.93,15.1c-5.93,9.61-7,19.61-3,30.16,3.69,9.74,9,18.63,14.88,27.23,10,14.58,21.57,28.07,33.64,41.14C132,170.56,134.55,173.17,137.33,176.14Z"/><path class="cls-7" d="M244.82,156.34c-3.72,1.53-7.18,3-10.68,4.39a214,214,0,0,1-25.2,7.92,2,2,0,0,1-2-.38C189.2,155,172.12,141,156.6,125.27c-8.36-8.46-16.2-17.31-22.2-27.53A40.59,40.59,0,0,1,129.21,85c-1.5-7.44,0-14.47,3.64-21.12C136.61,57,141.93,51.21,147.93,46c10.68-9.2,22.78-16.35,35.43-22.71a318.41,318.41,0,0,1,35.23-15,4,4,0,0,1,2.94-.07c3.27,1.15,6.55,2.23,10,3.41C227.8,13,224.3,14.3,220.86,15.7c-13.8,5.58-27,12.18-38.81,21.12-7.16,5.4-13.52,11.53-18,19.24a34.11,34.11,0,0,0-4.83,19.79c.32,5.3,2.52,10,5.39,14.37a108.2,108.2,0,0,0,16.91,19.66A308.26,308.26,0,0,0,222,141.62c7.2,4.84,14.59,9.39,21.88,14.09Z"/></g><text class="cls-8" transform="translate(7.13 230.25)">DBBL NEXUS</text></g></g></g></svg>