<svg xmlns="http://www.w3.org/2000/svg" viewBox="0 0 253.33 253.33"><defs><style>.cls-1{fill:#c7ebfb;}.cls-2{fill:#003c7a;fill-rule:evenodd;}</style></defs><title>Doctor Male</title><g id="Layer_2" data-name="Layer 2"><g id="_6" data-name="6"><rect class="cls-1" width="253.33" height="253.33"/><path class="cls-2" d="M99.62,149a45.79,45.79,0,0,1-5.83,2.91v10.55A25.51,25.51,0,0,1,117.35,188v23.33a2.7,2.7,0,0,1-2.47,2.7h-8.52a2.71,2.71,0,0,1,0-5.39h5.83V188a20.31,20.31,0,1,0-40.61,0v20.64h6.06a2.7,2.7,0,0,1,0,5.39H68.88a2.74,2.74,0,0,1-2.69-2.7V188a25.68,25.68,0,0,1,22.44-25.36V154.6c-37.92,17.5-57,10.32-57,66.65H221.7c0-54.08-19.08-48.7-56.55-66.42v18.62a.83.83,0,0,1-.23.68,9.89,9.89,0,0,1,7,9.42,10,10,0,0,1-20,0,9.91,9.91,0,0,1,8.08-9.87V152.14c-2-.9-4-2-6.06-3.14-9,31.86-44.43,35.45-54.31,0Zm62.16,39a4.5,4.5,0,0,1-4.49-4.49,4.55,4.55,0,0,1,4.49-4.71,4.6,4.6,0,0,1,4.71,4.71,4.55,4.55,0,0,1-4.71,4.49Zm-.9-110.4S158,69.56,158,64.4c0,0-30.52,18.18-41.51,18.18,0,0,20.41-9.88,23.56-17.51-9.88,6.74-30.74,17.51-37.48,16.83,0,0,9.2-5.16,10.77-9.65C91.1,77.64,92,95.37,90.87,112.2c0,0-4-19.08-5.16-23.57C76.29,57.22,98.5,32.54,129,32.09c36.8-.67,53.85,25.58,41.29,58.56-2,5.61-7.86,25.36-7.86,25.36.68-12.79,3.59-26.26-1.57-38.37Z"/></g></g></svg>