<svg xmlns="http://www.w3.org/2000/svg" viewBox="0 0 253.34 253.33"><defs><style>.cls-1{fill:#c7ebfb;}.cls-2{fill:#003c7a;fill-rule:evenodd;}</style></defs><title>Doctor Female</title><g id="Layer_2" data-name="Layer 2"><g id="_6" data-name="6"><rect class="cls-1" width="253.34" height="253.33"/><path class="cls-2" d="M59.24,161.56A19.89,19.89,0,0,0,72,167.84C49.14,183.1,35.46,182,31.64,221.25H221.7c-2.47-29.4-11.67-37-26.7-45.1-1.8-1.13-14.82-7.63-15.26-8.31a19.68,19.68,0,0,0,15.7-6.28,22.47,22.47,0,0,1-22.66-18.18c-4.49-24.23-.9-38.14-2.69-61.48-2.25-27.59-16.83-50.26-45.55-50-17.73.23-31.87,9.88-39.5,26C74.72,85.94,88,109.73,81.9,143.61c-2,10.55-11.89,18.18-22.66,17.95ZM93.79,156V174.8a19.28,19.28,0,0,1,17.73,19.07v17.5a2.38,2.38,0,0,1-2,2h-6.28a2.17,2.17,0,0,1-2-2,2,2,0,0,1,2-2h4.26V193.87a15.15,15.15,0,0,0-30.29,0v15.49H81.9a2.16,2.16,0,0,1,2,2,2.38,2.38,0,0,1-2,2H75.17a2,2,0,0,1-1.79-2v-17.5A18.94,18.94,0,0,1,90,175V157.74Zm69.57,27.6c0-.22.22-.22.22-.45V158.2l-4-2.7v27.83a7.43,7.43,0,0,0-6.06,7.17,7.52,7.52,0,1,0,9.88-6.95Zm-2.25,10.55a3.69,3.69,0,0,1-3.59-3.6,3.5,3.5,0,0,1,3.59-3.36,3.45,3.45,0,0,1,3.37,3.36,3.66,3.66,0,0,1-3.37,3.6Zm.23-106.81-2.47.67a3.12,3.12,0,0,0-1.8-1.12,67,67,0,0,0-15.26-.45h-.22c-3.37.45-5.38.45-7.63,1.57a10.11,10.11,0,0,1-1.57.67,6.88,6.88,0,0,1-2.69,1.12c0,.23-.45.23-.67.23a1.39,1.39,0,0,1-1.35,0H127a24.55,24.55,0,0,1-2.69-1.12,12.5,12.5,0,0,1-1.57-.67c-2.24-.9-4.26-1.12-7.63-1.35h-.22c-5.61-.22-11,0-15.26,1.12a2.05,2.05,0,0,0-1.79,1.12L96,88.41a40.61,40.61,0,0,1,4.71-10.54c22.22-1.13,30.07,4.25,50.49-11,5.16,6.95,8.53,13.69,10.1,20.42Zm-2.25,5.16,3.14-.9c2.92,18-5.16,34.11-16.82,44.43-.23,4.49,2.91,12.56,4,15.71-1.79,2.92-3.59,5.38-5.16,7.62a26.73,26.73,0,0,1-40.61-7.4c2-4.26,4.49-11.22,4.26-15.93,0,0-9.42-9.65-13-26.25a42.2,42.2,0,0,1,0-16.83l2.69.67c.23.45.45.45.67.67,0,.22,0,.22.23.22,0,.23.22.68.22.91,1.35,7.85,1.8,8.75,4.94,10.32,1.57.9,4.71,1.34,7.85,1.34a19.77,19.77,0,0,0,9-2c4.26-2.24,5.83-10.09,5.83-10.55,0,0,.22-.89,2-.89h.23c1.79-.22,2,.89,2,.89,0,.23,1.79,8.09,6.05,10.33a23.51,23.51,0,0,0,9.2,1.57,20,20,0,0,0,7.63-1.35c3.37-1.79,3.59-2.91,4.72-10.55a1.35,1.35,0,0,1,.22-.89.22.22,0,0,1,.22-.22,1.16,1.16,0,0,0,.45-.9Zm-25.8-.9c.22-.44,1.57-2.24,9.87-2.92a26.5,26.5,0,0,1,3.82-.22c5.16,0,6.73.9,7.62,2.24a7.53,7.53,0,0,1,1.13,3.81c0,2.48-.45,7-3.82,8.76a23.94,23.94,0,0,1-6.5,1.35c-4.49,0-8.31-1.35-9.88-4-3.36-5.61-2.24-8.75-2.24-9Zm-31.19,0c.9-1.34,2.47-2.47,7.63-2.47h3.81c8.3.45,9.65,2.25,9.88,2.92,0,0,1.34,3.14-2,8.75-1.34,2.47-4.93,4.26-9.64,4.26a10.9,10.9,0,0,1-6.29-1.12c-3.59-1.57-4-6.06-4.26-8.52a10.55,10.55,0,0,1,.9-3.82Z"/></g></g></svg>