<svg xmlns="http://www.w3.org/2000/svg" xmlns:xlink="http://www.w3.org/1999/xlink" viewBox="0 0 170.55 170.55"><defs><style>.cls-1{mask:url(#mask);filter:url(#luminosity-noclip-2);}.cls-2{mix-blend-mode:multiply;fill:url(#radial-gradient);}.cls-3{isolation:isolate;}.cls-4{fill:#c7ebfb;}.cls-5{fill:#cdcdcf;}.cls-6{fill:#c5c5c7;}.cls-7{fill:#868687;}.cls-8{fill:#7c7c7d;}.cls-9{fill:#d5d5d6;}.cls-10{fill:#c2c2c2;}.cls-11{fill:#5acadb;}.cls-12{fill:#969696;}.cls-13{fill:#d8d8d9;}.cls-14{fill:#757575;}.cls-15{fill:#bce0ff;}.cls-16{fill:#adadad;}.cls-17{fill:#8c8c8c;}.cls-18{fill:url(#linear-gradient);}.cls-19{mask:url(#mask-2);}.cls-20{fill:url(#radial-gradient-2);}.cls-21{fill:#666667;}.cls-22{fill:#a5a5a6;}.cls-23{fill:#ddddde;}.cls-24{fill:#b6b6b8;}.cls-25{fill:#eeeef0;}.cls-26{fill:#0899e8;}.cls-27{fill:#cfcfd0;}.cls-28{fill:#e4e4e6;}.cls-29{fill:#fcfcff;}.cls-30{fill:#0782c7;}.cls-31{fill:#57c3ff;}.cls-32{fill:#b3b3b6;}.cls-33{fill:#8f8f91;}.cls-34{fill:#ccccd0;}.cls-35{fill:#a6a6aa;}.cls-36{fill:#c1c1c2;}.cls-37{fill:#ececed;}.cls-38{fill:#d8d8da;}.cls-39{fill:#0a88a8;}.cls-40{fill:#989899;mix-blend-mode:overlay;}.cls-41{fill:#595959;}.cls-42{fill:#c6c6c7;}.cls-43{fill:#a4a4a5;}.cls-44{fill:#005730;}.cls-45{fill:#1f7d75;}.cls-46{fill:#56af97;}.cls-47{fill:#70e3c4;}.cls-48{fill:#dfdfe0;}.cls-49{fill:#70d4a7;}.cls-50{fill:#3dffa8;}.cls-51{fill:#00a35a;}.cls-52{fill:#c4c4c4;}.cls-53{fill:#8fa4a5;}.cls-54{fill:#fff;}.cls-55{fill:#309afc;}.cls-55,.cls-56,.cls-57,.cls-58,.cls-59{mix-blend-mode:luminosity;}.cls-56{fill:#00b0ae;}.cls-57{fill:#4fe4ff;}.cls-58{fill:#1b588f;}.cls-59{fill:#397bb8;}.cls-60{fill:#528200;mix-blend-mode:hue;}.cls-61{fill:#214239;}.cls-62{fill:#bcbcbc;}.cls-63{fill:#d5d5d5;}.cls-64{fill:#f0f0f0;}.cls-65{filter:url(#luminosity-noclip);}</style><filter id="luminosity-noclip" x="70.3" y="-8422.76" width="36.37" height="32766" filterUnits="userSpaceOnUse" color-interpolation-filters="sRGB"><feFlood flood-color="#fff" result="bg"/><feBlend in="SourceGraphic" in2="bg"/></filter><mask id="mask" x="70.3" y="-8422.76" width="36.37" height="32766" maskUnits="userSpaceOnUse"><g class="cls-65"/></mask><radialGradient id="radial-gradient" cx="395.72" cy="251.78" r="16.2" gradientTransform="matrix(-1, 0.03, 0.03, 1, 471.4, -147.92)" gradientUnits="userSpaceOnUse"><stop offset="0" stop-color="#e5e5e5"/><stop offset="1"/></radialGradient><linearGradient id="linear-gradient" x1="369.25" y1="171.5" x2="425.67" y2="276.7" gradientTransform="matrix(-1, 0.03, 0.03, 1, 471.4, -147.92)" gradientUnits="userSpaceOnUse"><stop offset="0" stop-color="#7e7e7e"/><stop offset="0.19" stop-color="#e7e7e7"/><stop offset="0.24" stop-color="#e3e3e3"/><stop offset="0.28" stop-color="#d8d8d8"/><stop offset="0.32" stop-color="#c9c9c9"/><stop offset="0.72" stop-color="#6c6c6c"/><stop offset="1" stop-color="#272727"/></linearGradient><filter id="luminosity-noclip-2" x="70.3" y="40.65" width="36.37" height="84.13" filterUnits="userSpaceOnUse" color-interpolation-filters="sRGB"><feFlood flood-color="#fff" result="bg"/><feBlend in="SourceGraphic" in2="bg"/></filter><mask id="mask-2" x="70.3" y="40.65" width="36.37" height="84.13" maskUnits="userSpaceOnUse"><g class="cls-1"><path class="cls-2" d="M106.54,41.78l.13.43s-3.82,4-5.41,5.5-2.63,1.89-3.69,5.77S93.71,68,93,70.74A103.76,103.76,0,0,1,87.8,87.28c-3.73,9.46-5.92,14-5.92,14L81,102.48s-.65,2.15-1.42,4.15a50.45,50.45,0,0,0-2.52,8.31c-.72,3.57-.63,5.13-1.83,7.93s-5,2.35-4.93-.22A17,17,0,0,1,72.08,116c.65-1.4,3-11.23,3.49-14.3s2.22-15,4.06-23S86.8,53.92,86.8,53.92s1-4.72,2.12-6.07A41.4,41.4,0,0,1,94.19,43c1.4-1,2.94-2.29,2.94-2.29h.31s-1.86,1.43-3.88,3.19-4.31,3.85-4.72,5-2.34,8.07-2.72,9.6-3,10.46-3.64,12.87-2,5.29-2.78,9.26-3.26,19-3.26,19-.37,2.72-1.17,6.13l-1.84,7.87h.16s1-3.46,1.5-4.64,3-7.87,3-7.87,4.77-15,7.47-21.68,10-25.52,10-25.52a12.6,12.6,0,0,1,3.18-5.35C101,46.4,106.54,41.78,106.54,41.78Z"/></g></mask><radialGradient id="radial-gradient-2" cx="395.72" cy="251.78" r="16.2" gradientTransform="matrix(-1, 0.03, 0.03, 1, 471.4, -147.92)" gradientUnits="userSpaceOnUse"><stop offset="0" stop-color="#fff"/><stop offset="1" stop-color="#fff"/></radialGradient></defs><title>Equipment</title><g class="cls-3"><g id="Layer_2" data-name="Layer 2"><g id="Layer_1-2" data-name="Layer 1"><rect class="cls-4" width="170.55" height="170.55"/><polygon class="cls-5" points="45.79 74.75 43.32 74.74 43.38 62.39 45.86 62.41 45.79 74.75"/><polygon class="cls-6" points="45.86 62.41 43.38 62.39 46.33 48.39 48.8 48.41 45.86 62.41"/><polygon class="cls-7" points="43.38 62.39 43.32 74.74 44.52 74.74 44.58 62.4 43.38 62.39"/><polygon class="cls-8" points="46.33 48.39 43.38 62.39 44.58 62.4 47.53 48.4 46.33 48.39"/><path class="cls-8" d="M58,45.11c-1.09,4.42-4.89,7.28-8.48,6.4s-5.76-4.79-4.68-9.21,4.89-7.28,8.48-6.39S59,40.69,58,45.11Z"/><path class="cls-6" d="M59.14,45.76c-1.09,4.41-4.89,7.28-8.48,6.39S45,47,46.13,42.55s4.88-7.28,8.48-6.4S60.23,41.34,59.14,45.76Z"/><path class="cls-9" d="M58.83,45.68c-1,4.21-4.65,6.94-8.08,6.1s-5.35-5-4.31-9.15,4.65-6.94,8.07-6.1S59.87,41.47,58.83,45.68Z"/><path class="cls-10" d="M58,45.48c-.9,3.64-4,6-7,5.27s-4.64-4.27-3.74-7.92,4-6,7-5.28S58.9,41.83,58,45.48Z"/><path class="cls-11" d="M57.52,45.12c-.86,3.48-3.85,5.74-6.69,5s-4.43-4.09-3.57-7.57,3.85-5.74,6.68-5.05S58.38,41.63,57.52,45.12Z"/><rect class="cls-9" x="41.19" y="73.98" width="7.28" height="47.26" transform="translate(0.71 -0.32) rotate(0.41)"/><rect class="cls-12" x="43.16" y="73.98" width="3.34" height="47.26" transform="translate(0.71 -0.32) rotate(0.41)"/><rect class="cls-13" x="41.19" y="77.88" width="7.28" height="39.47" transform="translate(0.71 -0.32) rotate(0.41)"/><rect class="cls-14" x="42.65" y="77.88" width="4.36" height="39.47" transform="translate(0.71 -0.32) rotate(0.41)"/><path class="cls-15" d="M50.83,50.16c2.84.7,5.83-1.56,6.69-5a7,7,0,0,0-1.1-5.95l-7.57,9.91A4.43,4.43,0,0,0,50.83,50.16Z"/><path class="cls-16" d="M41.05,117.16v.16h.51l.95-.94h0l.5.51.44.45h.9l1-.94.94,1h.9l1-.94.21.22v-1l-.22.22L47,114.74l1.14-1.12.21.22v-1l-.22.22L47,111.94l1.14-1.12.21.22v-1l-.22.22L47,109.14,48.18,108l.21.22v-1l-.22.22-1.12-1.14,1.14-1.12.21.22v-1l-.22.22-1.12-1.14,1.14-1.12.21.22v-1l-.22.22-1.12-1.14,1.14-1.12.21.22v-1l-.22.22-1.12-1.14,1.14-1.12.21.22v-1l-.22.22-1-1-.12-.12L48.28,94l.11.12.1.1v-1l-.22.22-1.12-1.14,1.14-1.12.21.22v-1l-.22.22-1.12-1.14,1.14-1.12.21.22v-1l-.22.22L47.2,86.74l1.14-1.12.21.22v-1l-.22.22-1.12-1.14,1.14-1.12.21.22v-1l-.22.22-1.12-1.14L48.38,80l.21.22v-1l-.22.22-1.12-1.14.45-.44h-.54l0,0-.16.16-.17-.18h-.54l.36.37.08.08-.08.08-1.06,1-1.12-1.14.45-.44h-.54l-.18.18L44,77.87h-.54l.44.45-.63.61-.51.51h0L41.66,78.3l.45-.44h-.54l-.18.18L41.33,78v.67h0l.06-.05,1.12,1.14-1.14,1.12-.06-.07v.67h0l.06,0,1.12,1.14-1.14,1.12-.06-.07v.67h0l0,0,0,0,1.12,1.14,0,0-1.12,1.1-.06-.07V87h0l.06,0,1.12,1.14-1.14,1.12-.06-.07v.67h0l.06,0,1.12,1.14L41.29,92,41.23,92v.66h0l.06-.06,1.12,1.14-1.14,1.12-.06-.07v.67h0l.06-.06,1.12,1.14-1.14,1.12-.06-.07v.67h0l.06-.06,1.12,1.14-1.14,1.12-.06-.07V101h0l.06-.06.15.15,1,1-1.14,1.12-.06-.06v.66h0l.06-.06,1.12,1.14L41.19,106l-.06-.07v.67h0l.06-.05,1.12,1.14-1.14,1.12-.06-.07v.67h0l.06,0,1.12,1.14-1.14,1.12-.06-.07v.67h0l.06,0,1.12,1.14-1.14,1.12-.06-.07V115h0l.06,0,1.12,1.14-1.14,1.12Zm1.5-6.38h0l.5.51.62.63-.63.62-.51.5-1.12-1.14Zm1.6-27.13-.88-.9L43,82.51l.24-.24.9-.88,1.12,1.14Zm0,.54,1.12,1.14-1.14,1.12-.88-.9L43,85.31l.24-.24Zm1.41-1.39,1,1.06.08.08L46.6,84l-1.06,1-1.12-1.14Zm0,2.8,1,1.06.08.08-.08.08-1.06,1L44.4,86.72Zm-.78,2,.49.51-1.14,1.12-.88-.9L43,88.11l.24-.24.9-.88.4.4ZM42.91,99.31l.24-.24.9-.88.13.14,1,1L44,100.45l-.88-.9ZM44,108.85l-.88-.9-.24-.24.24-.23.9-.89,1.12,1.14Zm0,.54,1.12,1.14L44,111.65l-.88-.9-.24-.24.24-.23Zm0-3.34-.88-.9-.24-.24.24-.23.9-.89,1.12,1.14Zm0-2.8-.88-.9-.24-.24.24-.24L44,101l1.12,1.14Zm0-5.6-.88-.9-.24-.24.24-.24.9-.88,1.12,1.14Zm0-2.8-.88-.9L43,93.71l.24-.24.9-.88,1.12,1.14Zm0-2.8-.88-.9L43,90.91l.24-.24.9-.88,1.12,1.14Zm2.55-2.51-.08.08-1.06,1-1.12-1.14,1.14-1.12,1,1.06ZM45.5,91.2l1,1.06.08.08-.08.08-1.06,1-1.12-1.14Zm0,2.8,1,1.06.08.08-.08.08-1.06,1-1.12-1.14Zm.11,2.93.91.93.08.08L46.5,98l-1.06,1-1-1-.13-.14,1.14-1.12Zm-.15,2.67,1,1.06.08.08-.08.08-1.06,1-1.12-1.14Zm0,2.8,1,1.06.08.08-.08.08-1.06,1-1.12-1.14Zm0,2.8,1,1.06.08.08-.08.08-1.06,1-1.12-1.14Zm0,2.8,1,1.06.08.08-.08.08-1.06,1-1.12-1.14Zm0,2.8,1,1.06.08.08-.08.08-1.06,1-1.12-1.14Zm-.29,2.53-1.14,1.12-.88-.9-.24-.24.24-.23.9-.89ZM42.57,108h0l.5.51.62.63-.63.62-.51.5-1.12-1.14Zm0-2.8h0l.5.51.62.63-.63.62-.51.5h0l-1.12-1.13Zm0-2.8h0l.5.51.62.63-.63.62-.51.5h0l-1.12-1.13Zm0-2.8h0l.14.14.36.37.62.63-.63.62-.51.5h0l-1-1-.15-.15Zm0-2.8h0l.5.51.62.63-.63.62-.51.5h0L41.52,97.9Zm0-2.8h0l.5.51.62.63-.63.62-.51.5h0L41.54,95.1Zm0-2.8h0l.5.51.62.63-.63.62-.51.5h0L41.56,92.3Zm0-2.8.5.51.62.63-.63.62-.51.5h0L41.58,89.5Zm0-2.78,0,0,.5.51.62.63-.63.62-.51.5h0L41.6,86.7Zm0-2.82.5.51.62.63-.63.62-.51.5h0L41.62,83.9Zm0-2.8.5.51.62.63-.63.61-.51.51h0L41.64,81.1,42.77,80Zm2.53-.25-1.14,1.12-.88-.9-.24-.24.24-.24.9-.88Zm.27.27,1,1.06.08.08-.08.08-1.06,1-1.12-1.14Zm1.55.71-.16.16-.35-.35-.77-.79.78-.77.36-.35.15.15h0l1,1Zm0,2.8-.16.16-.35-.35-.77-.79.78-.77.36-.35.15.15h0l1,1Zm0,2.8-.16.16-.35-.35-.77-.79.78-.77.36-.35.15.15h0l1,1Zm0,2.8-.16.16-.35-.35-.77-.79.78-.77.36-.35.15.15h0l1,1Zm0,2.8-.16.16-.35-.35-.77-.79.78-.77.36-.35.15.15h0l1,1Zm0,2.8-.16.16-.35-.35-.77-.79.78-.77.36-.35.15.15h0l1,1Zm0,2.8-.16.16-.35-.35-.64-.66-.13-.13.78-.77.36-.35.12.12,0,0h0l1,1Zm0,2.8-.16.16-.35-.35-.77-.79.78-.77.36-.35.15.15h0l1,1Zm0,2.8-.16.16-.35-.35-.77-.79.78-.77.36-.35.15.15h0l1,1Zm0,2.8-.16.16-.35-.35-.77-.79.78-.77.36-.35L47,104h0l1,1Zm0,2.8-.16.16-.35-.35-.77-.79.78-.77.36-.35.15.15h0l1,1Zm0,2.8-.16.16-.35-.35-.77-.79.78-.77.36-.35.15.15h0l1,1Zm0,2.8-.16.16-.35-.35-.77-.79.78-.77.36-.35.15.15h0l1,1Zm-1.3,1.82.78-.77.36-.35.15.15h0l1,1-1,1-.16.16-.35-.36Zm-.27-.27-1.12-1.14,1.14-1.12,1,1.06.08.08-.08.08Zm-2.53.25.24-.23.9-.89,1.12,1.14-1.14,1.12-.88-.9ZM41.4,114.7l1.13-1.12h0l.5.51.62.63-.63.62-.51.5Z"/><path class="cls-17" d="M42.51,116.38h0l.5.51.44.45h.9l1-.94.94,1h.61v-.25l-.16.16-.35-.36-.77-.78.78-.77.36-.35.15.15v-.85l-.16.16-.35-.35-.77-.79.78-.77.36-.35.15.15v-.85l-.16.16-.35-.35-.77-.79.78-.77.36-.35.15.15v-.85l-.16.16-.35-.35-.77-.79.78-.77.36-.35.15.15v-.85l-.16.16-.35-.35-.77-.79.78-.77.36-.35L47,104v-.85l-.16.16-.35-.35-.77-.79.78-.77.36-.35.15.15v-.85l-.16.16-.35-.35-.77-.79.78-.77.36-.35.15.15v-.85l-.16.16-.35-.35-.64-.66-.13-.13.78-.77.36-.35.12.12,0,0v-.85l-.16.16-.35-.35-.77-.79.78-.77.36-.35.15.15v-.85l-.16.16-.35-.35-.77-.79.78-.77.36-.35.15.15v-.85l-.16.16-.35-.35-.77-.79.78-.77.36-.35.15.15v-.85l-.16.16-.35-.35-.77-.79.78-.77.36-.35.15.15v-.85l-.16.16-.35-.35-.77-.79.78-.77.36-.35.15.15v-.85l-.16.16-.35-.35-.77-.79.78-.77.36-.35.15.15v-.85l-.16.16-.17-.18h-.54l.36.37.08.08-.08.08-1.06,1-1.12-1.14.45-.44h-.54l-.18.18L44,77.87h-.54l.44.45-.63.61-.51.51V80l.5.51.62.63-.63.61-.51.51v.54l.5.51.62.63-.63.62-.51.5v.54l.5.51.62.63-.63.62-.51.5v.54l.5.51.62.63-.63.62-.51.5v.54h0l.5.51.62.63-.63.62-.51.5V94h0l.5.51.62.63-.63.62-.51.5v.54h0l.5.51.62.63-.63.62-.51.5v.54h0l.14.14.36.37.62.63-.63.62-.51.5h0v.53h0l.5.51.62.63-.63.62-.51.5v.54h0l.5.51.62.63-.63.62-.51.5V108h0l.5.51.62.63-.63.62-.51.5v.54h0l.5.51.62.63-.63.62-.51.5v.54h0l.5.51.62.63-.63.62-.51.5ZM44,112.19l1.12,1.14-1.14,1.12-.88-.9-.24-.24.24-.23Zm0-2.8,1.12,1.14L44,111.65l-.88-.9-.24-.24.24-.23Zm0-2.8,1.12,1.14L44,108.85l-.88-.9-.24-.24.24-.23Zm0-2.8,1.12,1.14L44,106.05l-.88-.9-.24-.24.24-.23Zm0-2.8,1.12,1.14L44,103.25l-.88-.9-.24-.24.24-.24Zm0-2.8.13.14,1,1L44,100.45l-.88-.9-.24-.24.24-.24Zm0-2.8,1.12,1.14-1.14,1.12-.88-.9-.24-.24.24-.24Zm0-2.8,1.12,1.14-1.14,1.12-.88-.9L43,93.71l.24-.24Zm0-2.8,1.12,1.14-1.14,1.12-.88-.9L43,90.91l.24-.24Zm0-2.8.4.4.23.23.49.51-1.14,1.12-.88-.9L43,88.11l.24-.24Zm0-2.8,1.12,1.14-1.14,1.12-.88-.9L43,85.31l.24-.24Zm0-2.8,1.12,1.14-1.14,1.12-.88-.9L43,82.51l.24-.24Zm1.14-1.66-1.14,1.12-.88-.9-.24-.24.24-.24.9-.88Zm.25,2.53-1.12-1.14L45.58,80l1,1.06.08.08-.08.08Zm0,2.8-1.12-1.14,1.14-1.12,1,1.06.08.08L46.6,84Zm0,2.8L44.4,86.72l1.14-1.12,1,1.06.08.08-.08.08Zm0,2.8-1.12-1.14,1.14-1.12,1,1.06.08.08-.08.08Zm0,2.8-1.12-1.14L45.5,91.2l1,1.06.08.08-.08.08Zm0,2.8-1.12-1.14L45.48,94l1,1.06.08.08-.08.08Zm0,2.8-1-1-.13-.14,1.14-1.12.13.13.91.93.08.08L46.5,98Zm0,2.8-1.12-1.14,1.14-1.12,1,1.06.08.08-.08.08Zm0,2.8-1.12-1.14,1.14-1.12,1,1.06.08.08-.08.08Zm0,2.8-1.12-1.14,1.14-1.12,1,1.06.08.08-.08.08Zm0,2.8-1.12-1.14L45.38,108l1,1.06.08.08-.08.08Zm0,2.8-1.12-1.14,1.14-1.12,1,1.06.08.08-.08.08Zm0,2.8-1.12-1.14,1.14-1.12,1,1.06.08.08-.08.08Zm-2.53.25.24-.23.9-.89,1.12,1.14-1.14,1.12-.88-.9Z"/><path class="cls-7" d="M58.45,54.6a10,10,0,0,0-.3,3.22c0,.09.06,6.41.06,6.5l-3.12,0c0-.09-.07-6.41-.08-6.5a10.76,10.76,0,0,1,.74-4.31,8.91,8.91,0,0,1,3-3.5c1.08-.83,2.29-1.59,3.16-2.28s1.19-1.32.85-2.3a17.86,17.86,0,0,0-1.55-3c-.59-1-1.1-2-1.54-2.85a9.49,9.49,0,0,0-2.94-3.5,4,4,0,0,0-1.57-.71l0-.31a4.36,4.36,0,0,1,1.81.56A10.2,10.2,0,0,1,60.6,39c.59.85,1.15,1.71,1.84,2.61a16.64,16.64,0,0,1,2,3.18,3.69,3.69,0,0,1,.22,2.47,4.91,4.91,0,0,1-1.31,2.07c-1.08,1-2.08,1.76-3,2.63A6,6,0,0,0,58.45,54.6Z"/><path class="cls-5" d="M55.75,53.54a8.91,8.91,0,0,1,3-3.5c1.08-.83,2.29-1.59,3.16-2.28s1.19-1.32.85-2.3a17.86,17.86,0,0,0-1.55-3c-.59-1-1.1-2-1.54-2.85a9.49,9.49,0,0,0-2.94-3.5,4,4,0,0,0-1.57-.71v-.14h0A6.51,6.51,0,0,1,59,37.78c1.63,2.17,5.47,7.4,4.8,8.88-1.34,3-5.74,4.81-6.69,7s-.43,8.84-.43,8.84L55.06,61.4c0-1.7-.05-3.5-.05-3.55A10.76,10.76,0,0,1,55.75,53.54Z"/><path class="cls-7" d="M55.23,116a10.09,10.09,0,0,0,.31-3.23c0-.08-.06-6.41-.06-6.49l3.12,0c0,.09.07,6.41.08,6.5a10.61,10.61,0,0,1-.75,4.31,8.84,8.84,0,0,1-3,3.51c-1.08.83-2.29,1.58-3.16,2.27s-1.19,1.32-.85,2.31a18.16,18.16,0,0,0,1.55,3c.59,1,1.1,2,1.54,2.85A9.53,9.53,0,0,0,57,134.45a4.09,4.09,0,0,0,1.57.7l0,.32a4.63,4.63,0,0,1-1.82-.56,10.36,10.36,0,0,1-3.61-3.38c-.59-.86-1.15-1.72-1.84-2.61a17.06,17.06,0,0,1-2-3.19,3.61,3.61,0,0,1-.22-2.46,5,5,0,0,1,1.3-2.08c1.09-1,2.09-1.75,3-2.63A6,6,0,0,0,55.23,116Z"/><path class="cls-5" d="M57.93,117a8.84,8.84,0,0,1-3,3.51c-1.08.83-2.29,1.58-3.16,2.27s-1.19,1.32-.85,2.31a18.16,18.16,0,0,0,1.55,3c.59,1,1.1,2,1.54,2.85A9.53,9.53,0,0,0,57,134.45a4.09,4.09,0,0,0,1.57.7v.14h0a6.51,6.51,0,0,1-3.82-2.52c-1.63-2.17-5.47-7.4-4.8-8.88,1.33-3,5.74-4.8,6.69-7S57,108,57,108l1.6,1.13c0,1.69,0,3.49,0,3.54A10.61,10.61,0,0,1,57.93,117Z"/><rect class="cls-9" x="53.31" y="59.3" width="6.95" height="52.06" transform="translate(114.45 170.06) rotate(179.4)"/><rect class="cls-12" x="55.19" y="59.3" width="3.18" height="52.06" transform="translate(114.45 170.06) rotate(179.4)"/><rect class="cls-13" x="53.31" y="63.59" width="6.95" height="43.48" transform="translate(114.45 170.06) rotate(179.4)"/><rect class="cls-14" x="54.7" y="63.59" width="4.16" height="43.48" transform="translate(114.45 170.06) rotate(179.4)"/><path class="cls-16" d="M60.42,106.93l-1.09-1.23,1.06-1.25.07.07v-.74l-.06.07-1.09-1.23,1.06-1.26.06.07v-.74h0l0,.06-1.09-1.23,1.06-1.25.06.07v-.74l-.06.07-1.09-1.23,1.07-1.26.06.07v-.74l-.06.08L59.2,93.36l1.06-1.25.07.07v-.74l-.06.07-1.09-1.23L60.23,89l.06.07v-.73l-.06.07-1.09-1.24,1.06-1.25.06.07v-.74l-.06.07L59.1,84.11l1.07-1.26.06.07v-.73l-.06.07L59.07,81l1.07-1.25.06.07V79.1l-.06.07L59,77.94l1.06-1.26.06.07h0V76l-.06.07L59,74.86l1.06-1.26.06.07v-.74l-.07.07L59,71.77,60,70.52l.06.07v-.74l-.06.07-1.09-1.23L60,67.43l.06.07v-.74l-.06.07L58.91,65.6,60,64.35l.06.06h0v-.74l-.06.07-.17-.19h-.52l.43.48L58.65,65.3l-.49-.55-.38-.42-.22-.26.42-.49h-.52l-.16.19-.17-.19h-.52l.43.49-.22.26-.84,1-.86-1,0,0L55,64.19l-.08-.09L55,64l.11-.13.23-.27h-.53l-.16.19-.15-.17h-.53l.43.49-1.06,1.25-.21-.23V66.2l.2-.24,1.09,1.23-1.06,1.26-.21-.24v1.07l.2-.24,1.09,1.24-1.06,1.25-.21-.24v1.08h0l.2-.23,1.09,1.23L53.4,74.62l-.2-.23h0v1.06h0l.2-.23,1.09,1.24L53.43,77.7l-.2-.24v1.08l.2-.24,1.09,1.23-1.06,1.25-.21-.23v1.07l.2-.24.68.76.41.47L53.5,83.87l-.21-.24v1.08l.21-.24L54.6,85.7,53.53,87l-.21-.23v1.07h0l.2-.23,1.09,1.23L53.56,90l-.2-.23h0v1.08l.2-.24,1.09,1.23L53.6,93.12l-.21-.23V94l.2-.24L54.69,95l-1.06,1.26L53.42,96v1.08l.2-.25L54.72,98l-1.06,1.25-.21-.21v1h0l.2-.23,1.09,1.23-1.07,1.26-.2-.23h0v1.07l.2-.24,1.09,1.24-1.06,1.25-.21-.24v1.08l.2-.24.92,1h.86l.72-.85.17-.2.18.2.74.84h.86l.42-.5.47-.56h0l.91,1h.49v-.17Zm-.32-5.86L59,102.32l-.49-.55-.6-.68.58-.69.48-.56Zm-4.83.05.08-.1,1-1.16,1.09,1.23-1.07,1.26-1-1.12h0Zm-.16-15.43.08-.1,1-1.15,1.09,1.23L56.2,86.93l-1-1.13h0ZM55,70.27l.08-.1L56,69l1.09,1.23L56,71.5l-1-1.12h0ZM58.23,72l-.84,1L56.3,71.8l1.07-1.26.86,1,.23.26-.23.25Zm.21,5.82.08.09-.22.26-.84,1L57.29,79l-.92-1,1.06-1.26.86,1h0Zm.21,12.42-.22.26-.84,1L56.5,90.31l1.06-1.26.86,1h0Zm-1,7.43-1.09-1.23,1.07-1.26.86,1,.23.26-.22.26h0Zm0,.59.86,1,.23.26-.22.26-.85,1-1.09-1.23Zm0-3.68-1.09-1.23,1.06-1.25.87,1,.22.25-.22.26Zm-.07-6.17-1.09-1.23L57.53,86l.86,1,.23.26-.22.26Zm0-3.08-1.09-1.23,1.07-1.26.86,1,.23.26-.22.26h0Zm0-3.08L56.4,81.05l1.06-1.25.87,1,.22.25-.22.26Zm-1.15-7.41,1.06-1.25.86,1,.23.26-.22.26-.84,1Zm1-4.93-1.09-1.24,1.06-1.25.87,1,.23.26L58.2,69ZM56.05,72.1l1.09,1.23-1.07,1.26-1-1.13-.09-.1.08-.1h0Zm0,3.08,1.09,1.24-1.06,1.25-1-1.14L55,76.44l.08-.09ZM57,79.29l.19.21-1.06,1.26-.28-.32-.73-.83-.08-.09.08-.09,1-1.16Zm.22,3.3-1.06,1.25-1-1.14-.08-.09.08-.1,1-1.16Zm-1,4.93,1.09,1.24L56.24,90l-1-1.13-.09-.1.08-.1h0Zm1.12,4.32L56.27,93.1l-1-1.15-.08-.09.08-.09,1-1.16Zm0,3.08L56.3,96.18l-1-1.14L55.21,95l.08-.09,1-1.17Zm-1,1.86L57.4,98l-1.07,1.25-1-1.14L55.24,98l.08-.09Zm1.38,4.61.87,1h0l.22.25-.22.26-.84,1-1.09-1.24ZM60.07,98,59,99.23h0l-.48-.55L57.91,98l.59-.69.48-.56Zm0-3.08L59,96.13l-.49-.53-.6-.68.59-.69.48-.56Zm0-3.09-1.06,1.25-.49-.55-.6-.68.59-.69.47-.56h0Zm0-3.08L58.91,90l-.49-.55-.6-.68.58-.69.48-.56Zm0-3.09-1.06,1.25h0l-.48-.55-.61-.68.59-.7.48-.56Zm0-3.08-1.07,1.25-.49-.55-.6-.68.59-.69.48-.56Zm0-3.09-1.06,1.26-.49-.55-.6-.68.59-.7.47-.56h0Zm0-3.08-.44.51h0l-.62.73-.05-.06-.44-.5-.6-.67.58-.69.48-.56Zm0-3.09-1.06,1.26L58.26,74h0l-.61-.67.59-.7.48-.55Zm0-3.08-1.06,1.25h0l-.49-.55-.6-.69.59-.69.48-.56Zm-1.12-4.31,1.08,1.23-1.06,1.25-.49-.55-.6-.68.59-.7.47-.55ZM57.3,64.37l.86,1,.23.26-.22.26-.84,1-1.09-1.23Zm-.23,2.79L56,68.42l-1-1.14-.08-.09.08-.1,1-1.16Zm-3.5-1.5.91-1.08.15-.18.35.39.74.85-.73.85h0l-.33.39-.15-.17h0Zm0,3.08.91-1.08h0l.14-.17.35.39.74.84-.72.86-.34.4-.15-.17v0Zm0,3.09.92-1.07v0l.15-.17L55,71l.75.85-.73.86-.34.4-.15-.17Zm0,3.08.92-1.07h0l.15-.17.34.39.75.84-.73.85-.34.4L54.6,76Zm0,3.09.91-1.08h0l.15-.17.34.39h0l.75.83-.73.86-.33.4-.15-.17h0Zm.73,3.87-.7-.79L54.64,80h0l.14-.17.35.39.44.5.3.34-.73.85h0l-.33.39-.15-.17Zm-.67,2.3.92-1.09.14-.17.35.39.75.84-.73.86-.34.4-.15-.17Zm0,3.08.92-1.08.15-.18.34.39.75.85-.73.85-.34.4-.15-.17Zm0,3.08.91-1.07h0l.15-.17.34.39.75.84-.73.87-.33.39-.15-.17h0Zm0,3.09.91-1.09h0l.14-.17.34.39h0l.75.84-.73.86-.33.39-.15-.17Zm0,3.08.92-1.08.14-.17.35.39.74.84-.73.85h0l-.33.4-.15-.17Zm0,3.09.92-1.08.15-.18.34.39.75.85-.73.86-.34.39-.15-.17Zm0,3.08.92-1.08.15-.17.34.38.75.85-.73.86-.34.4-.15-.15v0Zm1.53,3.84-.07.09-.33.39-.15-.17L54,105.76l.91-1.09.15-.17.34.39.75.84-.43.51Zm.92-1.08-1-1.14-.08-.09.07-.09h0l1-1.15,1.09,1.23Zm2.19.54-.21.24-.63.75-.65-.74-.44-.49,1.06-1.26.87,1,.22.25Zm.48-.57-.49-.55-.6-.68.59-.69.47-.56h0l1.08,1.22Z"/><path class="cls-17" d="M59.07,105.4l-.49-.55-.6-.68.59-.69.47-.56h0v-.6l-.49-.55-.6-.68.58-.69.48-.56v-.61h0l-.48-.55L57.91,98l.59-.69.48-.56v-.62l-.49-.53-.6-.68.59-.69.48-.56h0v-.6l-.49-.55-.6-.68.59-.69.47-.56h0V90l-.49-.55-.6-.68.58-.69.48-.56v-.61h0l-.48-.55-.61-.68.59-.7.48-.56v-.6h0l-.49-.55-.6-.68.59-.69.48-.56v-.6l-.49-.55-.6-.68.59-.7.47-.56h0v-.6l-.05-.06-.44-.5-.6-.67.58-.69.48-.56v-.6L58.26,74h0l-.61-.67.59-.7.48-.55v-.61h0l-.49-.55-.6-.69.59-.69.48-.56v-.6l-.49-.55-.6-.68.59-.7.47-.55h0v-.6h0l-.49-.55-.38-.42-.22-.26.42-.49h-.52l-.16.19-.17-.19h-.52l.43.49-.22.26-.84,1-.86-1,0,0L55,64.19l-.08-.09L55,64l.11-.13.23-.27h-.53l-.16.19-.15-.17v.94l.15-.18.35.39.74.85-.73.85h0l-.33.39-.15-.17v.94l.14-.17.35.39.74.84-.72.86-.34.4-.15-.17v.93l.15-.17L55,71l.75.85-.73.86-.34.4-.15-.17v.94l.15-.17.34.39.75.84-.73.85-.34.4L54.6,76v.94l.15-.17.34.39h0l.75.83-.73.86-.33.4-.15-.17V80l.14-.17.35.39.44.5.3.34-.73.85h0l-.33.39-.15-.17v.94l.14-.17.35.39.75.84-.73.86-.34.4-.15-.17v.94l.15-.18.34.39.75.85-.73.85-.34.4-.15-.17v.94l.15-.17.34.39.75.84-.73.87-.33.39-.15-.17v.93l.14-.17.34.39h0l.75.84-.73.86-.33.39-.15-.17v.94l.14-.17.35.39.74.84-.73.85h0l-.33.4-.15-.17v.94l.15-.18.34.39.75.85-.73.86-.34.39-.15-.17v.94l.15-.17.34.38.75.85-.73.86-.34.4-.15-.15v.91l.15-.17.34.39.75.84-.43.51-.23.27-.07.09-.33.39-.15-.17v.27h.58l.72-.85.17-.2.18.2.74.84h.86l.42-.5.47-.56h0Zm-.51-3h0l.22.25-.22.26-.84,1-1.09-1.24,1.06-1.25Zm0-3.08.23.26-.22.26-.85,1-1.09-1.23,1.07-1.26Zm0-3.09.23.26-.22.26h0l-.85,1-1.09-1.23,1.07-1.26Zm0-3.07.22.25-.22.26-.84,1-1.09-1.23,1.06-1.25Zm0-3.09h0l.23.24-.22.26-.84,1L56.5,90.31l1.06-1.26Zm0-3.09.23.26-.22.26-.85,1-1.09-1.23L57.53,86Zm0-3.09.23.26-.22.26h0l-.85,1-1.09-1.23,1.07-1.26Zm0-3.07.22.25-.22.26-.84,1L56.4,81.05l1.06-1.25Zm0-3.09h0l.15.16.08.09-.22.26-.84,1L57.29,79l-.92-1,1.06-1.26Zm0-3.09.23.26-.22.26-.84,1-1.09-1.24,1.06-1.25Zm0-3.08.23.26-.23.25h0l-.84,1L56.3,71.8l1.07-1.26Zm0-3.09.23.26L58.2,69l-.84,1-1.09-1.24,1.06-1.25Zm-.9-4.06.86,1,.23.26-.22.26-.84,1-1.09-1.23ZM55,67.28l-.08-.09.08-.1,1-1.16,1.09,1.23L56,68.42Zm0,3.1h0l-.08-.1.08-.1L56,69l1.09,1.23L56,71.5Zm0,3.08-.09-.1.08-.1h0l1-1.15,1.09,1.23-1.07,1.26Zm0,3.07L55,76.44l.08-.09,1-1.17,1.09,1.24-1.06,1.25Zm.76,3.91-.73-.83-.08-.09.08-.09,1-1.16.9,1,.19.21-1.06,1.26Zm-.7,2.26-.08-.09.08-.1,1-1.16,1.09,1.24-1.06,1.25Zm0,3.1h0l-.08-.1.08-.1,1-1.15,1.09,1.23L56.2,86.93Zm0,3.08-.09-.1.08-.1h0l1-1.15,1.09,1.24L56.24,90Zm0,3.07-.08-.09.08-.09,1-1.16,1.09,1.23L56.27,93.1Zm0,3.09L55.21,95l.08-.09,1-1.17,1.09,1.23L56.3,96.18Zm0,3.08L55.24,98l.08-.09,1-1.16L57.4,98l-1.07,1.25Zm0,3.11h0l-.08-.1.08-.1,1-1.16,1.09,1.23-1.07,1.26Zm1,4.2-1-1.14-.08-.09.07-.09h0l1-1.15,1.09,1.23Zm2.19.54-.21.24-.63.75-.65-.74-.44-.49,1.06-1.26.87,1,.22.25Z"/><g id="Tweezers_pickerd_up"><path class="cls-18" d="M106.54,41.78l.13.43s-3.82,4-5.41,5.5-2.63,1.89-3.69,5.77S93.71,68,93,70.74A103.76,103.76,0,0,1,87.8,87.28c-3.73,9.46-5.92,14-5.92,14L81,102.48s-.65,2.15-1.42,4.15a50.45,50.45,0,0,0-2.52,8.31c-.72,3.57-.63,5.13-1.83,7.93s-5,2.35-4.93-.22A17,17,0,0,1,72.08,116c.65-1.4,3-11.23,3.49-14.3s2.22-15,4.06-23S86.8,53.92,86.8,53.92s1-4.72,2.12-6.07A41.4,41.4,0,0,1,94.19,43c1.4-1,2.94-2.29,2.94-2.29h.31s-1.86,1.43-3.88,3.19-4.31,3.85-4.72,5-2.34,8.07-2.72,9.6-3,10.46-3.64,12.87-2,5.29-2.78,9.26-3.26,19-3.26,19-.37,2.72-1.17,6.13l-1.84,7.87h.16s1-3.46,1.5-4.64,3-7.87,3-7.87,4.77-15,7.47-21.68,10-25.52,10-25.52a12.6,12.6,0,0,1,3.18-5.35C101,46.4,106.54,41.78,106.54,41.78Z"/><g class="cls-19"><path class="cls-20" d="M106.54,41.78l.13.43s-3.82,4-5.41,5.5-2.63,1.89-3.69,5.77S93.71,68,93,70.74A103.76,103.76,0,0,1,87.8,87.28c-3.73,9.46-5.92,14-5.92,14L81,102.48s-.65,2.15-1.42,4.15a50.45,50.45,0,0,0-2.52,8.31c-.72,3.57-.63,5.13-1.83,7.93s-5,2.35-4.93-.22A17,17,0,0,1,72.08,116c.65-1.4,3-11.23,3.49-14.3s2.22-15,4.06-23S86.8,53.92,86.8,53.92s1-4.72,2.12-6.07A41.4,41.4,0,0,1,94.19,43c1.4-1,2.94-2.29,2.94-2.29h.31s-1.86,1.43-3.88,3.19-4.31,3.85-4.72,5-2.34,8.07-2.72,9.6-3,10.46-3.64,12.87-2,5.29-2.78,9.26-3.26,19-3.26,19-.37,2.72-1.17,6.13l-1.84,7.87h.16s1-3.46,1.5-4.64,3-7.87,3-7.87,4.77-15,7.47-21.68,10-25.52,10-25.52a12.6,12.6,0,0,1,3.18-5.35C101,46.4,106.54,41.78,106.54,41.78Z"/></g><path class="cls-9" d="M106.54,41.78l.13.43s-3.82,4-5.41,5.5-2.63,1.89-3.69,5.77S93.71,68,93,70.74A103.76,103.76,0,0,1,87.8,87.28c-3.73,9.46-5.92,14-5.92,14L81,102.48s-.65,2.15-1.42,4.15a50.45,50.45,0,0,0-2.52,8.31c-.72,3.57-.63,5.13-1.83,7.93s-5,2.35-4.93-.22A17,17,0,0,1,72.08,116c.65-1.4,3-11.23,3.49-14.3s2.22-15,4.06-23S86.8,53.92,86.8,53.92s1-4.72,2.12-6.07A41.4,41.4,0,0,1,94.19,43c1.4-1,2.94-2.29,2.94-2.29h.31s-1.86,1.43-3.88,3.19-4.31,3.85-4.72,5-2.34,8.07-2.72,9.6-3,10.46-3.64,12.87-2,5.29-2.78,9.26-3.26,19-3.26,19-.37,2.72-1.17,6.13l-1.84,7.87h.16s1-3.46,1.5-4.64,3-7.87,3-7.87,4.77-15,7.47-21.68,10-25.52,10-25.52a12.6,12.6,0,0,1,3.18-5.35C101,46.4,106.54,41.78,106.54,41.78Z"/><path class="cls-21" d="M97.44,40.65l.1.37-5.71,5.62A5.82,5.82,0,0,0,89.46,51c-.41,2.84-1,6.35-1.58,10s-1.17,8.52-1.56,10.88-.38,2-1,5.17-2.36,9.61-2.79,11.56-2.61,8.56-2.84,9.23v.06l-.54,1.55-.7,1.4-.67,2.11L75,110.08l-1.83,4.84-.25-1,.48-1.64s.93-3.07,1-3.1.41-2.25.61-3.53c.08-.51.14-.87.14-.87l.78-4.5.93-5.18,1.45-8.44,1.18-6.74,1.57-6.14,1.11-2.86,3-10.18,1.91-7.48,1.5-4.53a14,14,0,0,1,1.58-2.13l4.58-3.93L96.93,41Z"/><path class="cls-22" d="M75.57,101.71c.5-3.08,2.22-15,4.06-23S86.8,53.92,86.8,53.92s1-4.72,2.12-6.07A41.4,41.4,0,0,1,94.19,43c1.4-1,2.94-2.29,2.94-2.29h.31s-1.86,1.43-3.88,3.19-4.31,3.85-4.72,5-2.34,8.07-2.72,9.6-3.24,10.57-3.89,13S81,75.71,79.91,80.18C79,84.1,76.44,99.52,76.44,99.52s-.37,2.72-1.17,6.13l-1.84,7.87h.16s1-3.46,1.5-4.64,3-7.87,3-7.87,4.77-15,7.47-21.68,10-25.52,10-25.52a12.6,12.6,0,0,1,3.18-5.35c2.28-2.07,7.83-6.69,7.83-6.69l.06.21-8,7.39a8.56,8.56,0,0,0-1.36,2.18s-4.34,12-5.51,15.26-5,12.85-5,12.85l-6.83,20.39-3.5,7-1.29,3.7c-1.32,3.67-3.44,9-3.9,11a3,3,0,0,0,.44,2.73,1.37,1.37,0,0,0,.13.13,2,2,0,0,1-1.47-2A17,17,0,0,1,72.08,116C72.73,114.61,75.06,104.78,75.57,101.71Z"/><path class="cls-22" d="M89,75.37l1.79,1.68L90.4,79l-.81,2c-.68-.62-1.35-1.25-2-1.89Z"/><path class="cls-22" d="M90.46,71.7l1.26,1.19L91,76.1l-1.66-1.57Z"/><path class="cls-22" d="M87.27,80l2,1.86-1.54,3.9L85.94,84.1Z"/><polygon class="cls-22" points="85.66 84.97 87.39 86.61 85.69 90.92 84.18 89.5 85.66 84.97"/><polygon class="cls-22" points="79.89 100.06 81.89 101.29 78.92 108.41 76.39 107.06 79.89 100.06"/><path class="cls-8" d="M89.84,79.43l.42-1.93-1.5-1.42.27-.71,1.79,1.68L90.4,79l-.81,2-.28-.25Z"/><path class="cls-8" d="M91.17,73.34l-1-.93.28-.71,1.26,1.19L91,76.1l-.38-.36Z"/><path class="cls-8" d="M88.7,82.31,87,80.75l.24-.74,2,1.86-1.54,3.9-.28-.26Z"/><polygon class="cls-8" points="86.83 87.05 85.42 85.71 85.66 84.97 87.39 86.61 85.69 90.92 85.41 90.66 86.83 87.05"/><polygon class="cls-9" points="90.84 73.41 90.44 75.55 89.36 74.53 90.06 72.72 90.84 73.41"/><path class="cls-9" d="M89.82,77.58l-.29,1.72s-.4,1.1-.42,1.06S87.62,79,87.62,79l1-2.61Z"/><polygon class="cls-9" points="86.49 87.12 85.31 90.08 84.27 89.22 85.32 85.99 86.49 87.12"/><polygon class="cls-9" points="88.32 82.44 87.37 85.01 86.04 83.79 86.91 81.12 88.32 82.44"/></g><path class="cls-6" d="M90.56,109.91c-1.39-3.15-3.46-3.87-4.44-4.11a6.37,6.37,0,0,0-3,.17c-.9.23-2.13.77-2.85.55s-1-.5-1.42-1.76h0c-.06-.2-.13-.43-.19-.69-.45-1.84-3.54-19.23-3.54-19.23L74,80.06l-1-4.4v-.07h0l-1.13-4.83h0l0-.15s0-.06,0-.09h0l-.15-.62s0,0,0,0l-4-17.07h-.23l-.13,0-.11,0a1.36,1.36,0,0,0-.25.07L66.8,53l-.14.08-.08,0-.09.07s0,0,0,.05a1.47,1.47,0,0,0-.1.13.36.36,0,0,0-.08.12.87.87,0,0,0-.07.17s0,0,0,.06a.09.09,0,0,0,0,0,.36.36,0,0,0,0,.11.68.68,0,0,0,0,.15c0,.21,0,.6,0,1.12v.06c0,.72,0,1.7,0,2.85,0,.45,0,.93.05,1.43.09,2.06.26,4.5.57,7,0,.34.08.68.13,1,.09.68.2,1.36.31,2l.06.35h0c.24,1.38.48,2.72.72,4q.11.58.21,1.14c.33,1.76.64,3.31.89,4.53.1.53.2,1,.28,1.39h0c0,.06,0,.11,0,.16s.07.36.1.51.06.28.08.38.05.25.07.32a.2.2,0,0,1,0,.07.08.08,0,0,1,0,0h0l.12.17c.23.33.74,1.08,1.28,2,.33.54.67,1.14,1,1.74h0A12.64,12.64,0,0,1,72.77,88a4.14,4.14,0,0,1,.13.43,4.35,4.35,0,0,1,.11.46L73,89c0,.13,0,.29.08.47s.08.46.13.73.06.39.1.6.12.75.2,1.18c0,.2.07.4.11.62s.09.54.14.83.09.55.14.84l.62,3.52c.06.34.12.7.19,1.05.19,1.07.39,2.17.6,3.27l.15.84c0,.28.11.55.16.82.1.55.21,1.1.31,1.64l.21,1.07.15.78c.1.49.2,1,.29,1.44s.18.84.26,1.24c.14.66.28,1.29.42,1.88,0,.16.07.32.11.48.15.63.29,1.21.42,1.71l.09.31a12.25,12.25,0,0,0,.38,1.22s.77,3.54,3.13,4.93a7.92,7.92,0,0,0,1.64.75,5,5,0,0,0,2.89.11l.64-.19a0,0,0,0,1,0,0c.22-.08.44-.18.67-.29h0a10.07,10.07,0,0,0,1.39-.79C91.39,118.2,92,113.05,90.56,109.91Zm-5.5,10.23h-.33a5.12,5.12,0,0,1-.56,0,4.51,4.51,0,0,1-.53-.09,1.55,1.55,0,0,1-.23-.06l-.23-.07a4.3,4.3,0,0,1-1.36-.75,2.61,2.61,0,0,1-.31-.27,5.6,5.6,0,0,1-.41-.43v0a4.63,4.63,0,0,1-.32-.42,5.08,5.08,0,0,1-.35-.59c-.07-.12-.13-.24-.19-.37s-.11-.24-.16-.37a.34.34,0,0,1-.06-.15c-.06-.16-.13-.32-.18-.49h0s0,0,0,0a.84.84,0,0,0,0-.17l-.06-.25a2.29,2.29,0,0,1-.07-.28q-.1-.48-.18-1a.78.78,0,0,1,0-.16c0-.19,0-.37-.05-.55a6346222692749.35,6346222692749.35,0,0,0,0-.54,6.26,6.26,0,0,1,0-.87,6,6,0,0,1,2.37-4.34,5.32,5.32,0,0,1,.83-.49,5.17,5.17,0,0,1,1.39-.41c2.85-.4,5.39,1.88,5.89,5.43S89,119.9,85.06,120.14Z"/><path class="cls-22" d="M82.37,120.12c-2.37-1.39-3.13-4.92-3.13-4.92-1.51-4-4.89-24.36-5.3-26.71S70.59,82,70.59,82s-1.29-6-2.46-12.87a87.35,87.35,0,0,1-1.08-15.54,1.17,1.17,0,0,1,.36-.82A1.28,1.28,0,0,0,66.12,54a87.94,87.94,0,0,0,1.07,15.53c1.18,6.89,2.46,12.88,2.46,12.88S72.6,86.51,73,88.86s3.79,22.7,5.29,26.72c0,0,.77,3.53,3.13,4.92a5.66,5.66,0,0,0,5.84.37A5.67,5.67,0,0,1,82.37,120.12Z"/><path class="cls-9" d="M73.63,87a40.69,40.69,0,0,1,1.3,5.65c.54,3.38,2.31,13.75,2.31,13.75s1.29,6.86,1.63,7.59l.35.73h0a12.85,12.85,0,0,1,.2-4.05,6.09,6.09,0,0,1,2.06-3.31l1.06-.84s-2.2,1.42-3,1-1-1.13-1.36-2.26-3.38-18.76-3.38-18.76l-.09-.59A1.62,1.62,0,0,0,73.63,87Z"/><path class="cls-8" d="M90.58,112.18c-.54-3.85-3.25-6.33-6.3-5.9s-5.39,3.49-4.87,7.79l0,.22a.77.77,0,0,0,0-.15c-.48-4,1.73-6.8,4.58-7.2s5.39,1.87,5.89,5.43-.9,7.53-4.83,7.77c-2.9.17-4.75-1.89-5.44-4.86.73,3.23,2.72,5.49,5.83,5.31C89.64,120.34,91.13,116,90.58,112.18Z"/><path class="cls-6" d="M66.12,54c0,.21,0,.6,0,1.12.17,2.69.49,7.67.73,9.41.27,2,1,8,2.64,10.41a1.87,1.87,0,0,0,2.18.72c.51-.19,1-.52.88-1.09,0-.3-.34-1.88-.74-4.07L67.64,52.78S66.19,52.71,66.12,54Z"/><path class="cls-6" d="M79,53.24s-.15.29-.4.8l-.24.49c-.27.54-.61,1.24-1,2l-.38.79c0,.09-.09.19-.14.29-.71,1.51-1.54,3.3-2.35,5.16a.61.61,0,0,0,0,.12.25.25,0,0,1,0,.07c-.09.21-.17.41-.26.61l-.23.53c-.13.33-.27.66-.41,1s-.19.45-.28.68c-.58,1.4-1.1,2.77-1.54,4,0,0,0,0,0,0-.19.52-.35,1-.49,1.5-.06.2-.12.39-.17.58s-.12.43-.17.63-.12.46-.17.68c-.2.8-.39,1.54-.56,2.24s-.31,1.22-.45,1.79c-.2.77-.38,1.51-.56,2.24a1,1,0,0,1,0,.17c0,.2-.09.39-.14.59l-.55,2.32c-.07.28-.13.57-.2.87s-.09.39-.14.6l-.18.8c-.09.38-.18.77-.26,1.17,0,.1,0,.2-.07.3l-.12.53c-.09.38-.17.78-.26,1.19,0,.09,0,.19-.07.29l-.09.43a.29.29,0,0,1,0,.09c0,.18-.08.35-.12.54s0,.26-.08.39-.07.3-.1.45-.13.58-.19.88c-.18.85-.36,1.67-.53,2.45l-.15.69a.64.64,0,0,1,0,.07q-.22,1-.42,1.92c-.1.45-.2.89-.29,1.31l-.09.4c-.16.68-.3,1.31-.43,1.89,0,.11-.05.22-.08.33-.16.72-.31,1.37-.44,1.92,0,.11-.05.21-.07.31s-.05.23-.08.34-.09.39-.13.56l-.33,1.38a1.8,1.8,0,0,1-2.56,1.18c-2.38-1-6.39-1.29-8.87,1.89a9.54,9.54,0,0,0-1.52,9.81,3.42,3.42,0,0,0,.21.43,5.75,5.75,0,0,0,1.72,2,6.46,6.46,0,0,0,5.63.94,7.83,7.83,0,0,0,5.53-6c.83-3.17,6.38-26.48,6.38-26.48a1.79,1.79,0,0,1,.53-1.17c.37-.29,1.15-.68,1.62-1a2.27,2.27,0,0,0,.36-.26c.28-.31.38-.33.38-.33s0,0,0-.11h0c0-.1.06-.26.11-.47.08-.36.19-.88.32-1.51.22-1,.49-2.21.78-3.58.2-.9.4-1.86.61-2.83.77-3.61,1.56-7.44,1.93-9.46.41-2.27,1.07-5.65,1.6-8.43l0-.13a.1.1,0,0,0,0,0l.93-4.73S79.46,53.4,79,53.24Zm-16.51,60c-.26,3.68-3.25,6.81-6.24,6.6a6.25,6.25,0,0,1-1.16-.2l-.29-.1h0a1.34,1.34,0,0,1-.3-.12,2.64,2.64,0,0,1-.38-.18,2.58,2.58,0,0,1-.42-.25l-.1-.07c-.12-.08-.23-.17-.34-.26l-.09-.08a2.91,2.91,0,0,1-.31-.3l-.1-.11A6.89,6.89,0,0,1,51.26,113a.22.22,0,0,1,0-.08v-.1a7.49,7.49,0,0,1,.28-1.44,3.52,3.52,0,0,1,.13-.43c.94-2.74,3.26-4.69,5.71-4.44C60.88,106.84,62.7,109.59,62.44,113.27Z"/><path class="cls-22" d="M71.49,81.78a1.34,1.34,0,1,1,1.36-1.11A1.25,1.25,0,0,1,71.49,81.78Z"/><path class="cls-22" d="M64.6,102.15s1.14-4.67,3.06-13.57S70.25,77.09,72,70c1-3.77,3.54-9.68,5.55-14C75.57,60.2,72,68,70.8,72.58c-1.77,7.08-2.44,9.64-4.36,18.56-1.31,6.1-2.26,10.2-2.73,12.19A2.24,2.24,0,0,0,64.6,102.15Z"/><path class="cls-9" d="M71.4,82.83l-.3-.06h0a10.74,10.74,0,0,0-1.3-.19c-.21,0-.41,0-.59,0h-.46a2.3,2.3,0,0,0-.4,0c-.07.28-.13.57-.2.87s-.09.39-.14.6l-.18.8c-.09.38-.18.77-.26,1.17,0,.1,0,.2-.07.3l-.12.53c-.09.38-.17.78-.26,1.19,0,.09,0,.19-.07.29l-.09.43a.29.29,0,0,1,0,.09c0,.18-.08.35-.12.54s0,.26-.08.39-.07.3-.1.45-.13.58-.19.88c-.18.85-.36,1.67-.53,2.45l-.15.69a.64.64,0,0,1,0,.07q-.22,1-.42,1.92c-.1.45-.2.89-.29,1.31l-.09.4c-.16.68-.3,1.31-.43,1.89,0,.11-.05.22-.08.33-.16.72-.31,1.37-.44,1.92,0,.11-.05.21-.07.31s-.05.23-.08.34-.09.39-.13.56l-.33,1.38a1.8,1.8,0,0,1-2.56,1.18c-2.38-1-6.39-1.29-8.87,1.89a9.54,9.54,0,0,0-1.52,9.81,3.42,3.42,0,0,0,.21.43,5.75,5.75,0,0,0,1.72,2,6.46,6.46,0,0,0,5.63.94,7.83,7.83,0,0,0,5.53-6c.83-3.17,6.38-26.48,6.38-26.48a1.79,1.79,0,0,1,.53-1.17c.37-.29,1.15-.68,1.62-1a2.27,2.27,0,0,0,.36-.26c.28-.31.38-.33.38-.33s0,0,0-.11h0c0-.1.06-.26.11-.47.07-.36.18-.88.32-1.51A4.49,4.49,0,0,0,71.4,82.83Zm-9,30.44c-.26,3.68-3.25,6.81-6.24,6.6a6.25,6.25,0,0,1-1.16-.2l-.29-.1h0a1.34,1.34,0,0,1-.3-.12,2.64,2.64,0,0,1-.38-.18,2.58,2.58,0,0,1-.42-.25l-.1-.07c-.12-.08-.23-.17-.34-.26l-.09-.08a2.91,2.91,0,0,1-.31-.3l-.1-.11A6.89,6.89,0,0,1,51.26,113a.22.22,0,0,1,0-.08v-.1a7.49,7.49,0,0,1,.28-1.44,3.52,3.52,0,0,1,.13-.43c.94-2.74,3.26-4.69,5.71-4.44C60.88,106.84,62.7,109.59,62.44,113.27Z"/><path class="cls-22" d="M51.05,118.11a9.15,9.15,0,0,1,1-9.68c2.49-3.18,5.59-3.88,9.6-1.81,1.9,1,2.56-1.17,2.56-1.17s1.14-4.67,3.06-13.57c.79-3.67,1.37-6.27,1.9-8.54a5,5,0,0,0,0-.79,3.74,3.74,0,0,0-.86.06c-.54,2.27-1.11,4.86-1.9,8.53-1.92,8.91-3.06,13.57-3.06,13.57a1.8,1.8,0,0,1-2.56,1.18c-2.38-1-6.39-1.29-8.87,1.89a9.56,9.56,0,0,0-1.53,9.81,5.78,5.78,0,0,0,1.94,2.4A7.44,7.44,0,0,1,51.05,118.11Z"/><path class="cls-23" d="M71.27,75.81a2.5,2.5,0,0,0,2.73-1c.29-.74,4.2-15.61,4.2-15.61l.93-4.74s.33-1-.18-1.19c0,0-3,6-5.5,11.88L70.9,73.39S70.18,75.52,71.27,75.81Z"/><path class="cls-8" d="M63.4,112.63c.26-3.77-1.75-6-5.53-6.39-3.22-.33-6.24,2.69-6.59,6.45a2.64,2.64,0,0,0,0,.28.76.76,0,0,1,0-.15c.33-3.68,3.14-6.65,6.11-6.34,3.49.36,5.32,3.11,5.06,6.79s-3.26,6.81-6.24,6.6a5,5,0,0,1-3.85-2.09,5,5,0,0,0,4.45,2.5c2.72-.11,4.82-2.09,5.87-4.61A9.94,9.94,0,0,0,63.4,112.63Z"/><path class="cls-9" d="M71.86,81.79a1.34,1.34,0,1,1,1.36-1.11A1.24,1.24,0,0,1,71.86,81.79Z"/><polygon class="cls-6" points="120.58 47.11 115.62 48.6 114.68 53.21 120.36 62.13 117.18 72.41 115.4 81.81 109.74 80.57 109.83 63.8 111.88 58.91 109.83 54.2 112.6 45.47 121.37 45.62 120.58 47.11"/><polygon class="cls-24" points="120.59 47.09 120.4 46.41 112.34 46.28 112.06 47.16 112.36 47.78 115.56 48.86 115.62 48.6 120.58 47.11 120.59 47.09"/><polygon class="cls-24" points="115.63 80.58 117.18 72.41 120.36 62.13 116.84 56.6 115.06 60.3 109.88 65.41 111.78 70.35 115.63 80.58"/><polygon class="cls-22" points="115.62 48.6 120.58 47.11 121.37 45.62 112.6 45.47 112.6 45.47 120.57 45.61 119.79 47.1 114.82 48.59 113.89 53.2 119.57 62.11 116.38 72.39 114.63 81.64 115.4 81.81 117.18 72.41 120.36 62.13 114.68 53.21 115.62 48.6"/><polygon class="cls-25" points="110.62 80.58 110.71 63.82 112.75 58.92 110.7 54.21 113.47 45.48 112.6 45.47 109.83 54.2 111.88 58.91 109.83 63.8 109.74 80.57 115.4 81.81 115.43 81.64 110.62 80.58"/><path class="cls-26" d="M115.69,81.08S115,93.52,116.79,104s5.4,22.8,5.4,22.8l-2.21.73a91.22,91.22,0,0,1-8.29-25.59c-2.5-14.86-2-22.59-2-22.59Z"/><polygon class="cls-27" points="113.18 46.99 118.1 48.64 118.88 53.28 115.88 59.51 110.7 64.61 112.6 69.56 117.22 81.84 122.92 80.79 123.38 64.03 121.5 59.07 123.7 54.43 121.22 45.61 112.45 45.47 113.18 46.99"/><polygon class="cls-28" points="112.48 64.82 118.29 80.14 121.36 79.5 121.73 64.61 119.97 59.64 122.33 54.48 120.16 45.86 113.58 45.82 114.23 46.59 119.23 47.88 120.27 53.31 116.78 60.23 112.48 64.82"/><polygon class="cls-29" points="113.48 69.57 111.58 64.63 116.76 59.52 119.75 53.29 118.97 48.66 114.06 47 113.32 45.49 121.22 45.61 121.22 45.61 112.45 45.47 113.18 46.99 118.1 48.64 118.88 53.28 115.88 59.51 110.7 64.61 112.6 69.56 117.22 81.84 118.04 81.69 113.48 69.57"/><polygon class="cls-22" points="123.7 54.43 121.22 45.61 120.28 45.6 122.76 54.41 120.55 59.05 122.44 64.01 121.98 80.77 117.2 81.66 117.22 81.84 122.92 80.79 123.38 64.03 121.5 59.07 123.7 54.43"/><path class="cls-26" d="M123.06,79.76s-.69,13.88,1.08,24.32,5.39,22.8,5.39,22.8l-2.2.73A91.22,91.22,0,0,1,119,102C116.54,87.17,117,80.89,117,80.89Z"/><path class="cls-30" d="M116.79,104c-1.76-10.44-1.1-22.88-1.1-22.88l-6-1.77s0,.11,0,.3l5,1.46s-.66,12.43,1.1,22.87,5.4,22.8,5.4,22.8l-1.29.43.17.32,2.21-.73S118.56,114.4,116.79,104Z"/><path class="cls-30" d="M124.14,104.08c-1.77-10.44-1.08-24.32-1.08-24.32L122,80c-.08,1.78-.55,14.41,1.09,24.09,1.76,10.45,5.39,22.8,5.39,22.8l-1.28.43.17.32,2.2-.73S125.9,114.52,124.14,104.08Z"/><path class="cls-31" d="M113,101.92c-2.19-13-2.11-20.55-2.05-22.23l-1.3-.38s-.47,7.73,2,22.59A91.22,91.22,0,0,0,120,127.49l1.11-.37A92.55,92.55,0,0,1,113,101.92Z"/><path class="cls-31" d="M120.35,102c-2.5-14.85-2.06-21.13-2.06-21.13l4.76-.88c0-.17,0-.27,0-.27L117,80.89S116.54,87.17,119,102a91.22,91.22,0,0,0,8.29,25.59l1.11-.37A92.65,92.65,0,0,1,120.35,102Z"/><path class="cls-6" d="M119.39,67.65a2,2,0,1,1-2-2A2,2,0,0,1,119.39,67.65Z"/><path class="cls-32" d="M118.49,67.24a2,2,0,1,1-1.95-2A2,2,0,0,1,118.49,67.24Z"/><path class="cls-33" d="M116.76,65.25l-.22,0-.23,0,0,1.74-1.74,0a1.28,1.28,0,0,0,0,.45l1.74,0,0,1.74.22,0,.22,0,0-1.74,1.74,0a1.46,1.46,0,0,0,0-.22,1.5,1.5,0,0,0,0-.22l-1.74,0Z"/><polygon class="cls-34" points="113 48 111.11 53.98 113.25 59.03 111.24 63.74 114.87 60.1 116.11 57.37 113.4 53.39 114.5 48.76 113 48"/><polygon class="cls-34" points="111.27 69.03 111.09 79.04 114.36 80 114.73 78.2 111.27 69.03"/><rect class="cls-5" x="99.1" y="54.9" width="11.54" height="1.68" transform="translate(-0.07 0.14) rotate(-0.08)"/><rect class="cls-14" x="99.1" y="54.9" width="11.54" height="0.9" transform="translate(-0.07 0.14) rotate(-0.08)"/><path class="cls-35" d="M97.18,59.09l-1.93-3.34,1.92-3.33H101l.73,1.25a4.19,4.19,0,0,1,0,4.17L101,59.08Z"/><polygon class="cls-22" points="107.74 100.41 94.14 100.42 96.59 84.19 105.13 84.18 107.74 100.41"/><polygon class="cls-9" points="97.36 100.42 96.83 100.42 97.84 84.19 96.59 84.19 94.14 100.42 97.36 100.42 97.36 100.42"/><polygon class="cls-36" points="105.05 100.41 96.83 100.42 98.3 84.19 103.47 84.18 105.05 100.41"/><polygon class="cls-9" points="105.13 84.18 100.12 67.26 94.1 67.26 96.59 84.19 105.13 84.18"/><polygon class="cls-37" points="102.87 84.18 98.81 67.23 95.26 67.24 97.84 84.19 102.87 84.18"/><polygon class="cls-12" points="100.1 56.09 90.25 56.6 94.1 67.26 100.12 67.26 100.1 56.09"/><polygon class="cls-35" points="110.67 56.9 109.63 56.9 109.62 54.57 110.67 54.57 112.06 55.73 110.67 56.9"/><rect class="cls-35" x="103.98" y="54.9" width="0.49" height="1.68" transform="translate(-0.07 0.13) rotate(-0.07)"/><rect class="cls-35" x="105.29" y="54.9" width="0.49" height="1.68" transform="translate(-0.08 0.15) rotate(-0.08)"/><rect class="cls-35" x="106.6" y="54.9" width="0.49" height="1.68" transform="translate(-0.07 0.13) rotate(-0.07)"/><rect class="cls-35" x="107.91" y="54.9" width="0.49" height="1.68" transform="translate(-0.07 0.13) rotate(-0.07)"/><rect class="cls-30" x="94.16" y="100.42" width="13.6" height="25.94" transform="translate(-0.15 0.14) rotate(-0.08)"/><polygon class="cls-31" points="97.09 126.36 97.05 100.42 94.14 100.42 94.18 126.37 100.98 126.36 97.09 126.36"/><rect class="cls-26" x="97.07" y="100.42" width="7.78" height="25.94" transform="translate(-0.15 0.13) rotate(-0.08)"/><rect class="cls-32" x="89.2" y="51.72" width="12.26" height="8.07" rx="2.31" transform="matrix(1, 0, 0, 1, -0.08, 0.13)"/><rect class="cls-38" x="92.24" y="49.63" width="6.16" height="12.26" rx="0.99" transform="translate(150.95 -39.64) rotate(89.92)"/><rect class="cls-27" x="93.69" y="49.63" width="3.27" height="12.26" rx="0.67" transform="translate(150.95 -39.64) rotate(89.92)"/><polygon class="cls-39" points="96.83 100.42 97.06 107.97 97.05 100.42 96.83 100.42"/><polygon class="cls-22" points="98.3 84.19 95.91 71.52 97.84 84.19 98.3 84.19"/><polygon class="cls-22" points="95.26 67.24 92.84 59.79 98.32 59.78 98.81 67.23 95.26 67.24"/><polygon class="cls-36" points="92.84 59.79 91.09 59.79 94.1 67.26 95.26 67.24 92.84 59.79"/><polygon class="cls-40" points="99.63 84.19 101.89 84.18 102.91 100.41 103.1 126.36 98.91 126.36 98.76 100.42 99.63 84.19"/><polygon class="cls-41" points="109.63 55.75 112.04 55.75 112.06 55.73 110.67 54.57 109.62 54.57 109.63 55.75"/><rect class="cls-22" x="63.12" y="112.25" width="17.2" height="1.05" transform="translate(143.47 225.53) rotate(179.98)"/><rect class="cls-42" x="64.55" y="112.25" width="14.34" height="1.05" transform="translate(143.47 225.53) rotate(179.98)"/><rect class="cls-23" x="67.33" y="112.25" width="8.77" height="1.05" transform="translate(143.48 225.53) rotate(179.98)"/><rect class="cls-43" x="66.65" y="82" width="10.11" height="1.05" transform="matrix(-1, 0, 0, -1, 143.44, 165.02)"/><rect class="cls-44" x="66.65" y="82.45" width="10.11" height="0.59" transform="translate(143.44 165.47) rotate(179.98)"/><polygon class="cls-14" points="71.32 45.02 72.1 50.08 72.25 75.74 71.15 75.74 71.32 45.02"/><polygon class="cls-5" points="71.74 47.76 72.1 50.08 72.25 75.74 71.75 75.74 71.74 47.76"/><path class="cls-45" d="M71.53,75.24h.34a2.12,2.12,0,0,1,2,2.2v1.14H69.51V77.44A2.12,2.12,0,0,1,71.53,75.24Z"/><path class="cls-46" d="M71.58,75.74h.24a1.49,1.49,0,0,1,1.42,1.54v.8H70.17v-.8A1.48,1.48,0,0,1,71.58,75.74Z"/><path class="cls-46" d="M71.58,75.16h.24c.78,0,1.41.86,1.42,1.92v1H70.17v-1C70.17,76,70.8,75.16,71.58,75.16Z"/><path class="cls-47" d="M71.65,75.16h.1c.32,0,.59.86.59,1.92v1H71.07v-1C71.07,76,71.33,75.16,71.65,75.16Z"/><path class="cls-22" d="M71.7,77.61h0a3.14,3.14,0,0,1,3.14,3.13V82H68.57V80.75A3.14,3.14,0,0,1,71.7,77.61Z"/><path class="cls-42" d="M71.57,77.61h.27c.89,0,1.62,1.3,1.62,2.89V82H70V80.5C70,78.91,70.67,77.61,71.57,77.61Z"/><path class="cls-48" d="M71.65,77.61h.1c.33,0,.6,1.3.6,2.89V82h-1.3V80.5C71.05,78.91,71.32,77.61,71.65,77.61Z"/><rect class="cls-49" x="66.66" y="83.05" width="10.11" height="29.21" transform="translate(143.46 195.27) rotate(179.98)"/><rect class="cls-50" x="66.66" y="83.05" width="5.09" height="29.21" transform="translate(138.44 195.28) rotate(179.98)"/><rect class="cls-44" x="66.66" y="83.05" width="1.93" height="29.21" transform="translate(135.28 195.28) rotate(179.98)"/><rect class="cls-51" x="67.2" y="83.05" width="1.39" height="8.66" transform="translate(135.82 174.72) rotate(179.98)"/><rect class="cls-52" x="67.21" y="113.3" width="9.02" height="8.68" transform="translate(143.48 235.25) rotate(179.98)"/><rect class="cls-53" x="67.21" y="113.3" width="3.42" height="8.68" transform="translate(137.89 235.26) rotate(179.98)"/><rect class="cls-54" x="70.63" y="113.3" width="2.18" height="8.68" transform="translate(143.48 235.26) rotate(179.98)"/><rect class="cls-55" x="72.8" y="94.74" width="3.42" height="17.51" transform="translate(149.06 206.97) rotate(179.98)"/><rect class="cls-56" x="67.2" y="94.74" width="3.42" height="17.51" transform="translate(137.87 206.97) rotate(179.98)"/><rect class="cls-57" x="70.62" y="94.74" width="2.18" height="17.51" transform="translate(143.47 206.97) rotate(179.98)"/><rect class="cls-58" x="67.2" y="91.7" width="9.02" height="3.04" transform="translate(143.45 186.42) rotate(179.98)"/><rect class="cls-59" x="67.2" y="92.37" width="9.02" height="1.7" transform="translate(143.45 186.42) rotate(179.98)"/><rect class="cls-60" x="67.2" y="83.05" width="9.02" height="8.66" transform="translate(143.45 174.72) rotate(179.98)"/><rect class="cls-61" x="73.55" y="84.47" width="2.67" height="0.37" transform="translate(149.8 169.27) rotate(179.97)"/><rect class="cls-61" x="73.55" y="88.51" width="2.67" height="0.37"/><rect class="cls-61" x="73.55" y="92.56" width="2.67" height="0.37"/><rect class="cls-61" x="73.55" y="96.6" width="2.67" height="0.37"/><rect class="cls-61" x="73.55" y="100.65" width="2.67" height="0.37"/><rect class="cls-61" x="73.55" y="104.69" width="2.67" height="0.37"/><rect class="cls-61" x="73.55" y="108.74" width="2.67" height="0.37" transform="translate(149.82 217.82) rotate(179.98)"/><rect class="cls-62" x="63.12" y="121.98" width="17.2" height="2.07" transform="translate(143.49 246) rotate(179.98)"/><rect class="cls-63" x="65.27" y="121.98" width="12.9" height="2.07" transform="matrix(-1, 0, 0, -1, 143.49, 246)"/><rect class="cls-64" x="69.65" y="121.98" width="4.14" height="2.07" transform="translate(143.48 246.01) rotate(179.98)"/></g></g></g></svg>