<svg xmlns="http://www.w3.org/2000/svg" xmlns:xlink="http://www.w3.org/1999/xlink" viewBox="0 0 258.8 157.08"><defs><style>.cls-1{fill:none;}.cls-2{isolation:isolate;}.cls-3{fill:#5dd8db;}.cls-4{fill:#fd8c83;}.cls-5{fill:#fdac72;}.cls-6{fill:#cfe3ed;}.cls-7{fill:#e6f0f5;}.cls-8{fill:#cbdee8;}.cls-9{fill:#b5d5e6;}.cls-10{fill:#b3d2e4;}.cls-11{fill:#dceef7;}.cls-12{clip-path:url(#clip-path);}.cls-13{mix-blend-mode:multiply;}.cls-14{fill:#fff;}.cls-15{fill:#fdfdfd;}.cls-16{fill:#fbfbfb;}.cls-17{fill:#f9f9f9;}.cls-18{fill:#f7f7f7;}.cls-19{fill:#f5f5f5;}.cls-20{fill:#f3f3f3;}.cls-21{fill:#f1f1f1;}.cls-22{fill:#efefef;}.cls-23{fill:#ededed;}.cls-24{fill:#ebebeb;}.cls-25{fill:#e9e9e9;}.cls-26{fill:#e7e7e7;}.cls-27{fill:#e5e5e5;}.cls-28{fill:#e3e3e3;}.cls-29{fill:#ebf2f5;}.cls-30{fill:#f5fcff;}.cls-31{clip-path:url(#clip-path-2);}.cls-32{clip-path:url(#clip-path-3);}.cls-33{fill:#d4b26a;}.cls-34{fill:#d9ba7b;}.cls-35{fill:#cfaf68;}.cls-36{fill:#b7974c;}.cls-37{fill:#b5954b;}.cls-38{fill:#dbbb72;}.cls-39{clip-path:url(#clip-path-4);}.cls-40{fill:#f1e6d6;}.cls-41{fill:#efe5d4;}.cls-42{fill:#ede3d3;}.cls-43{fill:#ebe1d0;}.cls-44{fill:#e9dfcf;}.cls-45{fill:#e7ddcc;}.cls-46{fill:#e5dbcb;}.cls-47{fill:#e3d9c9;}.cls-48{fill:#e1d6c8;}.cls-49{fill:#dfd5c6;}.cls-50{fill:#ddd2c4;}.cls-51{fill:#dbd1c2;}.cls-52{fill:#d9cfc1;}.cls-53{fill:#d7cebe;}.cls-54{fill:#d5ccbd;}.cls-55{fill:#bea05f;}.cls-56{fill:#b99d5d;}.cls-57{fill:#dbbd80;}.cls-58{fill:#e6c887;}.cls-59{fill:#c5c5c7;}.cls-60{fill:#b6b6b8;}.cls-61{fill:#a5a5a6;}.cls-62{fill:#eeeef0;}.cls-63{fill:#ccccd0;}.cls-64{fill:#cfcfd0;}.cls-65{fill:#e4e4e6;}.cls-66{fill:#fcfcff;}.cls-67{fill:#b3b3b6;}.cls-68{fill:#8f8f91;}.cls-69{fill:#452200;}.cls-70{fill:#0899e8;}.cls-71{fill:#0782c7;}.cls-72{fill:#57c3ff;}</style><clipPath id="clip-path"><path id="SVGID" class="cls-1" d="M87.87,112.34a45.56,45.56,0,0,0,1.48-4.55,10.61,10.61,0,0,0-.17-5,5.14,5.14,0,0,0-3-3,7.67,7.67,0,0,0-3.3-.41c-2.3.12-3.41,1.89-5.44,2.12h0c-2-.23-3.14-2-5.45-2.12a7.69,7.69,0,0,0-3.3.41,5.1,5.1,0,0,0-3,3,10.61,10.61,0,0,0-.17,5c.27,1.6,1,3,1.47,4.55a4.27,4.27,0,0,1,.15.71,4.85,4.85,0,0,1,0,1.7,39.07,39.07,0,0,0-.77,4.49,17.51,17.51,0,0,0,0,2.41,18,18,0,0,0,.4,2.7,30.07,30.07,0,0,0,3.56,8.46s1,2,2,2.06,1-1.5,1.22-2.83c.14-.93.65-5.44,1.16-9,.23-1.53.45-2.89.65-3.69,0,0,0-.08,0-.12.64-2.6,1.09-4.6,1.57-4.84a.91.91,0,0,1,1,0c.48.24.92,2.24,1.57,4.84l0,.12c.2.8.43,2.16.65,3.69.52,3.55,1,8.06,1.17,9,.21,1.33.24,2.86,1.22,2.83s1.95-2.06,1.95-2.06a30.26,30.26,0,0,0,3.57-8.46,17.92,17.92,0,0,0,.39-2.7,16.06,16.06,0,0,0,0-2.41,37,37,0,0,0-.77-4.49,5.38,5.38,0,0,1,0-1.7C87.76,112.81,87.81,112.57,87.87,112.34Z"/></clipPath><clipPath id="clip-path-2"><path id="SVGID-2" data-name="SVGID" class="cls-1" d="M138.58,112.34c.43-1.55,1.2-3,1.48-4.55a10.74,10.74,0,0,0-.17-5,5.14,5.14,0,0,0-3-3,7.69,7.69,0,0,0-3.3-.41c-2.3.12-3.41,1.89-5.45,2.12h0c-2-.23-3.14-2-5.44-2.12a7.69,7.69,0,0,0-3.3.41,5.14,5.14,0,0,0-3,3,10.74,10.74,0,0,0-.17,5c.28,1.6,1,3,1.48,4.55a4.27,4.27,0,0,1,.15.71,5.1,5.1,0,0,1,0,1.7,37,37,0,0,0-.77,4.49,16.06,16.06,0,0,0,0,2.41,16.81,16.81,0,0,0,.4,2.7,30.07,30.07,0,0,0,3.56,8.46s1,2,2,2.06,1-1.5,1.23-2.83c.14-.93.64-5.44,1.16-9,.23-1.53.45-2.89.65-3.69l0-.12c.65-2.6,1.1-4.6,1.58-4.84a.89.89,0,0,1,1,0c.48.24.93,2.24,1.58,4.84l0,.12c.2.8.42,2.16.65,3.69.52,3.55,1,8.06,1.16,9,.21,1.33.25,2.86,1.23,2.83s1.95-2.06,1.95-2.06a30.07,30.07,0,0,0,3.56-8.46,18,18,0,0,0,.4-2.7,16.06,16.06,0,0,0,0-2.41,37,37,0,0,0-.77-4.49,5.1,5.1,0,0,1,0-1.7A4.27,4.27,0,0,1,138.58,112.34Z"/></clipPath><clipPath id="clip-path-3"><path id="SVGID-3" data-name="SVGID" class="cls-1" d="M163.79,112.34c.43-1.55,1.2-3,1.48-4.55a10.74,10.74,0,0,0-.17-5,5.14,5.14,0,0,0-3-3,7.69,7.69,0,0,0-3.3-.41c-2.3.12-3.41,1.89-5.45,2.12h0c-2-.23-3.14-2-5.44-2.12a7.69,7.69,0,0,0-3.3.41,5.14,5.14,0,0,0-3,3,10.74,10.74,0,0,0-.17,5c.28,1.6,1,3,1.48,4.55a4.27,4.27,0,0,1,.15.71,5.1,5.1,0,0,1,0,1.7,37,37,0,0,0-.77,4.49,16.06,16.06,0,0,0,0,2.41,16.81,16.81,0,0,0,.4,2.7,30.07,30.07,0,0,0,3.56,8.46s1,2,1.95,2.06,1-1.5,1.23-2.83c.14-.93.64-5.44,1.16-9,.23-1.53.45-2.89.65-3.69l0-.12c.65-2.6,1.1-4.6,1.58-4.84a.89.89,0,0,1,1,0c.48.24.93,2.24,1.58,4.84l0,.12c.2.8.42,2.16.65,3.69.52,3.55,1,8.06,1.16,9,.21,1.33.25,2.86,1.23,2.83s2-2.06,2-2.06a30.07,30.07,0,0,0,3.56-8.46,16.81,16.81,0,0,0,.4-2.7,16.06,16.06,0,0,0,0-2.41,37,37,0,0,0-.77-4.49,5.1,5.1,0,0,1,0-1.7A4.27,4.27,0,0,1,163.79,112.34Z"/></clipPath><clipPath id="clip-path-4"><path id="SVGID-4" data-name="SVGID" class="cls-1" d="M103.05,74.79c-.49-1.53-.62-3.13-1.26-4.61a10.66,10.66,0,0,0-2.88-4.07,5.15,5.15,0,0,0-4.13-.89,7.78,7.78,0,0,0-3,1.47c-1.86,1.37-1.81,3.45-3.39,4.76h0c-1.82.93-3.72.06-5.71,1.22a7.62,7.62,0,0,0-2.53,2.15A5.1,5.1,0,0,0,79.35,79a10.7,10.7,0,0,0,2.59,4.26c1.11,1.18,2.53,1.93,3.74,3a5.81,5.81,0,0,1,1.42,2,37.43,37.43,0,0,0,1.82,4.17,16.11,16.11,0,0,0,1.32,2,17.18,17.18,0,0,0,1.81,2.05,30.33,30.33,0,0,0,7.62,5.11s1.93,1.15,2.77.64,0-1.81-.53-3c-.39-.86-2.45-4.9-4-8.15-.65-1.41-1.21-2.66-1.48-3.44,0,0,0-.08,0-.12-.89-2.53-1.61-4.44-1.34-4.91a.9.9,0,0,1,.83-.55c.54-.06,2,1.37,4,3.18l.1.09c.6.56,1.54,1.56,2.57,2.72,2.38,2.68,5.28,6.18,5.9,6.87.91,1,1.78,2.26,2.58,1.7s.5-2.8.5-2.8a30.21,30.21,0,0,0-1.66-9,19.2,19.2,0,0,0-1.16-2.48,15.23,15.23,0,0,0-1.33-2,37.33,37.33,0,0,0-3.11-3.32,5.38,5.38,0,0,1-1-1.41A3.71,3.71,0,0,1,103.05,74.79Z"/></clipPath></defs><title>Extraction</title><g class="cls-2"><g id="Layer_2" data-name="Layer 2"><g id="Layer_1-2" data-name="Layer 1"><polygon class="cls-3" points="0 0 0 157.08 189.44 157.08 258.8 0 0 0"/><path class="cls-4" d="M166.89,121.16h-53c0,.16,0,.32,0,.49s0,.41-.06.63h0c0,.16,0,.32-.06.48a2.36,2.36,0,0,0,0,.28c-.07.42-.14.86-.24,1.3,0,.23-.11.45-.16.68a1,1,0,0,0,0,.14v0l-.18.61c0,.09-.06.18-.08.26s-.12.39-.19.58l-.09.27c-.07.19-.14.37-.2.56l-.1.24c-.07.18-.14.37-.22.54s0,.09-.05.14c-.15.34-.28.66-.43,1a2.88,2.88,0,0,1-.13.31l-.16.32-.18.38-.12.24a4,4,0,0,1-.22.41.29.29,0,0,1,0,.08.29.29,0,0,1,0,.08c0,.08-.09.17-.13.24a1.3,1.3,0,0,0-.08.17,2.53,2.53,0,0,0-.13.22l-.07.13a1.06,1.06,0,0,0-.1.17l-.06.11a1.74,1.74,0,0,0-.11.18l0,0-.24.38a2.13,2.13,0,0,1-.16.31h0l-.08.13h0a.19.19,0,0,0,0,.09l0,0s0,0,0,0h0a1.43,1.43,0,0,1-.15.22v0l-.15.2,0,.06-.12.16a.18.18,0,0,0,0,.07,1.22,1.22,0,0,0-.15.17s0,0,0,0l-.2.17a.09.09,0,0,1-.05,0l-.15.12a.13.13,0,0,0-.07,0l-.15.06-.07,0a.69.69,0,0,1-.2,0h0c-.6,0-.85-.56-1-1.32-.09-.47-.14-1-.22-1.51,0-.34-.16-1.14-.28-2.18s-.31-2.51-.49-4c-.13-1-.26-1.94-.4-2.85-.1-.69-.2-1.33-.29-1.9h-4.92c-.06.34-.11.7-.17,1.09s-.09.52-.13.81-.06.44-.09.67,0,.25-.05.38c-.36,2.57-.69,5.4-.88,6.94-.06.45-.11.8-.14,1s-.09.62-.13.93c-.14,1-.34,1.93-1.09,1.9h0l-.21,0-.06,0-.09,0-.06,0-.07,0-.16-.12,0,0-.21-.19-.14-.16,0,0s0,0,0,0a1.06,1.06,0,0,1-.16-.21h0a5.25,5.25,0,0,1-.4-.61l-.26-.47s-.3-.48-.74-1.28c-.16-.29-.34-.63-.53-1a.54.54,0,0,1,0-.11c-.09-.17-.18-.36-.27-.54s0-.12-.08-.17-.19-.42-.28-.64a1.82,1.82,0,0,1-.13-.28l-.24-.56-.16-.41-.15-.38-.17-.47c0-.12-.09-.25-.13-.37s-.11-.33-.16-.49-.08-.25-.11-.38-.1-.33-.14-.51c0,0,0,0,0,0l-.09-.35c0-.15-.08-.3-.11-.47-.1-.44-.18-.87-.24-1.28,0-.12,0-.22,0-.34s0-.29-.06-.44h0c0-.22,0-.43,0-.63s0-.32,0-.49H64a3.36,3.36,0,0,0-3.36,3.36v14.06H170.26V124.52A3.37,3.37,0,0,0,166.89,121.16Z"/><path class="cls-5" d="M60.62,138.58V141a4.46,4.46,0,0,0,4.46,4.46H165.8a4.46,4.46,0,0,0,4.46-4.46v-2.43Z"/><path class="cls-6" d="M77.48,114v.25a1.31,1.31,0,0,0-.5.15c-.48.24-.93,2.24-1.57,4.84,0,0,0,.08,0,.12-.2.8-.42,2.16-.65,3.69-.51,3.55-1,8.06-1.16,9-.21,1.33-.25,2.86-1.22,2.83s-2-2.06-2-2.06a30.07,30.07,0,0,1-3.56-8.46,18,18,0,0,1-.4-2.7,17.51,17.51,0,0,1,0-2.41,39.07,39.07,0,0,1,.77-4.49,4.85,4.85,0,0,0,0-1.7h0a1.08,1.08,0,0,0,.31.46,4.15,4.15,0,0,0,.93.61,5.76,5.76,0,0,0,3.16.34c1.07-.14,2.11-.42,3.18-.52A12.26,12.26,0,0,1,77.48,114Z"/><path class="cls-7" d="M72,129.66a.61.61,0,0,1-1.14.21A25.14,25.14,0,0,1,68.63,124a15.24,15.24,0,0,1-.36-2.42,14,14,0,0,1,0-2.15,21.56,21.56,0,0,1,.4-2.62.6.6,0,0,1,.68-.48,7.79,7.79,0,0,0,1.2.09,10.52,10.52,0,0,0,1.34-.09c.52-.06,1-.16,1.5-.25h0a.6.6,0,0,1,.7.74c-.1.39-.2.81-.31,1.27l-.19.75,0,.13c-.2.78-.42,2-.69,3.86-.32,2.22-.64,4.79-.87,6.67Z"/><path class="cls-8" d="M88.53,121.65a17.92,17.92,0,0,1-.39,2.7,30.26,30.26,0,0,1-3.57,8.46s-1,2-1.95,2.06-1-1.5-1.22-2.83c-.15-.93-.65-5.44-1.17-9-.22-1.53-.45-2.89-.65-3.69l0-.12c-.65-2.6-1.09-4.6-1.57-4.84a1.31,1.31,0,0,0-.5-.15V114a12.17,12.17,0,0,1,2.63-.07c1.07.1,2.12.38,3.18.52a5.75,5.75,0,0,0,3.16-.34,4.21,4.21,0,0,0,.94-.61,1.05,1.05,0,0,0,.3-.46h0a5.38,5.38,0,0,0,0,1.7,37,37,0,0,1,.77,4.49A16.06,16.06,0,0,1,88.53,121.65Z"/><path class="cls-9" d="M76.17,113.89c-.23.82-.48,1.87-.76,3a.56.56,0,0,0,0,.12c-.2.8-.42,2.16-.65,3.69-.51,3.55-1,8.06-1.16,9-.21,1.32-.25,2.86-1.22,2.83s-2.25-2-2.25-2A39.48,39.48,0,0,1,68,125.93c-.09-.31-.17-.62-.23-.93a17.09,17.09,0,0,1-.4-2.71,16.06,16.06,0,0,1,0-2.41,37.16,37.16,0,0,1,.77-4.48,5.43,5.43,0,0,0,.06-1.45,3.84,3.84,0,0,1-.64-.45,1.08,1.08,0,0,1-.31-.46h0a4.85,4.85,0,0,1,0,1.7,39.07,39.07,0,0,0-.77,4.49,17.51,17.51,0,0,0,0,2.41c0,.2,0,.41.06.63h0v0a19.59,19.59,0,0,0,.34,2.06,27.94,27.94,0,0,0,2.59,6.74c.56,1.05,1,1.71,1,1.71s.06.13.17.32h0a.83.83,0,0,0,.07.13s.05.08.07.13l0,0c.37.6,1,1.43,1.62,1.45,1,0,1-1.5,1.22-2.83.15-.93.65-5.44,1.16-9,.23-1.53.45-2.88.65-3.69a.56.56,0,0,1,0-.12c.64-2.6,1.09-4.6,1.57-4.84a1.31,1.31,0,0,1,.5-.15V114C77.05,114,76.61,113.91,76.17,113.89Z"/><path class="cls-10" d="M78.78,113.89c.24.82.48,1.87.77,3l0,.12c.2.8.43,2.16.65,3.69.52,3.55,1,8.06,1.17,9,.21,1.32.24,2.86,1.22,2.83s2.24-2,2.24-2a38.48,38.48,0,0,0,2.1-4.64c.08-.31.16-.62.23-.93a18.33,18.33,0,0,0,.4-2.71,17.51,17.51,0,0,0,0-2.41,39.25,39.25,0,0,0-.77-4.48,5,5,0,0,1-.06-1.45,3.84,3.84,0,0,0,.64-.45,1.17,1.17,0,0,0,.31-.46h0a5.38,5.38,0,0,0,0,1.7,37,37,0,0,1,.77,4.49,14.83,14.83,0,0,1,0,2.41c0,.2,0,.41,0,.63h0v0a19.59,19.59,0,0,1-.34,2.06,28.36,28.36,0,0,1-2.59,6.74c-.56,1.05-1,1.71-1,1.71l-.17.32h0l-.07.13-.08.13,0,0c-.37.6-1,1.43-1.61,1.45-1,0-1-1.5-1.22-2.83-.15-.93-.65-5.44-1.17-9-.22-1.53-.45-2.88-.65-3.69l0-.12c-.64-2.6-1.09-4.6-1.57-4.84a1.31,1.31,0,0,0-.5-.15V114C77.91,114,78.35,113.91,78.78,113.89Z"/><path class="cls-11" d="M82.82,129.66a.6.6,0,0,0,1.13.21A25.14,25.14,0,0,0,86.18,124a15.24,15.24,0,0,0,.36-2.42,14,14,0,0,0,0-2.15,19.77,19.77,0,0,0-.4-2.62.6.6,0,0,0-.68-.48,7.69,7.69,0,0,1-1.2.09,10.64,10.64,0,0,1-1.34-.09c-.52-.06-1-.16-1.5-.25h0a.6.6,0,0,0-.7.74c.1.39.2.81.32,1.27l.18.75,0,.13c.19.78.41,2,.68,3.86.32,2.22.64,4.79.87,6.67Z"/><g class="cls-12"><g class="cls-13"><path class="cls-14" d="M89.18,108.9a5.11,5.11,0,0,0-3-3,7.52,7.52,0,0,0-3.3-.41c-2.3.12-3.41,1.89-5.44,2.11h0c-2-.23-3.14-2-5.45-2.12a7.54,7.54,0,0,0-3.3.41,5.07,5.07,0,0,0-3,3,10.61,10.61,0,0,0-.17,5c.27,1.59,1,3,1.47,4.55a4.27,4.27,0,0,1,.15.71l0,0a1,1,0,0,0,.31.47,4.15,4.15,0,0,0,.93.61,5.76,5.76,0,0,0,3.16.34c1.07-.14,2.11-.42,3.18-.52a12.26,12.26,0,0,1,2.64.07,12.17,12.17,0,0,1,2.63-.07c1.07.1,2.12.38,3.18.52a5.75,5.75,0,0,0,3.16-.34,4.21,4.21,0,0,0,.94-.61,1,1,0,0,0,.3-.47l0,0c0-.24.09-.48.15-.71a46.41,46.41,0,0,0,1.48-4.55A10.61,10.61,0,0,0,89.18,108.9Z"/><path class="cls-15" d="M89.18,108.46a5.14,5.14,0,0,0-3-3,7.83,7.83,0,0,0-3.3-.41c-2.3.12-3.41,1.89-5.44,2.12h0c-2-.23-3.14-2-5.45-2.12a7.85,7.85,0,0,0-3.3.41,5.1,5.1,0,0,0-3,3,10.66,10.66,0,0,0-.17,5c.27,1.59,1,3,1.47,4.54a4.61,4.61,0,0,1,.15.72l0,0a1,1,0,0,0,.31.46,3.83,3.83,0,0,0,.93.61,5.67,5.67,0,0,0,3.16.34c1.07-.14,2.11-.42,3.18-.51a12.26,12.26,0,0,1,2.64.06,12.17,12.17,0,0,1,2.63-.06c1.07.09,2.12.37,3.18.51a5.66,5.66,0,0,0,3.16-.34,3.89,3.89,0,0,0,.94-.61,1,1,0,0,0,.3-.46s0,0,0,0q.06-.36.15-.72a46.23,46.23,0,0,0,1.48-4.54A10.66,10.66,0,0,0,89.18,108.46Z"/><path class="cls-16" d="M89.18,108a5.11,5.11,0,0,0-3-3,7.52,7.52,0,0,0-3.3-.41c-2.3.12-3.41,1.89-5.44,2.11h0c-2-.23-3.14-2-5.45-2.12a7.54,7.54,0,0,0-3.3.41,5.07,5.07,0,0,0-3,3,10.61,10.61,0,0,0-.17,5c.27,1.59,1,3,1.47,4.55a4.27,4.27,0,0,1,.15.71l0,0a1,1,0,0,0,.31.47,4.15,4.15,0,0,0,.93.61,5.76,5.76,0,0,0,3.16.34c1.07-.14,2.11-.42,3.18-.52a12.26,12.26,0,0,1,2.64.07,12.17,12.17,0,0,1,2.63-.07c1.07.1,2.12.38,3.18.52a5.75,5.75,0,0,0,3.16-.34,4.21,4.21,0,0,0,.94-.61,1,1,0,0,0,.3-.47l0,0c0-.24.09-.48.15-.71A46.41,46.41,0,0,0,89.35,113,10.61,10.61,0,0,0,89.18,108Z"/><path class="cls-17" d="M89.18,107.59a5.14,5.14,0,0,0-3-3,7.83,7.83,0,0,0-3.3-.41c-2.3.12-3.41,1.89-5.44,2.12h0c-2-.23-3.14-2-5.45-2.12a7.85,7.85,0,0,0-3.3.41,5.1,5.1,0,0,0-3,3,10.66,10.66,0,0,0-.17,5c.27,1.59,1,3,1.47,4.54a4.61,4.61,0,0,1,.15.72l0,0a1,1,0,0,0,.31.46,3.83,3.83,0,0,0,.93.61,5.67,5.67,0,0,0,3.16.34c1.07-.14,2.11-.42,3.18-.51a12.26,12.26,0,0,1,2.64.06,12.17,12.17,0,0,1,2.63-.06c1.07.09,2.12.37,3.18.51a5.66,5.66,0,0,0,3.16-.34,3.89,3.89,0,0,0,.94-.61,1,1,0,0,0,.3-.46s0,0,0,0q.06-.36.15-.72a46.23,46.23,0,0,0,1.48-4.54A10.66,10.66,0,0,0,89.18,107.59Z"/><path class="cls-18" d="M89.18,107.16a5.11,5.11,0,0,0-3-3,7.67,7.67,0,0,0-3.3-.41c-2.3.12-3.41,1.89-5.44,2.11h0c-2-.23-3.14-2-5.45-2.12a7.69,7.69,0,0,0-3.3.41,5.07,5.07,0,0,0-3,3,10.61,10.61,0,0,0-.17,5c.27,1.59,1,3,1.47,4.55a4.27,4.27,0,0,1,.15.71l0,0a1,1,0,0,0,.31.47,4.15,4.15,0,0,0,.93.61,5.76,5.76,0,0,0,3.16.34c1.07-.14,2.11-.42,3.18-.52a12.26,12.26,0,0,1,2.64.07,12.17,12.17,0,0,1,2.63-.07c1.07.1,2.12.38,3.18.52a5.75,5.75,0,0,0,3.16-.34,4.21,4.21,0,0,0,.94-.61,1,1,0,0,0,.3-.47l0,0c0-.24.09-.48.15-.71a46.41,46.41,0,0,0,1.48-4.55A10.61,10.61,0,0,0,89.18,107.16Z"/><path class="cls-19" d="M89.18,106.72a5.14,5.14,0,0,0-3-3,7.83,7.83,0,0,0-3.3-.41c-2.3.12-3.41,1.89-5.44,2.12h0c-2-.23-3.14-2-5.45-2.12a7.85,7.85,0,0,0-3.3.41,5.1,5.1,0,0,0-3,3,10.66,10.66,0,0,0-.17,5c.27,1.59,1,3,1.47,4.54a4.61,4.61,0,0,1,.15.72l0,0a1,1,0,0,0,.31.46,3.83,3.83,0,0,0,.93.61,5.67,5.67,0,0,0,3.16.34c1.07-.14,2.11-.42,3.18-.51a12.26,12.26,0,0,1,2.64.06,12.17,12.17,0,0,1,2.63-.06c1.07.09,2.12.37,3.18.51a5.66,5.66,0,0,0,3.16-.34,3.89,3.89,0,0,0,.94-.61,1,1,0,0,0,.3-.46s0,0,0,0q.06-.36.15-.72a46.23,46.23,0,0,0,1.48-4.54A10.66,10.66,0,0,0,89.18,106.72Z"/><path class="cls-20" d="M89.18,106.29a5.14,5.14,0,0,0-3-3,7.67,7.67,0,0,0-3.3-.41c-2.3.12-3.41,1.89-5.44,2.11h0c-2-.23-3.14-2-5.45-2.12a7.69,7.69,0,0,0-3.3.41,5.1,5.1,0,0,0-3,3,10.61,10.61,0,0,0-.17,5c.27,1.59,1,3,1.47,4.55a4.27,4.27,0,0,1,.15.71l0,0a1,1,0,0,0,.31.47,4.15,4.15,0,0,0,.93.61,5.76,5.76,0,0,0,3.16.34c1.07-.14,2.11-.42,3.18-.52a12.26,12.26,0,0,1,2.64.07,12.17,12.17,0,0,1,2.63-.07c1.07.1,2.12.38,3.18.52a5.75,5.75,0,0,0,3.16-.34,4.21,4.21,0,0,0,.94-.61,1,1,0,0,0,.3-.47l0,0c0-.24.09-.48.15-.71a46.41,46.41,0,0,0,1.48-4.55A10.61,10.61,0,0,0,89.18,106.29Z"/><path class="cls-21" d="M89.18,105.85a5.14,5.14,0,0,0-3-3,7.83,7.83,0,0,0-3.3-.41c-2.3.12-3.41,1.9-5.44,2.12h0c-2-.22-3.14-2-5.45-2.12a7.85,7.85,0,0,0-3.3.41,5.1,5.1,0,0,0-3,3,10.66,10.66,0,0,0-.17,5c.27,1.59,1,3,1.47,4.54a4.61,4.61,0,0,1,.15.72l0,0a1,1,0,0,0,.31.46,3.83,3.83,0,0,0,.93.61,5.67,5.67,0,0,0,3.16.34c1.07-.14,2.11-.42,3.18-.51a12.26,12.26,0,0,1,2.64.06,12.17,12.17,0,0,1,2.63-.06c1.07.09,2.12.37,3.18.51a5.66,5.66,0,0,0,3.16-.34,3.89,3.89,0,0,0,.94-.61,1,1,0,0,0,.3-.46s0,0,0,0q.06-.36.15-.72a46.23,46.23,0,0,0,1.48-4.54A10.66,10.66,0,0,0,89.18,105.85Z"/><path class="cls-22" d="M89.18,105.42a5.14,5.14,0,0,0-3-3,7.67,7.67,0,0,0-3.3-.41c-2.3.12-3.41,1.89-5.44,2.12h0c-2-.23-3.14-2-5.45-2.12a7.69,7.69,0,0,0-3.3.41,5.1,5.1,0,0,0-3,3,10.61,10.61,0,0,0-.17,5c.27,1.6,1,3,1.47,4.55a4.27,4.27,0,0,1,.15.71l0,0a1,1,0,0,0,.31.47,4.15,4.15,0,0,0,.93.61,5.76,5.76,0,0,0,3.16.34c1.07-.14,2.11-.42,3.18-.52a12.26,12.26,0,0,1,2.64.07,12.17,12.17,0,0,1,2.63-.07c1.07.1,2.12.38,3.18.52a5.75,5.75,0,0,0,3.16-.34,4.21,4.21,0,0,0,.94-.61,1,1,0,0,0,.3-.47l0,0c0-.24.09-.48.15-.71a45.56,45.56,0,0,0,1.48-4.55A10.61,10.61,0,0,0,89.18,105.42Z"/><path class="cls-23" d="M89.18,105a5.14,5.14,0,0,0-3-3,7.83,7.83,0,0,0-3.3-.41c-2.3.12-3.41,1.9-5.44,2.12h0c-2-.22-3.14-2-5.45-2.12a7.85,7.85,0,0,0-3.3.41,5.1,5.1,0,0,0-3,3,10.66,10.66,0,0,0-.17,5c.27,1.59,1,3,1.47,4.54a4.61,4.61,0,0,1,.15.72l0,0a1,1,0,0,0,.31.46,3.83,3.83,0,0,0,.93.61,5.67,5.67,0,0,0,3.16.34c1.07-.14,2.11-.42,3.18-.51a12.26,12.26,0,0,1,2.64.06,12.17,12.17,0,0,1,2.63-.06c1.07.09,2.12.37,3.18.51a5.66,5.66,0,0,0,3.16-.34,3.89,3.89,0,0,0,.94-.61,1,1,0,0,0,.3-.46s0,0,0,0q.06-.36.15-.72A46.23,46.23,0,0,0,89.35,110,10.66,10.66,0,0,0,89.18,105Z"/><path class="cls-24" d="M89.18,104.55a5.14,5.14,0,0,0-3-3,7.67,7.67,0,0,0-3.3-.41c-2.3.12-3.41,1.89-5.44,2.12h0c-2-.23-3.14-2-5.45-2.12a7.69,7.69,0,0,0-3.3.41,5.1,5.1,0,0,0-3,3,10.61,10.61,0,0,0-.17,5c.27,1.6,1,3,1.47,4.55a4.27,4.27,0,0,1,.15.71h0a1.08,1.08,0,0,0,.31.46,4.15,4.15,0,0,0,.93.61,5.76,5.76,0,0,0,3.16.34c1.07-.14,2.11-.42,3.18-.52a12.26,12.26,0,0,1,2.64.07,12.17,12.17,0,0,1,2.63-.07c1.07.1,2.12.38,3.18.52a5.75,5.75,0,0,0,3.16-.34,4.21,4.21,0,0,0,.94-.61,1.05,1.05,0,0,0,.3-.46h0c0-.24.09-.48.15-.71a45.56,45.56,0,0,0,1.48-4.55A10.61,10.61,0,0,0,89.18,104.55Z"/><path class="cls-25" d="M89.18,104.11a5.14,5.14,0,0,0-3-3,7.67,7.67,0,0,0-3.3-.4c-2.3.11-3.41,1.89-5.44,2.11h0c-2-.22-3.14-2-5.45-2.11a7.69,7.69,0,0,0-3.3.4,5.1,5.1,0,0,0-3,3,10.66,10.66,0,0,0-.17,5c.27,1.59,1,3,1.47,4.54a4.61,4.61,0,0,1,.15.72l0,0a1,1,0,0,0,.31.46,3.83,3.83,0,0,0,.93.61,5.67,5.67,0,0,0,3.16.34c1.07-.14,2.11-.42,3.18-.51a12.26,12.26,0,0,1,2.64.06,12.17,12.17,0,0,1,2.63-.06c1.07.09,2.12.37,3.18.51a5.66,5.66,0,0,0,3.16-.34,3.89,3.89,0,0,0,.94-.61,1,1,0,0,0,.3-.46s0,0,0,0q.06-.36.15-.72a46.23,46.23,0,0,0,1.48-4.54A10.66,10.66,0,0,0,89.18,104.11Z"/><path class="cls-26" d="M89.18,103.68a5.14,5.14,0,0,0-3-3,7.67,7.67,0,0,0-3.3-.41c-2.3.12-3.41,1.89-5.44,2.12h0c-2-.23-3.14-2-5.45-2.12a7.69,7.69,0,0,0-3.3.41,5.1,5.1,0,0,0-3,3,10.61,10.61,0,0,0-.17,5c.27,1.6,1,3,1.47,4.55a4.27,4.27,0,0,1,.15.71h0a1.08,1.08,0,0,0,.31.46,4.15,4.15,0,0,0,.93.61,5.76,5.76,0,0,0,3.16.34c1.07-.14,2.11-.42,3.18-.52a12.26,12.26,0,0,1,2.64.07,12.17,12.17,0,0,1,2.63-.07c1.07.1,2.12.38,3.18.52a5.75,5.75,0,0,0,3.16-.34,4.21,4.21,0,0,0,.94-.61,1.05,1.05,0,0,0,.3-.46h0c0-.24.09-.48.15-.71a45.56,45.56,0,0,0,1.48-4.55A10.61,10.61,0,0,0,89.18,103.68Z"/><path class="cls-27" d="M89.18,103.24a5.14,5.14,0,0,0-3-3,7.67,7.67,0,0,0-3.3-.4c-2.3.11-3.41,1.89-5.44,2.11h0c-2-.22-3.14-2-5.45-2.11a7.69,7.69,0,0,0-3.3.4,5.1,5.1,0,0,0-3,3,10.66,10.66,0,0,0-.17,5c.27,1.59,1,3,1.47,4.54a4.61,4.61,0,0,1,.15.72l0,0a1,1,0,0,0,.31.46,3.83,3.83,0,0,0,.93.61,5.67,5.67,0,0,0,3.16.34c1.07-.14,2.11-.42,3.18-.51a12.26,12.26,0,0,1,2.64.06,12.17,12.17,0,0,1,2.63-.06c1.07.09,2.12.37,3.18.51a5.66,5.66,0,0,0,3.16-.34,3.89,3.89,0,0,0,.94-.61,1,1,0,0,0,.3-.46s0,0,0,0q.06-.36.15-.72a46.23,46.23,0,0,0,1.48-4.54A10.66,10.66,0,0,0,89.18,103.24Z"/><path class="cls-28" d="M89.18,102.81a5.14,5.14,0,0,0-3-3,7.67,7.67,0,0,0-3.3-.41c-2.3.12-3.41,1.89-5.44,2.12h0c-2-.23-3.14-2-5.45-2.12a7.69,7.69,0,0,0-3.3.41,5.1,5.1,0,0,0-3,3,10.61,10.61,0,0,0-.17,5c.27,1.6,1,3,1.47,4.55a4.27,4.27,0,0,1,.15.71h0a1.08,1.08,0,0,0,.31.46,4.15,4.15,0,0,0,.93.61,5.76,5.76,0,0,0,3.16.34c1.07-.14,2.11-.42,3.18-.52a12.26,12.26,0,0,1,2.64.07,12.17,12.17,0,0,1,2.63-.07c1.07.1,2.12.38,3.18.52a5.75,5.75,0,0,0,3.16-.34,4.21,4.21,0,0,0,.94-.61,1.05,1.05,0,0,0,.3-.46h0c0-.24.09-.48.15-.71a45.56,45.56,0,0,0,1.48-4.55A10.61,10.61,0,0,0,89.18,102.81Z"/></g></g><path class="cls-6" d="M77.48,101.51V114a12.26,12.26,0,0,0-2.64-.07c-1.07.1-2.11.38-3.18.52a5.76,5.76,0,0,1-3.16-.34,4.15,4.15,0,0,1-.93-.61,1.08,1.08,0,0,1-.31-.46h0a4.27,4.27,0,0,0-.15-.71c-.42-1.55-1.2-3-1.47-4.55a10.61,10.61,0,0,1,.17-5,5.1,5.1,0,0,1,3-3,7.69,7.69,0,0,1,3.3-.41C74.34,99.51,75.45,101.28,77.48,101.51Z"/><path class="cls-8" d="M89.35,107.79a45.56,45.56,0,0,1-1.48,4.55c-.06.23-.11.47-.15.71h0a1.05,1.05,0,0,1-.3.46,4.21,4.21,0,0,1-.94.61,5.75,5.75,0,0,1-3.16.34c-1.06-.14-2.11-.42-3.18-.52a12.17,12.17,0,0,0-2.63.07V101.51c2-.23,3.14-2,5.44-2.12a7.67,7.67,0,0,1,3.3.41,5.14,5.14,0,0,1,3,3A10.61,10.61,0,0,1,89.35,107.79Z"/><path class="cls-11" d="M88,104.3a5.09,5.09,0,0,0-3-3,7.69,7.69,0,0,0-3.3-.4c-1.84.09-2.46,1.07-4.24,1.37V114a12.17,12.17,0,0,1,2.63-.07c1.07.1,2.12.38,3.18.52a5.75,5.75,0,0,0,3.16-.34l.17-.09c0-.06,0-.13,0-.19a46.35,46.35,0,0,0,1.47-4.55A10.61,10.61,0,0,0,88,104.3Z"/><path class="cls-7" d="M67,104.3a5.13,5.13,0,0,1,3-3,7.67,7.67,0,0,1,3.3-.4c1.83.09,2.46,1.07,4.24,1.37V114a12.26,12.26,0,0,0-2.64-.07c-1.07.1-2.11.38-3.18.52a5.76,5.76,0,0,1-3.16-.34l-.16-.09c0-.06,0-.13,0-.19a46.41,46.41,0,0,1-1.48-4.55A10.61,10.61,0,0,1,67,104.3Z"/><path class="cls-29" d="M86.69,104.61a9.65,9.65,0,0,0-.77-2,3.27,3.27,0,0,0-1.49-1.43,4.88,4.88,0,0,0-1.52-.29l-.81-.06c-2,.14-2.67,1.19-4.62,1.52v10.39c.38,0,.88-.18,1.18-.2a13.53,13.53,0,0,1,4,.34,3.16,3.16,0,0,0,2.4,0,2.59,2.59,0,0,0,.65-.67,6.72,6.72,0,0,0,1.21-2,7.13,7.13,0,0,0,.25-1.9,11.41,11.41,0,0,0,0-1.94A12.08,12.08,0,0,0,86.69,104.61Z"/><path class="cls-30" d="M68.27,104.61a9.65,9.65,0,0,1,.77-2,3.18,3.18,0,0,1,1.49-1.43,4.88,4.88,0,0,1,1.52-.29l.81-.06c2,.14,2.67,1.19,4.62,1.52v10.39c-.38,0-.88-.18-1.18-.2a13.53,13.53,0,0,0-4,.34,3.19,3.19,0,0,1-2.41,0,2.72,2.72,0,0,1-.64-.67,6.72,6.72,0,0,1-1.21-2,7.13,7.13,0,0,1-.25-1.9,11.41,11.41,0,0,1,0-1.94A10.94,10.94,0,0,1,68.27,104.61Z"/><path class="cls-6" d="M128.18,114v.25a1.22,1.22,0,0,0-.49.15c-.48.24-.93,2.24-1.58,4.84l0,.12c-.2.8-.42,2.16-.65,3.69-.52,3.55-1,8.06-1.16,9-.21,1.33-.25,2.86-1.23,2.83s-2-2.06-2-2.06a30.07,30.07,0,0,1-3.56-8.46,16.81,16.81,0,0,1-.4-2.7,16.06,16.06,0,0,1,0-2.41,37,37,0,0,1,.77-4.49,5.1,5.1,0,0,0,0-1.7h0a1.15,1.15,0,0,0,.3.46,4.21,4.21,0,0,0,.94.61,5.76,5.76,0,0,0,3.16.34c1.07-.14,2.11-.42,3.18-.52A12.17,12.17,0,0,1,128.18,114Z"/><path class="cls-7" d="M122.7,129.66a.61.61,0,0,1-1.14.21,26.05,26.05,0,0,1-2.23-5.92,16.42,16.42,0,0,1-.35-2.42,14,14,0,0,1,0-2.15,19.77,19.77,0,0,1,.4-2.62.6.6,0,0,1,.68-.48,7.69,7.69,0,0,0,1.2.09,10.76,10.76,0,0,0,1.34-.09c.52-.06,1-.16,1.5-.25h0a.6.6,0,0,1,.7.74c-.1.39-.2.81-.32,1.27l-.18.75,0,.13c-.19.78-.41,2-.68,3.86-.33,2.22-.64,4.79-.87,6.67Z"/><path class="cls-8" d="M139.24,121.65a18,18,0,0,1-.4,2.7,30.07,30.07,0,0,1-3.56,8.46s-1,2-1.95,2.06-1-1.5-1.23-2.83c-.14-.93-.64-5.44-1.16-9-.23-1.53-.45-2.89-.65-3.69l0-.12c-.65-2.6-1.1-4.6-1.58-4.84a1.21,1.21,0,0,0-.5-.15V114a12.28,12.28,0,0,1,2.64-.07c1.07.1,2.11.38,3.18.52a5.76,5.76,0,0,0,3.16-.34,4.21,4.21,0,0,0,.94-.61,1.15,1.15,0,0,0,.3-.46h0a5.1,5.1,0,0,0,0,1.7,37,37,0,0,1,.77,4.49A16.06,16.06,0,0,1,139.24,121.65Z"/><path class="cls-9" d="M126.88,113.89c-.23.82-.48,1.87-.77,3l0,.12c-.2.8-.42,2.16-.65,3.69-.52,3.55-1,8.06-1.17,9-.2,1.32-.24,2.86-1.21,2.83s-2.25-2-2.25-2a38.48,38.48,0,0,1-2.1-4.64c-.08-.31-.16-.62-.23-.93a17,17,0,0,1-.39-2.71,14.83,14.83,0,0,1,0-2.41,37.16,37.16,0,0,1,.77-4.48,5,5,0,0,0,0-1.45,3.84,3.84,0,0,1-.64-.45,1.15,1.15,0,0,1-.3-.46h0a5.1,5.1,0,0,1,0,1.7,37,37,0,0,0-.77,4.49,16.06,16.06,0,0,0,0,2.41c0,.2,0,.41.05.63h0v0a17.16,17.16,0,0,0,.33,2.06,28.36,28.36,0,0,0,2.59,6.74c.56,1.05,1,1.71,1,1.71s.06.13.17.32h0l.08.13s0,.08.07.13l0,0c.37.6,1,1.43,1.62,1.45,1,0,1-1.5,1.21-2.83.15-.93.65-5.44,1.17-9,.23-1.53.45-2.88.65-3.69l0-.12c.65-2.6,1.1-4.6,1.58-4.84a1.31,1.31,0,0,1,.5-.15V114C127.75,114,127.31,113.91,126.88,113.89Z"/><path class="cls-10" d="M129.49,113.89c.23.82.48,1.87.77,3l0,.12c.2.8.42,2.16.65,3.69.52,3.55,1,8.06,1.17,9,.2,1.32.24,2.86,1.21,2.83s2.25-2,2.25-2a38.48,38.48,0,0,0,2.1-4.64c.08-.31.16-.62.23-.93a17,17,0,0,0,.39-2.71,14.83,14.83,0,0,0,0-2.41,35.28,35.28,0,0,0-.77-4.48,5,5,0,0,1,0-1.45,3.84,3.84,0,0,0,.64-.45,1.05,1.05,0,0,0,.3-.46h0a5.1,5.1,0,0,0,0,1.7,37,37,0,0,1,.77,4.49,16.06,16.06,0,0,1,0,2.41c0,.2,0,.41-.05.63h0v0a17.16,17.16,0,0,1-.33,2.06,28.36,28.36,0,0,1-2.59,6.74c-.56,1.05-1,1.71-1,1.71s-.06.13-.17.32h0l-.08.13-.07.13,0,0c-.37.6-1,1.43-1.62,1.45-1,0-1-1.5-1.21-2.83-.15-.93-.65-5.44-1.17-9-.23-1.53-.45-2.88-.65-3.69l0-.12c-.65-2.6-1.1-4.6-1.58-4.84a1.31,1.31,0,0,0-.5-.15V114C128.62,114,129.06,113.91,129.49,113.89Z"/><path class="cls-11" d="M133.52,129.66a.61.61,0,0,0,1.14.21,26.05,26.05,0,0,0,2.23-5.92,15.24,15.24,0,0,0,.36-2.42,15.43,15.43,0,0,0,0-2.15,21.56,21.56,0,0,0-.4-2.62.6.6,0,0,0-.68-.48,7.88,7.88,0,0,1-1.2.09,10.52,10.52,0,0,1-1.34-.09c-.52-.06-1-.16-1.5-.25h0a.6.6,0,0,0-.7.74c.1.39.2.81.31,1.27l.19.75,0,.13c.2.78.41,2,.69,3.86.32,2.22.64,4.79.87,6.67Z"/><g class="cls-31"><g class="cls-13"><path class="cls-14" d="M139.89,108.9a5.11,5.11,0,0,0-3-3,7.54,7.54,0,0,0-3.3-.41c-2.3.12-3.41,1.89-5.45,2.11h0c-2-.23-3.14-2-5.44-2.12a7.54,7.54,0,0,0-3.3.41,5.11,5.11,0,0,0-3,3,10.74,10.74,0,0,0-.17,5c.28,1.59,1,3,1.48,4.55a4.27,4.27,0,0,1,.15.71l0,0a1.12,1.12,0,0,0,.3.47,4.21,4.21,0,0,0,.94.61,5.76,5.76,0,0,0,3.16.34c1.07-.14,2.11-.42,3.18-.52a12.17,12.17,0,0,1,2.63.07,12.28,12.28,0,0,1,2.64-.07c1.07.1,2.11.38,3.18.52a5.76,5.76,0,0,0,3.16-.34,4.21,4.21,0,0,0,.94-.61,1.12,1.12,0,0,0,.3-.47l0,0a4.27,4.27,0,0,1,.15-.71c.43-1.55,1.2-3,1.48-4.55A10.88,10.88,0,0,0,139.89,108.9Z"/><path class="cls-15" d="M139.89,108.46a5.14,5.14,0,0,0-3-3,7.85,7.85,0,0,0-3.3-.41c-2.3.12-3.41,1.89-5.45,2.12h0c-2-.23-3.14-2-5.44-2.12a7.85,7.85,0,0,0-3.3.41,5.14,5.14,0,0,0-3,3,10.79,10.79,0,0,0-.17,5c.28,1.59,1,3,1.48,4.54a4.61,4.61,0,0,1,.15.72l0,0a1,1,0,0,0,.3.46,3.89,3.89,0,0,0,.94.61,5.67,5.67,0,0,0,3.16.34c1.07-.14,2.11-.42,3.18-.51a12.17,12.17,0,0,1,2.63.06,12.27,12.27,0,0,1,2.64-.06c1.07.09,2.11.37,3.18.51a5.67,5.67,0,0,0,3.16-.34,3.89,3.89,0,0,0,.94-.61,1.08,1.08,0,0,0,.3-.46l0,0a4.61,4.61,0,0,1,.15-.72c.43-1.55,1.2-2.95,1.48-4.54A10.93,10.93,0,0,0,139.89,108.46Z"/><path class="cls-16" d="M139.89,108a5.11,5.11,0,0,0-3-3,7.54,7.54,0,0,0-3.3-.41c-2.3.12-3.41,1.89-5.45,2.11h0c-2-.23-3.14-2-5.44-2.12a7.54,7.54,0,0,0-3.3.41,5.11,5.11,0,0,0-3,3,10.74,10.74,0,0,0-.17,5c.28,1.59,1,3,1.48,4.55a4.27,4.27,0,0,1,.15.71l0,0a1,1,0,0,0,.3.47,4.21,4.21,0,0,0,.94.61,5.76,5.76,0,0,0,3.16.34c1.07-.14,2.11-.42,3.18-.52a12.17,12.17,0,0,1,2.63.07,12.28,12.28,0,0,1,2.64-.07c1.07.1,2.11.38,3.18.52a5.76,5.76,0,0,0,3.16-.34,4.21,4.21,0,0,0,.94-.61,1.12,1.12,0,0,0,.3-.47l0,0a4.27,4.27,0,0,1,.15-.71c.43-1.55,1.2-3,1.48-4.55A10.88,10.88,0,0,0,139.89,108Z"/><path class="cls-17" d="M139.89,107.59a5.14,5.14,0,0,0-3-3,7.85,7.85,0,0,0-3.3-.41c-2.3.12-3.41,1.89-5.45,2.12h0c-2-.23-3.14-2-5.44-2.12a7.85,7.85,0,0,0-3.3.41,5.14,5.14,0,0,0-3,3,10.79,10.79,0,0,0-.17,5c.28,1.59,1,3,1.48,4.54a4.61,4.61,0,0,1,.15.72l0,0a1,1,0,0,0,.3.46,3.89,3.89,0,0,0,.94.61,5.67,5.67,0,0,0,3.16.34c1.07-.14,2.11-.42,3.18-.51a12.17,12.17,0,0,1,2.63.06,12.27,12.27,0,0,1,2.64-.06c1.07.09,2.11.37,3.18.51a5.67,5.67,0,0,0,3.16-.34,3.89,3.89,0,0,0,.94-.61,1.08,1.08,0,0,0,.3-.46l0,0a4.61,4.61,0,0,1,.15-.72c.43-1.55,1.2-3,1.48-4.54A10.93,10.93,0,0,0,139.89,107.59Z"/><path class="cls-18" d="M139.89,107.16a5.11,5.11,0,0,0-3-3,7.69,7.69,0,0,0-3.3-.41c-2.3.12-3.41,1.89-5.45,2.11h0c-2-.23-3.14-2-5.44-2.12a7.69,7.69,0,0,0-3.3.41,5.11,5.11,0,0,0-3,3,10.74,10.74,0,0,0-.17,5c.28,1.59,1,3,1.48,4.55a4.27,4.27,0,0,1,.15.71l0,0a1,1,0,0,0,.3.47,4.21,4.21,0,0,0,.94.61,5.76,5.76,0,0,0,3.16.34c1.07-.14,2.11-.42,3.18-.52a12.17,12.17,0,0,1,2.63.07,12.28,12.28,0,0,1,2.64-.07c1.07.1,2.11.38,3.18.52a5.76,5.76,0,0,0,3.16-.34,4.21,4.21,0,0,0,.94-.61,1.12,1.12,0,0,0,.3-.47l0,0a4.27,4.27,0,0,1,.15-.71c.43-1.55,1.2-3,1.48-4.55A10.88,10.88,0,0,0,139.89,107.16Z"/><path class="cls-19" d="M139.89,106.72a5.14,5.14,0,0,0-3-3,7.85,7.85,0,0,0-3.3-.41c-2.3.12-3.41,1.89-5.45,2.12h0c-2-.23-3.14-2-5.44-2.12a7.85,7.85,0,0,0-3.3.41,5.14,5.14,0,0,0-3,3,10.79,10.79,0,0,0-.17,5c.28,1.59,1,3,1.48,4.54a4.61,4.61,0,0,1,.15.72l0,0a1,1,0,0,0,.3.46,3.89,3.89,0,0,0,.94.61,5.67,5.67,0,0,0,3.16.34c1.07-.14,2.11-.42,3.18-.51a12.17,12.17,0,0,1,2.63.06,12.27,12.27,0,0,1,2.64-.06c1.07.09,2.11.37,3.18.51a5.67,5.67,0,0,0,3.16-.34,3.89,3.89,0,0,0,.94-.61,1.08,1.08,0,0,0,.3-.46l0,0a4.61,4.61,0,0,1,.15-.72c.43-1.55,1.2-3,1.48-4.54A10.93,10.93,0,0,0,139.89,106.72Z"/><path class="cls-20" d="M139.89,106.29a5.14,5.14,0,0,0-3-3,7.69,7.69,0,0,0-3.3-.41c-2.3.12-3.41,1.89-5.45,2.11h0c-2-.23-3.14-2-5.44-2.12a7.69,7.69,0,0,0-3.3.41,5.14,5.14,0,0,0-3,3,10.74,10.74,0,0,0-.17,5c.28,1.59,1,3,1.48,4.55a4.27,4.27,0,0,1,.15.71l0,0a1,1,0,0,0,.3.47,4.21,4.21,0,0,0,.94.61,5.76,5.76,0,0,0,3.16.34c1.07-.14,2.11-.42,3.18-.52a12.17,12.17,0,0,1,2.63.07,12.28,12.28,0,0,1,2.64-.07c1.07.1,2.11.38,3.18.52a5.76,5.76,0,0,0,3.16-.34,4.21,4.21,0,0,0,.94-.61,1.12,1.12,0,0,0,.3-.47l0,0a4.27,4.27,0,0,1,.15-.71c.43-1.55,1.2-3,1.48-4.55A10.88,10.88,0,0,0,139.89,106.29Z"/><path class="cls-21" d="M139.89,105.85a5.14,5.14,0,0,0-3-3,7.85,7.85,0,0,0-3.3-.41c-2.3.12-3.41,1.9-5.45,2.12h0c-2-.22-3.14-2-5.44-2.12a7.85,7.85,0,0,0-3.3.41,5.14,5.14,0,0,0-3,3,10.79,10.79,0,0,0-.17,5c.28,1.59,1,3,1.48,4.54a4.61,4.61,0,0,1,.15.72l0,0a1,1,0,0,0,.3.46,3.89,3.89,0,0,0,.94.61,5.67,5.67,0,0,0,3.16.34c1.07-.14,2.11-.42,3.18-.51a12.17,12.17,0,0,1,2.63.06,12.27,12.27,0,0,1,2.64-.06c1.07.09,2.11.37,3.18.51a5.67,5.67,0,0,0,3.16-.34,3.89,3.89,0,0,0,.94-.61,1.08,1.08,0,0,0,.3-.46l0,0a4.61,4.61,0,0,1,.15-.72c.43-1.55,1.2-2.95,1.48-4.54A10.93,10.93,0,0,0,139.89,105.85Z"/><path class="cls-22" d="M139.89,105.42a5.14,5.14,0,0,0-3-3,7.69,7.69,0,0,0-3.3-.41c-2.3.12-3.41,1.89-5.45,2.12h0c-2-.23-3.14-2-5.44-2.12a7.69,7.69,0,0,0-3.3.41,5.14,5.14,0,0,0-3,3,10.74,10.74,0,0,0-.17,5c.28,1.6,1,3,1.48,4.55a4.27,4.27,0,0,1,.15.71l0,0a1,1,0,0,0,.3.47,4.21,4.21,0,0,0,.94.61,5.76,5.76,0,0,0,3.16.34c1.07-.14,2.11-.42,3.18-.52a12.17,12.17,0,0,1,2.63.07,12.28,12.28,0,0,1,2.64-.07c1.07.1,2.11.38,3.18.52a5.76,5.76,0,0,0,3.16-.34,4.21,4.21,0,0,0,.94-.61,1.12,1.12,0,0,0,.3-.47l0,0a4.27,4.27,0,0,1,.15-.71c.43-1.55,1.2-3,1.48-4.55A10.74,10.74,0,0,0,139.89,105.42Z"/><path class="cls-23" d="M139.89,105a5.14,5.14,0,0,0-3-3,7.85,7.85,0,0,0-3.3-.41c-2.3.12-3.41,1.9-5.45,2.12h0c-2-.22-3.14-2-5.44-2.12a7.85,7.85,0,0,0-3.3.41,5.14,5.14,0,0,0-3,3,10.79,10.79,0,0,0-.17,5c.28,1.59,1,3,1.48,4.54a4.61,4.61,0,0,1,.15.72l0,0a1,1,0,0,0,.3.46,3.89,3.89,0,0,0,.94.61,5.67,5.67,0,0,0,3.16.34c1.07-.14,2.11-.42,3.18-.51a12.17,12.17,0,0,1,2.63.06,12.27,12.27,0,0,1,2.64-.06c1.07.09,2.11.37,3.18.51a5.67,5.67,0,0,0,3.16-.34,3.89,3.89,0,0,0,.94-.61,1,1,0,0,0,.3-.46l0,0a4.61,4.61,0,0,1,.15-.72c.43-1.55,1.2-3,1.48-4.54A10.79,10.79,0,0,0,139.89,105Z"/><path class="cls-24" d="M139.89,104.55a5.14,5.14,0,0,0-3-3,7.69,7.69,0,0,0-3.3-.41c-2.3.12-3.41,1.89-5.45,2.12h0c-2-.23-3.14-2-5.44-2.12a7.69,7.69,0,0,0-3.3.41,5.14,5.14,0,0,0-3,3,10.74,10.74,0,0,0-.17,5c.28,1.6,1,3,1.48,4.55a4.27,4.27,0,0,1,.15.71h0a1.05,1.05,0,0,0,.3.46,4.21,4.21,0,0,0,.94.61,5.76,5.76,0,0,0,3.16.34c1.07-.14,2.11-.42,3.18-.52a12.17,12.17,0,0,1,2.63.07,12.28,12.28,0,0,1,2.64-.07c1.07.1,2.11.38,3.18.52a5.76,5.76,0,0,0,3.16-.34,4.21,4.21,0,0,0,.94-.61,1.05,1.05,0,0,0,.3-.46h0a4.27,4.27,0,0,1,.15-.71c.43-1.55,1.2-3,1.48-4.55A10.74,10.74,0,0,0,139.89,104.55Z"/><path class="cls-25" d="M139.89,104.11a5.14,5.14,0,0,0-3-3,7.69,7.69,0,0,0-3.3-.4c-2.3.11-3.41,1.89-5.45,2.11h0c-2-.22-3.14-2-5.44-2.11a7.69,7.69,0,0,0-3.3.4,5.14,5.14,0,0,0-3,3,10.79,10.79,0,0,0-.17,5c.28,1.59,1,3,1.48,4.54a4.61,4.61,0,0,1,.15.72l0,0a1,1,0,0,0,.3.46,3.89,3.89,0,0,0,.94.61,5.67,5.67,0,0,0,3.16.34c1.07-.14,2.11-.42,3.18-.51a12.17,12.17,0,0,1,2.63.06,12.27,12.27,0,0,1,2.64-.06c1.07.09,2.11.37,3.18.51a5.67,5.67,0,0,0,3.16-.34,3.89,3.89,0,0,0,.94-.61,1,1,0,0,0,.3-.46l0,0a4.61,4.61,0,0,1,.15-.72c.43-1.55,1.2-3,1.48-4.54A10.79,10.79,0,0,0,139.89,104.11Z"/><path class="cls-26" d="M139.89,103.68a5.14,5.14,0,0,0-3-3,7.69,7.69,0,0,0-3.3-.41c-2.3.12-3.41,1.89-5.45,2.12h0c-2-.23-3.14-2-5.44-2.12a7.69,7.69,0,0,0-3.3.41,5.14,5.14,0,0,0-3,3,10.74,10.74,0,0,0-.17,5c.28,1.6,1,3,1.48,4.55a4.27,4.27,0,0,1,.15.71h0a1.05,1.05,0,0,0,.3.46,4.21,4.21,0,0,0,.94.61,5.76,5.76,0,0,0,3.16.34c1.07-.14,2.11-.42,3.18-.52a12.17,12.17,0,0,1,2.63.07,12.28,12.28,0,0,1,2.64-.07c1.07.1,2.11.38,3.18.52a5.76,5.76,0,0,0,3.16-.34,4.21,4.21,0,0,0,.94-.61,1.05,1.05,0,0,0,.3-.46h0a4.27,4.27,0,0,1,.15-.71c.43-1.55,1.2-2.95,1.48-4.55A10.74,10.74,0,0,0,139.89,103.68Z"/><path class="cls-27" d="M139.89,103.24a5.14,5.14,0,0,0-3-3,7.69,7.69,0,0,0-3.3-.4c-2.3.11-3.41,1.89-5.45,2.11h0c-2-.22-3.14-2-5.44-2.11a7.69,7.69,0,0,0-3.3.4,5.14,5.14,0,0,0-3,3,10.79,10.79,0,0,0-.17,5c.28,1.59,1,3,1.48,4.54a4.61,4.61,0,0,1,.15.72l0,0a1,1,0,0,0,.3.46,3.89,3.89,0,0,0,.94.61,5.67,5.67,0,0,0,3.16.34c1.07-.14,2.11-.42,3.18-.51a12.17,12.17,0,0,1,2.63.06,12.27,12.27,0,0,1,2.64-.06c1.07.09,2.11.37,3.18.51a5.67,5.67,0,0,0,3.16-.34,3.89,3.89,0,0,0,.94-.61,1,1,0,0,0,.3-.46l0,0a4.61,4.61,0,0,1,.15-.72c.43-1.55,1.2-3,1.48-4.54A10.79,10.79,0,0,0,139.89,103.24Z"/><path class="cls-28" d="M139.89,102.81a5.14,5.14,0,0,0-3-3,7.69,7.69,0,0,0-3.3-.41c-2.3.12-3.41,1.89-5.45,2.12h0c-2-.23-3.14-2-5.44-2.12a7.69,7.69,0,0,0-3.3.41,5.14,5.14,0,0,0-3,3,10.74,10.74,0,0,0-.17,5c.28,1.6,1,3,1.48,4.55a4.27,4.27,0,0,1,.15.71h0a1.15,1.15,0,0,0,.3.46,4.21,4.21,0,0,0,.94.61,5.76,5.76,0,0,0,3.16.34c1.07-.14,2.11-.42,3.18-.52a12.17,12.17,0,0,1,2.63.07,12.28,12.28,0,0,1,2.64-.07c1.07.1,2.11.38,3.18.52a5.76,5.76,0,0,0,3.16-.34,4.21,4.21,0,0,0,.94-.61,1.15,1.15,0,0,0,.3-.46h0a4.27,4.27,0,0,1,.15-.71c.43-1.55,1.2-3,1.48-4.55A10.74,10.74,0,0,0,139.89,102.81Z"/></g></g><path class="cls-6" d="M128.18,101.51V114a12.17,12.17,0,0,0-2.63-.07c-1.07.1-2.11.38-3.18.52a5.76,5.76,0,0,1-3.16-.34,4.21,4.21,0,0,1-.94-.61,1.15,1.15,0,0,1-.3-.46h0a4.27,4.27,0,0,0-.15-.71c-.43-1.55-1.2-3-1.48-4.55a10.74,10.74,0,0,1,.17-5,5.14,5.14,0,0,1,3-3,7.69,7.69,0,0,1,3.3-.41C125,99.51,126.15,101.28,128.18,101.51Z"/><path class="cls-8" d="M140.06,107.79c-.28,1.6-1.05,3-1.48,4.55a4.27,4.27,0,0,0-.15.71h0a1.15,1.15,0,0,1-.3.46,4.21,4.21,0,0,1-.94.61,5.76,5.76,0,0,1-3.16.34c-1.07-.14-2.11-.42-3.18-.52a12.28,12.28,0,0,0-2.64.07V101.51c2-.23,3.15-2,5.45-2.12a7.69,7.69,0,0,1,3.3.41,5.14,5.14,0,0,1,3,3A10.88,10.88,0,0,1,140.06,107.79Z"/><path class="cls-11" d="M138.68,104.3a5.13,5.13,0,0,0-3-3,7.62,7.62,0,0,0-3.29-.4c-1.84.09-2.46,1.07-4.25,1.37V114a12.28,12.28,0,0,1,2.64-.07c1.07.1,2.11.38,3.18.52a5.76,5.76,0,0,0,3.16-.34l.17-.09c0-.06,0-.13,0-.19a46.41,46.41,0,0,0,1.48-4.55A10.61,10.61,0,0,0,138.68,104.3Z"/><path class="cls-7" d="M117.69,104.3a5.13,5.13,0,0,1,3-3,7.62,7.62,0,0,1,3.29-.4c1.84.09,2.46,1.07,4.24,1.37V114a12.17,12.17,0,0,0-2.63-.07c-1.07.1-2.11.38-3.18.52a5.76,5.76,0,0,1-3.16-.34L119,114a1.33,1.33,0,0,0-.05-.19c-.42-1.55-1.2-3-1.47-4.55A10.61,10.61,0,0,1,117.69,104.3Z"/><path class="cls-29" d="M137.4,104.61a9.65,9.65,0,0,0-.77-2,3.27,3.27,0,0,0-1.49-1.43,4.93,4.93,0,0,0-1.52-.29l-.81-.06c-2,.14-2.67,1.19-4.62,1.52v10.39c.38,0,.87-.18,1.18-.2a13.47,13.47,0,0,1,4,.34,3.19,3.19,0,0,0,2.41,0,2.76,2.76,0,0,0,.65-.67,6.72,6.72,0,0,0,1.21-2,7.12,7.12,0,0,0,.24-1.9,11.41,11.41,0,0,0,0-1.94A12.08,12.08,0,0,0,137.4,104.61Z"/><path class="cls-30" d="M119,104.61a10.28,10.28,0,0,1,.77-2,3.24,3.24,0,0,1,1.5-1.43,4.82,4.82,0,0,1,1.51-.29l.81-.06c2,.14,2.67,1.19,4.63,1.52v10.39c-.38,0-.88-.18-1.19-.2a13.47,13.47,0,0,0-4,.34,3.19,3.19,0,0,1-2.41,0,2.76,2.76,0,0,1-.65-.67,6.93,6.93,0,0,1-1.21-2,7.12,7.12,0,0,1-.24-1.9,10.47,10.47,0,0,1,0-1.94A10.9,10.9,0,0,1,119,104.61Z"/><path class="cls-6" d="M153.39,114v.25a1.22,1.22,0,0,0-.49.15c-.48.24-.93,2.24-1.58,4.84l0,.12c-.2.8-.42,2.16-.65,3.69-.52,3.55-1,8.06-1.16,9-.21,1.33-.25,2.86-1.23,2.83s-1.95-2.06-1.95-2.06a30.07,30.07,0,0,1-3.56-8.46,16.81,16.81,0,0,1-.4-2.7,16.06,16.06,0,0,1,0-2.41,37,37,0,0,1,.77-4.49,5.1,5.1,0,0,0,0-1.7h0a1.15,1.15,0,0,0,.3.46,4.21,4.21,0,0,0,.94.61,5.76,5.76,0,0,0,3.16.34c1.07-.14,2.11-.42,3.18-.52A12.17,12.17,0,0,1,153.39,114Z"/><path class="cls-7" d="M147.91,129.66a.61.61,0,0,1-1.14.21,26.05,26.05,0,0,1-2.23-5.92,16.42,16.42,0,0,1-.35-2.42,14,14,0,0,1,0-2.15,19.77,19.77,0,0,1,.4-2.62.6.6,0,0,1,.68-.48,7.69,7.69,0,0,0,1.2.09,10.76,10.76,0,0,0,1.34-.09c.52-.06,1-.16,1.5-.25h0a.6.6,0,0,1,.7.74c-.1.39-.2.81-.32,1.27l-.18.75,0,.13c-.19.78-.41,2-.68,3.86-.33,2.22-.64,4.79-.87,6.67Z"/><path class="cls-8" d="M164.45,121.65a16.81,16.81,0,0,1-.4,2.7,30.07,30.07,0,0,1-3.56,8.46s-1,2-2,2.06-1-1.5-1.23-2.83c-.14-.93-.64-5.44-1.16-9-.23-1.53-.45-2.89-.65-3.69l0-.12c-.65-2.6-1.1-4.6-1.58-4.84a1.21,1.21,0,0,0-.5-.15V114a12.28,12.28,0,0,1,2.64-.07c1.07.1,2.11.38,3.18.52a5.76,5.76,0,0,0,3.16-.34,4.21,4.21,0,0,0,.94-.61,1.15,1.15,0,0,0,.3-.46h0a5.1,5.1,0,0,0,0,1.7,37,37,0,0,1,.77,4.49A16.06,16.06,0,0,1,164.45,121.65Z"/><path class="cls-9" d="M152.09,113.89c-.23.82-.48,1.87-.77,3l0,.12c-.2.8-.42,2.16-.65,3.69-.52,3.55-1,8.06-1.17,9-.2,1.32-.24,2.86-1.21,2.83s-2.25-2-2.25-2a38.48,38.48,0,0,1-2.1-4.64c-.08-.31-.16-.62-.23-.93a17,17,0,0,1-.39-2.71,14.83,14.83,0,0,1,0-2.41,37.16,37.16,0,0,1,.77-4.48,5,5,0,0,0,.05-1.45,4.3,4.3,0,0,1-.64-.45,1.15,1.15,0,0,1-.3-.46h0a5.1,5.1,0,0,1,0,1.7,37,37,0,0,0-.77,4.49,16.06,16.06,0,0,0,0,2.41c0,.2,0,.41,0,.63h0v0a17.16,17.16,0,0,0,.33,2.06,28.36,28.36,0,0,0,2.59,6.74c.56,1.05,1,1.71,1,1.71s.06.13.17.32h0l.08.13s0,.08.07.13l0,0c.37.6,1,1.43,1.62,1.45,1,0,1-1.5,1.21-2.83.15-.93.65-5.44,1.17-9,.23-1.53.45-2.88.65-3.69l0-.12c.65-2.6,1.1-4.6,1.58-4.84a1.31,1.31,0,0,1,.5-.15V114C153,114,152.52,113.91,152.09,113.89Z"/><path class="cls-10" d="M154.7,113.89c.23.82.48,1.87.77,3l0,.12c.2.8.42,2.16.65,3.69.52,3.55,1,8.06,1.17,9,.2,1.32.24,2.86,1.21,2.83s2.25-2,2.25-2a38.48,38.48,0,0,0,2.1-4.64c.08-.31.16-.62.23-.93a17,17,0,0,0,.39-2.71,14.83,14.83,0,0,0,0-2.41,35.28,35.28,0,0,0-.77-4.48,5,5,0,0,1-.05-1.45,3.84,3.84,0,0,0,.64-.45,1.05,1.05,0,0,0,.3-.46h0a5.38,5.38,0,0,0,0,1.7,37,37,0,0,1,.77,4.49,16.06,16.06,0,0,1,0,2.41c0,.2,0,.41,0,.63h0v0a17.16,17.16,0,0,1-.33,2.06,28.36,28.36,0,0,1-2.59,6.74c-.56,1.05-1,1.71-1,1.71s-.06.13-.17.32h0l-.08.13-.07.13,0,0c-.37.6-1,1.43-1.62,1.45-1,0-1-1.5-1.21-2.83-.15-.93-.65-5.44-1.17-9-.23-1.53-.45-2.88-.65-3.69l0-.12c-.65-2.6-1.1-4.6-1.58-4.84a1.31,1.31,0,0,0-.5-.15V114C153.83,114,154.27,113.91,154.7,113.89Z"/><path class="cls-11" d="M158.73,129.66a.61.61,0,0,0,1.14.21A26.05,26.05,0,0,0,162.1,124a15.24,15.24,0,0,0,.36-2.42,14,14,0,0,0,0-2.15,21.56,21.56,0,0,0-.4-2.62.6.6,0,0,0-.68-.48,7.88,7.88,0,0,1-1.2.09,10.52,10.52,0,0,1-1.34-.09c-.52-.06-1-.16-1.5-.25h0a.6.6,0,0,0-.7.74c.1.39.2.81.31,1.27l.19.75,0,.13c.2.78.42,2,.69,3.86.32,2.22.64,4.79.87,6.67Z"/><g class="cls-32"><g class="cls-13"><path class="cls-14" d="M165.1,108.9a5.11,5.11,0,0,0-3-3,7.54,7.54,0,0,0-3.3-.41c-2.3.12-3.41,1.89-5.45,2.11h0c-2-.23-3.14-2-5.44-2.12a7.54,7.54,0,0,0-3.3.41,5.11,5.11,0,0,0-3,3,10.74,10.74,0,0,0-.17,5c.28,1.59,1,3,1.48,4.55a4.27,4.27,0,0,1,.15.71l0,0a1.12,1.12,0,0,0,.3.47,4.21,4.21,0,0,0,.94.61,5.76,5.76,0,0,0,3.16.34c1.07-.14,2.11-.42,3.18-.52a12.17,12.17,0,0,1,2.63.07A12.28,12.28,0,0,1,156,120c1.07.1,2.11.38,3.18.52a5.76,5.76,0,0,0,3.16-.34,4.21,4.21,0,0,0,.94-.61,1.12,1.12,0,0,0,.3-.47l0,0a4.27,4.27,0,0,1,.15-.71c.43-1.55,1.2-3,1.48-4.55A10.74,10.74,0,0,0,165.1,108.9Z"/><path class="cls-15" d="M165.1,108.46a5.14,5.14,0,0,0-3-3,7.85,7.85,0,0,0-3.3-.41c-2.3.12-3.41,1.89-5.45,2.12h0c-2-.23-3.14-2-5.44-2.12a7.85,7.85,0,0,0-3.3.41,5.14,5.14,0,0,0-3,3,10.79,10.79,0,0,0-.17,5c.28,1.59,1,3,1.48,4.54a4.61,4.61,0,0,1,.15.72l0,0a1,1,0,0,0,.3.46,3.89,3.89,0,0,0,.94.61,5.67,5.67,0,0,0,3.16.34c1.07-.14,2.11-.42,3.18-.51a12.17,12.17,0,0,1,2.63.06,12.27,12.27,0,0,1,2.64-.06c1.07.09,2.11.37,3.18.51a5.67,5.67,0,0,0,3.16-.34,3.89,3.89,0,0,0,.94-.61,1,1,0,0,0,.3-.46l0,0a4.61,4.61,0,0,1,.15-.72c.43-1.55,1.2-2.95,1.48-4.54A10.79,10.79,0,0,0,165.1,108.46Z"/><path class="cls-16" d="M165.1,108a5.11,5.11,0,0,0-3-3,7.54,7.54,0,0,0-3.3-.41c-2.3.12-3.41,1.89-5.45,2.11h0c-2-.23-3.14-2-5.44-2.12a7.54,7.54,0,0,0-3.3.41,5.11,5.11,0,0,0-3,3,10.74,10.74,0,0,0-.17,5c.28,1.59,1,3,1.48,4.55a4.27,4.27,0,0,1,.15.71l0,0a1,1,0,0,0,.3.47,4.21,4.21,0,0,0,.94.61,5.76,5.76,0,0,0,3.16.34c1.07-.14,2.11-.42,3.18-.52a12.17,12.17,0,0,1,2.63.07,12.28,12.28,0,0,1,2.64-.07c1.07.1,2.11.38,3.18.52a5.76,5.76,0,0,0,3.16-.34,4.21,4.21,0,0,0,.94-.61,1,1,0,0,0,.3-.47l0,0a4.27,4.27,0,0,1,.15-.71c.43-1.55,1.2-3,1.48-4.55A10.74,10.74,0,0,0,165.1,108Z"/><path class="cls-17" d="M165.1,107.59a5.14,5.14,0,0,0-3-3,7.85,7.85,0,0,0-3.3-.41c-2.3.12-3.41,1.89-5.45,2.12h0c-2-.23-3.14-2-5.44-2.12a7.85,7.85,0,0,0-3.3.41,5.14,5.14,0,0,0-3,3,10.79,10.79,0,0,0-.17,5c.28,1.59,1,3,1.48,4.54a4.61,4.61,0,0,1,.15.72l0,0a1,1,0,0,0,.3.46,3.89,3.89,0,0,0,.94.61,5.67,5.67,0,0,0,3.16.34c1.07-.14,2.11-.42,3.18-.51a12.17,12.17,0,0,1,2.63.06,12.27,12.27,0,0,1,2.64-.06c1.07.09,2.11.37,3.18.51a5.67,5.67,0,0,0,3.16-.34,3.89,3.89,0,0,0,.94-.61,1,1,0,0,0,.3-.46l0,0a4.61,4.61,0,0,1,.15-.72c.43-1.55,1.2-3,1.48-4.54A10.79,10.79,0,0,0,165.1,107.59Z"/><path class="cls-18" d="M165.1,107.16a5.11,5.11,0,0,0-3-3,7.69,7.69,0,0,0-3.3-.41c-2.3.12-3.41,1.89-5.45,2.11h0c-2-.23-3.14-2-5.44-2.12a7.69,7.69,0,0,0-3.3.41,5.11,5.11,0,0,0-3,3,10.74,10.74,0,0,0-.17,5c.28,1.59,1,3,1.48,4.55a4.27,4.27,0,0,1,.15.71l0,0a1,1,0,0,0,.3.47,4.21,4.21,0,0,0,.94.61,5.76,5.76,0,0,0,3.16.34c1.07-.14,2.11-.42,3.18-.52a12.17,12.17,0,0,1,2.63.07,12.28,12.28,0,0,1,2.64-.07c1.07.1,2.11.38,3.18.52a5.76,5.76,0,0,0,3.16-.34,4.21,4.21,0,0,0,.94-.61,1,1,0,0,0,.3-.47l0,0a4.27,4.27,0,0,1,.15-.71c.43-1.55,1.2-3,1.48-4.55A10.74,10.74,0,0,0,165.1,107.16Z"/><path class="cls-19" d="M165.1,106.72a5.14,5.14,0,0,0-3-3,7.85,7.85,0,0,0-3.3-.41c-2.3.12-3.41,1.89-5.45,2.12h0c-2-.23-3.14-2-5.44-2.12a7.85,7.85,0,0,0-3.3.41,5.14,5.14,0,0,0-3,3,10.79,10.79,0,0,0-.17,5c.28,1.59,1,3,1.48,4.54a4.61,4.61,0,0,1,.15.72l0,0a1,1,0,0,0,.3.46,3.89,3.89,0,0,0,.94.61,5.67,5.67,0,0,0,3.16.34c1.07-.14,2.11-.42,3.18-.51a12.17,12.17,0,0,1,2.63.06,12.27,12.27,0,0,1,2.64-.06c1.07.09,2.11.37,3.18.51a5.67,5.67,0,0,0,3.16-.34,3.89,3.89,0,0,0,.94-.61,1,1,0,0,0,.3-.46l0,0a4.61,4.61,0,0,1,.15-.72c.43-1.55,1.2-3,1.48-4.54A10.79,10.79,0,0,0,165.1,106.72Z"/><path class="cls-20" d="M165.1,106.29a5.14,5.14,0,0,0-3-3,7.69,7.69,0,0,0-3.3-.41c-2.3.12-3.41,1.89-5.45,2.11h0c-2-.23-3.14-2-5.44-2.12a7.69,7.69,0,0,0-3.3.41,5.14,5.14,0,0,0-3,3,10.74,10.74,0,0,0-.17,5c.28,1.59,1,3,1.48,4.55a4.27,4.27,0,0,1,.15.71l0,0a1,1,0,0,0,.3.47,4.21,4.21,0,0,0,.94.61,5.76,5.76,0,0,0,3.16.34c1.07-.14,2.11-.42,3.18-.52a12.17,12.17,0,0,1,2.63.07,12.28,12.28,0,0,1,2.64-.07c1.07.1,2.11.38,3.18.52a5.76,5.76,0,0,0,3.16-.34,4.21,4.21,0,0,0,.94-.61,1,1,0,0,0,.3-.47l0,0a4.27,4.27,0,0,1,.15-.71c.43-1.55,1.2-3,1.48-4.55A10.74,10.74,0,0,0,165.1,106.29Z"/><path class="cls-21" d="M165.1,105.85a5.14,5.14,0,0,0-3-3,7.85,7.85,0,0,0-3.3-.41c-2.3.12-3.41,1.9-5.45,2.12h0c-2-.22-3.14-2-5.44-2.12a7.85,7.85,0,0,0-3.3.41,5.14,5.14,0,0,0-3,3,10.79,10.79,0,0,0-.17,5c.28,1.59,1,3,1.48,4.54a4.61,4.61,0,0,1,.15.72l0,0a1,1,0,0,0,.3.46,3.89,3.89,0,0,0,.94.61,5.67,5.67,0,0,0,3.16.34c1.07-.14,2.11-.42,3.18-.51a12.17,12.17,0,0,1,2.63.06A12.27,12.27,0,0,1,156,117c1.07.09,2.11.37,3.18.51a5.67,5.67,0,0,0,3.16-.34,3.89,3.89,0,0,0,.94-.61,1,1,0,0,0,.3-.46l0,0a4.61,4.61,0,0,1,.15-.72c.43-1.55,1.2-2.95,1.48-4.54A10.79,10.79,0,0,0,165.1,105.85Z"/><path class="cls-22" d="M165.1,105.42a5.14,5.14,0,0,0-3-3,7.69,7.69,0,0,0-3.3-.41c-2.3.12-3.41,1.89-5.45,2.12h0c-2-.23-3.14-2-5.44-2.12a7.69,7.69,0,0,0-3.3.41,5.14,5.14,0,0,0-3,3,10.74,10.74,0,0,0-.17,5c.28,1.6,1,3,1.48,4.55a4.27,4.27,0,0,1,.15.71l0,0a1,1,0,0,0,.3.47,4.21,4.21,0,0,0,.94.61,5.76,5.76,0,0,0,3.16.34c1.07-.14,2.11-.42,3.18-.52a12.17,12.17,0,0,1,2.63.07,12.28,12.28,0,0,1,2.64-.07c1.07.1,2.11.38,3.18.52a5.76,5.76,0,0,0,3.16-.34,4.21,4.21,0,0,0,.94-.61,1,1,0,0,0,.3-.47l0,0a4.27,4.27,0,0,1,.15-.71c.43-1.55,1.2-3,1.48-4.55A10.74,10.74,0,0,0,165.1,105.42Z"/><path class="cls-23" d="M165.1,105a5.14,5.14,0,0,0-3-3,7.85,7.85,0,0,0-3.3-.41c-2.3.12-3.41,1.9-5.45,2.12h0c-2-.22-3.14-2-5.44-2.12a7.85,7.85,0,0,0-3.3.41,5.14,5.14,0,0,0-3,3,10.79,10.79,0,0,0-.17,5c.28,1.59,1,3,1.48,4.54a4.61,4.61,0,0,1,.15.72l0,0a1,1,0,0,0,.3.46,3.89,3.89,0,0,0,.94.61,5.67,5.67,0,0,0,3.16.34c1.07-.14,2.11-.42,3.18-.51a12.17,12.17,0,0,1,2.63.06,12.27,12.27,0,0,1,2.64-.06c1.07.09,2.11.37,3.18.51a5.67,5.67,0,0,0,3.16-.34,3.89,3.89,0,0,0,.94-.61,1,1,0,0,0,.3-.46l0,0a4.61,4.61,0,0,1,.15-.72c.43-1.55,1.2-3,1.48-4.54A10.79,10.79,0,0,0,165.1,105Z"/><path class="cls-24" d="M165.1,104.55a5.14,5.14,0,0,0-3-3,7.69,7.69,0,0,0-3.3-.41c-2.3.12-3.41,1.89-5.45,2.12h0c-2-.23-3.14-2-5.44-2.12a7.69,7.69,0,0,0-3.3.41,5.14,5.14,0,0,0-3,3,10.74,10.74,0,0,0-.17,5c.28,1.6,1,3,1.48,4.55a4.27,4.27,0,0,1,.15.71h0a1.05,1.05,0,0,0,.3.46,4.21,4.21,0,0,0,.94.61,5.76,5.76,0,0,0,3.16.34c1.07-.14,2.11-.42,3.18-.52a12.17,12.17,0,0,1,2.63.07,12.28,12.28,0,0,1,2.64-.07c1.07.1,2.11.38,3.18.52a5.76,5.76,0,0,0,3.16-.34,4.21,4.21,0,0,0,.94-.61,1.05,1.05,0,0,0,.3-.46h0a4.27,4.27,0,0,1,.15-.71c.43-1.55,1.2-3,1.48-4.55A10.74,10.74,0,0,0,165.1,104.55Z"/><path class="cls-25" d="M165.1,104.11a5.14,5.14,0,0,0-3-3,7.69,7.69,0,0,0-3.3-.4c-2.3.11-3.41,1.89-5.45,2.11h0c-2-.22-3.14-2-5.44-2.11a7.69,7.69,0,0,0-3.3.4,5.14,5.14,0,0,0-3,3,10.79,10.79,0,0,0-.17,5c.28,1.59,1,3,1.48,4.54a4.61,4.61,0,0,1,.15.72l0,0a1,1,0,0,0,.3.46,3.89,3.89,0,0,0,.94.61,5.67,5.67,0,0,0,3.16.34c1.07-.14,2.11-.42,3.18-.51a12.17,12.17,0,0,1,2.63.06,12.27,12.27,0,0,1,2.64-.06c1.07.09,2.11.37,3.18.51a5.67,5.67,0,0,0,3.16-.34,3.89,3.89,0,0,0,.94-.61,1,1,0,0,0,.3-.46l0,0a4.61,4.61,0,0,1,.15-.72c.43-1.55,1.2-3,1.48-4.54A10.79,10.79,0,0,0,165.1,104.11Z"/><path class="cls-26" d="M165.1,103.68a5.14,5.14,0,0,0-3-3,7.69,7.69,0,0,0-3.3-.41c-2.3.12-3.41,1.89-5.45,2.12h0c-2-.23-3.14-2-5.44-2.12a7.69,7.69,0,0,0-3.3.41,5.14,5.14,0,0,0-3,3,10.74,10.74,0,0,0-.17,5c.28,1.6,1,3,1.48,4.55a4.27,4.27,0,0,1,.15.71h0a1.05,1.05,0,0,0,.3.46,4.21,4.21,0,0,0,.94.61,5.76,5.76,0,0,0,3.16.34c1.07-.14,2.11-.42,3.18-.52a12.17,12.17,0,0,1,2.63.07,12.28,12.28,0,0,1,2.64-.07c1.07.1,2.11.38,3.18.52a5.76,5.76,0,0,0,3.16-.34,4.21,4.21,0,0,0,.94-.61,1.05,1.05,0,0,0,.3-.46h0a4.27,4.27,0,0,1,.15-.71c.43-1.55,1.2-2.95,1.48-4.55A10.74,10.74,0,0,0,165.1,103.68Z"/><path class="cls-27" d="M165.1,103.24a5.14,5.14,0,0,0-3-3,7.69,7.69,0,0,0-3.3-.4c-2.3.11-3.41,1.89-5.45,2.11h0c-2-.22-3.14-2-5.44-2.11a7.69,7.69,0,0,0-3.3.4,5.14,5.14,0,0,0-3,3,10.79,10.79,0,0,0-.17,5c.28,1.59,1,3,1.48,4.54a4.61,4.61,0,0,1,.15.72l0,0a1,1,0,0,0,.3.46,3.89,3.89,0,0,0,.94.61,5.67,5.67,0,0,0,3.16.34c1.07-.14,2.11-.42,3.18-.51a12.17,12.17,0,0,1,2.63.06,12.27,12.27,0,0,1,2.64-.06c1.07.09,2.11.37,3.18.51a5.67,5.67,0,0,0,3.16-.34,3.89,3.89,0,0,0,.94-.61,1,1,0,0,0,.3-.46l0,0a4.61,4.61,0,0,1,.15-.72c.43-1.55,1.2-3,1.48-4.54A10.79,10.79,0,0,0,165.1,103.24Z"/><path class="cls-28" d="M165.1,102.81a5.14,5.14,0,0,0-3-3,7.69,7.69,0,0,0-3.3-.41c-2.3.12-3.41,1.89-5.45,2.12h0c-2-.23-3.14-2-5.44-2.12a7.69,7.69,0,0,0-3.3.41,5.14,5.14,0,0,0-3,3,10.74,10.74,0,0,0-.17,5c.28,1.6,1,3,1.48,4.55a4.27,4.27,0,0,1,.15.71h0a1.15,1.15,0,0,0,.3.46,4.21,4.21,0,0,0,.94.61,5.76,5.76,0,0,0,3.16.34c1.07-.14,2.11-.42,3.18-.52a12.17,12.17,0,0,1,2.63.07,12.28,12.28,0,0,1,2.64-.07c1.07.1,2.11.38,3.18.52a5.76,5.76,0,0,0,3.16-.34,4.21,4.21,0,0,0,.94-.61,1.15,1.15,0,0,0,.3-.46h0a4.27,4.27,0,0,1,.15-.71c.43-1.55,1.2-3,1.48-4.55A10.74,10.74,0,0,0,165.1,102.81Z"/></g></g><path class="cls-6" d="M153.39,101.51V114a12.17,12.17,0,0,0-2.63-.07c-1.07.1-2.11.38-3.18.52a5.76,5.76,0,0,1-3.16-.34,4.21,4.21,0,0,1-.94-.61,1.15,1.15,0,0,1-.3-.46h0a4.27,4.27,0,0,0-.15-.71c-.43-1.55-1.2-3-1.48-4.55a10.74,10.74,0,0,1,.17-5,5.14,5.14,0,0,1,3-3,7.69,7.69,0,0,1,3.3-.41C150.25,99.51,151.36,101.28,153.39,101.51Z"/><path class="cls-8" d="M165.27,107.79c-.28,1.6-1.05,3-1.48,4.55a4.27,4.27,0,0,0-.15.71h0a1.15,1.15,0,0,1-.3.46,4.21,4.21,0,0,1-.94.61,5.76,5.76,0,0,1-3.16.34c-1.07-.14-2.11-.42-3.18-.52a12.28,12.28,0,0,0-2.64.07V101.51c2-.23,3.15-2,5.45-2.12a7.69,7.69,0,0,1,3.3.41,5.14,5.14,0,0,1,3,3A10.74,10.74,0,0,1,165.27,107.79Z"/><path class="cls-11" d="M163.89,104.3a5.13,5.13,0,0,0-3-3,7.62,7.62,0,0,0-3.29-.4c-1.84.09-2.46,1.07-4.25,1.37V114a12.28,12.28,0,0,1,2.64-.07c1.07.1,2.11.38,3.18.52a5.76,5.76,0,0,0,3.16-.34l.17-.09c0-.06,0-.13,0-.19a46.41,46.41,0,0,0,1.48-4.55A10.61,10.61,0,0,0,163.89,104.3Z"/><path class="cls-7" d="M142.9,104.3a5.13,5.13,0,0,1,3-3,7.62,7.62,0,0,1,3.29-.4c1.84.09,2.46,1.07,4.24,1.37V114a12.17,12.17,0,0,0-2.63-.07c-1.07.1-2.11.38-3.18.52a5.76,5.76,0,0,1-3.16-.34l-.17-.09c0-.06,0-.13,0-.19a46.41,46.41,0,0,1-1.48-4.55A10.61,10.61,0,0,1,142.9,104.3Z"/><path class="cls-29" d="M162.61,104.61a9.65,9.65,0,0,0-.77-2,3.27,3.27,0,0,0-1.49-1.43,4.88,4.88,0,0,0-1.52-.29l-.81-.06c-2,.14-2.67,1.19-4.62,1.52v10.39c.38,0,.87-.18,1.18-.2a13.44,13.44,0,0,1,4,.34,3.19,3.19,0,0,0,2.41,0,2.76,2.76,0,0,0,.65-.67,6.72,6.72,0,0,0,1.21-2,7.12,7.12,0,0,0,.24-1.9,11.41,11.41,0,0,0,0-1.94A12.08,12.08,0,0,0,162.61,104.61Z"/><path class="cls-30" d="M144.18,104.61a10.28,10.28,0,0,1,.77-2,3.24,3.24,0,0,1,1.5-1.43,4.82,4.82,0,0,1,1.51-.29l.81-.06c2,.14,2.67,1.19,4.63,1.52v10.39c-.38,0-.88-.18-1.19-.2a13.47,13.47,0,0,0-4,.34,3.19,3.19,0,0,1-2.41,0,2.76,2.76,0,0,1-.65-.67,6.93,6.93,0,0,1-1.21-2,7.12,7.12,0,0,1-.24-1.9,10.47,10.47,0,0,1,0-1.94A10.9,10.9,0,0,1,144.18,104.61Z"/><path class="cls-33" d="M95.27,81.89l.14.21a1.44,1.44,0,0,0-.33.4c-.27.47.45,2.38,1.34,4.91,0,0,0,.08,0,.12.27.78.83,2,1.48,3.44,1.52,3.25,3.58,7.29,4,8.15.55,1.22,1.36,2.53.53,3s-2.77-.64-2.77-.64a30.33,30.33,0,0,1-7.62-5.11,17.18,17.18,0,0,1-1.81-2.05,16.11,16.11,0,0,1-1.32-2,37.43,37.43,0,0,1-1.82-4.17,5,5,0,0,0-.91-1.43l0,0a.94.94,0,0,0,.5.22,3.82,3.82,0,0,0,1.12,0,5.66,5.66,0,0,0,2.83-1.45c.81-.7,1.53-1.51,2.38-2.18A12.23,12.23,0,0,1,95.27,81.89Z"/><path class="cls-34" d="M99.3,98a.61.61,0,0,1-.84.8,26.08,26.08,0,0,1-5.12-3.72,17.12,17.12,0,0,1-1.63-1.83,16.83,16.83,0,0,1-1.17-1.8A21.78,21.78,0,0,1,89.44,89a.6.6,0,0,1,.3-.77,7.44,7.44,0,0,0,1.06-.59,11.6,11.6,0,0,0,1.07-.81c.4-.34.76-.69,1.11-1h0a.6.6,0,0,1,1,.23c.13.38.28.79.43,1.24l.26.73,0,.12c.27.76.76,1.91,1.56,3.61.94,2,2.09,4.35,2.93,6A1.74,1.74,0,0,0,99.3,98Z"/><path class="cls-35" d="M108.71,82.21a19.2,19.2,0,0,1,1.16,2.48,30.21,30.21,0,0,1,1.66,9s.3,2.23-.5,2.8-1.67-.7-2.58-1.7c-.62-.69-3.52-4.19-5.9-6.87-1-1.16-2-2.16-2.57-2.72l-.1-.09c-2-1.81-3.43-3.24-4-3.18a1.45,1.45,0,0,0-.5.15l-.14-.21a12.34,12.34,0,0,1,2.17-1.5c1-.51,2-.85,2.94-1.32a5.73,5.73,0,0,0,2.46-2,4.2,4.2,0,0,0,.44-1,1,1,0,0,0,0-.56h0a5.38,5.38,0,0,0,1,1.41,37.33,37.33,0,0,1,3.11,3.32A15.23,15.23,0,0,1,108.71,82.21Z"/><path class="cls-36" d="M94.13,82.52c.25.81.62,1.82,1,3a.36.36,0,0,1,0,.11c.28.79.84,2,1.49,3.45,1.52,3.25,3.57,7.29,4,8.15.56,1.22,1.37,2.52.53,3s-3-.42-3-.42a36.8,36.8,0,0,1-4.3-2.73l-.7-.64a17.31,17.31,0,0,1-1.82-2,15,15,0,0,1-1.31-2,35.65,35.65,0,0,1-1.82-4.17,5.39,5.39,0,0,0-.75-1.24,3.44,3.44,0,0,1-.79,0,.94.94,0,0,1-.5-.22l0,0a5,5,0,0,1,.91,1.43,37.43,37.43,0,0,0,1.82,4.17,16.11,16.11,0,0,0,1.32,2c.12.17.25.33.39.5h0a17.77,17.77,0,0,0,1.41,1.54,28.35,28.35,0,0,0,5.87,4.21c1,.58,1.75.9,1.75.9l.32.17h0l.13.07.13.06,0,0c.64.3,1.62.65,2.15.32.83-.51,0-1.81-.53-3-.39-.86-2.45-4.9-4-8.15-.65-1.41-1.21-2.66-1.48-3.44,0,0,0-.08,0-.12-.89-2.53-1.61-4.44-1.34-4.91a1.44,1.44,0,0,1,.33-.4l-.14-.21A12.66,12.66,0,0,0,94.13,82.52Z"/><path class="cls-37" d="M96.31,81.09c.64.55,1.42,1.29,2.3,2.1l.09.08c.61.57,1.54,1.57,2.57,2.73,2.38,2.68,5.28,6.18,5.91,6.87.9,1,1.78,2.26,2.57,1.7s.79-2.89.79-2.89a37.35,37.35,0,0,0-.79-5c-.1-.3-.2-.6-.32-.9a16.94,16.94,0,0,0-1.15-2.48,17.52,17.52,0,0,0-1.33-2,37.58,37.58,0,0,0-3.11-3.33,4.82,4.82,0,0,1-.84-1.17,3.89,3.89,0,0,0,.28-.73,1,1,0,0,0,0-.56h0a5.38,5.38,0,0,0,1,1.41,37.33,37.33,0,0,1,3.11,3.32,15.23,15.23,0,0,1,1.33,2c.1.18.2.36.3.56h0a17.07,17.07,0,0,1,.85,1.91,28.21,28.21,0,0,1,1.54,7.06c.11,1.19.12,2,.12,2s0,.14,0,.36h0a.81.81,0,0,0,0,.15v.18c0,.7,0,1.74-.55,2.1-.8.56-1.67-.7-2.57-1.7-.64-.69-3.53-4.18-5.91-6.87-1-1.15-2-2.16-2.57-2.73a.34.34,0,0,1-.09-.08c-2-1.82-3.44-3.24-4-3.18a1.45,1.45,0,0,0-.5.15l-.14-.21C95.61,81.61,96,81.34,96.31,81.09Z"/><path class="cls-38" d="M108.34,92.05a.6.6,0,0,0,1.06-.45A26.09,26.09,0,0,0,108,85.43a15.78,15.78,0,0,0-1-2.23,14.83,14.83,0,0,0-1.18-1.78,22.09,22.09,0,0,0-1.78-2,.6.6,0,0,0-.83,0,8,8,0,0,1-1,.74,11.61,11.61,0,0,1-1.17.66c-.47.22-.94.42-1.4.61h0a.61.61,0,0,0-.18,1l1,.88.57.53.09.09c.6.54,1.45,1.45,2.7,2.85,1.49,1.68,3.16,3.65,4.39,5.1Z"/><g class="cls-39"><g class="cls-13"><path class="cls-40" d="M102.25,71.2a5.08,5.08,0,0,0-4.12-.89,7.51,7.51,0,0,0-3,1.47c-1.86,1.36-1.82,3.45-3.39,4.76h0c-1.82.93-3.72.06-5.72,1.22a7.62,7.62,0,0,0-2.53,2.15,5.13,5.13,0,0,0-.82,4.14,10.61,10.61,0,0,0,2.6,4.26,46.93,46.93,0,0,0,3.73,3,6.26,6.26,0,0,1,.52.51,0,0,0,0,1,0,0,1,1,0,0,0,.51.22,4.2,4.2,0,0,0,1.12,0A5.67,5.67,0,0,0,94,90.55c.82-.7,1.54-1.51,2.38-2.18A11.79,11.79,0,0,1,98.62,87a11.91,11.91,0,0,1,2.16-1.5c1-.51,2-.85,2.94-1.32a5.67,5.67,0,0,0,2.46-2,3.84,3.84,0,0,0,.44-1,1.07,1.07,0,0,0,0-.56h0a6.87,6.87,0,0,1-.27-.68,45.48,45.48,0,0,0-1.26-4.61A10.66,10.66,0,0,0,102.25,71.2Z"/><path class="cls-41" d="M102,70.84a5.12,5.12,0,0,0-4.12-.9,7.66,7.66,0,0,0-3,1.48c-1.86,1.36-1.82,3.45-3.39,4.75h0c-1.82.92-3.72,0-5.71,1.22a7.76,7.76,0,0,0-2.54,2.15,5.16,5.16,0,0,0-.82,4.14A10.74,10.74,0,0,0,85.05,88a46.93,46.93,0,0,0,3.73,3,6.26,6.26,0,0,1,.52.51,0,0,0,0,1,0,0,1,1,0,0,0,.51.22,4.66,4.66,0,0,0,1.12,0,5.68,5.68,0,0,0,2.82-1.46c.82-.7,1.54-1.51,2.38-2.18a12.89,12.89,0,0,1,2.24-1.39,13,13,0,0,1,2.16-1.5c.95-.5,2-.84,2.94-1.31a5.67,5.67,0,0,0,2.46-2,4.29,4.29,0,0,0,.45-1,1.14,1.14,0,0,0,0-.55h0c-.1-.22-.19-.45-.27-.68a45.48,45.48,0,0,0-1.26-4.61A10.59,10.59,0,0,0,102,70.84Z"/><path class="cls-42" d="M101.77,70.47a5.12,5.12,0,0,0-4.12-.89,7.64,7.64,0,0,0-3,1.47c-1.86,1.37-1.82,3.46-3.39,4.76h0c-1.82.93-3.72.06-5.71,1.22A7.76,7.76,0,0,0,83,79.18a5.13,5.13,0,0,0-.81,4.14,10.58,10.58,0,0,0,2.59,4.26,44.78,44.78,0,0,0,3.73,3,5.11,5.11,0,0,1,.52.52s0,0,0,0a1,1,0,0,0,.51.21,3.82,3.82,0,0,0,1.12,0,5.74,5.74,0,0,0,2.83-1.45c.81-.7,1.53-1.51,2.37-2.18a12.31,12.31,0,0,1,2.24-1.39,11.91,11.91,0,0,1,2.16-1.5c1-.51,2-.85,3-1.32a5.7,5.7,0,0,0,2.45-2,4.23,4.23,0,0,0,.45-1,1.14,1.14,0,0,0,0-.55h0a6.69,6.69,0,0,1-.27-.67,45.48,45.48,0,0,0-1.26-4.61A10.7,10.7,0,0,0,101.77,70.47Z"/><path class="cls-43" d="M101.53,70.11a5.08,5.08,0,0,0-4.12-.89,7.57,7.57,0,0,0-3,1.47c-1.86,1.36-1.82,3.45-3.39,4.76h0c-1.82.92-3.72.06-5.71,1.22a7.76,7.76,0,0,0-2.54,2.15A5.13,5.13,0,0,0,82,83a10.58,10.58,0,0,0,2.59,4.26,46.93,46.93,0,0,0,3.73,3,5,5,0,0,1,.52.51s0,0,0,0a1.06,1.06,0,0,0,.51.22,3.82,3.82,0,0,0,1.12,0,5.78,5.78,0,0,0,2.83-1.45c.81-.71,1.53-1.51,2.37-2.18a11.79,11.79,0,0,1,2.24-1.39,11.64,11.64,0,0,1,2.17-1.5c.94-.51,2-.85,2.94-1.32a5.7,5.7,0,0,0,2.45-2,3.79,3.79,0,0,0,.45-1,1,1,0,0,0,0-.55h0a5,5,0,0,1-.26-.68c-.5-1.53-.62-3.13-1.27-4.61A10.66,10.66,0,0,0,101.53,70.11Z"/><path class="cls-44" d="M101.29,69.75a5.12,5.12,0,0,0-4.12-.9,7.73,7.73,0,0,0-3,1.48c-1.86,1.36-1.81,3.45-3.39,4.75h0c-1.82.92-3.72,0-5.71,1.22a7.62,7.62,0,0,0-2.53,2.15,5.09,5.09,0,0,0-.82,4.14,10.83,10.83,0,0,0,2.59,4.26c1.11,1.18,2.53,1.93,3.73,3a5,5,0,0,1,.52.51,0,0,0,0,0,0,0,1.06,1.06,0,0,0,.51.22,4.66,4.66,0,0,0,1.12,0,5.71,5.71,0,0,0,2.83-1.46c.81-.7,1.53-1.51,2.37-2.18a12.31,12.31,0,0,1,2.24-1.39A12.14,12.14,0,0,1,99.83,84c.94-.5,2-.84,2.94-1.32a5.61,5.61,0,0,0,2.45-2,3.93,3.93,0,0,0,.45-1,.94.94,0,0,0,0-.55h0a4.37,4.37,0,0,1-.27-.68c-.5-1.53-.62-3.13-1.27-4.61A10.59,10.59,0,0,0,101.29,69.75Z"/><path class="cls-45" d="M101.06,69.38a5.15,5.15,0,0,0-4.13-.89A7.78,7.78,0,0,0,94,70c-1.86,1.37-1.81,3.46-3.39,4.76h0c-1.82.93-3.72.06-5.71,1.22a7.62,7.62,0,0,0-2.53,2.15,5.1,5.1,0,0,0-.82,4.14,10.7,10.7,0,0,0,2.59,4.26c1.11,1.18,2.53,1.93,3.73,3a5.11,5.11,0,0,1,.52.52l0,0a1,1,0,0,0,.5.21,3.82,3.82,0,0,0,1.12,0,5.66,5.66,0,0,0,2.83-1.45c.81-.7,1.53-1.51,2.38-2.18a12.23,12.23,0,0,1,2.23-1.39,11.64,11.64,0,0,1,2.17-1.5c1-.51,2-.85,2.94-1.32a5.73,5.73,0,0,0,2.46-2,4.2,4.2,0,0,0,.44-1,.94.94,0,0,0,0-.55h0a3.91,3.91,0,0,1-.27-.67c-.49-1.53-.62-3.13-1.26-4.61A10.81,10.81,0,0,0,101.06,69.38Z"/><path class="cls-46" d="M100.82,69a5.1,5.1,0,0,0-4.13-.89,7.64,7.64,0,0,0-3,1.47c-1.86,1.36-1.81,3.45-3.39,4.76h0c-1.83.92-3.73.06-5.72,1.22a7.62,7.62,0,0,0-2.53,2.15,5.1,5.1,0,0,0-.82,4.14,10.61,10.61,0,0,0,2.6,4.26,46.93,46.93,0,0,0,3.73,3,6.14,6.14,0,0,1,.51.51l0,0a1,1,0,0,0,.5.22,3.82,3.82,0,0,0,1.12,0,5.74,5.74,0,0,0,2.83-1.45c.82-.71,1.54-1.51,2.38-2.18a11.71,11.71,0,0,1,2.23-1.39,13,13,0,0,1,2.17-1.51c1-.5,2-.84,2.94-1.31a5.73,5.73,0,0,0,2.46-2,4.1,4.1,0,0,0,.44-1,.94.94,0,0,0,0-.55h0a4,4,0,0,1-.27-.68c-.49-1.53-.62-3.13-1.26-4.61A10.66,10.66,0,0,0,100.82,69Z"/><path class="cls-47" d="M100.58,68.66a5.15,5.15,0,0,0-4.13-.9,7.92,7.92,0,0,0-3,1.47c-1.86,1.37-1.81,3.46-3.39,4.76h0c-1.83.92-3.72,0-5.72,1.22a7.62,7.62,0,0,0-2.53,2.15A5.13,5.13,0,0,0,81,81.51a10.74,10.74,0,0,0,2.6,4.26,44.67,44.67,0,0,0,3.73,3,6.23,6.23,0,0,1,.51.52l0,0a1,1,0,0,0,.51.22,4.58,4.58,0,0,0,1.11,0A5.67,5.67,0,0,0,92.33,88c.82-.7,1.54-1.51,2.38-2.18a12.58,12.58,0,0,1,2.23-1.39,12.9,12.9,0,0,1,2.17-1.5c1-.5,2-.84,2.94-1.32a5.58,5.58,0,0,0,2.46-2,4,4,0,0,0,.44-1,.94.94,0,0,0,0-.55h0a5.66,5.66,0,0,1-.27-.68,45.48,45.48,0,0,0-1.26-4.61A10.59,10.59,0,0,0,100.58,68.66Z"/><path class="cls-48" d="M100.34,68.29a5.13,5.13,0,0,0-4.13-.89,7.67,7.67,0,0,0-3,1.47c-1.86,1.37-1.82,3.46-3.39,4.76h0c-1.83.93-3.72.06-5.72,1.22A7.62,7.62,0,0,0,81.6,77a5.13,5.13,0,0,0-.82,4.14,10.61,10.61,0,0,0,2.6,4.26,46.93,46.93,0,0,0,3.73,3,5.11,5.11,0,0,1,.52.52s0,0,0,0a1,1,0,0,0,.51.21,3.82,3.82,0,0,0,1.12,0,5.67,5.67,0,0,0,2.82-1.45c.82-.7,1.54-1.51,2.38-2.18a12.31,12.31,0,0,1,2.24-1.39,11.91,11.91,0,0,1,2.16-1.5c.95-.51,2-.85,2.94-1.32a5.67,5.67,0,0,0,2.46-2,3.84,3.84,0,0,0,.44-1,1.06,1.06,0,0,0,0-.56h0a6.69,6.69,0,0,1-.27-.67,45.48,45.48,0,0,0-1.26-4.61A10.7,10.7,0,0,0,100.34,68.29Z"/><path class="cls-49" d="M100.1,67.93A5.08,5.08,0,0,0,96,67a7.51,7.51,0,0,0-3,1.47c-1.86,1.36-1.82,3.45-3.39,4.76h0c-1.82.92-3.72.06-5.72,1.22a7.62,7.62,0,0,0-2.53,2.15,5.13,5.13,0,0,0-.82,4.14A10.67,10.67,0,0,0,83.14,85a46.93,46.93,0,0,0,3.73,3,6.26,6.26,0,0,1,.52.51,0,0,0,0,1,0,0,1,1,0,0,0,.51.22,3.82,3.82,0,0,0,1.12,0,5.68,5.68,0,0,0,2.82-1.46c.82-.7,1.54-1.5,2.38-2.17a11.79,11.79,0,0,1,2.24-1.39,12.48,12.48,0,0,1,2.16-1.51c1-.5,2-.84,2.94-1.31a5.67,5.67,0,0,0,2.46-2,4.29,4.29,0,0,0,.45-1,1.14,1.14,0,0,0,0-.55h0c-.1-.22-.19-.45-.27-.68A45.48,45.48,0,0,0,103,72,10.66,10.66,0,0,0,100.1,67.93Z"/><path class="cls-50" d="M99.86,67.57a5.12,5.12,0,0,0-4.12-.9,7.78,7.78,0,0,0-3,1.47c-1.86,1.37-1.82,3.46-3.39,4.76h0c-1.82.92-3.72,0-5.71,1.22a7.76,7.76,0,0,0-2.54,2.15,5.12,5.12,0,0,0-.81,4.14,10.72,10.72,0,0,0,2.59,4.26,46.81,46.81,0,0,0,3.73,3c.18.17.36.34.52.52a0,0,0,0,1,0,0,1,1,0,0,0,.51.22,4.2,4.2,0,0,0,1.12,0,5.59,5.59,0,0,0,2.82-1.45c.82-.7,1.54-1.51,2.38-2.18a12.31,12.31,0,0,1,2.24-1.39,12.43,12.43,0,0,1,2.16-1.5c1-.51,2-.85,3-1.32a5.61,5.61,0,0,0,2.45-2,4.47,4.47,0,0,0,.45-1,1.14,1.14,0,0,0,0-.55s0,0,0,0c-.1-.22-.19-.45-.27-.68a45.48,45.48,0,0,0-1.26-4.61A10.59,10.59,0,0,0,99.86,67.57Z"/><path class="cls-51" d="M99.62,67.2a5.12,5.12,0,0,0-4.12-.89,7.64,7.64,0,0,0-3,1.47c-1.86,1.37-1.82,3.46-3.39,4.76h0c-1.82.93-3.72.06-5.71,1.22a7.76,7.76,0,0,0-2.54,2.15,5.13,5.13,0,0,0-.81,4.14,10.58,10.58,0,0,0,2.59,4.26,46.93,46.93,0,0,0,3.73,3,4.26,4.26,0,0,1,.52.52,0,0,0,0,1,0,0,1,1,0,0,0,.51.21,3.82,3.82,0,0,0,1.12,0,5.7,5.7,0,0,0,2.83-1.45c.81-.7,1.53-1.51,2.37-2.18A12.31,12.31,0,0,1,96,83a11.91,11.91,0,0,1,2.16-1.5c.95-.51,2-.85,2.95-1.32a5.7,5.7,0,0,0,2.45-2,3.87,3.87,0,0,0,.45-1,1.18,1.18,0,0,0,0-.56h0a4.57,4.57,0,0,1-.26-.68c-.5-1.53-.62-3.12-1.27-4.61A10.66,10.66,0,0,0,99.62,67.2Z"/><path class="cls-52" d="M99.38,66.84A5.08,5.08,0,0,0,95.26,66a7.57,7.57,0,0,0-3,1.47c-1.86,1.36-1.82,3.45-3.39,4.76h0c-1.82.92-3.72.06-5.71,1.22a7.76,7.76,0,0,0-2.54,2.15,5.13,5.13,0,0,0-.81,4.14A10.65,10.65,0,0,0,82.42,84a46.93,46.93,0,0,0,3.73,3,5,5,0,0,1,.52.51s0,0,0,0a1.06,1.06,0,0,0,.51.22,4.2,4.2,0,0,0,1.12,0,5.71,5.71,0,0,0,2.83-1.46c.81-.7,1.53-1.5,2.37-2.17a12.36,12.36,0,0,1,2.24-1.4,12.68,12.68,0,0,1,2.17-1.5c.94-.5,2-.84,2.94-1.31a5.7,5.7,0,0,0,2.45-2,3.93,3.93,0,0,0,.45-1,.94.94,0,0,0,0-.55h0a5.6,5.6,0,0,1-.26-.68c-.5-1.53-.62-3.13-1.27-4.61A10.66,10.66,0,0,0,99.38,66.84Z"/><path class="cls-53" d="M99.15,66.48a5.16,5.16,0,0,0-4.13-.9,7.92,7.92,0,0,0-3,1.47c-1.86,1.37-1.81,3.46-3.39,4.76h0c-1.82.92-3.72.05-5.71,1.21a7.77,7.77,0,0,0-2.53,2.16,5.09,5.09,0,0,0-.82,4.14,10.83,10.83,0,0,0,2.59,4.26c1.11,1.18,2.53,1.92,3.73,3a5.11,5.11,0,0,1,.52.52l0,0a1,1,0,0,0,.5.22,4.2,4.2,0,0,0,1.12,0,5.58,5.58,0,0,0,2.83-1.45c.81-.7,1.53-1.51,2.37-2.18a12.67,12.67,0,0,1,2.24-1.39,11.64,11.64,0,0,1,2.17-1.5c.94-.51,2-.85,2.94-1.32a5.61,5.61,0,0,0,2.45-2,4.08,4.08,0,0,0,.45-1,.94.94,0,0,0,0-.55s0,0,0,0a4.37,4.37,0,0,1-.27-.68c-.5-1.53-.62-3.13-1.26-4.61A10.8,10.8,0,0,0,99.15,66.48Z"/><path class="cls-54" d="M98.91,66.11a5.15,5.15,0,0,0-4.13-.89,7.78,7.78,0,0,0-3,1.47c-1.86,1.37-1.81,3.45-3.39,4.76h0c-1.82.93-3.72.06-5.71,1.22a7.62,7.62,0,0,0-2.53,2.15A5.1,5.1,0,0,0,79.35,79a10.7,10.7,0,0,0,2.59,4.26c1.11,1.18,2.53,1.93,3.74,3a5,5,0,0,1,.51.52l0,0a.94.94,0,0,0,.5.22,3.82,3.82,0,0,0,1.12,0,5.66,5.66,0,0,0,2.83-1.45c.81-.7,1.53-1.51,2.38-2.18a12.23,12.23,0,0,1,2.23-1.39,12.34,12.34,0,0,1,2.17-1.5c1-.51,2-.85,2.94-1.32a5.73,5.73,0,0,0,2.46-2,4.2,4.2,0,0,0,.44-1,1,1,0,0,0,0-.56h0a3.71,3.71,0,0,1-.27-.68c-.49-1.53-.62-3.13-1.26-4.61A10.66,10.66,0,0,0,98.91,66.11Z"/></g></g><path class="cls-55" d="M88.41,71.45l6.86,10.44A12.23,12.23,0,0,0,93,83.28c-.85.67-1.57,1.48-2.38,2.18a5.66,5.66,0,0,1-2.83,1.45,3.82,3.82,0,0,1-1.12,0,.94.94,0,0,1-.5-.22l0,0a5,5,0,0,0-.51-.52c-1.21-1.06-2.63-1.81-3.74-3A10.7,10.7,0,0,1,79.35,79a5.1,5.1,0,0,1,.82-4.14,7.62,7.62,0,0,1,2.53-2.15C84.69,71.51,86.59,72.38,88.41,71.45Z"/><path class="cls-56" d="M101.79,70.18c.64,1.48.77,3.08,1.26,4.61a3.71,3.71,0,0,0,.27.68h0a1,1,0,0,1,0,.56,4.2,4.2,0,0,1-.44,1,5.73,5.73,0,0,1-2.46,2c-1,.47-2,.81-2.94,1.32a12.34,12.34,0,0,0-2.17,1.5L88.41,71.45c1.58-1.31,1.53-3.39,3.39-4.76a7.78,7.78,0,0,1,3-1.47,5.15,5.15,0,0,1,4.13.89A10.66,10.66,0,0,1,101.79,70.18Z"/><path class="cls-38" d="M98.72,68a5.16,5.16,0,0,0-4.13-.9,7.8,7.8,0,0,0-3,1.48c-1.48,1.08-1.46,2.24-2.79,3.47l6.45,9.82a12.34,12.34,0,0,1,2.17-1.5c1-.51,2-.85,2.94-1.32a5.73,5.73,0,0,0,2.46-2l.09-.16a1.46,1.46,0,0,1-.07-.19c-.49-1.53-.62-3.13-1.26-4.61A10.59,10.59,0,0,0,98.72,68Z"/><path class="cls-34" d="M81.17,79.54A5.13,5.13,0,0,1,82,75.4a7.62,7.62,0,0,1,2.53-2.15c1.59-.93,2.65-.45,4.3-1.18l6.45,9.82A12.23,12.23,0,0,0,93,83.28c-.85.67-1.57,1.48-2.38,2.18a5.66,5.66,0,0,1-2.83,1.45l-.18,0-.15-.14a44.78,44.78,0,0,1-3.73-3A10.61,10.61,0,0,1,81.17,79.54Z"/><path class="cls-57" d="M97.82,69a9.4,9.4,0,0,0-1.72-1.22,3.34,3.34,0,0,0-2-.37,4.81,4.81,0,0,0-1.43.59l-.71.4c-1.56,1.19-1.57,2.46-3,3.81l5.7,8.68c.31-.22.63-.63.88-.82A13.56,13.56,0,0,1,99,78.15c.78-.28,1.68-.57,2-1.33a2.54,2.54,0,0,0,.18-.91,6.73,6.73,0,0,0-.11-2.37,7,7,0,0,0-.84-1.72,9.86,9.86,0,0,0-1.1-1.6A10.4,10.4,0,0,0,97.82,69Z"/><path class="cls-58" d="M82.42,79.1a10.24,10.24,0,0,1-.43-2,3.38,3.38,0,0,1,.46-2A4.7,4.7,0,0,1,83.56,74l.65-.5c1.72-1,2.88-.47,4.7-1.26l5.7,8.68c-.32.19-.83.33-1.1.48a14.3,14.3,0,0,0-3.16,2.48c-.56.61-1.18,1.32-2,1.32a2.45,2.45,0,0,1-.91-.2,5.33,5.33,0,0,1-3.38-2.49,11.68,11.68,0,0,1-1-1.65A10.92,10.92,0,0,1,82.42,79.1Z"/><polygon class="cls-59" points="100.59 68.28 100.36 59.67 93.38 56.17 76.61 61.38 61.52 51.79 47.22 44.83 51.68 36.31 78.52 43.77 85.47 49.18 93.92 47.95 106.7 56.2 102.64 70.19 100.59 68.28"/><polygon class="cls-60" points="100.61 68.31 101.8 68.3 105.52 55.43 104.23 54.6 103.09 54.81 99.97 59.48 100.36 59.67 100.59 68.28 100.61 68.31"/><polygon class="cls-60" points="49.09 45.74 61.52 51.79 76.61 61.38 87.01 58.15 81.85 53.68 75.93 43.15 67.17 44.03 49.09 45.74"/><polygon class="cls-61" points="100.36 59.67 100.59 68.28 102.64 70.19 106.7 56.2 106.7 56.2 103 68.92 100.95 67.02 100.73 58.41 93.75 54.9 76.98 60.11 61.89 50.52 47.82 43.68 47.22 44.83 61.52 51.79 76.61 61.38 93.38 56.17 100.36 59.67"/><polygon class="cls-62" points="51.27 37.7 78.11 45.17 85.07 50.58 93.51 49.35 106.3 57.59 106.7 56.2 93.92 47.95 85.47 49.18 78.52 43.77 51.68 36.31 47.22 44.83 47.48 44.96 51.27 37.7"/><polygon class="cls-63" points="102.47 55.74 93.71 50.11 84.69 51.33 78.01 46.05 82.26 53.45 86.08 56.64 93.65 54.03 100.6 57.81 102.47 55.74"/><polygon class="cls-63" points="69.5 43.8 53.54 39.14 50.58 43.96 53.3 45.35 69.5 43.8"/><polygon class="cls-64" points="83.44 84.32 74.86 83.58 71.78 76.4 74.17 65.17 80.53 54.9 75.53 47.65 63.25 29.63 54.47 33.57 60.3 60.81 65.28 68.08 63.54 76.43 71 89.7 85.22 86.48 83.44 84.32"/><polygon class="cls-65" points="77.58 55.25 62.2 32.79 57.49 35.04 62.73 59.22 67.53 66.56 65.74 75.82 72.62 88.88 83.25 86.37 81.9 85.38 73.32 85.26 69.52 76.89 72.44 64.35 77.58 55.25"/><polygon class="cls-66" points="74.11 47.97 79.11 55.22 72.75 65.49 70.36 76.72 73.44 83.9 82.02 84.64 83.8 86.8 71 89.69 71 89.7 85.22 86.48 83.44 84.32 74.86 83.58 71.78 76.4 74.17 65.17 80.53 54.9 75.53 47.65 63.25 29.63 61.99 30.2 74.11 47.97"/><polygon class="cls-61" points="63.54 76.43 71 89.7 72.53 89.35 65.07 76.09 66.81 67.74 61.83 60.47 56 33.23 63.37 29.92 63.25 29.63 54.47 33.57 60.3 60.81 65.28 68.08 63.54 76.43"/><path class="cls-59" d="M65.32,53.4a3.3,3.3,0,1,1,4,2.49A3.31,3.31,0,0,1,65.32,53.4Z"/><path class="cls-67" d="M66.93,53.71a3.3,3.3,0,1,1,3.95,2.49A3.3,3.3,0,0,1,66.93,53.71Z"/><path class="cls-68" d="M70.51,56.25c.12,0,.24,0,.37,0s.23-.08.35-.12l-.64-2.82,2.82-.64a2.46,2.46,0,0,0,0-.37c0-.12-.08-.23-.12-.35l-2.82.64-.64-2.82a2.46,2.46,0,0,0-.37,0c-.12,0-.23.08-.35.12l.64,2.82-2.83.64c0,.12,0,.24.05.37s.08.23.12.35l2.82-.64Z"/><circle class="cls-69" cx="84.36" cy="76.47" r="1.52"/><path class="cls-69" d="M95.08,75.64a1.44,1.44,0,1,1-1.44-1.44A1.43,1.43,0,0,1,95.08,75.64Z"/><path class="cls-69" d="M89.09,73.5a.68.68,0,1,1-.68-.68A.67.67,0,0,1,89.09,73.5Z"/><circle class="cls-69" cx="100.23" cy="73.44" r="0.68"/><circle class="cls-69" cx="94.26" cy="68.65" r="0.82"/><circle class="cls-69" cx="86.42" cy="81.45" r="0.82"/><path class="cls-70" d="M53.72,36.73l-.07.12-.79,1.28v0l-.3.49h0L49.08,44.3l-.69,1.11-.13.21S31,39.94,14.47,37.8V29.93l2.16.2c22.12,2.2,34.2,5.69,36.63,6.45l.15,0A2,2,0,0,1,53.72,36.73Z"/><path class="cls-70" d="M64,31.08l-1.09.49-6.58,3-.06,0-1.46.64-.18.09a.32.32,0,0,0,0-.07.12.12,0,0,0,0-.08c0-.07,0-.17,0-.3-.48-2.37-2.85-14-6.6-25.84h9c5,12.92,6.58,19.86,6.92,21.62A4.44,4.44,0,0,1,64,31.08Z"/><path class="cls-71" d="M53.72,36.73l-.07.12-.79,1.28v0l-.3.49h0L49.08,44.3l-.69,1.11-.13.21S31,39.94,14.47,37.8V36c14.47,1.81,29.59,6.4,33.39,7.59l.29.1.61.2,3.32-5.39.29-.49.79-1.27.1-.15h0a.66.66,0,0,1,.15,0A2,2,0,0,1,53.72,36.73Z"/><path class="cls-72" d="M53.72,36.73l-.07.12-.79,1.28v0l-.3.49h0c-.12,0-.28-.09-.46-.15L51,38.19l-.29-.08c-4.65-1.28-16.15-4-34.71-5.88-.51-.06-1-.1-1.55-.15V29.93l2.16.2c22.12,2.2,34.2,5.69,36.63,6.45l.15,0A2,2,0,0,1,53.72,36.73Z"/><path class="cls-71" d="M56.34,34.53l-.06,0-1.46.64-.18.09a.32.32,0,0,0,0-.07.12.12,0,0,0,0-.08c0-.07,0-.17,0-.3-.48-2.37-2.85-14-6.6-25.84h1.88C53,19.05,55.16,28.82,56,32.89a2.84,2.84,0,0,0,.06.31l.18.88C56.28,34.25,56.31,34.41,56.34,34.53Z"/><path class="cls-72" d="M64,31.08l-1.09.49-6.58,3-.06,0-1.46.64-.18.09a.32.32,0,0,0,0-.07.12.12,0,0,0,0-.08c0-.07,0-.17,0-.3l.17-.07,1.45-.66.07,0,5.64-2.53s0-.29-.19-.88c0-.1,0-.2-.06-.31A158.2,158.2,0,0,0,54.67,9H57c5,12.92,6.58,19.86,6.92,21.62A4.44,4.44,0,0,1,64,31.08Z"/></g></g></g></svg>