<svg xmlns="http://www.w3.org/2000/svg" xmlns:xlink="http://www.w3.org/1999/xlink" viewBox="0 0 104.66 104.67"><defs><style>.cls-1{fill:none;}.cls-2{isolation:isolate;}.cls-3{fill:#e6e7e8;}.cls-4{clip-path:url(#clip-path);}.cls-5,.cls-6{fill:#fff;}.cls-6{mix-blend-mode:multiply;}.cls-7{fill:#27aae1;}</style><clipPath id="clip-path"><path class="cls-1" d="M104.66,52.33A52.33,52.33,0,1,1,52.33,0,52.33,52.33,0,0,1,104.66,52.33Z"/></clipPath></defs><title>Female user</title><g class="cls-2"><g id="Layer_2" data-name="Layer 2"><g id="Capa_1" data-name="Capa 1"><path class="cls-3" d="M104.66,52.33A52.33,52.33,0,1,1,52.33,0,52.33,52.33,0,0,1,104.66,52.33Z"/><g class="cls-4"><rect class="cls-5" x="44.44" y="68.99" width="16.12" height="9.31"/><path class="cls-6" d="M48.94,76.13a14.35,14.35,0,0,0,7.11-2.19A13.29,13.29,0,0,0,60,70.26c.19-.28.4-.6.6-.94V69H44.44v7A33.86,33.86,0,0,0,48.94,76.13Z"/><path class="cls-5" d="M72.46,43.63c0-14.94-8.95-23.52-20-23.59h-.23c-11.07.07-20,8.65-20,23.59C32.2,63,46.15,74.29,52.31,74.34h0C58.52,74.29,72.46,63,72.46,43.63Z"/><path class="cls-7" d="M70.48,49.16,69.33,58c4.51,2,5.22-8.37,5.22-8.37C73.51,47,70.48,49.16,70.48,49.16Z"/><path class="cls-7" d="M30.62,49.59S31.33,60,35.85,58l-1.15-8.8S31.67,47,30.62,49.59Z"/><path class="cls-5" d="M44.37,77.59,25,83.59a11.31,11.31,0,0,0-8.52,8.27l-3,12.81H91.17l-3-12.81a11.29,11.29,0,0,0-8.52-8.27l-19.39-6Z"/><path class="cls-7" d="M74.77,93.53l1.35-11.1L71.64,81s-3.39,15.12-19.2,17.51C36.63,96.16,33.24,81,33.24,81l-4.49,1.39,1.35,11.1s-2.58,6.14-1.47,11.14H76.25C77.35,99.67,74.77,93.53,74.77,93.53Z"/><path class="cls-7" d="M69.33,47.19S70.59,64,60.56,70l.17,8.13,17.9,5.14s-3.26-3.59-2.11-17.62c0,0,7.65-38.53-12.08-48.11,0,0-12.79-5.71-24.82,0,0,0-21.37,8.47-11.27,44.57A38.54,38.54,0,0,1,26,83.26l18.33-5.67.07-6.48S36.38,64.87,35.85,58c0,0-5.11-21.35,5.77-27.17,0,0,10.58,13,19.72,15.71a69.08,69.08,0,0,1-6.44-7.65A18.45,18.45,0,0,0,69.33,47.19Z"/><path class="cls-7" d="M43.24,21.77c-.14,4.33,6.56,9.12,9.23,11.91-1.22-2.23-2.8-4.35-3.36-6.88,2.24,1.79,4.23,3.87,6.46,5.7,2.91,2.37,5.26,6,8.45,7.85-.57-1.7-2.61-3.34-3.49-5.1-.62-1.26-1.17-3.14-2-4.08.46,2.32,6.35,6.21,8.22,7.55s4.74,3.92,7.2,4.19a66.15,66.15,0,0,0-3.29-8.43c-.62-1.19-1.68-4.75-3.1-4.77-.3,1.48,1.17,3.33,1,5.12-1.75-.24-4.07-3.43-5.31-4.72-1.51-1.57-3.09-5-5.31-5.37-.06,1,0,2.06-.06,3.08-1.59-.08-13.64-12.9-14.34-5.68"/></g></g></g></g></svg>