<svg xmlns="http://www.w3.org/2000/svg" xmlns:xlink="http://www.w3.org/1999/xlink" viewBox="0 0 104.67 104.66"><defs><style>.cls-1{fill:none;}.cls-2{isolation:isolate;}.cls-3{fill:#e6e7e8;}.cls-4{clip-path:url(#clip-path);}.cls-5{fill:#fff;}.cls-6,.cls-8{mix-blend-mode:multiply;}.cls-7,.cls-8{fill:#27aae1;}</style><clipPath id="clip-path"><path class="cls-1" d="M104.67,52.33A52.34,52.34,0,1,1,52.33,0,52.33,52.33,0,0,1,104.67,52.33Z"/></clipPath></defs><title>Male user</title><g class="cls-2"><g id="Layer_2" data-name="Layer 2"><g id="Capa_1" data-name="Capa 1"><path class="cls-3" d="M104.67,52.33A52.34,52.34,0,1,1,52.33,0,52.33,52.33,0,0,1,104.67,52.33Z"/><g class="cls-4"><rect class="cls-5" x="43.86" y="68.99" width="16.88" height="8.88"/><g class="cls-6"><path class="cls-5" d="M48.58,75.8A16.2,16.2,0,0,0,56,73.71a13.6,13.6,0,0,0,4.09-3.51c.2-.27.42-.57.62-.9V69H43.86v6.64A39.27,39.27,0,0,0,48.58,75.8Z"/></g><path class="cls-5" d="M52.31,19.13h0c-10.79.3-19,4.74-19,20,0,9.06.85,11.74,3.49,22.08,1.83,7.15,11.55,10.93,15.26,11.17l.24,0,.25,0c3.7-.24,13.42-4,15.25-11.17,2.64-10.34,3.47-13,3.49-22.08C71.33,23.87,63.1,19.43,52.31,19.13Z"/><path class="cls-5" d="M43.52,69.28A20.09,20.09,0,0,0,52,72.4l.25,0,.24,0a21.58,21.58,0,0,0,8.77-3.26S53.85,72.68,43.52,69.28Z"/><path class="cls-5" d="M69.23,45.44l-1.18,9c4.63,2,5.35-8.58,5.35-8.58C72.33,43.23,69.23,45.44,69.23,45.44Z"/><path class="cls-5" d="M30.63,45.88S31.36,56.5,36,54.46l-1.18-9S31.71,43.23,30.63,45.88Z"/><path class="cls-7" d="M60.89,77.87,83.7,83.81S91.48,85,93.46,92l3.4,12.67H7.8L11.2,92c2-7,9.77-8.18,9.77-8.18l22.74-5.94Z"/><path class="cls-7" d="M7.8,104.66,11.2,92c2-7,9.77-8.18,9.77-8.18l22.74-5.94H60.89L83.7,83.81S91.48,85,93.46,92l3.4,12.67"/><polygon class="cls-7" points="53.8 77.87 52.36 77.87 52.31 77.87 50.87 77.87 46.69 84.45 50.42 88.66 52.31 88.66 52.36 88.66 54.24 88.66 57.98 84.45 53.8 77.87"/><path class="cls-8" d="M54.41,87.86a11.74,11.74,0,0,1-2.84-10h-.7l-4.18,6.58,3.74,4.21h3.81l.46-.52Z"/><polygon class="cls-8" points="60.77 73.71 52.27 78.15 57.87 86.59 68.05 80.47 60.77 73.71"/><polygon class="cls-7" points="60.77 73.71 52.27 78.15 57.98 85.47 67.49 79.96 60.77 73.71"/><polygon class="cls-8" points="43.81 73.43 52.27 77.87 46.72 86.31 36.54 80.19 43.81 73.43"/><polygon class="cls-7" points="43.81 73.43 52.32 77.87 46.61 85.19 37.1 79.68 43.81 73.43"/><path class="cls-7" d="M37.21,79.58,21,83.81S13.19,85,11.2,92L7.8,104.66H96.86L93.46,92c-2-7-9.76-8.18-9.76-8.18l-17-4.88L52.27,104Z"/><polygon class="cls-7" points="50.36 88.66 48.33 97.64 52.27 104.03 55.95 97.63 54.18 88.66 50.36 88.66"/><polygon class="cls-7" points="37.21 79.58 29.52 81.58 33.85 83.26 31.18 86.31 46.69 104.66 52.72 104.66 37.21 79.58"/><polygon class="cls-7" points="66.69 78.93 75.16 81.36 70.82 83.26 73.49 86.31 57.98 104.66 51.95 104.66 66.69 78.93"/><path class="cls-7" d="M69.24,55.63l-1.4.91,1.4-14.25-2.32-4.92s2.13-11-13.64-11.28c0,0-13.26-.74-15,5.28,0,0-7.2-11.79,12.18-14.61,0,0,19.37-1.6,21.45,10.19,0,0,1.53,13-1,18.53Z"/><path class="cls-7" d="M32.5,33.5s.19,4.79,1.06,12l1.69,10.15,1.4.91-1.4-14.25,2.4-5.68L38.13,32l.18-.63V23.56C32.69,24.29,32.5,33.5,32.5,33.5Z"/><path class="cls-7" d="M39.22,24.48c.35.52,1.08,1.17,1.29,1.58.07-.73-.32-1.34-.27-2,1.06.53,2.4.67,3.47,1.08a7.37,7.37,0,0,0-.34-1.91c1.78-.15,2.93,1.42,4.59,1.45a16.55,16.55,0,0,0-.44-2.46c1.75-.07,3.32,1.54,5,1.35a17.29,17.29,0,0,0-.42-2c1.61-.1,4.16,1.95,5.39,2.9a15.55,15.55,0,0,1,.12-2.36c2.27.87,4.09,2.62,6.14,3.86.07-.7-.19-1.34-.16-2C66,25.09,67.35,28,69,30c0-.56-.44-1-.43-1.54.43.58.84,1.22,1.29,1.81a22.4,22.4,0,0,1-2.33-4.64c.25.54.48,1.07.76,1.6-1-1.41-2.63-2.77-3.07-4.48a1.26,1.26,0,0,0,.4,1.16,10.79,10.79,0,0,0-3.69-3c.07.59.7,1,.81,1.57-.91-.51-1.9-1.72-2.92-1.89.06.15,0,.45.07.62-1.16.2-2.61-.91-3.57-1.45a4.46,4.46,0,0,0,.25,1.08c-.87-.22-1.76-1-2.67-1.08a1.33,1.33,0,0,0,0,.9c-1.27,0-2.52-.45-3.76-.34.05.14,0,.48.05.6a4.83,4.83,0,0,0-2.88-.52c-.62.24-.49.25-.41,1-1.06.07-2.14,0-3.2,0a6.86,6.86,0,0,0-.12.91c-.76.07-1.51-.13-2.28-.07,0,.18-.13.34-.12.52-.75,0-2-.25-1.84.93l-.34-.07c-.09.38,0,.71.35.81"/><path class="cls-7" d="M36.73,24.85c.14,1.29.9,2.28.83,3.68-.05,1.13-.41,3.09-1.36,3.79,0,3,.15,7.72-1.89,10.17a13.8,13.8,0,0,0-1-3,3.23,3.23,0,0,0,1,.42c-.18-1.31-1-3-.81-4.38.47.42.89.84,1.36,1.23.09-.86-.67-1.57-.89-2.38a13.43,13.43,0,0,1-.56-3.67,11.27,11.27,0,0,1,1.63,1.46A15.63,15.63,0,0,1,35,29.37c.38.07.69.33,1.09.44.12-.66-.4-1.22-.54-1.84a5.2,5.2,0,0,1-.08-1.53,10.74,10.74,0,0,1,1.16.79c-.24-.52-.67-1.83-.16-2.29"/></g></g></g></g></svg>