<svg xmlns="http://www.w3.org/2000/svg" xmlns:xlink="http://www.w3.org/1999/xlink" viewBox="0 0 603.12 298.76"><defs><style>.cls-1{isolation:isolate;}.cls-2{fill:url(#linear-gradient);}.cls-3{fill:url(#linear-gradient-2);}.cls-4{fill:url(#linear-gradient-3);}.cls-5{fill:url(#linear-gradient-4);}.cls-6{fill:url(#linear-gradient-5);}.cls-7{fill:url(#linear-gradient-6);}.cls-8{fill:url(#linear-gradient-7);}.cls-9{fill:url(#linear-gradient-8);}.cls-10{fill:url(#linear-gradient-9);}.cls-11{fill:url(#linear-gradient-10);}.cls-12{fill:url(#linear-gradient-11);}.cls-13{fill:url(#linear-gradient-12);}.cls-14{fill:url(#linear-gradient-13);}.cls-15{fill:url(#linear-gradient-14);}.cls-16{fill:url(#linear-gradient-15);}.cls-17{fill:url(#linear-gradient-16);}.cls-18{fill:url(#linear-gradient-17);}.cls-19{fill:url(#linear-gradient-18);}.cls-20{fill:url(#linear-gradient-19);}.cls-21{fill:url(#linear-gradient-20);}.cls-22{fill:url(#linear-gradient-21);}.cls-23{fill:url(#linear-gradient-22);}.cls-24{fill:url(#linear-gradient-23);}.cls-25{fill:url(#linear-gradient-24);}.cls-26{fill:url(#linear-gradient-25);}.cls-27{fill:url(#linear-gradient-26);}.cls-28{fill:url(#linear-gradient-27);}.cls-29{fill:url(#linear-gradient-28);}.cls-30{fill:url(#linear-gradient-29);}.cls-31{fill:url(#linear-gradient-30);}.cls-32{fill:url(#linear-gradient-31);}.cls-33{fill:url(#linear-gradient-32);}.cls-34{fill:url(#linear-gradient-33);}.cls-35{fill:url(#linear-gradient-34);}.cls-36{fill:url(#linear-gradient-35);}.cls-37{fill:url(#linear-gradient-36);}.cls-38{fill:url(#linear-gradient-37);}.cls-39{fill:url(#linear-gradient-38);}.cls-40{fill:url(#linear-gradient-39);}.cls-41{fill:url(#linear-gradient-40);}.cls-42{fill:url(#linear-gradient-41);}.cls-43{fill:url(#linear-gradient-42);}.cls-44{fill:url(#linear-gradient-43);}.cls-45{fill:url(#linear-gradient-44);}.cls-46{fill:url(#linear-gradient-45);}.cls-47{fill:url(#linear-gradient-46);}.cls-48{fill:url(#linear-gradient-47);}.cls-49{mix-blend-mode:multiply;fill:url(#radial-gradient);}.cls-50{fill:none;}.cls-51{fill:#2b296d;}.cls-52{fill:url(#radial-gradient-2);}.cls-53{fill:url(#radial-gradient-4);}.cls-54{fill:url(#radial-gradient-5);}.cls-55{fill:#201a55;}.cls-56{fill:#a6a7aa;}.cls-57{fill:#0b1b34;}.cls-58{fill:#fff;}.cls-59{fill:#1077bd;}.cls-60{fill:url(#radial-gradient-9);}</style><linearGradient id="linear-gradient" x1="242.3" y1="45.31" x2="337.98" y2="45.31" gradientUnits="userSpaceOnUse"><stop offset="0" stop-color="#0b77bd"/><stop offset="0.05" stop-color="#0e6db4"/><stop offset="0.15" stop-color="#125ca4"/><stop offset="0.29" stop-color="#165198"/><stop offset="0.48" stop-color="#174a92"/><stop offset="1" stop-color="#184890"/></linearGradient><linearGradient id="linear-gradient-2" x1="337.41" y1="76.42" x2="359.25" y2="76.42" xlink:href="#linear-gradient"/><linearGradient id="linear-gradient-3" x1="365.64" y1="45.36" x2="427.27" y2="45.36" xlink:href="#linear-gradient"/><linearGradient id="linear-gradient-4" x1="424.63" y1="76.42" x2="446.47" y2="76.42" xlink:href="#linear-gradient"/><linearGradient id="linear-gradient-5" x1="245.45" y1="130.9" x2="314.31" y2="130.9" xlink:href="#linear-gradient"/><linearGradient id="linear-gradient-6" x1="318.17" y1="130.9" x2="372.99" y2="130.9" xlink:href="#linear-gradient"/><linearGradient id="linear-gradient-7" x1="372.28" y1="130.9" x2="442.06" y2="130.9" xlink:href="#linear-gradient"/><linearGradient id="linear-gradient-8" x1="446.79" y1="130.9" x2="504.87" y2="130.9" xlink:href="#linear-gradient"/><linearGradient id="linear-gradient-9" x1="485.82" y1="130.9" x2="555.39" y2="130.9" xlink:href="#linear-gradient"/><linearGradient id="linear-gradient-10" x1="559.96" y1="130.9" x2="603.12" y2="130.9" xlink:href="#linear-gradient"/><linearGradient id="linear-gradient-11" x1="247.14" y1="216.7" x2="309.03" y2="216.7" xlink:href="#linear-gradient"/><linearGradient id="linear-gradient-12" x1="302.28" y1="216.7" x2="365.64" y2="216.7" xlink:href="#linear-gradient"/><linearGradient id="linear-gradient-13" x1="373.48" y1="216.7" x2="423.39" y2="216.7" xlink:href="#linear-gradient"/><linearGradient id="linear-gradient-14" x1="430.52" y1="216.7" x2="482.56" y2="216.7" xlink:href="#linear-gradient"/><linearGradient id="linear-gradient-15" x1="105.1" y1="284.17" x2="127.7" y2="284.17" xlink:href="#linear-gradient"/><linearGradient id="linear-gradient-16" x1="169.16" y1="284.18" x2="191.76" y2="284.18" xlink:href="#linear-gradient"/><linearGradient id="linear-gradient-17" x1="376.49" y1="284.17" x2="399.09" y2="284.17" xlink:href="#linear-gradient"/><linearGradient id="linear-gradient-18" x1="93.47" y1="284.36" x2="102.82" y2="284.36" xlink:href="#linear-gradient"/><linearGradient id="linear-gradient-19" x1="157.2" y1="281.37" x2="168.26" y2="281.37" xlink:href="#linear-gradient"/><linearGradient id="linear-gradient-20" x1="471.32" y1="281.37" x2="482.38" y2="281.37" xlink:href="#linear-gradient"/><linearGradient id="linear-gradient-21" x1="203.85" y1="287.17" x2="226" y2="287.17" xlink:href="#linear-gradient"/><linearGradient id="linear-gradient-22" x1="227.96" y1="284.34" x2="252.82" y2="284.34" xlink:href="#linear-gradient"/><linearGradient id="linear-gradient-23" x1="255.87" y1="284.3" x2="281.37" y2="284.3" xlink:href="#linear-gradient"/><linearGradient id="linear-gradient-24" x1="521.3" y1="284.3" x2="546.8" y2="284.3" xlink:href="#linear-gradient"/><linearGradient id="linear-gradient-25" x1="361.18" y1="284.3" x2="363.73" y2="284.3" xlink:href="#linear-gradient"/><linearGradient id="linear-gradient-26" x1="369.42" y1="281.28" x2="371.98" y2="281.28" xlink:href="#linear-gradient"/><linearGradient id="linear-gradient-27" x1="361.15" y1="269.61" x2="364.55" y2="269.61" xlink:href="#linear-gradient"/><linearGradient id="linear-gradient-28" x1="465.82" y1="284.3" x2="468.38" y2="284.3" xlink:href="#linear-gradient"/><linearGradient id="linear-gradient-29" x1="465.79" y1="269.61" x2="469.19" y2="269.61" xlink:href="#linear-gradient"/><linearGradient id="linear-gradient-30" x1="402.92" y1="284.26" x2="415.83" y2="284.26" xlink:href="#linear-gradient"/><linearGradient id="linear-gradient-31" x1="308.2" y1="284.26" x2="321.12" y2="284.26" xlink:href="#linear-gradient"/><linearGradient id="linear-gradient-32" x1="550.38" y1="284.26" x2="563.29" y2="284.26" xlink:href="#linear-gradient"/><linearGradient id="linear-gradient-33" x1="428.81" y1="284.86" x2="464.12" y2="284.86" xlink:href="#linear-gradient"/><linearGradient id="linear-gradient-34" x1="482.66" y1="281.37" x2="508.1" y2="281.37" xlink:href="#linear-gradient"/><linearGradient id="linear-gradient-35" x1="325.66" y1="284.22" x2="357.52" y2="284.22" xlink:href="#linear-gradient"/><linearGradient id="linear-gradient-36" x1="129.89" y1="284.25" x2="155.36" y2="284.25" xlink:href="#linear-gradient"/><linearGradient id="linear-gradient-37" x1="58.8" y1="281.12" x2="90.43" y2="281.12" xlink:href="#linear-gradient"/><linearGradient id="linear-gradient-38" x1="567.49" y1="291.91" x2="570.32" y2="291.91" xlink:href="#linear-gradient"/><linearGradient id="linear-gradient-39" x1="572.32" y1="291.91" x2="575.15" y2="291.91" xlink:href="#linear-gradient"/><linearGradient id="linear-gradient-40" x1="577.33" y1="291.91" x2="580.16" y2="291.91" xlink:href="#linear-gradient"/><linearGradient id="linear-gradient-41" x1="285.71" y1="284.3" x2="295.07" y2="284.3" xlink:href="#linear-gradient"/><linearGradient id="linear-gradient-42" x1="198.62" y1="73.24" x2="199.36" y2="73.24" xlink:href="#linear-gradient"/><linearGradient id="linear-gradient-43" x1="198.11" y1="73.47" x2="198.31" y2="73.47" xlink:href="#linear-gradient"/><linearGradient id="linear-gradient-44" x1="196.72" y1="73.58" x2="198.78" y2="73.58" xlink:href="#linear-gradient"/><linearGradient id="linear-gradient-45" x1="198.78" y1="73.22" x2="199.36" y2="73.22" xlink:href="#linear-gradient"/><linearGradient id="linear-gradient-46" x1="195.84" y1="73.73" x2="198.51" y2="73.73" xlink:href="#linear-gradient"/><linearGradient id="linear-gradient-47" x1="198.51" y1="73.26" x2="199.36" y2="73.26" xlink:href="#linear-gradient"/><radialGradient id="radial-gradient" cx="602.67" cy="3906.79" r="48.52" gradientTransform="translate(-1225.02 -833.48) scale(2.23 0.28)" gradientUnits="userSpaceOnUse"><stop offset="0" stop-color="#1e1e1e"/><stop offset="0.13" stop-color="#515457"/><stop offset="0.29" stop-color="#8b9298"/><stop offset="0.43" stop-color="#b5bfc8"/><stop offset="0.53" stop-color="#cfdbe5"/><stop offset="0.59" stop-color="#d9e5f0"/><stop offset="0.64" stop-color="#e4ecf4"/><stop offset="0.73" stop-color="#f3f7fa"/><stop offset="0.84" stop-color="#fcfdfe"/><stop offset="1" stop-color="#fff"/></radialGradient><radialGradient id="radial-gradient-2" cx="101.36" cy="94.27" r="97.88" gradientUnits="userSpaceOnUse"><stop offset="0" stop-color="#0782c5"/><stop offset="0.06" stop-color="#087dc0"/><stop offset="0.44" stop-color="#1160a6"/><stop offset="0.76" stop-color="#164e96"/><stop offset="1" stop-color="#184890"/></radialGradient><radialGradient id="radial-gradient-4" cx="101.36" cy="94.27" r="97.88" xlink:href="#radial-gradient-2"/><radialGradient id="radial-gradient-5" cx="104.06" cy="103.46" r="88.28" gradientUnits="userSpaceOnUse"><stop offset="0" stop-color="#0b77bd"/><stop offset="0.35" stop-color="#1160a7"/><stop offset="0.73" stop-color="#164e96"/><stop offset="1" stop-color="#184890"/></radialGradient><radialGradient id="radial-gradient-9" cx="101.36" cy="94.36" r="97.9" xlink:href="#radial-gradient-2"/></defs><title>MSDC Logo Blue</title><g class="cls-1"><g id="Layer_2" data-name="Layer 2"><g id="Layer_1-2" data-name="Layer 1"><path class="cls-2" d="M322.85,4.31a16,16,0,0,0-2.13.13,7.26,7.26,0,0,0-1.81.47,6.37,6.37,0,0,0-1.65,1,18,18,0,0,0-1.59,1.53L291.25,49.4c-.74,1.15-1.44,2.34-2.08,3.56l-.17.33a.25.25,0,0,0,0-.07c-.33-1.2-.7-2.39-1.1-3.52L273.94,8l-.17-.33A13.2,13.2,0,0,0,272.52,6,5,5,0,0,0,271,4.93a6,6,0,0,0-1.76-.49,15.44,15.44,0,0,0-2.11-.13H252.43l-10.13,82h18.39l5.58-47.62a.31.31,0,0,0,0-.1l11.77,34.7a6.43,6.43,0,0,0,2.74,3.41,8.1,8.1,0,0,0,4.29,1.12h2.39a9.25,9.25,0,0,0,4.43-1.08,9.11,9.11,0,0,0,3.37-3.23l20-34.3-5.66,47.1h18.26L338,4.31Z"/><path class="cls-3" d="M356.06,68.86A11.23,11.23,0,0,0,344,66.61a10.94,10.94,0,0,0-3.44,2.26,10.69,10.69,0,0,0-2.3,3.36,10.33,10.33,0,0,0-.85,4.19,10.61,10.61,0,0,0,.84,4.2A10.41,10.41,0,0,0,340.56,84,10.51,10.51,0,0,0,344,86.26a11.53,11.53,0,0,0,4.32.81,11.18,11.18,0,0,0,4.26-.81A11,11,0,0,0,356.06,84a10.4,10.4,0,0,0,2.35-3.41,10.61,10.61,0,0,0,.84-4.2,10.31,10.31,0,0,0-3.19-7.56Z"/><path class="cls-4" d="M417.71,43.54a20.55,20.55,0,0,0-4.95-3.79,53.47,53.47,0,0,0-5.42-2.57q-2.71-1.09-5.3-2a31.85,31.85,0,0,1-4.41-2,9.7,9.7,0,0,1-2.88-2.27,4.13,4.13,0,0,1-.92-2.78,9.29,9.29,0,0,1,.55-3.24A6.86,6.86,0,0,1,396,22.44a7.48,7.48,0,0,1,2.65-1.65,12.74,12.74,0,0,1,8.14.1,20.91,20.91,0,0,1,3.35,1.69c1,.64,2,1.24,2.79,1.78a5.6,5.6,0,0,0,6.22.18,10.12,10.12,0,0,0,2.21-2.16l6-8.15-.63-.8a21.59,21.59,0,0,0-4.11-4,28.51,28.51,0,0,0-5.31-3.12,33,33,0,0,0-25.47-.45,28.91,28.91,0,0,0-9.41,6.28,28.08,28.08,0,0,0-8.06,19.72,22.59,22.59,0,0,0,1.32,8.2,18,18,0,0,0,3.47,5.7A18.45,18.45,0,0,0,384,49.55a46.4,46.4,0,0,0,5.38,2.38c1.8.66,3.55,1.27,5.27,1.84A25.62,25.62,0,0,1,399,55.6a9,9,0,0,1,2.8,2.32,5,5,0,0,1,.94,3.2c0,3.14-.77,5.5-2.3,7s-3.78,2.3-6.7,2.3a12.44,12.44,0,0,1-5.13-.94,22.17,22.17,0,0,1-3.82-2.2L381.56,65a6,6,0,0,0-6.66-.57,7.83,7.83,0,0,0-2.31,1.9l-6.95,9.11.67.82a24.05,24.05,0,0,0,4.89,4.5,35.47,35.47,0,0,0,6.14,3.42,37,37,0,0,0,6.89,2.23,34.65,34.65,0,0,0,20.13-1.62,29.58,29.58,0,0,0,9.83-6.56,28.76,28.76,0,0,0,6.23-9.68,32.17,32.17,0,0,0,2.16-11.75,20.36,20.36,0,0,0-1.33-7.7A17.33,17.33,0,0,0,417.71,43.54Z"/><path class="cls-5" d="M445.63,72.24a10.49,10.49,0,0,0-2.35-3.38,11.23,11.23,0,0,0-12.06-2.25,10.94,10.94,0,0,0-3.44,2.26,10.69,10.69,0,0,0-2.3,3.36,10.33,10.33,0,0,0-.85,4.19,10.61,10.61,0,0,0,.84,4.2A10.41,10.41,0,0,0,427.78,84a10.51,10.51,0,0,0,3.45,2.25,11.53,11.53,0,0,0,4.32.81,11.18,11.18,0,0,0,4.26-.81A11,11,0,0,0,443.28,84a10.4,10.4,0,0,0,2.35-3.41,10.61,10.61,0,0,0,.84-4.2A10.41,10.41,0,0,0,445.63,72.24Z"/><path class="cls-6" d="M314.31,125.51A52.45,52.45,0,0,1,312.89,138a46.32,46.32,0,0,1-4,10.8,41,41,0,0,1-6.35,8.93,38.22,38.22,0,0,1-8.32,6.72,39.86,39.86,0,0,1-10,4.22,43.33,43.33,0,0,1-11.4,1.47H245.45l9.64-78.38h27.38a33.65,33.65,0,0,1,13.25,2.5,28.34,28.34,0,0,1,10,7,31.28,31.28,0,0,1,6.34,10.69A39.9,39.9,0,0,1,314.31,125.51Zm-12.58.33a34.16,34.16,0,0,0-1.38-10,21.83,21.83,0,0,0-4-7.64,17.57,17.57,0,0,0-6.45-4.85,21.12,21.12,0,0,0-8.6-1.69h-15L259,160.18h15a26.64,26.64,0,0,0,11.33-2.37,24.45,24.45,0,0,0,8.76-6.8,32,32,0,0,0,5.66-10.8A47.7,47.7,0,0,0,301.73,125.84Z"/><path class="cls-7" d="M338.91,101.67,336,125.78h26.18l-1.25,9.58H334.77l-3,24.77h32.93l-1.25,10H318.17l9.64-78.38H373l-1.26,10Z"/><path class="cls-8" d="M442.06,91.71l-9.69,78.38h-6.21a4.81,4.81,0,0,1-2.39-.52,5.2,5.2,0,0,1-1.74-1.71l-31.95-56.39c-.08.83-.14,1.62-.19,2.36s-.12,1.44-.2,2.1l-6.64,54.16H372.28l9.63-78.38h6.37a6.25,6.25,0,0,1,2.37.32,3.74,3.74,0,0,1,1.49,1.69l32.07,56.39c.1-2,.27-3.77.49-5.33l6.53-53.07Z"/><path class="cls-9" d="M503.57,101.94H481.36L473,170.09h-12.2l8.33-68.15H446.79L448,91.71h56.88Z"/><path class="cls-10" d="M555.39,170.09h-9.47a3.72,3.72,0,0,1-2.54-.79,4.38,4.38,0,0,1-1.27-2.1l-3.71-17.58H507.87l-8.06,17.58a5.34,5.34,0,0,1-1.71,2,4.4,4.4,0,0,1-2.7.87h-9.58L524,91.71h12.46ZM536.55,140.8l-6.2-29.33c-.18-1.13-.41-2.42-.68-3.87s-.54-3-.79-4.79q-.93,2.61-1.85,4.82c-.62,1.47-1.18,2.78-1.69,3.94L512,140.8Z"/><path class="cls-11" d="M603.12,159.8l-1.25,10.29H560l9.63-78.38h12.25l-8.38,68.09Z"/><path class="cls-12" d="M277,251.46a34.19,34.19,0,0,0,7.13-.68,33.68,33.68,0,0,0,5.61-1.69,24.7,24.7,0,0,0,4.22-2.18c1.18-.78,2.18-1.5,3-2.18s1.51-1.23,2-1.68a2.12,2.12,0,0,1,1.2-.68.78.78,0,0,1,.71.32l2,2.29a39.51,39.51,0,0,1-11.51,8.08,35.73,35.73,0,0,1-15.22,3,29.18,29.18,0,0,1-12-2.39,25.68,25.68,0,0,1-9.14-6.81,30.83,30.83,0,0,1-5.83-10.55,43.3,43.3,0,0,1-2-13.67,52.74,52.74,0,0,1,3.08-18.42,44,44,0,0,1,8.43-14.35A37.41,37.41,0,0,1,287,177.32a37.41,37.41,0,0,1,7.13.62,26.43,26.43,0,0,1,5.8,1.83,22.44,22.44,0,0,1,4.85,3,38.81,38.81,0,0,1,4.27,4.09L307.29,189a1.84,1.84,0,0,1-1.42.65,1.72,1.72,0,0,1-1.11-.57l-1.58-1.41c-.64-.56-1.42-1.18-2.34-1.85a17.15,17.15,0,0,0-3.38-1.85,25.67,25.67,0,0,0-4.65-1.42,29.67,29.67,0,0,0-6.15-.57,31.54,31.54,0,0,0-24.17,10.89,38.27,38.27,0,0,0-7.19,12.68,50.34,50.34,0,0,0-2.61,16.71,38.47,38.47,0,0,0,1.8,12.17,27.3,27.3,0,0,0,5,9.2,21.62,21.62,0,0,0,7.67,5.79A23.74,23.74,0,0,0,277,251.46Z"/><path class="cls-13" d="M365.64,255.21h-4.19a1.65,1.65,0,0,1-1.2-.41,2.09,2.09,0,0,1-.6-1l-5.5-22.54H319.64L308.59,253.8a2.38,2.38,0,0,1-.87,1,2.2,2.2,0,0,1-1.3.41h-4.14l38.43-77h5.39Zm-12.47-27.92-9.52-39.19c-.15-.66-.29-1.37-.44-2.15s-.29-1.63-.43-2.53c-.37.9-.72,1.75-1.06,2.53s-.67,1.51-1,2.2L321.6,227.29Z"/><path class="cls-14" d="M401.18,178.19q11.16,0,16.68,4.44t5.53,12.87a25.1,25.1,0,0,1-1.63,9.17,21.92,21.92,0,0,1-4.63,7.27,24.42,24.42,0,0,1-7.21,5.09,31.26,31.26,0,0,1-9.34,2.64,6.07,6.07,0,0,1,1.91,2.12l20.08,33.42H418a3.12,3.12,0,0,1-1.45-.3,2.58,2.58,0,0,1-1-1.06L396.94,222.5a4.88,4.88,0,0,0-1.66-1.69,6.39,6.39,0,0,0-2.92-.49h-9.2l-4.3,34.89h-5.38l9.41-77Zm-5.39,38.1a28.49,28.49,0,0,0,9.28-1.41,20.16,20.16,0,0,0,7-4,17.39,17.39,0,0,0,4.41-6.31,21.53,21.53,0,0,0,1.52-8.22q0-7-4.41-10.4t-12.9-3.43H387.85l-4.2,33.8Z"/><path class="cls-15" d="M444.89,182.65,441,214h30.86l-.6,4.35H440.48l-4,32.39h37.23l-.6,4.46H430.52l9.47-77h42.57l-.6,4.46Z"/><path class="cls-16" d="M127.7,279.58s-5.26-5.29-12.43-4.3c0,0-8.45.92-10,8.47a7.5,7.5,0,0,0,3.36,8s5.58,4.28,18.61-1.75l-.7-1.59s-8.53,4.43-14.78,2.82l.06-.05ZM107,283.93s.64-5.6,8.5-7A13.16,13.16,0,0,1,125,279.5l-15.14,10.94C109.5,290.3,106.13,288.73,107,283.93Z"/><path class="cls-17" d="M191.76,279.59s-5.25-5.29-12.43-4.3c0,0-8.44.91-10,8.47a7.48,7.48,0,0,0,3.35,8S178.28,296,191.3,290l-.7-1.59s-8.53,4.43-14.78,2.82l.07-.05ZM171,283.94s.64-5.6,8.5-7a13.18,13.18,0,0,1,9.52,2.54l-15.14,10.94C173.56,290.31,170.19,288.74,171,283.94Z"/><path class="cls-18" d="M399.09,279.58s-5.25-5.29-12.43-4.3c0,0-8.44.91-10,8.47a7.48,7.48,0,0,0,3.35,8s5.59,4.28,18.61-1.75l-.7-1.59s-8.53,4.43-14.78,2.82l.07-.05Zm-20.75,4.35s.64-5.6,8.5-7a13.18,13.18,0,0,1,9.52,2.54l-15.14,10.94C380.89,290.3,377.52,288.73,378.34,283.93Z"/><path class="cls-19" d="M95.3,279.06v-3.4H93.47v17.47H95.3V280.35l.1.1h0s3-3.79,7.42-3.79v-1.09A10.79,10.79,0,0,0,95.3,279.06Z"/><path class="cls-20" d="M162.76,269.6h-2.27v5.85H157.2V277h3.29v10.87s-.4,5.48,7.36,5.24v-1.36s-4.79.26-5.09-3.24V277h5.5v-1.57h-5.5Z"/><path class="cls-21" d="M476.87,269.6H474.6v5.85h-3.28V277h3.28v10.87s-.39,5.48,7.37,5.24v-1.36s-4.79.26-5.1-3.24V277h5.51v-1.57h-5.51Z"/><polygon class="cls-22" points="215.1 291.58 205.76 275.58 203.85 275.58 214.16 293.24 211.05 298.76 212.93 298.76 226 275.58 224.12 275.58 215.1 291.58"/><path class="cls-23" d="M240.39,275.34c-6.86,0-12.43,4-12.43,9s5.57,9,12.43,9,12.43-4,12.43-9S247.26,275.34,240.39,275.34Zm0,16.59c-5.6,0-10.14-3.4-10.14-7.59s4.54-7.59,10.14-7.59,10.14,3.4,10.14,7.59S246,291.93,240.39,291.93Z"/><path class="cls-24" d="M278.81,286c-1.14,1.83-3.94,5.43-10.86,5.73a9.21,9.21,0,0,1-9.52-6.1V275.55h-2.56l.17,9.18c1.49,7,8.59,8.7,14.58,7.93a12.91,12.91,0,0,0,8.19-4.4v4.83h2.56V275.5h-2.56Z"/><path class="cls-25" d="M544.24,286c-1.14,1.83-3.94,5.43-10.86,5.73a9.21,9.21,0,0,1-9.52-6.1V275.55H521.3l.17,9.18c1.49,7,8.59,8.7,14.59,7.93a12.91,12.91,0,0,0,8.18-4.4v4.83h2.56V275.5h-2.56Z"/><rect class="cls-26" x="361.18" y="275.5" width="2.55" height="17.59"/><rect class="cls-27" x="369.42" y="269.46" width="2.55" height="23.63"/><path class="cls-28" d="M362.85,268.17a1.46,1.46,0,1,0,1.7,1.44A1.59,1.59,0,0,0,362.85,268.17Z"/><rect class="cls-29" x="465.82" y="275.5" width="2.55" height="17.59"/><path class="cls-30" d="M467.49,268.17a1.46,1.46,0,1,0,1.7,1.44A1.59,1.59,0,0,0,467.49,268.17Z"/><path class="cls-31" d="M408.94,277.13c4.12-.15,5.1,2,5.33,2.9h1.56c-.18-1.13-1.22-4.92-6.93-4.71-4.25.15-5.47,2.1-5.82,3.24a4.25,4.25,0,0,0,1,4c1.39,1.44,4.19,2.23,6.66,2.93l1.48.43a2.73,2.73,0,0,1,1.95,2.08,2,2,0,0,1-.45,1.82,7.13,7.13,0,0,1-5.5,1.47,5.17,5.17,0,0,1-3.3-1.94h-2a7,7,0,0,0,5.05,3.74,8.42,8.42,0,0,0,6.72-1.91,4,4,0,0,0,.93-3.6,4.42,4.42,0,0,0-3.06-3.42l-1.51-.44c-2.18-.61-4.9-1.38-6-2.53a2.17,2.17,0,0,1-.54-2C404.89,278,406.5,277.22,408.94,277.13Z"/><path class="cls-32" d="M314.23,277.13c4.11-.15,5.09,2,5.32,2.9h1.57c-.19-1.13-1.22-4.92-6.94-4.71-4.25.15-5.47,2.1-5.81,3.24a4.2,4.2,0,0,0,1,4c1.38,1.44,4.18,2.23,6.66,2.93l1.47.43a2.73,2.73,0,0,1,1.95,2.08,2,2,0,0,1-.44,1.82,7.15,7.15,0,0,1-5.5,1.47,5.19,5.19,0,0,1-3.31-1.94h-1.95a7,7,0,0,0,5,3.74,8.41,8.41,0,0,0,6.72-1.91,4,4,0,0,0,.93-3.6,4.41,4.41,0,0,0-3.06-3.42l-1.5-.44c-2.18-.61-4.9-1.38-6-2.53a2.14,2.14,0,0,1-.54-2C310.18,278,311.79,277.22,314.23,277.13Z"/><path class="cls-33" d="M556.41,277.13c4.11-.15,5.09,2,5.32,2.9h1.56c-.18-1.13-1.22-4.92-6.93-4.71-4.25.15-5.47,2.1-5.82,3.24a4.25,4.25,0,0,0,1,4c1.39,1.44,4.19,2.23,6.66,2.93l1.48.43a2.73,2.73,0,0,1,2,2.08,2,2,0,0,1-.45,1.82,7.13,7.13,0,0,1-5.5,1.47,5.19,5.19,0,0,1-3.3-1.94h-2a7,7,0,0,0,5.05,3.74,8.42,8.42,0,0,0,6.72-1.91,4,4,0,0,0,.93-3.6,4.42,4.42,0,0,0-3.06-3.42l-1.5-.44c-2.19-.61-4.9-1.38-6-2.53a2.17,2.17,0,0,1-.54-2C552.35,278,554,277.22,556.41,277.13Z"/><polygon class="cls-34" points="452.47 291.02 447.24 281.94 451.26 275.51 449.32 275.51 446.31 280.32 443.54 275.51 441.66 275.51 445.33 281.89 439.62 291.02 430.69 275.51 428.81 275.51 438.97 293.17 439.57 294.21 440.2 293.2 446.26 283.5 451.83 293.17 452.42 294.21 453.05 293.2 464.12 275.51 462.18 275.51 452.47 291.02"/><path class="cls-35" d="M496.18,275.52c-4.94-.38-9.09,2.49-11,4.05v-10h-2.55v23.5h2.55V281.92a13.6,13.6,0,0,1,12.06-5c6.53.77,8.28,5.76,8.28,5.76h0v10.47h2.55V282.51H508C506.69,278.82,502.86,276,496.18,275.52Z"/><path class="cls-36" d="M350.42,275.61s-5.23-.7-8.36,3.42a8.27,8.27,0,0,0-7.2-3.54,9.57,9.57,0,0,0-6.65,2.9v-3.12h-2.55v17.86h2.55V280.21a7.33,7.33,0,0,1,5.68-3.21,7.8,7.8,0,0,1,6.21,3v13.16h2.54V280.31a7.42,7.42,0,0,1,6.17-3.49,8.26,8.26,0,0,1,6.26,3.66v12.7h2.45V281.35S357,276,350.42,275.61Z"/><path class="cls-37" d="M153.18,280.28c-2-2.91-6.18-4.92-11-4.92-6.77,0-12.25,3.89-12.25,8.7s5.48,8.69,12.25,8.69c4.86,0,9.05-2,11-4.91v5.29h2.18V275.66h-2.18Zm0,5.39c-1,3.39-5.23,5.93-10.26,5.93-5.8,0-10.5-3.38-10.5-7.54s4.7-7.55,10.5-7.55c5,0,9.23,2.54,10.26,5.94Z"/><path class="cls-38" d="M76.63,270.64a19.09,19.09,0,0,1,12.31,4l1.49-1.15a22.11,22.11,0,0,0-13.8-4.38c-9.85,0-17.83,5.36-17.83,12s8,12,17.83,12a22.17,22.17,0,0,0,13.52-4.17l-1.26-1.31a19.16,19.16,0,0,1-12.26,4C68,291.61,61,286.92,61,281.13S68,270.64,76.63,270.64Z"/><path class="cls-39" d="M568.91,290.8a1.15,1.15,0,1,0,1.41,1.11A1.29,1.29,0,0,0,568.91,290.8Z"/><path class="cls-40" d="M573.73,290.8a1.15,1.15,0,1,0,1.42,1.11A1.29,1.29,0,0,0,573.73,290.8Z"/><path class="cls-41" d="M578.74,290.8a1.15,1.15,0,1,0,1.42,1.11A1.29,1.29,0,0,0,578.74,290.8Z"/><path class="cls-42" d="M287.55,279v-3.4h-1.84v17.47h1.84V280.29l.1.1h0s3-3.78,7.42-3.78v-1.09A10.77,10.77,0,0,0,287.55,279Z"/><path class="cls-43" d="M198.62,73.36l.74-.23Z"/><path class="cls-44" d="M198.11,73.5l.2-.06-.2.06Z"/><path class="cls-45" d="M196.72,73.85c.71-.15,1.4-.33,2.06-.53C198.32,73.45,197.62,73.64,196.72,73.85Z"/><path class="cls-46" d="M199.36,73.13l-.58.19A5.38,5.38,0,0,0,199.36,73.13Z"/><path class="cls-47" d="M195.84,74.06c.85-.18,1.75-.4,2.67-.67C197.9,73.56,197,73.8,195.84,74.06Z"/><path class="cls-48" d="M199.36,73.13l-.85.26A8.34,8.34,0,0,0,199.36,73.13Z"/><path class="cls-49" d="M230.39,253.78c0,7.46-48.55,13.5-108.44,13.5s-108.44-6-108.44-13.5,48.55-13.5,108.44-13.5S230.39,246.32,230.39,253.78Z"/><path class="cls-50" d="M24.91,126.47c-.58-.74-1.17-1.48-1.79-2.22a60.93,60.93,0,0,1-11.67-21.91C9.62,97.19,8.55,91.9,9.07,87.06c0,0-26,62.91,33.71,87.31,0,0,2.09-20.42-16-45.43l0-.05C26.72,128.82,26,128,24.91,126.47Z"/><path class="cls-51" d="M198.41,72.65a11,11,0,0,1-1.27.38c1.74-16.05.52-29.61-.89-33.84-3-9.11-19.09-16.49-19.09-16.49-35.57-2.6-45.55,16.49-45.55,16.49,18.22,39.49,56.83,35.15,56.83,35.15l-.94.64.94-.64c-6.08,4.2-13.8,5.39-19.89,5.55-6.88,0-15.33-1.07-26.09-3.38l-.39-.09a41.15,41.15,0,0,1-4.93-1.62A23.1,23.1,0,0,1,128,67.46l-.12-.15-.11-.16c-.86-1.17-1.59-2.29-2.15-3.21-.9-1.47-1.74-3-2.58-4.65l-.92-1.81c-1.27-2.54-2.56-5.18-4-7.85v0a49.38,49.38,0,0,0-3.71-6l0,0a49.66,49.66,0,0,0-7.3-8.4,31.06,31.06,0,0,0-3.53-2.94h0a52.22,52.22,0,0,0-5.63-3.69l-.17-.09c-.32-.19-.65-.37-1-.55C79,18.14,63.66,22,63.24,22.1h0C48,24.8,35.44,33.92,27,40.49,13.14,51.34-3.35,92.13,23.12,124.25s20.4,53.81,20.4,53.81c57.71,20.83,105-22.57,131.47-49.91,13.23-13.66,19.3-33.62,21.69-51.3A17.83,17.83,0,0,0,198.41,72.65Z"/><path class="cls-52" d="M149.49,25.85a53.83,53.83,0,0,1,9.83-2.52A48.06,48.06,0,0,0,149.49,25.85Z"/><path class="cls-52" d="M24.91,126.47c1.11,1.49,1.81,2.35,1.86,2.42C26.18,128.09,25.55,127.28,24.91,126.47Z"/><path class="cls-53" d="M189.37,24.56C163.89-7.62,109.63-7.89,63.29,22.07,142.7-23.74,179,23.54,179,23.54h0c4.42,2.13,15.56,8.11,18,15.37,1.38,4.15,3,18.09,1.44,33.74-1.92,18.73-8.24,41.11-22.63,56C149.32,156,101,199.86,43.29,179c0,0,5.69-20.49-16.48-50.09,18.06,25,16,45.43,16,45.43C-16.9,150,9.07,87.06,9.07,87.06c-.52,4.84.55,10.13,2.38,15.28A62,62,0,0,1,9.07,83.67c-12.95,29-12.48,59.14,4.28,80.31C41.11,199,103,196.23,151.63,157.74S217.13,59.61,189.37,24.56Z"/><path class="cls-54" d="M24.91,126.47c-3.23-4.35-9.84-13.94-13.46-24.13a60.93,60.93,0,0,0,11.67,21.91C23.74,125,24.33,125.73,24.91,126.47Z"/><path class="cls-54" d="M26.77,128.89l0,.05,0,0Z"/><path class="cls-52" d="M11.45,102.34c3.62,10.19,10.23,19.78,13.46,24.13.64.81,1.27,1.62,1.86,2.42l0,0,0,0C49,158.54,43.29,179,43.29,179c57.71,20.83,106-23.07,132.49-50.41,14.39-14.86,20.71-37.24,22.63-56-6.72,24.75-58,16.48-75.89,1.21s-17.06-47.67-57.72-42a66.89,66.89,0,0,0-24.73,8.54,138.9,138.9,0,0,0-31,43.25A62,62,0,0,0,11.45,102.34Z"/><path class="cls-54" d="M122.52,73.86c-17.93-15.31-17.06-47.67-57.72-42a66.89,66.89,0,0,0-24.73,8.54c-17.21,10-26.46,25.52-29.79,32.08A68.69,68.69,0,0,0,9.07,83.67a62,62,0,0,0,2.38,18.67c3.62,10.19,10.23,19.78,13.46,24.13.64.81,1.27,1.62,1.86,2.42l0,0,0,0C49,158.54,43.29,179,43.29,179c57.71,20.83,106-23.07,132.49-50.41,14.39-14.86,20.71-37.24,22.63-56C191.69,97.4,140.41,89.13,122.52,73.86Z"/><path class="cls-55" d="M45.72,119.5l-.66-.48c0,.13.06.26.1.39l.1-.11Z"/><path class="cls-55" d="M148.51,118.4l-1.28,1.6,1-.44C148.32,119.18,148.42,118.79,148.51,118.4Z"/><path class="cls-51" d="M147.45,120.09c-10,4.25-50.56,24.12-101.73-.49l-.45-.2-.11.11c0,.17.09.34.14.51a2.29,2.29,0,0,0,.08.28c3.62,6.27,51.39,85.48,102.5,1.37l.27-1c.1-.35.21-.69.3-1Z"/><path class="cls-56" d="M214.68,38.84A64.61,64.61,0,0,0,204.35,31s.41.77,1.06,2.2h0c17.63,39.44-1.12,94.92-47.32,131.94A155.94,155.94,0,0,1,111.69,191c-18.57,5.66-39.78,7.74-63.81,4.4,0,0,14.29,51.47,44.68,51.47,15.2,0,19.9-14.68,21.11-27.37l0-.31c0-.16,0-.32,0-.48.9-9.76,0-19.75,2.19-24.83a6.41,6.41,0,0,1,12,1.77,29,29,0,0,1,.61,5.39l.27,14.87c0,.06,0,.12,0,.17,0,.41,0,.85,0,1.3v.12h0c.4,9.29,4.77,27.77,21.66,29.83,17.35,2.12,34.71-17.27,42.39-48.46.19-.77.38-1.54.55-2.32,1.08-4.75,2-9.14,2.9-13.25,4.15-19.45,6.66-32.29,13.57-44.54a76.13,76.13,0,0,1,5.67-8.6,79,79,0,0,0,6.58-10.62C232.54,97.46,239.75,62.34,214.68,38.84Z"/><path class="cls-57" d="M45.16,119.82s.07.14.22.4c0-.1-.06-.19-.08-.29Z"/><path class="cls-58" d="M45.38,120.22l.07.09-.05-.08Z"/><path class="cls-58" d="M148.56,119.93c-.19.33-.39.66-.59,1,.39-.47.78-.94,1.16-1.42Z"/><path class="cls-58" d="M146.58,119.34c-12.49,8.78-30.12,14.27-49.69,14.27-19.74,0-37.52-5.6-50-14.52-.09.18-.18.36-.28.54a9.92,9.92,0,0,1-.74,1.16c4.74,5.83,47.78,55.65,97.35,5.59q2.28-2.31,4.57-4.9a12,12,0,0,1-.66-1A11.07,11.07,0,0,1,146.58,119.34Z"/><path class="cls-58" d="M46.86,119.09c-1-.72-2-1.45-2.91-2.21l-.15.3c.19.41.39.82.59,1.23.33.61.66,1.22,1,1.82l.44.56a9.92,9.92,0,0,0,.74-1.16C46.68,119.45,46.77,119.27,46.86,119.09Z"/><path class="cls-58" d="M149.09,119c.22-.42.44-.84.65-1.26-.08-.18-.18-.36-.26-.54-.93.74-1.9,1.47-2.9,2.18a11.07,11.07,0,0,0,.52,1.11,12,12,0,0,0,.66,1q1-1.11,2-2.28Z"/><path class="cls-58" d="M147.54,105.25s-8.08,16,9.6,23.26C157.14,128.51,147.68,119.09,147.54,105.25Z"/><path class="cls-58" d="M46,105.25s8.08,16-9.59,23.26C36.44,128.51,45.9,119.09,46,105.25Z"/><path class="cls-50" d="M195.74,73.39c.72-.16,1.42-.34,2.09-.55C197.36,73,196.65,73.17,195.74,73.39Z"/><path class="cls-59" d="M198.41,72.65l-.58.19A5.38,5.38,0,0,0,198.41,72.65Z"/><path class="cls-50" d="M194.84,73.6c.87-.18,1.79-.4,2.72-.68C196.93,73.09,196,73.33,194.84,73.6Z"/><path class="cls-60" d="M197,38.91c-2.42-7.26-13.56-13.24-18-15.37-1.13-.54-1.83-.84-1.83-.84a76.67,76.67,0,0,0-17.84.63,53.83,53.83,0,0,0-9.83,2.52c-13.44,4.89-17.88,13.34-17.88,13.34,18.22,39.49,56.83,35.15,56.83,35.15a35.21,35.21,0,0,0,6.4-.74c1.16-.27,2.09-.51,2.72-.68l.85-.27C200,57,198.35,43.06,197,38.91Z"/><path class="cls-59" d="M198.41,72.65l-.85.27A6.63,6.63,0,0,0,198.41,72.65Z"/></g></g></g></svg>