<?xml version="1.0" encoding="utf-8"?>
<!-- Generator: Adobe Illustrator 23.0.5, SVG Export Plug-In . SVG Version: 6.00 Build 0)  -->
<svg version="1.1" id="Layer_1" xmlns="http://www.w3.org/2000/svg" xmlns:xlink="http://www.w3.org/1999/xlink" x="0px" y="0px"
	 viewBox="0 0 300 200" style="enable-background:new 0 0 300 200;" xml:space="preserve">
<style type="text/css">
	.st0{fill:url(#SVGID_1_);}
	.st1{fill:url(#SVGID_2_);stroke:#C6C5C6;stroke-width:0.7915;stroke-miterlimit:10;}
	.st2{clip-path:url(#SVGID_3_);}
	.st3{fill-rule:evenodd;clip-rule:evenodd;fill:#E8282C;}
	.st4{fill-rule:evenodd;clip-rule:evenodd;fill:#224796;}
	.st5{fill-rule:evenodd;clip-rule:evenodd;fill:#0E984A;}
	.st6{enable-background:new    ;}
	.st7{fill:#ED1C24;}
</style>
<g>
	
		<linearGradient id="SVGID_1_" gradientUnits="userSpaceOnUse" x1="58.4948" y1="6.2431" x2="242.6823" y2="190.4306" gradientTransform="matrix(1 0 0 -1 0 202)">
		<stop  offset="0" style="stop-color:#959494"/>
		<stop  offset="6.000000e-02" style="stop-color:#A7A6A6"/>
		<stop  offset="0.16" style="stop-color:#D6D5D5"/>
		<stop  offset="0.25" style="stop-color:#FFFFFF"/>
		<stop  offset="0.37" style="stop-color:#CACACA"/>
		<stop  offset="0.51" style="stop-color:#908F8F"/>
		<stop  offset="0.62" style="stop-color:#6B6B6B"/>
		<stop  offset="0.68" style="stop-color:#5D5D5D"/>
		<stop  offset="0.72" style="stop-color:#646565"/>
		<stop  offset="0.78" style="stop-color:#797979"/>
		<stop  offset="0.85" style="stop-color:#9A9A9A"/>
		<stop  offset="0.94" style="stop-color:#C9C9C9"/>
		<stop  offset="1" style="stop-color:#F0F1F1"/>
	</linearGradient>
	<path class="st0" d="M59.4,25.7h182.4c20,0,36.2,16.2,36.2,36.2v83.4c0,20-16.2,36.2-36.2,36.2H59.4c-20,0-36.2-16.2-36.2-36.2V62
		C23.1,41.9,39.3,25.7,59.4,25.7z"/>
	
		<linearGradient id="SVGID_2_" gradientUnits="userSpaceOnUse" x1="150.5885" y1="183.6139" x2="150.5885" y2="27.7124" gradientTransform="matrix(1 0 0 -1 0 202)">
		<stop  offset="0" style="stop-color:#C2C4C5"/>
		<stop  offset="0.24" style="stop-color:#E1E2E2"/>
		<stop  offset="0.45" style="stop-color:#FFFFFF"/>
		<stop  offset="0.73" style="stop-color:#CACCCD"/>
		<stop  offset="1" style="stop-color:#9C9FA1"/>
	</linearGradient>
	<path class="st1" d="M59.4,18.4h182.4c20,0,36.2,16.2,36.2,36.2V138c0,20-16.2,36.2-36.2,36.2H59.4c-20,0-36.2-16.2-36.2-36.2V54.6
		C23.1,34.6,39.3,18.4,59.4,18.4z"/>
	<g>
		<defs>
			<path id="SVGID_7_" d="M58.2,18.4h182.4c20,0,36.2,16.2,36.2,36.2V138c0,20-16.2,36.2-36.2,36.2H58.2c-20,0-36.2-16.2-36.2-36.2
				V54.6C21.9,34.6,38.2,18.4,58.2,18.4z"/>
		</defs>
		<clipPath id="SVGID_3_">
			<use xlink:href="#SVGID_7_"  style="overflow:visible;"/>
		</clipPath>
		<g class="st2">
			<path class="st3" d="M288.1,206.9c-3.8,0.6-7.4,1.4-11,1.7c-7.9,0.8-15.9,1.5-23.8,2.2c-1.8,0.2-3.6,0.2-5.4,0.2
				c-0.4,0-0.8-0.2-1.1-0.5c-17.1-16.1-33.3-32.8-46.7-52c-4.2-6-7.8-12.5-10.6-19.3c-4.5-11.2-2.8-21.5,4.1-31.3
				c5.5-7.4,12.1-13.8,19.7-19.1c11.5-8.1,23.7-15.2,36.5-20.9c14.3-6.7,29-12.4,44-17.3c0.9-0.3,1.9-0.3,2.9-0.1
				c3.3,0.7,6.5,1.6,9.6,2.6c-2.4,0.9-4.7,1.7-7.1,2.6c-17,6.1-33.3,13.9-48.7,23.4c-8.3,5-15.8,11.2-22.3,18.3
				c-5,5.2-8.5,11.5-10.3,18.4c-1.3,5.7-0.8,11.6,1.6,16.9c3.5,7.4,7.8,14.2,13,20.5c9.7,11.9,20.3,23,31.7,33.2
				c7.4,6.7,15.2,13.2,22.8,19.8C287.6,206.4,287.8,206.5,288.1,206.9z"/>
			<path class="st4" d="M233.8,211c-3-0.1-5.6-0.2-8.3-0.4c-5.4-0.4-10.8-0.8-16.2-1.6c-7.1-1-14.2-2.4-21.2-3.6
				c-0.3-0.1-0.6-0.3-0.9-0.5c-12.4-14.5-23.9-29.6-32.3-46.7c-3.3-6.4-5.5-13.3-6.8-20.4c-1.2-7.6,0.5-15.4,4.6-21.9
				c4.6-7.1,10.4-13.4,17.1-18.5c10.2-7.9,21.2-14.8,32.8-20.5c23.1-11.5,47.1-21.2,71.8-28.9c3.3-0.9,6.8-0.9,10.1,0
				c1.5,0.3,3,0.6,4.9,0.9c-2.7,0.9-5,1.7-7.4,2.6C262.6,58.4,243.6,67,225.4,77c-10.5,5.7-20.3,12.5-29.2,20.5
				c-4.6,4.1-8.7,8.8-12,14.1c-5.5,8.3-6.6,18.8-2.8,28.1c3.6,9,8.3,17.5,13.9,25.3c9.5,13.5,20,26.3,31.3,38.3
				C228.9,205.8,231.2,208.2,233.8,211z"/>
			<path class="st5" d="M333.8,192.5c-3.5,1.4-6.7,2.8-9.9,4.1c-7.7,2.9-15.5,5.4-23.5,7.4c-0.6,0.2-1.3,0.1-1.9-0.4
				c-16.6-12.2-32.3-25.5-46.9-40c-7.9-7.6-14.9-16.2-20.7-25.6c-2.3-3.6-3.9-7.7-4.8-11.9c-1.3-6.7-0.1-13.7,3.4-19.7
				c3.6-6.3,8.4-12,14-16.6c10.1-8.4,21.2-15.4,33.1-21.1c10.6-5.3,21.6-10,32.8-14c0.8-0.4,1.8-0.5,2.7-0.2c3,1.1,6.1,2,9.3,3.2
				c-3.5,1.3-6.7,2.5-9.9,3.8c-12.9,4.9-25,11.5-36.1,19.7c-6.7,4.8-12.4,10.9-16.8,18c-3.3,5.5-4.9,12-4.5,18.4
				c0.5,4.8,2.2,9.4,5,13.4c4.5,6.7,9.8,12.8,15.7,18.3c11.7,10.9,24.3,20.8,37.7,29.5c6.7,4.5,13.6,8.7,20.3,13.1L333.8,192.5z"/>
		</g>
	</g>
	<g class="st6">
		<path class="st7" d="M76.9,44.6c1.4,2.1,2.8,4.2,4.2,6.4h0.1c-0.2-2.3-0.2-4.6-0.2-6.9V31.6h2.9V55h-2.8l-9.2-13
			c-1.6-2.3-3-4.4-4.2-6.4h-0.1c0.2,2.1,0.2,4.6,0.2,7.5V55H65V31.6h2.8L76.9,44.6z"/>
		<path class="st7" d="M97.4,53.1c0.9,0,1.7-0.1,2.5-0.2c0.7-0.1,1.5-0.4,2.2-0.6v2.3c-0.6,0.3-1.3,0.5-2.2,0.7
			C99,55.3,98,55.4,97,55.4c-1.2,0-2.3-0.2-3.3-0.5c-1-0.3-1.9-0.8-2.7-1.5c-0.8-0.7-1.4-1.6-1.8-2.6c-0.4-1.1-0.6-2.4-0.6-3.9
			c0-1.5,0.2-2.8,0.6-3.9c0.4-1.1,1-2,1.7-2.8c0.7-0.7,1.5-1.3,2.4-1.7s1.9-0.6,2.8-0.6c0.9,0,1.8,0.2,2.6,0.5
			c0.8,0.3,1.5,0.8,2.1,1.5c0.6,0.7,1.1,1.5,1.4,2.6c0.3,1,0.5,2.3,0.5,3.8c0,0.1,0,0.3,0,0.4s0,0.3,0,0.7H91.2c0,1.1,0.2,2,0.5,2.7
			c0.3,0.7,0.8,1.3,1.3,1.8c0.6,0.5,1.2,0.8,1.9,1C95.7,53,96.5,53.1,97.4,53.1z M95.9,40.3c-0.6,0-1.2,0.1-1.7,0.4
			c-0.5,0.2-1,0.6-1.4,1c-0.4,0.4-0.7,0.9-1,1.5s-0.4,1.2-0.5,1.8h8.5c0-0.7-0.1-1.3-0.3-1.8c-0.2-0.6-0.4-1.1-0.8-1.5
			c-0.3-0.4-0.7-0.7-1.2-1C97.1,40.4,96.6,40.3,95.9,40.3z"/>
		<path class="st7" d="M112.9,44.8l4.5-6.4h3l-6.1,8.2l6.3,8.4h-2.9l-4.9-6.6h-0.1L108,55H105l6.3-8.5l-6.1-8.1h3L112.9,44.8
			L112.9,44.8z"/>
		<path class="st7" d="M130.1,55.4c-0.9,0-1.6-0.1-2.3-0.3c-0.7-0.2-1.3-0.4-1.8-0.8c-0.5-0.3-1-0.7-1.3-1.2c-0.4-0.5-0.6-1-0.9-1.5
			c-0.2-0.4-0.3-0.9-0.3-1.4c-0.1-0.5-0.1-1-0.1-1.6V38.4h2.7v10.2c0,0.9,0.1,1.7,0.4,2.3c0.3,0.7,0.7,1.2,1.4,1.6
			c0.6,0.4,1.4,0.6,2.4,0.6c1,0,1.8-0.2,2.5-0.7c0.6-0.4,1.1-1,1.3-1.8c0.2-0.6,0.3-1.3,0.3-2.1V38.4h2.7v10.2c0,0.6,0,1.1-0.1,1.6
			c-0.1,0.5-0.2,0.9-0.3,1.3c-0.2,0.6-0.5,1.1-0.9,1.6c-0.4,0.5-0.8,0.9-1.4,1.2c-0.5,0.3-1.2,0.6-1.9,0.8
			C131.8,55.3,131,55.4,130.1,55.4z"/>
		<path class="st7" d="M144,42.8c0,0.5,0.1,0.8,0.3,1.1c0.2,0.3,0.5,0.5,0.8,0.7c0.3,0.2,0.7,0.3,1.1,0.4c0.4,0.1,0.9,0.2,1.3,0.3
			c0.6,0.1,1.2,0.3,1.8,0.5c0.6,0.2,1.1,0.4,1.5,0.8c0.5,0.3,0.9,0.8,1.1,1.4c0.3,0.6,0.4,1.3,0.4,2.2c0,0.8-0.2,1.6-0.5,2.2
			s-0.8,1.2-1.4,1.6c-0.6,0.4-1.3,0.8-2.1,1c-0.8,0.2-1.7,0.3-2.7,0.3c-0.6,0-1.2,0-1.6-0.1c-0.5-0.1-0.9-0.1-1.3-0.2
			c-0.4-0.1-0.7-0.2-1-0.3c-0.3-0.1-0.5-0.2-0.7-0.3v-2.3c0.7,0.3,1.4,0.5,2,0.7c0.7,0.2,1.4,0.2,2.2,0.2c0.6,0,1.2-0.1,1.7-0.2
			c0.5-0.1,1-0.3,1.3-0.5c0.4-0.2,0.7-0.5,0.9-0.9c0.2-0.3,0.3-0.7,0.3-1.2c0-0.5-0.1-0.9-0.3-1.2c-0.2-0.3-0.4-0.6-0.7-0.8
			c-0.3-0.2-0.7-0.4-1.1-0.5c-0.4-0.1-0.8-0.2-1.3-0.3c-0.6-0.1-1.2-0.3-1.8-0.5c-0.6-0.2-1.1-0.4-1.6-0.7c-0.5-0.3-0.9-0.7-1.2-1.3
			c-0.3-0.5-0.5-1.2-0.5-2.1c0-0.9,0.2-1.6,0.5-2.3c0.3-0.6,0.7-1.2,1.3-1.6c0.5-0.4,1.2-0.7,1.9-0.9c0.7-0.2,1.5-0.3,2.3-0.3
			c0.9,0,1.8,0.1,2.6,0.3c0.8,0.2,1.5,0.4,2.1,0.7v2.3c-0.7-0.3-1.4-0.5-2.1-0.7c-0.7-0.2-1.4-0.3-2.2-0.3c-0.6,0-1.2,0.1-1.6,0.2
			c-0.4,0.1-0.8,0.3-1.1,0.5c-0.3,0.2-0.5,0.5-0.6,0.8C144.1,42.1,144,42.4,144,42.8z"/>
	</g>
	<g class="st6">
		<path class="st7" d="M161.7,55h-4.5l4-23.8h6.4c2.1,0,3.6,0,4.5,0.1s1.9,0.4,2.8,0.9c0.9,0.5,1.6,1.3,2.2,2.3
			c0.6,1,0.8,2.1,0.8,3.4c0,1.7-0.5,3.1-1.4,4.4c-0.9,1.3-2,2.1-3.2,2.5c-1.2,0.4-2.7,0.6-4.4,0.6h-5.7L161.7,55z M165.1,34.6
			l-1.2,7.3h4.2c1.5,0,2.5-0.1,3.1-0.3c0.6-0.2,1.1-0.6,1.6-1.3c0.5-0.6,0.7-1.4,0.7-2.3c0-0.9-0.2-1.6-0.6-2.1
			c-0.4-0.6-0.9-0.9-1.4-1.1s-1.6-0.2-3-0.2H165.1z"/>
		<path class="st7" d="M193.1,55h-3.9c0-0.3,0-0.6,0-0.8c0-0.8,0.1-1.9,0.3-3.1c-0.6,1.3-1.4,2.4-2.5,3.1c-1.1,0.8-2.3,1.1-3.6,1.1
			c-1.6,0-2.9-0.5-3.9-1.5c-1-1-1.5-2.2-1.5-3.6c0-2,0.9-3.6,2.7-4.8c1.8-1.2,4.6-1.8,8.3-1.8c0.5,0,1.1,0,1.7,0.1
			c0.1-0.5,0.1-1,0.1-1.3c0-1-0.3-1.7-1-2.2c-0.7-0.5-1.5-0.7-2.5-0.7c-1.9,0-3.2,0.8-4.1,2.5l-3.5-1.1c1.5-2.9,4.1-4.3,7.8-4.3
			c2.2,0,4,0.5,5.2,1.5s1.9,2.3,1.9,4c0,0.7-0.3,2.6-0.8,5.6c-0.6,3.2-0.9,5.2-0.9,6.1C193,54.3,193,54.6,193.1,55z M190.4,45.9
			c-3,0.2-5.1,0.6-6.3,1.2c-1.2,0.6-1.8,1.6-1.8,2.8c0,0.7,0.2,1.3,0.7,1.7c0.5,0.4,1.1,0.7,2,0.7c1.2,0,2.3-0.5,3.3-1.6
			C189.2,49.7,189.9,48.1,190.4,45.9z"/>
		<path class="st7" d="M194.8,61.3l0.2-3.4c0.7,0.1,1.5,0.2,2.3,0.2c0.8,0,1.5-0.2,2.1-0.5c0.5-0.3,1-1,1.5-1.9l0.7-1.4l-4.3-17h4.2
			l2.7,12.2l5.9-12.2h3.4l-9.1,18.4c-0.9,1.7-1.5,2.9-2,3.5c-0.5,0.7-1.1,1.2-2,1.6c-0.9,0.4-2,0.7-3.4,0.7
			C196.2,61.4,195.5,61.4,194.8,61.3z"/>
	</g>
</g>
</svg>
