<svg xmlns="http://www.w3.org/2000/svg" viewBox="0 0 258.8 157.08"><defs><style>.cls-1{fill:#5dd8db;}.cls-2,.cls-7{fill:#fff;}.cls-3{fill:#f7927e;}.cls-11,.cls-4{fill:#f46262;}.cls-5{fill:#56717b;}.cls-6{fill:#7296a4;}.cls-10,.cls-11,.cls-7{opacity:0.5;}.cls-8{fill:#8eabb6;}.cls-9{fill:#a5bcc5;}.cls-10{fill:#a73333;}</style></defs><title>Orthodondics</title><g id="Layer_2" data-name="Layer 2"><g id="Layer_1-2" data-name="Layer 1"><polygon class="cls-1" points="0 0 0 157.08 189.44 157.08 258.8 0 0 0"/><path class="cls-2" d="M194.48,35.05c-15,43.61-73.75,119.27-149.75,47.57,0,0-.1-.11-.22-.22a210.72,210.72,0,0,1-20-22,1.92,1.92,0,0,1-.18-.22s0,0,.07,0c.37.14,1.62.58,3.64,1.21l.46.14q2.19.69,5.36,1.56C58.92,69.88,128.37,83,187.25,40.59Q190.9,37.95,194.48,35.05Z"/><path class="cls-3" d="M194.49,35C121.54,94.42,28.18,61.53,24.39,60.16c10.72,3.7,71-5.72,87.59.65C125.26,48.67,160.31,53.07,194.49,35Z"/><path class="cls-4" d="M194.48,35.09c-.85,1.94-1.77,3.86-2.68,5.78s-2,3.77-3,5.63c-.53.92-1.07,1.84-1.61,2.76l-.82,1.38-.41.68-.43.68-1.74,2.69L182.91,56c-.29.45-.61.87-.92,1.31L180.11,60l-.47.65c-.16.22-.33.43-.49.64l-1,1.27c-.66.85-1.33,1.69-2,2.53s-1.4,1.64-2.11,2.46L173,68.74c-.36.41-.74.79-1.11,1.19l-2.24,2.36c-.37.4-.77.77-1.16,1.15l-1.18,1.13c-.78.76-1.56,1.53-2.39,2.24L162.42,79l-.31.27-.33.25-.64.51-1.29,1-1.29,1c-.44.34-.89.65-1.34,1-.89.65-1.78,1.31-2.69,1.93l-2.78,1.8-.7.46-.72.42-.69.4-.74.43-1.45.84c-.23.14-.48.27-.73.4l-.74.38-1.48.76-.75.39-.37.19-.38.17a84.73,84.73,0,0,1-12.5,4.82l-1.61.47-.81.23-.82.19-1.64.4-.81.19c-.28.06-.55.14-.82.19l-3.31.62c-.55.1-1.11.17-1.66.25l-1.67.24a89.38,89.38,0,0,1-26.64-.71c-2.9-.51-5.77-1.15-8.6-1.9a107.43,107.43,0,0,1-16.46-5.91,119.7,119.7,0,0,1-11.54-6,127.36,127.36,0,0,1-10.78-7.07,124.8,124.8,0,0,1-9.94-8.09c-1.59-1.42-3.12-2.9-4.62-4.41s-2.94-3.08-4.27-4.73c1.77,1.16,3.55,2.28,5.36,3.36s3.6,2.15,5.41,3.18c3.64,2.06,7.3,4,11,5.85A177.6,177.6,0,0,0,69,82.22a123.63,123.63,0,0,0,23.41,5.42,94,94,0,0,0,23.52.07c1-.15,1.94-.26,2.9-.41l2.88-.53c1-.2,1.91-.42,2.87-.63l.71-.16.71-.19,1.41-.38c.48-.13,1-.24,1.42-.38l1.4-.43,1.4-.44.35-.11.35-.12.69-.25,1.39-.49.69-.24.35-.13.34-.14,2.73-1.1a108.23,108.23,0,0,0,10.62-5.29c.85-.5,1.7-1,2.56-1.54.42-.26.85-.51,1.27-.78l1.26-.83,1.25-.82.63-.41.31-.21.31-.22,2.46-1.75c.83-.56,1.61-1.21,2.42-1.82l1.21-.92c.39-.31.81-.6,1.19-.94l2.35-1.93.59-.49c.2-.16.4-.32.59-.49l1.15-1,2.3-2,2.24-2.1c1.53-1.38,3-2.85,4.44-4.31.36-.36.74-.71,1.1-1.09l1.07-1.12L182,49.23l.54-.56.52-.58,1.05-1.16,2.12-2.31c.7-.77,1.37-1.58,2.07-2.36l2.09-2.36C191.7,38.29,193.06,36.68,194.48,35.09Z"/><path class="cls-5" d="M43.45,70.6l-2.82-1a.7.7,0,0,1-.4-.79A4.45,4.45,0,0,1,40.87,67a.7.7,0,0,1,.81-.34l2.83,1a.69.69,0,0,1,.39.78,4.34,4.34,0,0,1-.64,1.77A.71.71,0,0,1,43.45,70.6Z"/><path class="cls-6" d="M43.43,70.46l-2.82-1a.7.7,0,0,1-.4-.78,4.45,4.45,0,0,1,.64-1.76.71.71,0,0,1,.81-.35l2.83,1a.69.69,0,0,1,.39.78,4.3,4.3,0,0,1-.64,1.76A.7.7,0,0,1,43.43,70.46Z"/><path class="cls-5" d="M59.78,75.84l-3.78-1a.94.94,0,0,1-.6-1,6.9,6.9,0,0,1,.66-2.63,1,1,0,0,1,1-.64l3.78,1a1,1,0,0,1,.6,1,7.08,7.08,0,0,1-.66,2.64A1,1,0,0,1,59.78,75.84Z"/><path class="cls-6" d="M59.62,75.63l-3.79-.95a1,1,0,0,1-.59-1A7.07,7.07,0,0,1,55.89,71a1,1,0,0,1,1-.64l3.78.95a.94.94,0,0,1,.6,1A7.28,7.28,0,0,1,60.63,75,1,1,0,0,1,59.62,75.63Z"/><path class="cls-5" d="M78.26,79.58l-4.87-.69a1.21,1.21,0,0,1-.89-1.23A9.08,9.08,0,0,1,73,74.27a1.22,1.22,0,0,1,1.2-.94l4.87.7a1.21,1.21,0,0,1,.89,1.23,9.08,9.08,0,0,1-.48,3.39A1.21,1.21,0,0,1,78.26,79.58Z"/><path class="cls-6" d="M78,79.34l-4.88-.69a1.2,1.2,0,0,1-.88-1.23A9.08,9.08,0,0,1,72.75,74a1.2,1.2,0,0,1,1.19-.94l4.88.69A1.22,1.22,0,0,1,79.71,75a8.94,8.94,0,0,1-.49,3.4A1.19,1.19,0,0,1,78,79.34Z"/><path class="cls-5" d="M98.51,80.64l-4.93,0a1.21,1.21,0,0,1-1-1.11,9,9,0,0,1,0-3.42,1.21,1.21,0,0,1,1-1.09l4.93,0a1.19,1.19,0,0,1,1,1.1,9,9,0,0,1,0,3.43A1.2,1.2,0,0,1,98.51,80.64Z"/><path class="cls-6" d="M98.32,80.46l-4.93,0a1.2,1.2,0,0,1-1-1.1,9,9,0,0,1,0-3.43,1.19,1.19,0,0,1,1.06-1.08l4.93,0a1.21,1.21,0,0,1,1,1.1,9,9,0,0,1,0,3.43C99.24,80,98.81,80.47,98.32,80.46Z"/><path class="cls-5" d="M119.15,79l-4.89.57a1.19,1.19,0,0,1-1.17-1,9,9,0,0,1-.4-3.41,1.18,1.18,0,0,1,.92-1.2l4.89-.58a1.21,1.21,0,0,1,1.17,1,8.91,8.91,0,0,1,.4,3.4A1.2,1.2,0,0,1,119.15,79Z"/><path class="cls-6" d="M118.86,78.87l-4.9.57a1.2,1.2,0,0,1-1.16-1,9,9,0,0,1-.4-3.41,1.19,1.19,0,0,1,.91-1.2l4.9-.57a1.2,1.2,0,0,1,1.17,1,8.9,8.9,0,0,1,.39,3.4A1.21,1.21,0,0,1,118.86,78.87Z"/><path class="cls-5" d="M138.27,74.63l-4.65,1.63a1.2,1.2,0,0,1-1.35-.69,8.84,8.84,0,0,1-1.13-3.23,1.21,1.21,0,0,1,.63-1.38l4.65-1.62a1.18,1.18,0,0,1,1.35.68,9,9,0,0,1,1.13,3.24A1.19,1.19,0,0,1,138.27,74.63Z"/><path class="cls-6" d="M138,74.46l-4.65,1.62A1.2,1.2,0,0,1,132,75.4a9,9,0,0,1-1.13-3.24,1.19,1.19,0,0,1,.63-1.38l4.65-1.62a1.2,1.2,0,0,1,1.35.68,9,9,0,0,1,1.13,3.24A1.21,1.21,0,0,1,138,74.46Z"/><path class="cls-5" d="M157.12,67.47l-4.5,2a1.2,1.2,0,0,1-1.41-.58,9,9,0,0,1-1.39-3.12,1.21,1.21,0,0,1,.51-1.43l4.5-2a1.23,1.23,0,0,1,1.41.58,8.91,8.91,0,0,1,1.39,3.13A1.2,1.2,0,0,1,157.12,67.47Z"/><path class="cls-5" d="M173.6,56.61l-2.89,2.18a.87.87,0,0,1-1.09-.17,6.63,6.63,0,0,1-1.52-2,.89.89,0,0,1,.13-1.1l2.89-2.18a.86.86,0,0,1,1.09.18,6.59,6.59,0,0,1,1.52,2A.88.88,0,0,1,173.6,56.61Z"/><path class="cls-6" d="M156.81,67.28l-4.5,2a1.2,1.2,0,0,1-1.4-.57,9.1,9.1,0,0,1-1.4-3.13,1.21,1.21,0,0,1,.52-1.43l4.5-2a1.19,1.19,0,0,1,1.4.57,9,9,0,0,1,1.4,3.13A1.19,1.19,0,0,1,156.81,67.28Z"/><path class="cls-6" d="M173.34,56.53l-2.88,2.18a.87.87,0,0,1-1.1-.18,6.29,6.29,0,0,1-1.51-2,.86.86,0,0,1,.13-1.1l2.88-2.18a.88.88,0,0,1,1.1.17,6.9,6.9,0,0,1,1.51,2A.87.87,0,0,1,173.34,56.53Z"/><path class="cls-5" d="M183.6,47.39l-1.43,1.49a.51.51,0,0,1-.64,0,3.77,3.77,0,0,1-1-1,.51.51,0,0,1,0-.64l1.43-1.49a.51.51,0,0,1,.64,0,3.92,3.92,0,0,1,1,1A.51.51,0,0,1,183.6,47.39Z"/><path class="cls-6" d="M183.47,47.38,182,48.88a.51.51,0,0,1-.64,0,3.63,3.63,0,0,1-1-1,.49.49,0,0,1,0-.63l1.43-1.5a.49.49,0,0,1,.63,0,3.64,3.64,0,0,1,1,1A.51.51,0,0,1,183.47,47.38Z"/><path class="cls-5" d="M30,63.77c1.65.72,3.33,1.37,5,2s3.38,1.23,5.09,1.8c3.4,1.13,6.85,2.16,10.32,3.08A189.28,189.28,0,0,0,71.43,75c3.55.53,7.11.95,10.68,1.28s7.15.51,10.73.6,7.17.06,10.74-.1,7.15-.46,10.71-.88l1.33-.16c.44,0,.89-.1,1.33-.17l2.66-.38c1.76-.3,3.53-.58,5.29-1l1.31-.25,1.31-.29c.88-.2,1.75-.38,2.62-.6l2.6-.65,1.3-.35,1.29-.36,1.3-.36,1.28-.4,1.28-.4c.43-.13.86-.25,1.28-.41l2.54-.86c.43-.14.84-.3,1.26-.46l1.26-.46,1.26-.48,1.24-.5,2.49-1c1.64-.72,3.28-1.42,4.89-2.21l1.21-.58c.2-.1.41-.19.61-.3l.6-.3,2.38-1.23c.4-.21.79-.43,1.18-.65l1.18-.65,1.17-.65c.4-.22.78-.45,1.16-.68l2.31-1.38c.76-.47,1.52-1,2.27-1.44l1.14-.72,1.11-.76L174,53.36l2.18-1.57,1.09-.79,1.07-.82,2.12-1.65c.36-.27.7-.57,1.05-.85l1-.86c2.77-2.29,5.42-4.72,8-7.18l-1.91,1.91c-.63.63-1.26,1.28-1.92,1.89l-2,1.84-.49.46-.51.44-1,.89-1,.89c-.34.29-.68.6-1,.88l-2.09,1.71c-.35.29-.69.58-1.05.85l-1.07.82-2.15,1.65A122.79,122.79,0,0,1,155.84,65.1c-1.61.83-3.26,1.55-4.9,2.31-.83.36-1.66.7-2.5,1l-1.25.52-1.26.48-1.27.48c-.42.16-.84.33-1.27.48l-2.56.89c-.42.15-.85.29-1.28.42l-1.29.41-1.29.42-1.31.37-1.3.37c-.43.13-.87.25-1.31.36l-2.62.67c-.88.22-1.76.4-2.64.61l-1.33.29-1.32.27c-1.77.37-3.56.66-5.34,1l-2.68.4c-.44.07-.89.12-1.34.18l-1.34.16c-3.59.41-7.19.71-10.8.85s-7.22.17-10.83.06A163.31,163.31,0,0,1,71.28,76,176.55,176.55,0,0,1,50.2,71.23c-3.46-1-6.88-2.14-10.26-3.36S33.2,65.31,30,63.77Z"/><path class="cls-7" d="M30,63.77c1.64.74,3.31,1.41,5,2.06s3.37,1.26,5.06,1.84q5.11,1.76,10.31,3.18a182,182,0,0,0,21.07,4.54,169.46,169.46,0,0,0,21.45,2c3.59.09,7.19.07,10.77-.08s7.17-.46,10.74-.88l1.34-.16c.44,0,.89-.1,1.33-.17l2.67-.39c1.77-.3,3.54-.58,5.3-1l1.32-.26c.44-.08.88-.19,1.32-.29l2.63-.6,2.61-.66c.43-.1.86-.23,1.3-.35l1.29-.37,1.3-.36,1.28-.4,1.29-.41c.43-.13.86-.26,1.28-.41l2.55-.88c.42-.14.84-.3,1.26-.46l1.26-.47,1.26-.48c.42-.16.83-.34,1.25-.51l2.49-1c1.64-.74,3.29-1.44,4.9-2.25l1.21-.58c.2-.1.4-.19.6-.3l.6-.31,2.39-1.24c.4-.2.79-.44,1.18-.65l1.17-.66,1.18-.66c.39-.22.77-.47,1.16-.7l2.3-1.39,2.27-1.46,1.13-.73,1.11-.77,2.21-1.54a139.9,139.9,0,0,0,16.46-13.9,139.51,139.51,0,0,1-16.36,14L172,55.24l-1.1.77-1.13.74-2.26,1.48-2.31,1.4c-.38.23-.76.48-1.15.7l-1.18.67-1.17.66c-.39.22-.78.46-1.18.66l-2.39,1.26-.59.31c-.2.11-.41.2-.61.3l-1.21.59c-1.61.82-3.26,1.53-4.9,2.28-.83.36-1.66.69-2.49,1l-1.25.51-1.26.48-1.27.48c-.42.16-.84.32-1.27.46l-2.55.89c-.42.15-.85.28-1.28.41l-1.29.41-1.29.4-1.3.37-1.3.37c-.43.12-.86.25-1.3.35l-2.62.67c-.87.21-1.75.4-2.63.6-.44.1-.87.21-1.32.3l-1.32.26c-1.76.37-3.54.66-5.32,1l-2.67.39c-.44.07-.89.12-1.34.18l-1.34.16q-5.35.63-10.76.86t-10.8.07a164.64,164.64,0,0,1-21.49-2A182.39,182.39,0,0,1,50.26,71Q45.07,69.55,40,67.75c-1.7-.6-3.39-1.22-5.06-1.88S31.58,64.53,30,63.77Z"/><path class="cls-8" d="M94.14,80l-.7,0a.29.29,0,0,1-.27-.29l0-1.41A.27.27,0,0,1,93.5,78l.7,0a.28.28,0,0,1,.27.29l0,1.41A.27.27,0,0,1,94.14,80Z"/><path class="cls-5" d="M94,79.81l-.54,0a.21.21,0,0,1-.2-.22l0-1.09a.22.22,0,0,1,.22-.2l.54,0a.21.21,0,0,1,.2.21l0,1.09A.21.21,0,0,1,94,79.81Z"/><path class="cls-9" d="M93.92,79.73h-.54a.23.23,0,0,1-.2-.22l0-1.09a.21.21,0,0,1,.21-.21l.54,0a.21.21,0,0,1,.21.21l0,1.09A.21.21,0,0,1,93.92,79.73Z"/><path class="cls-8" d="M94.21,77l-.7,0a.29.29,0,0,1-.27-.29l.05-1.42a.27.27,0,0,1,.29-.26l.69,0a.29.29,0,0,1,.27.29l-.05,1.41A.28.28,0,0,1,94.21,77Z"/><path class="cls-5" d="M94.08,76.84l-.54,0a.21.21,0,0,1-.2-.22l0-1.09a.21.21,0,0,1,.22-.2l.54,0a.21.21,0,0,1,.2.21l0,1.09A.21.21,0,0,1,94.08,76.84Z"/><rect class="cls-9" x="93.27" y="75.24" width="0.96" height="1.51" rx="0.21" transform="translate(2.7 -3.22) rotate(2)"/><rect class="cls-8" x="97" y="75.15" width="1.25" height="1.97" rx="0.27" transform="translate(2.55 -3.17) rotate(1.88)"/><path class="cls-5" d="M97.81,77l-.54,0a.2.2,0,0,1-.2-.21l0-1.09a.21.21,0,0,1,.22-.2h.54a.22.22,0,0,1,.2.22l0,1.09A.23.23,0,0,1,97.81,77Z"/><rect class="cls-9" x="97" y="75.37" width="0.96" height="1.51" rx="0.21" transform="matrix(1, 0.03, -0.03, 1, 2.68, -3.31)"/><rect class="cls-8" x="96.93" y="78.12" width="1.25" height="1.97" rx="0.27" transform="matrix(1, 0.03, -0.03, 1, 2.65, -3.16)"/><path class="cls-5" d="M97.74,79.93l-.54,0a.2.2,0,0,1-.2-.21l0-1.09a.21.21,0,0,1,.22-.2h.54a.22.22,0,0,1,.2.22l0,1.09A.21.21,0,0,1,97.74,79.93Z"/><rect class="cls-9" x="96.93" y="78.34" width="0.96" height="1.51" rx="0.21" transform="matrix(1, 0.03, -0.03, 1, 2.78, -3.3)"/><path class="cls-8" d="M74,78.38l-.69-.1a.27.27,0,0,1-.23-.31l.19-1.41a.29.29,0,0,1,.32-.23l.69.1a.27.27,0,0,1,.23.31l-.2,1.4A.28.28,0,0,1,74,78.38Z"/><path class="cls-5" d="M73.89,78.2l-.53-.07a.21.21,0,0,1-.18-.24l.15-1.08a.21.21,0,0,1,.24-.18l.53.08a.2.2,0,0,1,.18.23L74.13,78A.21.21,0,0,1,73.89,78.2Z"/><path class="cls-9" d="M73.81,78.12,73.28,78a.2.2,0,0,1-.18-.23l.15-1.08a.21.21,0,0,1,.24-.18l.53.07a.21.21,0,0,1,.18.24l-.15,1.08A.21.21,0,0,1,73.81,78.12Z"/><rect class="cls-8" x="73.56" y="73.42" width="1.25" height="1.97" rx="0.27" transform="translate(11.34 -9.79) rotate(8.18)"/><path class="cls-5" d="M74.28,75.25l-.54-.07a.22.22,0,0,1-.18-.24l.16-1.08a.22.22,0,0,1,.24-.18l.53.08a.22.22,0,0,1,.18.24l-.16,1.07A.2.2,0,0,1,74.28,75.25Z"/><rect class="cls-9" x="73.56" y="73.63" width="0.96" height="1.51" rx="0.21" transform="translate(11.09 -9.6) rotate(8.01)"/><path class="cls-8" d="M78.09,76l-.7-.1a.27.27,0,0,1-.23-.31l.2-1.4a.27.27,0,0,1,.31-.24l.69.1a.27.27,0,0,1,.23.31l-.2,1.4A.27.27,0,0,1,78.09,76Z"/><rect class="cls-5" x="77.33" y="74.24" width="0.96" height="1.51" rx="0.21" transform="translate(11.81 -10.58) rotate(8.41)"/><path class="cls-9" d="M77.89,75.7l-.53-.08a.21.21,0,0,1-.18-.23l.16-1.08a.2.2,0,0,1,.23-.18l.54.07a.21.21,0,0,1,.17.24l-.15,1.08A.21.21,0,0,1,77.89,75.7Z"/><path class="cls-8" d="M77.7,78.9l-.7-.1a.28.28,0,0,1-.23-.31l.2-1.4a.27.27,0,0,1,.31-.23L78,77a.28.28,0,0,1,.24.31l-.2,1.4A.27.27,0,0,1,77.7,78.9Z"/><rect class="cls-5" x="76.94" y="77.19" width="0.96" height="1.51" rx="0.21" transform="translate(11.94 -10.27) rotate(8.22)"/><rect class="cls-9" x="76.87" y="77.1" width="0.96" height="1.51" rx="0.21" transform="translate(11.59 -10.01) rotate(8)"/><rect class="cls-8" x="56.12" y="73.04" width="0.94" height="1.48" rx="0.21" transform="translate(17.64 -10.66) rotate(12.73)"/><rect class="cls-5" x="56.18" y="73.26" width="0.72" height="1.14" rx="0.16" transform="translate(17.7 -10.66) rotate(12.76)"/><path class="cls-9" d="M56.56,74.36l-.4-.09a.15.15,0,0,1-.11-.19l.18-.8a.15.15,0,0,1,.19-.12l.39.09a.16.16,0,0,1,.12.19l-.18.8A.16.16,0,0,1,56.56,74.36Z"/><path class="cls-8" d="M57.16,72.38l-.51-.12a.22.22,0,0,1-.16-.25l.24-1a.22.22,0,0,1,.25-.16l.51.12a.22.22,0,0,1,.16.25l-.24,1A.22.22,0,0,1,57.16,72.38Z"/><path class="cls-5" d="M57.09,72.24l-.4-.09a.17.17,0,0,1-.12-.19l.19-.8A.15.15,0,0,1,57,71l.39.09a.15.15,0,0,1,.12.19l-.18.8A.17.17,0,0,1,57.09,72.24Z"/><path class="cls-9" d="M57,72.17l-.39-.09a.15.15,0,0,1-.12-.19l.18-.8a.16.16,0,0,1,.19-.12l.4.09a.17.17,0,0,1,.12.19l-.19.8A.15.15,0,0,1,57,72.17Z"/><rect class="cls-8" x="59.34" y="71.48" width="0.94" height="1.48" rx="0.21" transform="translate(17.42 -11.42) rotate(12.75)"/><path class="cls-5" d="M59.83,72.86l-.39-.09a.15.15,0,0,1-.12-.19l.18-.8a.16.16,0,0,1,.19-.12l.39.09a.16.16,0,0,1,.12.19l-.18.8A.15.15,0,0,1,59.83,72.86Z"/><rect class="cls-9" x="59.35" y="71.63" width="0.72" height="1.14" rx="0.16" transform="translate(17.85 -11.62) rotate(13.05)"/><path class="cls-8" d="M59.43,75.19l-.51-.12a.21.21,0,0,1-.16-.24l.24-1a.2.2,0,0,1,.25-.15l.51.12a.21.21,0,0,1,.16.24l-.24,1A.2.2,0,0,1,59.43,75.19Z"/><path class="cls-5" d="M59.36,75.05,59,75a.16.16,0,0,1-.12-.19L59,74a.15.15,0,0,1,.18-.12l.4.09a.17.17,0,0,1,.12.19l-.18.8A.16.16,0,0,1,59.36,75.05Z"/><path class="cls-9" d="M59.3,75l-.39-.1a.14.14,0,0,1-.12-.18l.18-.8a.17.17,0,0,1,.19-.13l.4.1a.16.16,0,0,1,.12.18l-.19.8A.16.16,0,0,1,59.3,75Z"/><rect class="cls-8" x="40.77" y="68.41" width="0.65" height="1.03" rx="0.14" transform="translate(26.82 -10.04) rotate(20.56)"/><path class="cls-5" d="M41.05,69.36l-.26-.09a.12.12,0,0,1-.07-.15l.2-.53a.1.1,0,0,1,.14-.06l.27.09a.12.12,0,0,1,.06.14l-.2.54A.1.1,0,0,1,41.05,69.36Z"/><path class="cls-9" d="M41,69.31l-.27-.09a.13.13,0,0,1-.06-.15l.2-.53a.1.1,0,0,1,.14-.06l.26.09a.12.12,0,0,1,.07.14l-.2.54A.11.11,0,0,1,41,69.31Z"/><path class="cls-8" d="M41.62,68l-.35-.12a.15.15,0,0,1-.08-.19l.26-.69a.15.15,0,0,1,.18-.09L42,67a.15.15,0,0,1,.08.19l-.26.69A.14.14,0,0,1,41.62,68Z"/><path class="cls-5" d="M41.58,67.9l-.27-.1a.11.11,0,0,1-.06-.14l.2-.53a.11.11,0,0,1,.14-.07l.26.1a.11.11,0,0,1,.07.14l-.2.54A.12.12,0,0,1,41.58,67.9Z"/><path class="cls-9" d="M41.55,67.85l-.27-.1a.11.11,0,0,1-.06-.14l.2-.53a.11.11,0,0,1,.14-.07l.26.1a.11.11,0,0,1,.07.14l-.2.54A.12.12,0,0,1,41.55,67.85Z"/><path class="cls-8" d="M43.45,68.69l-.35-.13a.15.15,0,0,1-.08-.19l.26-.69a.14.14,0,0,1,.18-.08l.35.12a.15.15,0,0,1,.08.19l-.26.69A.14.14,0,0,1,43.45,68.69Z"/><path class="cls-5" d="M43.41,68.59l-.27-.1a.12.12,0,0,1-.06-.15l.2-.53a.1.1,0,0,1,.14-.06l.26.1a.11.11,0,0,1,.07.14l-.2.53A.11.11,0,0,1,43.41,68.59Z"/><path class="cls-9" d="M43.38,68.54l-.27-.1a.12.12,0,0,1-.06-.14l.2-.54a.1.1,0,0,1,.14-.06l.26.1a.11.11,0,0,1,.07.14l-.2.53A.11.11,0,0,1,43.38,68.54Z"/><path class="cls-8" d="M42.92,70.15,42.57,70a.14.14,0,0,1-.08-.18l.26-.7a.14.14,0,0,1,.18-.08l.35.12a.16.16,0,0,1,.08.19l-.26.7A.14.14,0,0,1,42.92,70.15Z"/><path class="cls-5" d="M42.88,70.05l-.26-.1a.11.11,0,0,1-.07-.14l.2-.54a.11.11,0,0,1,.14-.06l.27.1a.11.11,0,0,1,.06.14L43,70A.11.11,0,0,1,42.88,70.05Z"/><path class="cls-9" d="M42.85,70l-.27-.1a.12.12,0,0,1-.06-.14l.2-.54a.11.11,0,0,1,.14-.06l.26.1a.11.11,0,0,1,.07.14l-.2.53A.11.11,0,0,1,42.85,70Z"/><rect class="cls-8" x="113.82" y="77.09" width="1.25" height="1.97" rx="0.27" transform="translate(-9.02 15.23) rotate(-7.33)"/><rect class="cls-5" x="113.92" y="77.4" width="0.96" height="1.51" rx="0.21" transform="translate(-9.02 15.21) rotate(-7.32)"/><rect class="cls-9" x="113.82" y="77.34" width="0.96" height="1.51" rx="0.21" transform="translate(-9.01 15.18) rotate(-7.31)"/><path class="cls-8" d="M113.68,74.15h.7a.27.27,0,0,1,.27.27v1.42a.28.28,0,0,1-.28.28h-.7a.28.28,0,0,1-.28-.28V74.42a.27.27,0,0,1,.27-.27Z" transform="translate(-8.62 15.1) rotate(-7.3)"/><rect class="cls-5" x="113.5" y="74.46" width="0.96" height="1.51" rx="0.21" transform="translate(-8.68 15.19) rotate(-7.35)"/><rect class="cls-9" x="113.41" y="74.4" width="0.96" height="1.51" rx="0.21" transform="translate(-8.42 14.65) rotate(-7.1)"/><rect class="cls-8" x="117.11" y="73.67" width="1.25" height="1.97" rx="0.27" transform="translate(-8.56 15.62) rotate(-7.33)"/><rect class="cls-5" x="117.21" y="73.98" width="0.96" height="1.51" rx="0.21" transform="translate(-8.58 15.63) rotate(-7.33)"/><rect class="cls-9" x="117.11" y="73.92" width="0.96" height="1.51" rx="0.21" transform="translate(-8.55 15.57) rotate(-7.31)"/><path class="cls-8" d="M117.79,76.62h.7a.28.28,0,0,1,.28.28v1.42a.27.27,0,0,1-.27.27h-.7a.27.27,0,0,1-.27-.27V76.89A.27.27,0,0,1,117.79,76.62Z" transform="translate(-8.93 15.7) rotate(-7.33)"/><rect class="cls-5" x="117.62" y="76.92" width="0.96" height="1.51" rx="0.21" transform="translate(-8.94 15.69) rotate(-7.32)"/><rect class="cls-9" x="117.52" y="76.86" width="0.96" height="1.51" rx="0.21" transform="translate(-8.93 15.68) rotate(-7.32)"/><path class="cls-8" d="M133.15,73.56h.7a.27.27,0,0,1,.27.27v1.42a.28.28,0,0,1-.28.28h-.7a.28.28,0,0,1-.28-.28V73.84a.27.27,0,0,1,.27-.27Z" transform="translate(-15.5 40.21) rotate(-16.2)"/><path class="cls-5" d="M133.94,75.28l-.52.15a.21.21,0,0,1-.26-.14l-.31-1.05A.22.22,0,0,1,133,74l.51-.15a.21.21,0,0,1,.26.14l.31,1A.21.21,0,0,1,133.94,75.28Z"/><path class="cls-9" d="M133.83,75.24l-.52.15a.22.22,0,0,1-.26-.15l-.3-1a.21.21,0,0,1,.14-.26l.52-.16a.22.22,0,0,1,.26.15l.3,1A.21.21,0,0,1,133.83,75.24Z"/><rect class="cls-8" x="132.02" y="70.72" width="1.25" height="1.97" rx="0.27" transform="translate(-14.73 39.8) rotate(-16.18)"/><rect class="cls-5" x="132.13" y="71.03" width="0.96" height="1.51" rx="0.21" transform="translate(-14.72 39.65) rotate(-16.12)"/><path class="cls-9" d="M133,72.39l-.52.15a.21.21,0,0,1-.26-.14l-.3-1.05a.2.2,0,0,1,.14-.26l.52-.15a.21.21,0,0,1,.26.15l.3,1A.2.2,0,0,1,133,72.39Z"/><path class="cls-8" d="M135.87,69.67h.7a.28.28,0,0,1,.28.28v1.42a.27.27,0,0,1-.27.27h-.7a.27.27,0,0,1-.27-.27V69.95a.27.27,0,0,1,.27-.27Z" transform="translate(-14.38 41.2) rotate(-16.35)"/><path class="cls-5" d="M136.66,71.39l-.52.15a.22.22,0,0,1-.26-.14l-.3-1.05a.2.2,0,0,1,.14-.26l.52-.15a.22.22,0,0,1,.26.14l.3,1A.21.21,0,0,1,136.66,71.39Z"/><path class="cls-9" d="M136.55,71.35l-.51.15a.22.22,0,0,1-.26-.14l-.31-1a.21.21,0,0,1,.15-.26l.51-.15a.2.2,0,0,1,.26.14l.31,1A.21.21,0,0,1,136.55,71.35Z"/><rect class="cls-8" x="136.46" y="72.52" width="1.25" height="1.97" rx="0.27" transform="translate(-15.06 41.16) rotate(-16.2)"/><rect class="cls-5" x="136.57" y="72.83" width="0.96" height="1.51" rx="0.21" transform="translate(-14.94 40.45) rotate(-15.93)"/><rect class="cls-9" x="136.47" y="72.79" width="0.96" height="1.51" rx="0.21" transform="translate(-15.04 40.94) rotate(-16.13)"/><path class="cls-8" d="M152.25,66.77h.7a.27.27,0,0,1,.27.27v1.42a.27.27,0,0,1-.27.27h-.7a.27.27,0,0,1-.27-.27V67.05a.28.28,0,0,1,.28-.28Z" transform="translate(-14.36 69.31) rotate(-24.48)"/><rect class="cls-5" x="152.09" y="67.09" width="0.96" height="1.51" rx="0.21" transform="translate(-14.4 69.19) rotate(-24.43)"/><rect class="cls-9" x="151.98" y="67.06" width="0.96" height="1.51" rx="0.21" transform="translate(-14.4 68.9) rotate(-24.35)"/><path class="cls-8" d="M151,64.08h.7a.27.27,0,0,1,.27.27v1.42a.27.27,0,0,1-.27.27H151a.27.27,0,0,1-.27-.27V64.36A.28.28,0,0,1,151,64.08Z" transform="translate(-13.37 68.14) rotate(-24.33)"/><path class="cls-5" d="M151.87,65.73l-.49.22a.22.22,0,0,1-.28-.1l-.45-1a.23.23,0,0,1,.11-.29l.49-.22a.22.22,0,0,1,.28.11l.45,1A.22.22,0,0,1,151.87,65.73Z"/><rect class="cls-9" x="150.73" y="64.37" width="0.96" height="1.51" rx="0.21" transform="translate(-13.4 68.41) rotate(-24.44)"/><path class="cls-8" d="M154.39,62.54h.7a.27.27,0,0,1,.27.27v1.42a.28.28,0,0,1-.28.28h-.7a.27.27,0,0,1-.27-.27V62.81a.27.27,0,0,1,.27-.27Z" transform="translate(-12.41 69.82) rotate(-24.48)"/><rect class="cls-5" x="154.23" y="62.85" width="0.96" height="1.51" rx="0.21" transform="translate(-12.46 69.56) rotate(-24.39)"/><rect class="cls-9" x="154.13" y="62.83" width="0.96" height="1.51" rx="0.21" transform="translate(-12.44 69.91) rotate(-24.53)"/><path class="cls-8" d="M156.72,67l-.64.29a.26.26,0,0,1-.36-.13l-.59-1.29a.29.29,0,0,1,.14-.37l.64-.29a.27.27,0,0,1,.36.14l.58,1.29A.26.26,0,0,1,156.72,67Z"/><path class="cls-5" d="M156.53,66.88l-.49.22a.21.21,0,0,1-.28-.1l-.45-1a.22.22,0,0,1,.1-.28l.49-.22a.22.22,0,0,1,.28.11l.45,1A.21.21,0,0,1,156.53,66.88Z"/><path class="cls-9" d="M156.42,66.85l-.49.22a.21.21,0,0,1-.28-.1l-.45-1a.21.21,0,0,1,.11-.28l.48-.22a.2.2,0,0,1,.28.1l.45,1A.21.21,0,0,1,156.42,66.85Z"/><rect class="cls-8" x="169.92" y="56.75" width="0.81" height="1.27" rx="0.18" transform="translate(-2.69 106.08) rotate(-34.34)"/><path class="cls-5" d="M170.14,57h.35a.14.14,0,0,1,.14.14v.71a.13.13,0,0,1-.13.13h-.35a.13.13,0,0,1-.13-.13V57.1A.14.14,0,0,1,170.14,57Z" transform="matrix(0.82, -0.57, 0.57, 0.82, -2.61, 106.47)"/><path class="cls-9" d="M170.66,57.75l-.28.19a.13.13,0,0,1-.19,0l-.4-.58a.14.14,0,0,1,0-.19l.29-.2a.14.14,0,0,1,.19,0l.4.58A.14.14,0,0,1,170.66,57.75Z"/><path class="cls-8" d="M169.76,56.21l-.37.26a.19.19,0,0,1-.25,0l-.51-.76a.16.16,0,0,1,0-.24l.38-.26a.18.18,0,0,1,.24.05l.52.76A.17.17,0,0,1,169.76,56.21Z"/><path class="cls-5" d="M169.63,56.18l-.28.19a.13.13,0,0,1-.19,0l-.4-.58a.14.14,0,0,1,0-.19l.29-.2a.14.14,0,0,1,.19,0l.4.58A.13.13,0,0,1,169.63,56.18Z"/><path class="cls-9" d="M169.56,56.17l-.29.2a.14.14,0,0,1-.19,0l-.39-.59a.13.13,0,0,1,0-.19l.29-.19a.14.14,0,0,1,.19,0l.4.58A.14.14,0,0,1,169.56,56.17Z"/><path class="cls-8" d="M171.76,54.85l-.38.25a.16.16,0,0,1-.24,0l-.52-.76a.18.18,0,0,1,0-.25l.37-.25a.17.17,0,0,1,.25.05l.51.75A.18.18,0,0,1,171.76,54.85Z"/><path class="cls-5" d="M171.63,54.82l-.29.19a.14.14,0,0,1-.19,0l-.4-.59a.14.14,0,0,1,0-.19l.28-.19a.14.14,0,0,1,.19,0l.4.58A.15.15,0,0,1,171.63,54.82Z"/><path class="cls-9" d="M171,54h.35a.13.13,0,0,1,.13.13v.71a.14.14,0,0,1-.14.14H171a.14.14,0,0,1-.14-.14v-.71A.14.14,0,0,1,171,54Z" transform="translate(-0.85 106.27) rotate(-34.42)"/><rect class="cls-8" x="171.91" y="55.39" width="0.81" height="1.27" rx="0.18" transform="translate(-1.57 106.97) rotate(-34.34)"/><path class="cls-5" d="M172.73,56.39l-.29.2a.14.14,0,0,1-.19,0l-.4-.58a.14.14,0,0,1,0-.19l.29-.2a.14.14,0,0,1,.19,0l.39.58A.13.13,0,0,1,172.73,56.39Z"/><path class="cls-9" d="M172.66,56.38l-.29.2a.14.14,0,0,1-.19,0l-.4-.58a.15.15,0,0,1,0-.2l.28-.19a.14.14,0,0,1,.19,0l.4.59A.13.13,0,0,1,172.66,56.38Z"/><path class="cls-8" d="M182.31,48.35l-.18.15s-.09,0-.13,0l-.32-.36a.09.09,0,0,1,0-.13l.18-.16a.11.11,0,0,1,.14,0l.31.36A.1.1,0,0,1,182.31,48.35Z"/><path class="cls-5" d="M182.24,48.34l-.13.12a.09.09,0,0,1-.11,0l-.24-.28a.07.07,0,0,1,0-.1l.14-.12a.07.07,0,0,1,.1,0l.24.28S182.27,48.31,182.24,48.34Z"/><path class="cls-9" d="M182.21,48.34l-.14.12a.07.07,0,0,1-.1,0l-.25-.28a.08.08,0,0,1,0-.1l.14-.12a.07.07,0,0,1,.1,0l.24.28A.07.07,0,0,1,182.21,48.34Z"/><path class="cls-8" d="M181.64,47.59l-.18.16a.09.09,0,0,1-.13,0l-.32-.37a.09.09,0,0,1,0-.13l.18-.16a.09.09,0,0,1,.13,0l.32.37A.09.09,0,0,1,181.64,47.59Z"/><path class="cls-5" d="M181.57,47.58l-.14.12a.07.07,0,0,1-.1,0l-.24-.28a.07.07,0,0,1,0-.1l.14-.12a.07.07,0,0,1,.1,0l.25.28A.08.08,0,0,1,181.57,47.58Z"/><path class="cls-9" d="M181.53,47.58l-.14.12a.07.07,0,0,1-.1,0l-.24-.28a.07.07,0,0,1,0-.1l.14-.12a.07.07,0,0,1,.1,0l.25.28A.08.08,0,0,1,181.53,47.58Z"/><path class="cls-8" d="M182.6,46.75l-.18.16a.09.09,0,0,1-.13,0l-.32-.37a.09.09,0,0,1,0-.13l.18-.15a.09.09,0,0,1,.14,0l.31.36A.09.09,0,0,1,182.6,46.75Z"/><path class="cls-5" d="M182.53,46.74l-.14.12a.07.07,0,0,1-.1,0l-.24-.28a.05.05,0,0,1,0-.09l.13-.13a.09.09,0,0,1,.11,0l.24.28A.08.08,0,0,1,182.53,46.74Z"/><path class="cls-9" d="M182.49,46.74l-.13.13a.09.09,0,0,1-.11,0l-.24-.28a.07.07,0,0,1,0-.1l.13-.13a.09.09,0,0,1,.11,0l.24.28A.07.07,0,0,1,182.49,46.74Z"/><path class="cls-8" d="M183.28,47.51l-.18.16a.09.09,0,0,1-.13,0l-.32-.37a.09.09,0,0,1,0-.13l.18-.15a.09.09,0,0,1,.13,0l.32.37A.09.09,0,0,1,183.28,47.51Z"/><path class="cls-5" d="M183.21,47.5l-.14.12a.07.07,0,0,1-.1,0l-.25-.28a.08.08,0,0,1,0-.1l.14-.12a.07.07,0,0,1,.1,0l.24.28A.07.07,0,0,1,183.21,47.5Z"/><path class="cls-9" d="M183.17,47.5l-.14.12a.08.08,0,0,1-.1,0l-.25-.28a.09.09,0,0,1,0-.11l.14-.12a.08.08,0,0,1,.1,0l.25.28A.08.08,0,0,1,183.17,47.5Z"/><path class="cls-5" d="M63,98.39l-2.2-1.2a1,1,0,0,1-.35-.85,5.87,5.87,0,0,1,.4-1.86c.13-.32.38-.46.6-.34l2.2,1.2a.92.92,0,0,1,.34.85,5.81,5.81,0,0,1-.39,1.86C63.51,98.37,63.26,98.51,63,98.39Z"/><path class="cls-6" d="M63,98.24,60.81,97a1,1,0,0,1-.34-.85,5.5,5.5,0,0,1,.4-1.86c.13-.33.38-.46.6-.34l2.2,1.2A.89.89,0,0,1,64,96a5.61,5.61,0,0,1-.4,1.87C63.48,98.22,63.24,98.35,63,98.24Z"/><path class="cls-5" d="M75.73,104.54,72.8,103.4a1.19,1.19,0,0,1-.5-1.13,9.45,9.45,0,0,1,.36-2.79c.14-.5.44-.76.73-.65L76.32,100a1.21,1.21,0,0,1,.51,1.13,9.79,9.79,0,0,1-.36,2.79C76.32,104.39,76,104.65,75.73,104.54Z"/><path class="cls-6" d="M75.6,104.31l-2.93-1.14a1.21,1.21,0,0,1-.51-1.13,9.79,9.79,0,0,1,.36-2.79c.15-.5.45-.76.74-.65l2.93,1.14a1.19,1.19,0,0,1,.5,1.13,9.45,9.45,0,0,1-.36,2.79C76.19,104.16,75.89,104.42,75.6,104.31Z"/><path class="cls-5" d="M90,109.17l-3.74-.9c-.37-.1-.68-.64-.74-1.35a12.74,12.74,0,0,1,.19-3.61c.13-.66.49-1,.86-1l3.74.91c.37.09.68.64.74,1.34a12.72,12.72,0,0,1-.19,3.61C90.71,108.87,90.35,109.26,90,109.17Z"/><path class="cls-6" d="M89.79,108.9l-3.74-.9c-.37-.09-.68-.64-.74-1.35a12.66,12.66,0,0,1,.19-3.6c.13-.66.48-1,.86-1l3.74.9c.37.09.68.64.74,1.35a12.74,12.74,0,0,1-.19,3.61C90.52,108.61,90.16,109,89.79,108.9Z"/><path class="cls-5" d="M105.43,111l-3.74-.22c-.38,0-.73-.51-.85-1.21a13.27,13.27,0,0,1-.16-3.66c.07-.69.38-1.14.75-1.12l3.75.21c.37,0,.72.52.85,1.22a13.26,13.26,0,0,1,.15,3.66C106.11,110.56,105.8,111,105.43,111Z"/><path class="cls-6" d="M105.28,110.79l-3.75-.21c-.37,0-.72-.52-.85-1.21a13.28,13.28,0,0,1-.15-3.66c.06-.69.37-1.15.74-1.13l3.75.22c.37,0,.72.52.85,1.21a13.67,13.67,0,0,1,.16,3.66C106,110.36,105.65,110.82,105.28,110.79Z"/><path class="cls-5" d="M121.05,110l-3.7.44c-.36,0-.75-.39-.94-1.07a14.07,14.07,0,0,1-.48-3.65c0-.7.27-1.21.64-1.26l3.69-.44c.36,0,.75.39.94,1.07a13.65,13.65,0,0,1,.48,3.65C121.67,109.39,121.41,109.9,121.05,110Z"/><path class="cls-6" d="M120.82,109.79l-3.7.44c-.36,0-.75-.39-.94-1.07a14.07,14.07,0,0,1-.48-3.65c0-.7.27-1.21.64-1.26l3.69-.44c.36,0,.75.39.94,1.07a14.07,14.07,0,0,1,.48,3.65C121.44,109.23,121.18,109.74,120.82,109.79Z"/><path class="cls-5" d="M135.35,105.92l-3.45,1.58c-.34.15-.78-.16-1.06-.78a13.23,13.23,0,0,1-1-3.5c-.11-.7.06-1.29.41-1.45l3.45-1.57c.34-.16.78.16,1.06.78a13.16,13.16,0,0,1,1,3.49C135.87,105.17,135.7,105.77,135.35,105.92Z"/><path class="cls-6" d="M135.12,105.72l-3.45,1.58c-.34.16-.78-.16-1.06-.78a13.16,13.16,0,0,1-1-3.49c-.11-.71.06-1.3.4-1.45l3.46-1.58c.34-.16.78.16,1.06.78a13.54,13.54,0,0,1,1,3.49C135.63,105,135.46,105.57,135.12,105.72Z"/><path class="cls-5" d="M149.31,98.91l-3.32,2c-.33.2-.78-.07-1.1-.66a13,13,0,0,1-1.22-3.39,1.45,1.45,0,0,1,.31-1.5l3.32-2c.33-.2.78.06,1.1.65a12.86,12.86,0,0,1,1.22,3.4C149.77,98.1,149.64,98.71,149.31,98.91Z"/><path class="cls-5" d="M161.27,87.87l-2.08,2.23c-.2.22-.55.13-.84-.23a7.94,7.94,0,0,1-1.26-2.19,1.23,1.23,0,0,1,0-1.17l2.08-2.23c.21-.22.55-.13.84.22a8.15,8.15,0,0,1,1.26,2.2A1.2,1.2,0,0,1,161.27,87.87Z"/><path class="cls-6" d="M149.07,98.7l-3.32,2c-.33.2-.78-.07-1.1-.66a12.67,12.67,0,0,1-1.22-3.39,1.48,1.48,0,0,1,.31-1.51l3.32-2c.33-.2.78.06,1.1.65a12.86,12.86,0,0,1,1.22,3.4C149.53,97.89,149.4,98.5,149.07,98.7Z"/><path class="cls-6" d="M161.07,87.78,159,90c-.21.22-.55.13-.84-.23a8.25,8.25,0,0,1-1.26-2.19,1.24,1.24,0,0,1,0-1.18L159,84.19c.21-.23.55-.14.84.22a8.15,8.15,0,0,1,1.26,2.2A1.2,1.2,0,0,1,161.07,87.78Z"/><path class="cls-5" d="M168.39,78.36l-1,1.54c-.1.16-.3.15-.48,0a4.25,4.25,0,0,1-.85-1.09.73.73,0,0,1-.05-.68l1-1.55c.1-.16.3-.15.48,0a4.35,4.35,0,0,1,.85,1.1A.73.73,0,0,1,168.39,78.36Z"/><path class="cls-6" d="M168.29,78.34l-1,1.55c-.1.16-.29.15-.48,0a4.11,4.11,0,0,1-.84-1.1.71.71,0,0,1-.06-.68l1-1.54c.1-.16.3-.15.49,0a4.11,4.11,0,0,1,.84,1.1A.71.71,0,0,1,168.29,78.34Z"/><path class="cls-5" d="M52.42,90.64A111.18,111.18,0,0,0,67.69,98.4a120.55,120.55,0,0,0,16.18,5.53,99,99,0,0,0,16.81,2.9c2.84.23,5.68.34,8.52.29a73,73,0,0,0,8.49-.63,74.11,74.11,0,0,0,8.36-1.56,76.48,76.48,0,0,0,8.12-2.56l2-.79c.33-.13.65-.28,1-.43l1-.43,1-.43,1-.48,1-.47.47-.23.47-.25,1.88-1c.61-.35,1.22-.73,1.83-1.09l.92-.54.89-.58c.6-.39,1.2-.77,1.79-1.17a86.6,86.6,0,0,0,13-11l1.5-1.53,1.44-1.59c1-1,1.88-2.15,2.81-3.23.23-.28.46-.54.68-.83l.67-.84,1.33-1.68.65-.85L172,72l1.28-1.72-1.2,1.78-.61.89c-.2.29-.39.6-.61.88l-1.27,1.73-.64.87c-.21.29-.44.57-.66.85-.89,1.12-1.76,2.26-2.71,3.34l-1.39,1.64-1.46,1.59-.73.79c-.24.27-.5.52-.75.77L159.71,87c-.25.26-.51.5-.78.75l-.78.74-.79.73-.4.37-.4.35-1.64,1.41-.41.35-.42.34-.85.67c-1.11.91-2.29,1.74-3.45,2.59a74.13,74.13,0,0,1-7.34,4.56l-.48.26-.48.25-1,.49-1,.49c-.32.16-.66.3-1,.45l-1,.45c-.33.15-.65.31-1,.44l-2,.82a69.77,69.77,0,0,1-16.75,4.26,79.16,79.16,0,0,1-17.27.28,95.61,95.61,0,0,1-17-3.14A113,113,0,0,1,67.44,99c-2.6-1.2-5.18-2.48-7.69-3.86A82.85,82.85,0,0,1,52.42,90.64Z"/><path class="cls-7" d="M52.42,90.64c1.28.84,2.58,1.62,3.89,2.36s2.63,1.46,3.95,2.14q4,2,8,3.75a115.58,115.58,0,0,0,16.25,5.57,97.79,97.79,0,0,0,16.42,2.82q4.11.33,8.19.27a78.53,78.53,0,0,0,8.12-.56l1-.13c.33,0,.67-.08,1-.14l2-.32c1.33-.26,2.66-.51,4-.84l1-.23c.33-.08.66-.18,1-.27.65-.18,1.31-.35,2-.55l1.95-.61c.33-.1.65-.22,1-.33l1-.35,1-.35.95-.38,1-.39c.32-.13.64-.25.95-.4l1.89-.85c.32-.13.63-.29.94-.45l.94-.46.93-.47.92-.5c.61-.34,1.23-.67,1.84-1,1.2-.73,2.42-1.43,3.6-2.23l.9-.58.44-.3.44-.31,1.75-1.25c.29-.2.58-.44.86-.65l.86-.67.86-.67c.29-.22.56-.46.84-.69l1.68-1.41c.56-.49,1.1-1,1.65-1.49l.82-.74.8-.78,1.6-1.57a108.89,108.89,0,0,0,11.79-14.3,110.52,110.52,0,0,1-11.7,14.46L160,86.35l-.8.79-.82.75-1.64,1.5L155,90.81c-.28.23-.55.48-.84.71l-.86.67-.85.67c-.29.22-.57.46-.87.66l-1.75,1.27-.43.31c-.15.11-.3.2-.45.3l-.89.59c-1.18.81-2.4,1.52-3.61,2.26-.61.36-1.22.69-1.84,1l-.92.5-.93.47-.94.47c-.31.16-.62.32-.94.46L137,102c-.32.15-.64.27-1,.4l-1,.39-1,.39-1,.35-1,.35c-.32.12-.65.24-1,.34l-2,.62c-.65.2-1.31.37-2,.55-.33.09-.65.19-1,.27l-1,.23c-1.32.34-2.66.59-4,.85l-2,.33c-.34.06-.67.1-1,.14l-1,.13a76.2,76.2,0,0,1-8.14.55q-4.09.06-8.21-.29a94.12,94.12,0,0,1-16.44-2.88,114.76,114.76,0,0,1-16.27-5.68c-2.68-1.17-5.35-2.45-8-3.84-1.32-.7-2.64-1.42-4-2.18S53.7,91.5,52.42,90.64Z"/><path class="cls-8" d="M102.07,110.12l-.53-.05c-.11,0-.21-.15-.22-.31l0-1.51c0-.16.08-.29.2-.27l.53,0a.32.32,0,0,1,.22.32l0,1.51C102.28,110,102.19,110.13,102.07,110.12Z"/><path class="cls-5" d="M102,109.94l-.41,0a.23.23,0,0,1-.17-.24l0-1.17c0-.12.07-.21.16-.21l.4,0a.23.23,0,0,1,.17.24l0,1.17C102.12,109.86,102.05,110,102,109.94Z"/><path class="cls-9" d="M101.9,109.86l-.41,0a.24.24,0,0,1-.17-.25l0-1.16c0-.12.07-.21.16-.2l.41,0a.24.24,0,0,1,.16.24l0,1.16C102.05,109.78,102,109.87,101.9,109.86Z"/><path class="cls-8" d="M102,107l-.53,0c-.12,0-.21-.15-.22-.31l0-1.51c0-.16.09-.29.21-.27l.53,0c.11,0,.21.15.22.32l0,1.51C102.18,106.84,102.09,107,102,107Z"/><path class="cls-5" d="M101.86,106.77l-.41,0a.24.24,0,0,1-.16-.25l0-1.16c0-.12.06-.22.15-.21l.41,0c.09,0,.16.12.17.24l0,1.16C102,106.69,102,106.78,101.86,106.77Z"/><path class="cls-9" d="M101.79,106.69l-.41,0c-.08,0-.16-.11-.16-.24l0-1.16c0-.12.06-.21.15-.21l.41,0a.23.23,0,0,1,.17.24l0,1.16C102,106.6,101.88,106.7,101.79,106.69Z"/><path class="cls-8" d="M104.81,107.21l-.53,0a.3.3,0,0,1-.21-.31l0-1.51c0-.16.09-.28.2-.27l.53,0a.33.33,0,0,1,.22.32l0,1.51C105,107.1,104.93,107.22,104.81,107.21Z"/><path class="cls-5" d="M104.71,107l-.41,0a.23.23,0,0,1-.17-.24l0-1.16c0-.13.07-.22.16-.21l.41,0a.24.24,0,0,1,.16.24l0,1.16C104.86,107,104.8,107,104.71,107Z"/><path class="cls-9" d="M104.64,107l-.41,0c-.09,0-.17-.11-.17-.23l0-1.16c0-.13.07-.22.16-.22l.41,0c.09,0,.16.12.16.24l0,1.16C104.8,106.87,104.73,107,104.64,107Z"/><path class="cls-8" d="M104.92,110.38l-.53,0a.31.31,0,0,1-.22-.32l0-1.51c0-.16.09-.28.2-.27l.54.05a.3.3,0,0,1,.21.31l0,1.51C105.12,110.27,105,110.39,104.92,110.38Z"/><path class="cls-5" d="M104.81,110.21l-.41,0c-.09,0-.16-.12-.17-.24l0-1.16c0-.13.07-.22.16-.21l.41,0a.24.24,0,0,1,.16.25l0,1.16C105,110.12,104.9,110.21,104.81,110.21Z"/><path class="cls-9" d="M104.74,110.12l-.41,0c-.09,0-.16-.12-.17-.24l0-1.16c0-.13.06-.22.15-.21l.41,0c.09,0,.16.12.17.24l0,1.17C104.9,110,104.83,110.13,104.74,110.12Z"/><path class="cls-8" d="M86.68,107.74l-.53-.13a.32.32,0,0,1-.2-.34l.08-1.49c0-.16.11-.27.22-.24l.54.13c.11,0,.2.18.19.34l-.08,1.49C86.89,107.66,86.79,107.76,86.68,107.74Z"/><path class="cls-5" d="M86.58,107.55l-.41-.1a.25.25,0,0,1-.14-.26l0-1.15c0-.12.09-.21.18-.19l.41.11a.24.24,0,0,1,.14.25l-.06,1.15C86.75,107.48,86.67,107.57,86.58,107.55Z"/><path class="cls-9" d="M86.52,107.45l-.41-.09a.27.27,0,0,1-.15-.26L86,106c0-.12.09-.21.17-.18l.41.09a.26.26,0,0,1,.15.27l-.06,1.14C86.68,107.39,86.61,107.48,86.52,107.45Z"/><path class="cls-8" d="M86.82,104.6l-.53-.13a.32.32,0,0,1-.2-.34l.08-1.49c0-.16.11-.27.22-.24l.54.13a.33.33,0,0,1,.19.34L87,104.36C87,104.52,86.93,104.63,86.82,104.6Z"/><path class="cls-5" d="M86.72,104.41l-.41-.1c-.09,0-.15-.14-.15-.26l.06-1.15c0-.12.09-.2.18-.18l.41.1a.25.25,0,0,1,.14.26l-.06,1.15C86.89,104.35,86.81,104.43,86.72,104.41Z"/><path class="cls-9" d="M86.66,104.32l-.41-.1c-.09,0-.15-.14-.15-.26l.06-1.15c0-.12.09-.2.17-.18l.41.1a.24.24,0,0,1,.15.26l-.06,1.15C86.82,104.26,86.75,104.34,86.66,104.32Z"/><path class="cls-8" d="M89.66,105.29l-.54-.13a.33.33,0,0,1-.19-.34l.08-1.49c0-.16.11-.27.22-.24l.53.13a.32.32,0,0,1,.2.34l-.08,1.49C89.87,105.21,89.77,105.32,89.66,105.29Z"/><path class="cls-5" d="M89.56,105.1l-.41-.1c-.09,0-.15-.14-.15-.26l.06-1.15c0-.12.09-.2.18-.18l.4.1a.24.24,0,0,1,.15.26l-.06,1.15C89.73,105,89.65,105.12,89.56,105.1Z"/><path class="cls-9" d="M89.5,105l-.41-.1a.24.24,0,0,1-.15-.26L89,103.5c0-.12.08-.2.17-.18l.41.1a.24.24,0,0,1,.15.26l-.06,1.14C89.66,105,89.59,105,89.5,105Z"/><path class="cls-8" d="M89.52,108.42l-.53-.13a.31.31,0,0,1-.2-.33l.08-1.5c0-.16.11-.26.22-.24l.54.13a.33.33,0,0,1,.19.34l-.08,1.5C89.73,108.35,89.63,108.45,89.52,108.42Z"/><path class="cls-5" d="M89.42,108.23l-.41-.1c-.09,0-.15-.14-.15-.26l.06-1.14c0-.13.09-.21.18-.19l.4.1a.24.24,0,0,1,.15.26l-.06,1.15C89.59,108.17,89.51,108.25,89.42,108.23Z"/><path class="cls-9" d="M89.36,108.14,89,108a.24.24,0,0,1-.15-.26l.06-1.14c0-.13.08-.21.17-.19l.41.1a.24.24,0,0,1,.15.26L89.53,108C89.52,108.08,89.45,108.16,89.36,108.14Z"/><path class="cls-8" d="M73.31,103.08l-.39-.15a.26.26,0,0,1-.14-.27l.13-1.1c0-.12.09-.19.18-.16l.4.14a.29.29,0,0,1,.13.27l-.13,1.11C73.48,103,73.4,103.11,73.31,103.08Z"/><path class="cls-5" d="M73.25,102.92l-.31-.11a.19.19,0,0,1-.1-.2l.1-.85c0-.09.07-.15.14-.12l.3.11a.18.18,0,0,1,.1.2l-.09.85C73.38,102.89,73.31,103,73.25,102.92Z"/><path class="cls-9" d="M73.2,102.85l-.3-.11a.18.18,0,0,1-.1-.2l.1-.85c0-.09.07-.15.13-.13l.31.11a.22.22,0,0,1,.1.21l-.1.85C73.33,102.82,73.27,102.88,73.2,102.85Z"/><path class="cls-8" d="M73.56,100.75l-.4-.14a.27.27,0,0,1-.13-.27l.13-1.1c0-.12.09-.19.18-.16l.39.14a.24.24,0,0,1,.13.27l-.12,1.1C73.72,100.71,73.64,100.78,73.56,100.75Z"/><path class="cls-5" d="M73.49,100.6l-.3-.11a.18.18,0,0,1-.1-.2l.09-.85c0-.09.08-.15.14-.12l.31.1a.22.22,0,0,1,.1.21l-.1.85C73.62,100.57,73.56,100.63,73.49,100.6Z"/><path class="cls-9" d="M73.45,100.53l-.3-.11a.2.2,0,0,1-.11-.21l.1-.84c0-.1.07-.15.14-.13l.3.11a.21.21,0,0,1,.11.21l-.1.85C73.58,100.5,73.52,100.55,73.45,100.53Z"/><path class="cls-8" d="M75.68,101.52l-.4-.15a.25.25,0,0,1-.13-.27l.13-1.1c0-.12.09-.19.17-.16l.4.14a.24.24,0,0,1,.13.27l-.12,1.11C75.84,101.48,75.76,101.55,75.68,101.52Z"/><path class="cls-5" d="M75.61,101.36l-.3-.1a.2.2,0,0,1-.1-.21l.09-.85c0-.09.08-.15.14-.12l.31.11a.19.19,0,0,1,.1.2l-.1.85C75.74,101.33,75.68,101.39,75.61,101.36Z"/><path class="cls-9" d="M75.57,101.29l-.3-.11a.19.19,0,0,1-.11-.2l.1-.85c0-.1.07-.15.14-.13l.3.11a.22.22,0,0,1,.11.21l-.1.85C75.7,101.26,75.64,101.31,75.57,101.29Z"/><path class="cls-8" d="M75.43,103.84l-.4-.14a.3.3,0,0,1-.13-.28l.13-1.1c0-.12.09-.19.18-.16l.4.14a.29.29,0,0,1,.13.27l-.13,1.11C75.6,103.8,75.52,103.87,75.43,103.84Z"/><path class="cls-5" d="M75.37,103.69l-.31-.11a.22.22,0,0,1-.1-.21l.1-.85c0-.09.07-.14.14-.12l.3.11a.19.19,0,0,1,.1.21l-.09.85C75.5,103.66,75.43,103.71,75.37,103.69Z"/><path class="cls-9" d="M75.32,103.61l-.3-.11a.18.18,0,0,1-.1-.2l.09-.85c0-.09.08-.15.14-.12l.31.11a.2.2,0,0,1,.1.21l-.1.84C75.45,103.58,75.39,103.64,75.32,103.61Z"/><path class="cls-8" d="M61.18,97.1,60.91,97a.2.2,0,0,1-.07-.2L61,96c0-.08.08-.12.14-.09l.27.15a.2.2,0,0,1,.07.2l-.16.73C61.3,97.09,61.24,97.13,61.18,97.1Z"/><path class="cls-5" d="M61.15,97l-.21-.12a.13.13,0,0,1,0-.15l.12-.56c0-.06.06-.09.1-.07l.21.12a.15.15,0,0,1,.06.15l-.13.56C61.24,97,61.19,97,61.15,97Z"/><path class="cls-9" d="M61.12,96.93l-.2-.11a.15.15,0,0,1-.06-.15L61,96.1c0-.06.06-.09.11-.06l.2.11c.05,0,.07.1.06.16l-.12.56C61.21,96.93,61.17,97,61.12,96.93Z"/><path class="cls-8" d="M61.51,95.55l-.27-.14a.19.19,0,0,1-.07-.2l.16-.74a.09.09,0,0,1,.13-.08l.27.15a.18.18,0,0,1,.07.2l-.16.73C61.63,95.55,61.56,95.59,61.51,95.55Z"/><path class="cls-5" d="M61.47,95.44l-.2-.11a.14.14,0,0,1-.06-.15l.12-.57c0-.06.06-.09.11-.06l.2.11a.16.16,0,0,1,.06.16l-.12.56C61.56,95.44,61.52,95.47,61.47,95.44Z"/><path class="cls-9" d="M61.45,95.39l-.21-.12a.15.15,0,0,1-.06-.15l.13-.56c0-.06.06-.09.1-.07l.21.12a.13.13,0,0,1,.05.15l-.12.56C61.54,95.38,61.49,95.41,61.45,95.39Z"/><path class="cls-8" d="M62.93,96.35l-.26-.15a.2.2,0,0,1-.08-.2l.16-.73c0-.08.08-.12.14-.09l.27.15a.18.18,0,0,1,.07.2l-.16.73C63.05,96.34,63,96.38,62.93,96.35Z"/><path class="cls-5" d="M62.9,96.24l-.21-.12a.13.13,0,0,1,0-.15l.12-.56a.08.08,0,0,1,.11-.07l.2.12a.14.14,0,0,1,.06.15l-.13.56C63,96.23,62.94,96.26,62.9,96.24Z"/><path class="cls-9" d="M62.87,96.18l-.2-.11a.16.16,0,0,1-.06-.16l.13-.56c0-.06.06-.09.1-.06l.21.11a.14.14,0,0,1,.05.15l-.12.57C63,96.18,62.92,96.21,62.87,96.18Z"/><path class="cls-8" d="M62.61,97.89l-.27-.15a.18.18,0,0,1-.07-.2l.16-.73c0-.08.08-.11.14-.08l.26.14a.22.22,0,0,1,.08.2l-.16.74C62.73,97.89,62.67,97.92,62.61,97.89Z"/><path class="cls-5" d="M62.57,97.78l-.2-.11a.16.16,0,0,1-.06-.16l.13-.56c0-.06.06-.09.1-.06l.21.11a.13.13,0,0,1,0,.15l-.12.57A.08.08,0,0,1,62.57,97.78Z"/><path class="cls-9" d="M62.55,97.72l-.21-.11a.14.14,0,0,1-.05-.15l.12-.57a.08.08,0,0,1,.11-.06l.2.12a.15.15,0,0,1,.06.15l-.13.56C62.64,97.72,62.59,97.75,62.55,97.72Z"/><path class="cls-8" d="M117.82,109.8l-.52.07c-.11,0-.22-.1-.25-.26l-.21-1.51c0-.16,0-.3.17-.32l.52-.07c.11,0,.22.1.25.26l.21,1.51C118,109.64,117.94,109.78,117.82,109.8Z"/><path class="cls-5" d="M117.7,109.65l-.4,0c-.09,0-.18-.07-.19-.2l-.17-1.16c0-.12,0-.23.13-.24l.4-.06c.09,0,.17.08.19.2l.16,1.16C117.84,109.53,117.78,109.64,117.7,109.65Z"/><path class="cls-9" d="M117.62,109.58l-.4.06c-.09,0-.17-.08-.19-.21l-.16-1.15c0-.13,0-.24.12-.25l.4,0c.09,0,.17.07.19.2l.17,1.16C117.76,109.46,117.71,109.57,117.62,109.58Z"/><path class="cls-8" d="M117.35,106.64l-.52.07c-.11,0-.22-.1-.24-.26l-.22-1.51c0-.16,0-.3.17-.32l.52-.07c.11,0,.22.1.25.26l.21,1.51C117.54,106.48,117.47,106.63,117.35,106.64Z"/><path class="cls-5" d="M117.23,106.49l-.4.05c-.09,0-.17-.07-.19-.2l-.16-1.16c0-.12,0-.23.12-.24l.4-.06c.09,0,.17.08.19.21l.16,1.15C117.37,106.37,117.32,106.48,117.23,106.49Z"/><path class="cls-9" d="M117.15,106.42l-.4.06c-.09,0-.17-.08-.19-.2l-.16-1.16c0-.13,0-.24.12-.25l.41-.05c.08,0,.17.08.18.2l.17,1.16C117.3,106.3,117.24,106.41,117.15,106.42Z"/><path class="cls-8" d="M120.14,106.26l-.52.07c-.11,0-.22-.1-.24-.26l-.22-1.51c0-.16.06-.31.17-.32l.52-.07c.12,0,.22.1.25.26l.21,1.51C120.33,106.1,120.26,106.24,120.14,106.26Z"/><path class="cls-5" d="M120,106.1l-.4.06c-.09,0-.17-.08-.19-.2l-.16-1.16c0-.13,0-.24.12-.25l.4,0c.09,0,.18.07.19.2l.16,1.16C120.16,106,120.11,106.09,120,106.1Z"/><path class="cls-9" d="M119.94,106l-.4,0c-.09,0-.17-.08-.19-.2l-.16-1.16c0-.12,0-.23.12-.24l.41-.06c.08,0,.17.08.19.2l.16,1.16C120.09,105.92,120,106,119.94,106Z"/><path class="cls-8" d="M120.61,109.42l-.52.07c-.11,0-.22-.1-.25-.26l-.21-1.51c0-.16.05-.31.17-.32l.52-.08c.11,0,.22.11.25.27l.21,1.51C120.8,109.26,120.73,109.4,120.61,109.42Z"/><path class="cls-5" d="M120.49,109.26l-.4.06a.2.2,0,0,1-.19-.2l-.17-1.16c0-.13,0-.24.13-.25l.4,0c.09,0,.17.07.19.2l.16,1.16C120.63,109.14,120.57,109.25,120.49,109.26Z"/><path class="cls-9" d="M120.41,109.2l-.4,0c-.09,0-.17-.07-.19-.2l-.16-1.16c0-.12,0-.23.12-.24l.41-.06c.08,0,.17.08.18.2l.17,1.16C120.55,109.07,120.5,109.19,120.41,109.2Z"/><path class="cls-8" d="M132.23,106.59l-.5.19c-.11,0-.23-.06-.27-.21l-.37-1.47a.3.3,0,0,1,.12-.36l.5-.19c.11,0,.23.06.27.22l.37,1.46A.3.3,0,0,1,132.23,106.59Z"/><path class="cls-5" d="M132.09,106.46l-.38.15c-.09,0-.18,0-.21-.16l-.29-1.13c0-.12,0-.25.1-.28l.38-.14c.09,0,.18,0,.21.16l.29,1.13A.23.23,0,0,1,132.09,106.46Z"/><path class="cls-9" d="M132,106.41l-.39.15c-.08,0-.17,0-.2-.16l-.29-1.13a.24.24,0,0,1,.1-.28l.38-.14c.08,0,.18,0,.21.16l.28,1.13A.23.23,0,0,1,132,106.41Z"/><path class="cls-8" d="M131.43,103.52l-.51.19c-.1,0-.22-.06-.26-.21l-.38-1.47a.3.3,0,0,1,.13-.36l.5-.18c.11,0,.23.05.27.21l.37,1.47A.3.3,0,0,1,131.43,103.52Z"/><path class="cls-5" d="M131.29,103.4l-.39.14c-.08,0-.17,0-.21-.16l-.28-1.13c0-.12,0-.25.09-.27l.39-.15c.08,0,.17,0,.2.16l.29,1.13A.25.25,0,0,1,131.29,103.4Z"/><path class="cls-9" d="M131.2,103.35l-.38.14c-.08,0-.18,0-.21-.16l-.28-1.13a.23.23,0,0,1,.09-.27l.39-.15c.08,0,.17,0,.2.16l.29,1.13A.24.24,0,0,1,131.2,103.35Z"/><path class="cls-8" d="M134.1,102.53l-.5.19c-.11,0-.23-.06-.27-.22L133,101a.3.3,0,0,1,.12-.36l.5-.18c.11,0,.23,0,.27.2l.37,1.47A.31.31,0,0,1,134.1,102.53Z"/><path class="cls-5" d="M134,102.4l-.39.15c-.08,0-.17,0-.2-.17l-.29-1.12c0-.12,0-.25.1-.28l.38-.14c.08,0,.17,0,.21.16l.28,1.13A.23.23,0,0,1,134,102.4Z"/><path class="cls-9" d="M133.87,102.35l-.38.15c-.08,0-.17,0-.21-.17l-.28-1.12c0-.12,0-.25.09-.28l.39-.14c.08,0,.17,0,.2.16l.29,1.13A.22.22,0,0,1,133.87,102.35Z"/><path class="cls-8" d="M134.9,105.6l-.5.18c-.11,0-.23,0-.27-.21l-.37-1.47a.29.29,0,0,1,.12-.35l.5-.19c.11,0,.23.06.27.21l.37,1.47A.29.29,0,0,1,134.9,105.6Z"/><path class="cls-5" d="M134.76,105.47l-.38.14c-.09,0-.18,0-.21-.16l-.29-1.13a.23.23,0,0,1,.1-.27l.38-.14c.09,0,.18,0,.21.16l.29,1.13A.23.23,0,0,1,134.76,105.47Z"/><path class="cls-9" d="M134.68,105.42l-.39.14c-.08,0-.17,0-.2-.16l-.29-1.13a.22.22,0,0,1,.1-.27l.38-.14c.09,0,.18,0,.21.16l.28,1.13A.23.23,0,0,1,134.68,105.42Z"/><path class="cls-8" d="M146.47,99.89l-.47.29c-.1.06-.22,0-.28-.16l-.51-1.4a.32.32,0,0,1,.08-.38l.47-.29c.1-.06.23,0,.29.16l.51,1.4A.32.32,0,0,1,146.47,99.89Z"/><path class="cls-5" d="M146.32,99.79,146,100c-.07,0-.17,0-.21-.12l-.4-1.07a.26.26,0,0,1,.07-.3l.36-.22c.08,0,.17,0,.22.12l.39,1.08A.25.25,0,0,1,146.32,99.79Z"/><path class="cls-9" d="M146.24,99.76l-.36.22a.17.17,0,0,1-.22-.12l-.39-1.08a.26.26,0,0,1,.06-.29l.36-.22c.08,0,.18,0,.22.12l.4,1.07A.26.26,0,0,1,146.24,99.76Z"/><path class="cls-8" d="M145.38,97l-.47.29c-.1.06-.23,0-.29-.16l-.51-1.4a.32.32,0,0,1,.09-.38l.46-.29c.11-.06.23,0,.29.16l.51,1.4A.32.32,0,0,1,145.38,97Z"/><path class="cls-5" d="M145.23,96.87l-.36.22c-.08,0-.18,0-.22-.12l-.39-1.08a.23.23,0,0,1,.06-.29l.36-.22c.08,0,.18,0,.22.12l.39,1.08A.25.25,0,0,1,145.23,96.87Z"/><path class="cls-9" d="M145.14,96.84l-.36.22c-.08,0-.17,0-.21-.12l-.4-1.08a.25.25,0,0,1,.07-.29l.36-.22c.07,0,.17,0,.21.12l.4,1.07A.26.26,0,0,1,145.14,96.84Z"/><path class="cls-8" d="M147.88,95.44l-.47.28c-.1.06-.23,0-.28-.15l-.51-1.4a.33.33,0,0,1,.08-.39l.47-.28c.1-.07.23,0,.28.15l.52,1.4A.35.35,0,0,1,147.88,95.44Z"/><path class="cls-5" d="M147.73,95.34l-.36.22c-.08,0-.17,0-.22-.12l-.39-1.08a.26.26,0,0,1,.06-.29l.36-.22c.08,0,.18,0,.22.12l.4,1.07A.26.26,0,0,1,147.73,95.34Z"/><path class="cls-9" d="M147.65,95.3l-.36.22c-.08,0-.18,0-.22-.12l-.4-1.07a.26.26,0,0,1,.07-.3l.36-.21c.08-.06.17,0,.22.12l.39,1.07A.26.26,0,0,1,147.65,95.3Z"/><path class="cls-8" d="M149,98.36l-.47.28c-.1.07-.23,0-.28-.15l-.52-1.4a.34.34,0,0,1,.09-.39l.47-.28c.1-.07.22,0,.28.15l.51,1.4A.34.34,0,0,1,149,98.36Z"/><path class="cls-5" d="M148.83,98.26l-.36.22c-.08,0-.18,0-.22-.12l-.39-1.08a.23.23,0,0,1,.06-.29l.36-.22c.08,0,.18,0,.22.12l.39,1.07A.25.25,0,0,1,148.83,98.26Z"/><path class="cls-9" d="M148.74,98.22l-.36.22c-.07,0-.17,0-.21-.12l-.4-1.07a.26.26,0,0,1,.07-.3l.36-.22c.07,0,.17,0,.22.12l.39,1.08A.25.25,0,0,1,148.74,98.22Z"/><path class="cls-8" d="M159.25,89l-.27.26c0,.06-.14,0-.19-.05l-.43-.83a.22.22,0,0,1,0-.26l.27-.26a.12.12,0,0,1,.19,0l.44.83A.24.24,0,0,1,159.25,89Z"/><path class="cls-5" d="M159.15,89l-.21.2s-.11,0-.14,0l-.33-.64a.18.18,0,0,1,0-.2l.21-.2c.05,0,.11,0,.15,0l.33.63A.16.16,0,0,1,159.15,89Z"/><path class="cls-9" d="M159.1,89l-.21.19s-.11,0-.15,0l-.33-.64a.18.18,0,0,1,0-.2l.2-.2a.1.1,0,0,1,.15.05l.33.63A.2.2,0,0,1,159.1,89Z"/><path class="cls-8" d="M158.33,87.31l-.27.26c-.06.06-.14,0-.19,0l-.43-.83a.22.22,0,0,1,0-.26l.27-.26c.06-.06.14,0,.19,0l.44.83A.24.24,0,0,1,158.33,87.31Z"/><path class="cls-5" d="M158.23,87.27l-.21.2a.09.09,0,0,1-.14,0l-.33-.64a.18.18,0,0,1,0-.2l.21-.2s.11,0,.15,0l.33.63A.18.18,0,0,1,158.23,87.27Z"/><path class="cls-9" d="M158.18,87.26l-.21.2c-.05.05-.11,0-.15,0l-.33-.63a.18.18,0,0,1,0-.21l.2-.2a.1.1,0,0,1,.15.05l.33.63A.18.18,0,0,1,158.18,87.26Z"/><path class="cls-8" d="M159.78,85.92l-.27.26a.11.11,0,0,1-.19-.05l-.44-.83a.24.24,0,0,1,0-.26l.27-.26c0-.06.14,0,.19,0l.43.83A.22.22,0,0,1,159.78,85.92Z"/><path class="cls-5" d="M159.68,85.88l-.21.2c-.05,0-.11,0-.15,0L159,85.4a.17.17,0,0,1,0-.2l.21-.2s.1,0,.14,0l.33.63A.18.18,0,0,1,159.68,85.88Z"/><path class="cls-9" d="M159.62,85.88l-.21.19c0,.05-.11,0-.14,0l-.34-.64a.2.2,0,0,1,0-.2l.21-.2s.11,0,.14.05l.34.63A.2.2,0,0,1,159.62,85.88Z"/><path class="cls-8" d="M160.7,87.64l-.27.26a.12.12,0,0,1-.19-.05L159.8,87a.24.24,0,0,1,0-.26l.27-.26c.06-.06.14,0,.19.06l.43.82A.22.22,0,0,1,160.7,87.64Z"/><path class="cls-5" d="M160.6,87.6l-.21.2s-.11,0-.15,0l-.33-.64a.16.16,0,0,1,0-.2l.21-.2s.11,0,.14,0l.33.63A.18.18,0,0,1,160.6,87.6Z"/><path class="cls-9" d="M160.54,87.6l-.21.19s-.11,0-.14,0l-.34-.63a.22.22,0,0,1,0-.21l.21-.19s.11,0,.14,0l.34.64A.18.18,0,0,1,160.54,87.6Z"/><path class="cls-8" d="M167.46,79.34l-.12.16a.07.07,0,0,1-.11,0l-.26-.41a.17.17,0,0,1,0-.14l.13-.16a.06.06,0,0,1,.1,0l.26.4A.12.12,0,0,1,167.46,79.34Z"/><path class="cls-5" d="M167.41,79.32l-.1.13c-.08,0-.28-.32-.28-.32a.11.11,0,0,1,0-.11l.1-.12c.08,0,.28.32.28.32A.09.09,0,0,1,167.41,79.32Z"/><path class="cls-9" d="M167.38,79.33l-.1.12c-.08,0-.28-.32-.28-.32a.11.11,0,0,1,0-.11l.1-.12c.08,0,.28.32.28.32A.11.11,0,0,1,167.38,79.33Z"/><path class="cls-8" d="M166.91,78.5l-.13.17s-.07,0-.1,0l-.26-.4a.12.12,0,0,1,0-.14l.13-.16s.07,0,.1,0l.26.4A.12.12,0,0,1,166.91,78.5Z"/><path class="cls-5" d="M166.86,78.49l-.1.13c-.08,0-.28-.32-.28-.32a.11.11,0,0,1,0-.11l.1-.13c.08,0,.28.32.28.32A.11.11,0,0,1,166.86,78.49Z"/><path class="cls-9" d="M166.83,78.49l-.1.13c-.08,0-.28-.32-.28-.32a.11.11,0,0,1,0-.11l.1-.13c.08,0,.28.32.28.32A.11.11,0,0,1,166.83,78.49Z"/><path class="cls-8" d="M167.6,77.64l-.13.16s-.07,0-.1,0l-.26-.4a.12.12,0,0,1,0-.14l.13-.16s.07,0,.1,0l.26.4A.12.12,0,0,1,167.6,77.64Z"/><path class="cls-5" d="M167.54,77.63l-.09.12c-.08,0-.28-.31-.28-.31a.11.11,0,0,1,0-.11l.1-.13c.07,0,.27.32.27.32A.08.08,0,0,1,167.54,77.63Z"/><path class="cls-9" d="M167.51,77.63l-.09.12c-.08,0-.28-.31-.28-.31a.11.11,0,0,1,0-.11l.1-.13c.08,0,.27.32.27.32A.08.08,0,0,1,167.51,77.63Z"/><path class="cls-8" d="M168.15,78.48l-.13.16s-.07,0-.1,0l-.26-.4a.12.12,0,0,1,0-.14l.13-.16a.06.06,0,0,1,.1,0l.26.41A.12.12,0,0,1,168.15,78.48Z"/><path class="cls-5" d="M168.1,78.46l-.1.13c-.08,0-.28-.32-.28-.32a.11.11,0,0,1,0-.11l.1-.12c.08,0,.28.32.28.32A.09.09,0,0,1,168.1,78.46Z"/><path class="cls-9" d="M168.07,78.46l-.1.13c-.08,0-.28-.32-.28-.32a.11.11,0,0,1,0-.11l.1-.12c.08,0,.28.32.28.32A.09.09,0,0,1,168.07,78.46Z"/><polygon class="cls-4" points="121.8 88.94 122.73 83.44 125.06 88.5 121.8 88.94"/><polygon class="cls-4" points="144.61 82.2 143.73 76.7 147.56 80.74 144.61 82.2"/><polygon class="cls-4" points="165.53 69 164.02 63.63 168.29 67.21 165.53 69"/><polygon class="cls-4" points="180.43 57.08 178.03 52.05 182.85 54.84 180.43 57.08"/><polygon class="cls-4" points="104.6 91.15 105.09 85.59 107.82 90.46 104.6 91.15"/><polygon class="cls-4" points="82.57 89.66 84.75 84.52 85.84 89.99 82.57 89.66"/><polygon class="cls-4" points="63.41 83.5 66.38 78.78 66.58 84.35 63.41 83.5"/><polygon class="cls-4" points="46.59 76.67 49.56 71.95 49.77 77.52 46.59 76.67"/><path class="cls-3" d="M194.48,35.09c-.46,2.37-15.56,78.31-75.26,86.23C57,129.58,26.51,64.87,24.5,60.41a211.57,211.57,0,0,0,20,22c.12.11.18.18.21.21C120.73,154.32,179.44,78.66,194.48,35.09Z"/><path class="cls-10" d="M149.64,88l-.74.43-1.45.84c-.23.14-.48.27-.73.4l-.74.38-1.48.76-.75.39-.37.19-.38.17a84.73,84.73,0,0,1-12.5,4.82l-1.61.47-.81.23-.82.19-1.64.4-.81.19c-.28.06-.55.14-.82.19l-3.31.62c-.55.1-1.11.17-1.66.25l-1.67.24a89.38,89.38,0,0,1-26.64-.71c-2.9-.51-5.77-1.15-8.6-1.9C89.26,94.47,121.64,85.55,149.64,88Z"/><path class="cls-4" d="M28,61.37l.46.14-2.73-.76Z"/><path class="cls-11" d="M187.25,40.59,185,42.81c-2.23.66-6.66,4.51-8.2,7.24-3.82-.58-13.82,6.1-16.42,9.13-7-1.29-17.14,5.11-20,8.27-7.19-4.47-16,2-19.8,4.76-4.23-3.77-13.69-.79-17.54,1.22-2.4-2.35-18.93.73-18.93.73-2.3-2-12.54-2.93-17.71-.65-1.23-2.18-11.8-5-17.26-4.71-.67-1.17-8.59-3.74-15.28-5.73C58.92,69.88,128.37,83,187.25,40.59Z"/></g></g></svg>