<svg xmlns="http://www.w3.org/2000/svg" viewBox="0 0 303.78 191.27"><defs><style>.cls-1,.cls-2{fill:#8c3494;}.cls-1{fill-rule:evenodd;}</style></defs><title>Rocket</title><g id="Layer_2" data-name="Layer 2"><g id="Layer_1-2" data-name="Layer 1"><polygon class="cls-1" points="225.77 24.81 180.88 69.69 184.03 94.89 192.3 77.57 217.89 110.25 253.72 0 134.41 49.61 166.7 66.54 225.77 24.81"/><path class="cls-2" d="M186.78,103.56H139.53c-36,5.51-39.77,57.88-.39,65h47.64V121.27c15.89.53,19.17,20.35,7.49,27.57,2.36,2.75,11.81,13,11.81,13C230.88,140.44,216.71,105.26,186.78,103.56Zm-17.31,47.25H143.09c-16.34,1-21.66-26-1.58-29.54h28Z"/><path class="cls-1" d="M285.62,127.18H268.29l-7.48,17.33h22.05c4.43-.2,4.63,6.3,0,6.69H244.67V121.27h58.66V103.56h-8.66c-2.56-36.62-46.36-37.71-57.88-17.72,2.26,1.87,13,11.42,13,11.42,6.6-10.34,24.91-9.85,27.57,6.3h-50v65h56.31c12.79-.19,18.7-9.64,20.08-17.71C304.52,137.81,296.64,129.15,285.62,127.18Z"/><path class="cls-1" d="M117.09,103.56H94.25c-7.28,8.86-19.88,44.69,5.12,71.66,0,0,10.83-9.25,13-11C104.68,156.71,91.89,126.2,117.09,103.56Z"/><path class="cls-1" d="M59,175.84a14.32,14.32,0,1,1-14.32-14.31A14.32,14.32,0,0,1,59,175.84Z"/><path class="cls-1" d="M28.49,103.56c-36,5.51-39.76,57.88-.39,65h.26a17.85,17.85,0,0,1,32.56,0H75.74v-65Zm29.93,47.25H32c-16.34,1-21.66-26-1.58-29.54h28Z"/><path class="cls-1" d="M45.43,88.2c5.8-1,8.66-12.9-.79-15.55H29.28V95.29h6.3V88.2l7.09,7.09h9.85Zm-.75-8a1.49,1.49,0,0,1-1.49,1.49H35.66V78.54h7.53A1.49,1.49,0,0,1,44.68,80Z"/><path class="cls-1" d="M63.48,72.29A11.48,11.48,0,1,0,75,83.76,11.48,11.48,0,0,0,63.48,72.29Zm0,16.51a5,5,0,1,1,5.05-5A5,5,0,0,1,63.48,88.8Z"/><path class="cls-1" d="M128.57,78.81h10.31V72.16h-8.72c-6.86,0-12.48,5.18-12.48,11.5s5.62,11.51,12.48,11.51h8.72V88.52H128.57a4.72,4.72,0,0,1-3.73-1.84h14v-6h-14A4.72,4.72,0,0,1,128.57,78.81Z"/><path class="cls-1" d="M87.58,88.52a4.74,4.74,0,0,1-4.72-4.72v-.27a4.73,4.73,0,0,1,4.72-4.72h9.8V72.16H88.59c-6.86,0-12.47,5.18-12.47,11.5s5.61,11.51,12.47,11.51h8.79V88.52Z"/><polygon class="cls-1" points="162.83 72.59 140.61 72.59 140.61 78.55 148.74 78.55 148.74 94.82 154.69 94.82 154.69 78.55 162.83 78.55 162.83 72.59"/><polygon class="cls-2" points="109.94 83.62 120.88 72.59 112.02 72.59 105.87 78.8 105.87 72.59 99.92 72.59 99.92 94.82 105.87 94.82 105.87 88.45 112.19 94.82 121.04 94.82 109.94 83.62"/><path class="cls-2" d="M199.42,179.54a4.24,4.24,0,0,0-2.59,1.86,5,5,0,0,0-1.08,3,4.37,4.37,0,0,0,.38,1.77c.32.73.76,1.09,1.3,1.09a2.1,2.1,0,0,0,1.08-.45l.62,1.65a3.13,3.13,0,0,1-1.63.51,3.27,3.27,0,0,1-2.07-.8,4.34,4.34,0,0,1-1.09-1.77,5.44,5.44,0,0,1-.26-1.92v-.61q0-2,2.15-4.55a17.76,17.76,0,0,1,1.53-1.47H200v1.63Z"/><path class="cls-2" d="M209.37,179.49v9.35H207.5v-1.21a2.66,2.66,0,0,0-.95-1.6,9.43,9.43,0,0,0-1.5-1.28,3.29,3.29,0,0,0-1.9-.6,1.61,1.61,0,0,0-1.53.9.46.46,0,0,0-.06.25.91.91,0,0,0,.37.68,1.16,1.16,0,0,0,.74.3,5.88,5.88,0,0,0,1.43-.44l.55,1.7a4.78,4.78,0,0,1-2.09.64,3,3,0,0,1-1.71-.52,3.11,3.11,0,0,1-1.13-1.38,2.39,2.39,0,0,1-.16-.91,2.68,2.68,0,0,1,1.32-2.42,3.49,3.49,0,0,1,2-.6H203a2,2,0,0,0-.52-1.11,1.35,1.35,0,0,0-1-.6h-2.07v-1.15h-.84v-1.64h12v1.64Zm-1.87,0h-4.4a3.86,3.86,0,0,1,2,3.16,6.9,6.9,0,0,1,2.45,1.85Z"/><path class="cls-2" d="M213,179.49v9.35h-1.87v-9.35h-1.38v-1.64h4.5v1.64Z"/><path class="cls-2" d="M222,179.49h-8.42v-1.64h11.66v1.64H224v9.35h-1.65c-.16-.48-1-1.22-2.43-2.23a11,11,0,0,0-2.46-1.21,8.35,8.35,0,0,0-2.67-.62l-.5-1.86a20.93,20.93,0,0,1,3.62-1.8C218.71,180.75,220.1,180.21,222,179.49Zm.11,2c-.35.12-.72.25-1.12.41l-3.2,1.4-.36.15a15.55,15.55,0,0,1,4.24,2.3c.17.13.32.23.44.33Z"/><path class="cls-2" d="M227.62,179.49v9.35h-1.87v-9.35h-1.38v-1.64h4.49v1.64Z"/><path class="cls-2" d="M228.21,179.49v-1.64h5.52a.45.45,0,0,0,0-.14,1.62,1.62,0,0,0-1.21-1.69,1.28,1.28,0,0,0-.36,0,3.23,3.23,0,0,0-.73.11l-.72.18a2.22,2.22,0,0,0-.83.3,6.5,6.5,0,0,1-1.05.57l-.6-1.39a10.64,10.64,0,0,1,2.82-1.27,5,5,0,0,1,1.39-.21,3.25,3.25,0,0,1,1.57.5,3.42,3.42,0,0,1,1.55,3.08h1.08v1.64Zm6.5,10.92a25.65,25.65,0,0,0-2.43-1.92,9.55,9.55,0,0,0-2-.94,6.82,6.82,0,0,0-1.33-.41l0-2.19.72,0,.73,0a5.45,5.45,0,0,0,2.06-.33c1-.42,1.51-.92,1.51-1.49a1.27,1.27,0,0,0-.57-1.06q-.56-.33-1.14-.63a.71.71,0,0,0-.31-.08,1.82,1.82,0,0,0-.74.18c-.33.15-.48.32-.46.51.07.49.58.69,1.53.62l-1,1.55a2.06,2.06,0,0,1-1.25-.39,2.25,2.25,0,0,1-1.15-1.9,1.92,1.92,0,0,1,1.17-1.75,4.43,4.43,0,0,1,2.19-.52,2.19,2.19,0,0,1,.92.17q.39.18.78.39a3.12,3.12,0,0,1,1.91,2.94,2.72,2.72,0,0,1-1.17,2.29,6,6,0,0,1-2.56,1c.33.16.8.42,1.43.79a27.59,27.59,0,0,1,2.56,2.16Z"/><path class="cls-2" d="M247.84,179.49v9.35H246v-3.71a1.67,1.67,0,0,0-.41-1,1.18,1.18,0,0,0-.9-.51,1.09,1.09,0,0,0-.83.54,2.06,2.06,0,0,0-.4,1.23h-2a2.26,2.26,0,0,0-.4-1.34,1.13,1.13,0,0,0-.92-.56,1.35,1.35,0,0,0-.84.31,1.08,1.08,0,0,0-.44.72l-.06.49v.19q0,1.44,1.77,1.44a6.4,6.4,0,0,0,.95-.12l-.66,1.89c-.38.05-.61.07-.69.07a3.67,3.67,0,0,1-2.43-1,2.65,2.65,0,0,1-.71-1.13,3.82,3.82,0,0,1-.26-1.32,3.23,3.23,0,0,1,3.38-3.41,2.83,2.83,0,0,1,2.37,1.35,2.87,2.87,0,0,1,2.23-1.35,1.82,1.82,0,0,1,1.27.6v-2.76h-10.1v-1.64h13v1.64Z"/><path class="cls-2" d="M261.87,179.49h-8.43v-1.64h11.67v1.64h-1.3v9.35h-1.65c-.16-.48-1-1.22-2.43-2.23a11,11,0,0,0-2.46-1.21,8.35,8.35,0,0,0-2.67-.62l-.5-1.86a20.93,20.93,0,0,1,3.62-1.8C258.55,180.75,259.94,180.21,261.87,179.49Zm.11,2c-.35.12-.72.25-1.12.41l-3.2,1.4-.36.15a15.55,15.55,0,0,1,4.24,2.3l.44.33Z"/><path class="cls-2" d="M268.24,179.49a3.78,3.78,0,0,0-.88,2,18.63,18.63,0,0,0,.9,3,6.55,6.55,0,0,1,.48,2.17,2.32,2.32,0,0,1-1.83,2.27,8.47,8.47,0,0,1-2,.36l.26-1.62q1.65-.36,1.65-1.17a6.66,6.66,0,0,0-.69-2.34,6.65,6.65,0,0,1-.69-2.32,5,5,0,0,1,.8-2.33h-1.94v-1.64h5.21v1.64Z"/><path class="cls-2" d="M272.24,179.49v9.35h-1.87v-9.35H269v-1.64h4.49v1.64Z"/><path class="cls-2" d="M276.56,183.92a2.79,2.79,0,0,1-2.11-.83,2.94,2.94,0,0,1-.79-2.13,2.73,2.73,0,0,1,.81-2,2.77,2.77,0,0,1,2-.81,2.49,2.49,0,0,1,2.39,1.65,3.36,3.36,0,0,1,.31,1.38,2.86,2.86,0,0,1-.68,2A2.56,2.56,0,0,1,276.56,183.92Zm2.05,6a30.85,30.85,0,0,0-4.83-3.59l0-2.59a30.64,30.64,0,0,1,6.4,5.58v1.93ZM277,180.11a.75.75,0,0,0-.56-.15c-.71.11-1.06.46-1.06,1a1.21,1.21,0,0,0,.35.82,1.06,1.06,0,0,0,.79.38l.26,0a1,1,0,0,0,.8-1A1.27,1.27,0,0,0,277,180.11Z"/><path class="cls-2" d="M292,176.75a10.93,10.93,0,0,0-5.35-2.05,4.21,4.21,0,0,0-3.61,1.55,2.88,2.88,0,0,0-.43,1.6h1.31v1.64h-1.31v9.35h-1.91v-9.35h-1.24v-1.64h1.24a4.55,4.55,0,0,1,1.31-3.23,5.75,5.75,0,0,1,3.4-1.53l.84-.1h.4a8.48,8.48,0,0,1,3.4.74c.6.28,1.61.85,3,1.7Z"/><path class="cls-2" d="M290.41,179.49v.06a5.6,5.6,0,0,1,2.44.74,3,3,0,0,1,1.79,2.65,2.51,2.51,0,0,1-.6,1.68,2.8,2.8,0,0,1-1.56.94,3.78,3.78,0,0,1-1.65.07v-1.77a4.22,4.22,0,0,0,.6,0c.93,0,1.4-.34,1.4-1s-.81-1.31-2.42-1.52v7.47h-1.66a5.18,5.18,0,0,0-.79-1.2c-.09-.11-.33-.42-.72-.94a4.35,4.35,0,0,0-.65-.64,3.37,3.37,0,0,1-.66-.64,1.06,1.06,0,0,0-.44-.25,6.4,6.4,0,0,0-2-.43l-.49-1.86c.41-.3,1.34-.85,2.78-1.67l1.32-.77,1.4-.82v-.13h-5.9v-1.64h12.84v1.64Zm-1.88,2.16c-.3.23-.77.54-1.39.93a1.82,1.82,0,0,0-.55.4c-.2.2-.4.38-.58.55.2.18.51.43.95.76l1.57,1.73Z"/><path class="cls-2" d="M298.26,183.92a2.79,2.79,0,0,1-2.11-.83,2.94,2.94,0,0,1-.79-2.13,2.73,2.73,0,0,1,.81-2,2.76,2.76,0,0,1,2-.81,2.47,2.47,0,0,1,2.38,1.65,3.22,3.22,0,0,1,.32,1.38,2.86,2.86,0,0,1-.68,2A2.56,2.56,0,0,1,298.26,183.92Zm2,6a30.38,30.38,0,0,0-4.83-3.59l0-2.59c3.25,2.34,5.39,4.2,6.39,5.58v1.93Zm-1.65-9.83a.76.76,0,0,0-.56-.15c-.71.11-1.06.46-1.06,1a1.21,1.21,0,0,0,.35.82,1.06,1.06,0,0,0,.79.38l.26,0a1,1,0,0,0,.8-1A1.29,1.29,0,0,0,298.65,180.11Z"/><polygon class="cls-2" points="91.51 189.64 95 190.82 96.39 189.64 92.91 188.42 91.51 189.64"/><path class="cls-2" d="M92.67,180v-2.11H65.31V180h4.6v4.71h4s1.12-.36,1.39-.93v1.86a1.49,1.49,0,0,1-1.39,1.55H68.05c-.35,0-.7-.15-.7-1.55v-4.39h-2v5.63c0,.47.29,2.11,1.76,2.11h7.87a2.5,2.5,0,0,0,2.17-2.34v-5.4H75.25c-.19.83-.08,1.39-.93,1.6H72V180h6.74v9h2.32v-9h1.62v9h7.67a2.39,2.39,0,0,0,2.32-2.42v-5.32H90.81c0,.52-.07,1.29-.92,1.29H84.77V180Zm-3,4.4c.35.1.82-.46,1.16-.93v2.17c0,.83-.65,1.55-1.16,1.55H84.77v-2.79Z"/><rect class="cls-2" x="95.23" y="182.51" width="4.65" height="2.48"/><path class="cls-2" d="M102.44,177.86V180h7.65v1.25h-7.65v5c.16,1.63,1,2.73,2.59,2.73H112v-9h1.63v9h2.09v-11.1Zm7.65,9.61h-4.64c-.7-.1-1.16-.93-1.16-1.86v-2.48h5.8Z"/><path class="cls-2" d="M125.7,180h9.48v1.25h-2.79a.93.93,0,0,1-1.86,0H125.7v5.32c0,.52.08,2.21,1.5,2.42H131v-1.8h-2.56a1.17,1.17,0,0,1-.93-1.24v-2.79h2.56v1.55h2.32v-1.24c-.15-.57,2.44-.52,2.56,0V189H137v-9h1.39v9h2.09v-11.1H125.7Z"/><path class="cls-2" d="M122.4,178.48h-4.93v2.91a2.4,2.4,0,0,0,2.38,2.17h4V180A1.73,1.73,0,0,0,122.4,178.48Zm-1.5,3.11c-.89,0-1.61-.33-1.61-.73s.72-.73,1.61-.73,1.61.33,1.61.73S121.79,181.59,120.9,181.59Z"/><polygon class="cls-2" points="117.8 184.66 117.8 186.49 123.76 188.96 123.76 187.02 117.8 184.66"/><path class="cls-2" d="M172.45,178.48h-4.94v2.91a2.41,2.41,0,0,0,2.38,2.17h4V180A1.72,1.72,0,0,0,172.45,178.48Zm-1.5,3.11c-.9,0-1.62-.33-1.62-.73s.72-.73,1.62-.73,1.61.33,1.61.73S171.84,181.59,171,181.59Z"/><polygon class="cls-2" points="167.84 184.66 167.84 186.49 173.81 188.96 173.81 187.02 167.84 184.66"/><path class="cls-2" d="M185.12,181.22V180H189v-2.11H175.61V180h7.65v1.25h-7.65v5c.17,1.63,1,2.73,2.59,2.73h6.92v-5.52H187c.31,0,.39-.15.46.31v.93c-.11.47-.15.78-.46.93h-.69v1.86h1.39a1.75,1.75,0,0,0,1.39-1.24v-5Zm-1.86,6.25h-4.64c-.7-.1-1.16-.93-1.16-1.86v-2.48h5.77l0,.31h0Z"/><path class="cls-2" d="M146.78,177.86V180h7.65v1.25h-7.65v5c.16,1.63,1,2.73,2.59,2.73h6.92v-9h2.42l-.88,1.76V183h1.62c.87.1,1.16.67,1.16,2.17,0,1-.23,1.78-1,1.86h-1.52v1.86h1.63c.46,0,2.59.21,2.78-1.86.23-4.18.43-5.27-2.55-5.58l.43-1.45h3.28v9h2.09v-11.1Zm7.65,9.61h-4.65c-.69-.1-1.16-.93-1.16-1.86v-2.48h5.81Z"/></g></g></svg>