<svg xmlns="http://www.w3.org/2000/svg" viewBox="0 0 258.8 157.08"><defs><style>.cls-1{fill:#5dd8db;}.cls-2{fill:#b20a25;}.cls-3{fill:#ff9c9c;}.cls-4{fill:#eb9d9d;}.cls-5{fill:#ff8585;}.cls-6{fill:#fc7e7e;}.cls-7{fill:#fc6262;}.cls-8{fill:#cad4d9;}.cls-9{fill:#ccd6db;}.cls-10{fill:#ced9de;}.cls-11{fill:#d0dbe0;}.cls-12{fill:#d3dde3;}.cls-13{fill:#d5dfe5;}.cls-14{fill:#d7e2e7;}.cls-15{fill:#d9e4ea;}.cls-16{fill:#dbe6ec;}.cls-17{fill:#c7ab7b;}.cls-18{fill:#c9ad7d;}.cls-19{fill:#ccaf7e;}.cls-20{fill:#ceb180;}.cls-21{fill:#d0b381;}.cls-22{fill:#d3b683;}.cls-23{fill:#d5b784;}.cls-24{fill:#d8ba86;}.cls-25{fill:#dabc87;}.cls-26{fill:#d4e6e9;}.cls-27{fill:#d9e9ed;}.cls-28{fill:#ddedf1;}.cls-29{fill:#e2f0f5;}.cls-30{fill:#e6f4f9;}.cls-31{fill:#ebf7fd;}.cls-32{fill:#d7b281;}.cls-33{fill:#dbb884;}.cls-34{fill:#dfbf87;}.cls-35{fill:#e3c38b;}.cls-36{fill:#e7c68e;}.cls-37{fill:#ebca92;}.cls-38{fill:#d3dee3;}.cls-39{fill:#e3d5b1;}.cls-40{fill:#dbdbdb;}.cls-41{fill:#cfae80;}.cls-42{fill:#d4cbcb;}.cls-43{fill:#d45b5b;}.cls-44{fill:#c99f5f;}.cls-45{fill:#ffc2c2;}.cls-46{fill:#ffb0b0;}.cls-47{fill:#e8deb5;}.cls-48{fill:#ba844a;}</style></defs><title>Scaling</title><g id="Layer_2" data-name="Layer 2"><g id="Layer_1-2" data-name="Layer 1"><polygon class="cls-1" points="0 0 0 157.08 189.44 157.08 258.8 0 0 0"/><polygon class="cls-2" points="182.54 82.2 106.98 94.21 29.47 82.2 29.47 66.1 182.54 66.1 182.54 82.2"/><path class="cls-3" d="M106.74,90.28v31.26c-1.32,0-2.61,0-3.91,0-5.54-.11-10.76-.45-15.71-1A134.73,134.73,0,0,1,57,114,95.85,95.85,0,0,1,28.51,98.56l-.08-.06a15.16,15.16,0,0,1-5.5-11.66V77.15h0l23.57,6.63L62,88.13l7.63,2.15Z"/><path class="cls-4" d="M106.74,35.54V56c-34-.15-67.24-2.68-82.48-6.54l10.64-3,5.23-1.49c3.39-1,6.81-1.86,10.23-2.67A243.07,243.07,0,0,1,106.74,35.54Z"/><path class="cls-3" d="M106.74,50.84V79.62c-1.55.31-2.87.58-3.91.77L100,81l-.35-6.78-3.78-.53c-23.11-3.13-63.18-8.56-67-8.82-4.79-.34-4.68-9.5-4.61-11.66V46.61c0-1,0-1.82,0-2.31,2.91.74,6.51,1.44,10.64,2.07C52.28,49,79.27,50.73,106.74,50.84Z"/><path class="cls-5" d="M189.7,46.86V53c-19,4.88-51.19,9.67-82.71,9.54h-.25V50.84c14.36.07,28.87-.29,42.21-1.17,2.48-.17,5-.35,7.34-.54,8.32-.69,16-1.61,22.83-2.76,3.76-.63,7.24-1.35,10.37-2.14l.21,0C189.72,44.66,189.76,45.65,189.7,46.86Z"/><path class="cls-6" d="M106.74,62.57V79.62c-1.55.31-2.87.58-3.91.77L100,81l-.35-6.78-3.78-.53c-23.11-3.13-63.18-8.56-67-8.82-4.79-.34-4.68-9.5-4.61-11.66C39.5,57,72.73,62.41,106.74,62.57Z"/><path class="cls-7" d="M185.11,64.82c-4.46.33-59.06,11-78.37,14.8V62.57H107c31.52.13,63.67-4.66,82.71-9.54C189.79,54.92,190,64.48,185.11,64.82Z"/><path class="cls-6" d="M106.74,92.27v16.15c-1.32,0-2.61,0-3.91,0-5.54-.09-10.76-.43-15.71-1A135.31,135.31,0,0,1,57,100.84,95.18,95.18,0,0,1,28.51,85.42c-.94-.74-1.82-1.5-2.69-2.25l-2.88-6h0l11.88-5.35,11.7,12L47.71,85,62,88.13l9.83,2.15,31,6.76,1,.26-1-2.07-1.19-2.34Z"/><path class="cls-7" d="M191,77.14h0l-2.52,5.3c-1.44,1.29-3,2.57-4.58,3.79a94.39,94.39,0,0,1-26.08,14.12c-13.5,4.87-30.29,8.06-51.08,8.06h0V90.28h16.92l35.51-4.22,11.49-3.2,13.25-10.75Z"/><path class="cls-8" d="M184.09,84.49c-1.88.87-4.43,1.31-5.84-3.83a47.64,47.64,0,0,1-1.11-5.21,3.56,3.56,0,0,1,1.56-3.66l4.46-2.3c1.36-.7,2.86.32,3.17,2.19C187,76,187.58,82.88,184.09,84.49Z"/><path class="cls-9" d="M179.21,88.07c-2,.82-4.35,1.37-5.89-4.47A38,38,0,0,1,172.24,78a3.58,3.58,0,0,1,1.82-3.71l4.63-2c1.48-.62,3,.57,3.26,2.55C182.51,79.35,182.7,86.65,179.21,88.07Z"/><path class="cls-10" d="M172.89,91.74c-2.18.78-4.29,1.45-5.95-5.09a35.18,35.18,0,0,1-1.05-6A3.66,3.66,0,0,1,168,76.9l4.8-1.79c1.6-.55,3.19.81,3.36,2.91C176.54,82.84,176.37,90.51,172.89,91.74Z"/><path class="cls-11" d="M165.28,95.36c-2.34.71-4.21,1.51-6-5.72a32.72,32.72,0,0,1-1-6.37,3.72,3.72,0,0,1,2.35-3.83l5-1.54c1.72-.47,3.35,1.06,3.46,3.28C169.29,86.27,168.75,94.29,165.28,95.36Z"/><path class="cls-12" d="M156.55,98.75c-2.49.65-4.13,1.59-6.05-6.35a31.12,31.12,0,0,1-1-6.76,3.82,3.82,0,0,1,2.61-3.89l5.14-1.27c1.83-.4,3.51,1.3,3.56,3.64C160.92,89.49,160,97.84,156.55,98.75Z"/><path class="cls-13" d="M146.88,101.76c-2.65.58-4.06,1.66-6.11-7a30.51,30.51,0,0,1-1-7.14,3.91,3.91,0,0,1,2.87-4l5.3-1c2-.33,3.68,1.55,3.66,4C151.6,92.32,150.32,101,146.88,101.76Z"/><path class="cls-14" d="M136.44,104.23c-2.81.5-4,1.73-6.16-7.6a30,30,0,0,1-.92-7.54,4,4,0,0,1,3.14-4l5.47-.77c2.07-.25,3.84,1.8,3.75,4.38C141.52,94.61,139.86,103.62,136.44,104.23Z"/><path class="cls-15" d="M125.4,106c-3,.42-3.91,1.8-6.21-8.23a29.6,29.6,0,0,1-.89-7.92c.16-2.2,1.61-3.92,3.4-4.06l5.64-.51c2.18-.18,4,2,3.85,4.74C130.84,96.2,128.8,105.52,125.4,106Z"/><path class="cls-16" d="M113.92,106.91c-3.12.33-3.84,1.88-6.26-8.86a29.77,29.77,0,0,1-.86-8.3c.22-2.3,1.78-4,3.67-4.12l5.8-.26c2.31-.1,4.17,2.29,4,5.11C119.72,96.93,117.31,106.56,113.92,106.91Z"/><path class="cls-17" d="M29.41,84.49c1.88.87,4.43,1.31,5.84-3.83a47.64,47.64,0,0,0,1.11-5.21,3.57,3.57,0,0,0-1.55-3.66l-4.47-2.3c-1.36-.7-2.86.32-3.16,2.19C26.47,76,25.92,82.88,29.41,84.49Z"/><path class="cls-18" d="M34.29,88.07c2,.82,4.35,1.37,5.89-4.47A38,38,0,0,0,41.26,78a3.58,3.58,0,0,0-1.82-3.71l-4.63-2c-1.48-.62-3,.57-3.26,2.55C31,79.35,30.8,86.65,34.29,88.07Z"/><path class="cls-19" d="M40.62,91.74c2.18.78,4.28,1.45,5.94-5.09a35.18,35.18,0,0,0,1-6,3.65,3.65,0,0,0-2.08-3.77l-4.8-1.79c-1.6-.55-3.19.81-3.36,2.91C37,82.84,37.13,90.51,40.62,91.74Z"/><path class="cls-20" d="M48.22,95.36c2.34.71,4.21,1.51,6-5.72a32.72,32.72,0,0,0,1-6.37,3.72,3.72,0,0,0-2.35-3.83l-5-1.54c-1.72-.47-3.35,1.06-3.46,3.28C44.21,86.27,44.75,94.29,48.22,95.36Z"/><path class="cls-21" d="M57,98.75c2.49.65,4.14,1.59,6-6.35a31.12,31.12,0,0,0,1-6.76,3.82,3.82,0,0,0-2.61-3.89l-5.14-1.27c-1.83-.4-3.51,1.3-3.56,3.64C52.58,89.49,53.5,97.84,57,98.75Z"/><path class="cls-22" d="M66.62,101.76c2.65.58,4.06,1.66,6.11-7a30.51,30.51,0,0,0,1-7.14,3.91,3.91,0,0,0-2.87-4l-5.3-1c-2-.33-3.68,1.55-3.66,4C61.9,92.32,63.19,101,66.62,101.76Z"/><path class="cls-23" d="M77.06,104.23c2.81.5,4,1.73,6.16-7.6a30,30,0,0,0,.92-7.54,4,4,0,0,0-3.14-4l-5.46-.77c-2.07-.25-3.85,1.8-3.76,4.38C72,94.61,73.64,103.62,77.06,104.23Z"/><path class="cls-24" d="M88.1,106c3,.42,3.92,1.8,6.21-8.23a29.6,29.6,0,0,0,.89-7.92c-.16-2.2-1.61-3.92-3.4-4.06l-5.63-.51c-2.19-.18-4,2-3.86,4.74C82.66,96.2,84.7,105.52,88.1,106Z"/><path class="cls-25" d="M99.58,106.91c3.13.33,3.84,1.88,6.26-8.86a29.77,29.77,0,0,0,.86-8.3c-.22-2.3-1.78-4-3.67-4.12l-5.8-.26c-2.3-.1-4.17,2.29-4,5.11C93.78,96.93,96.19,106.56,99.58,106.91Z"/><path class="cls-8" d="M184.09,84.49c-1.88.87-4.43,1.31-5.84-3.83a47.64,47.64,0,0,1-1.11-5.21,3.56,3.56,0,0,1,1.56-3.66l4.46-2.3c1.36-.7,2.86.32,3.17,2.19C187,76,187.58,82.88,184.09,84.49Z"/><path class="cls-9" d="M179.21,88.07c-2,.82-4.35,1.37-5.89-4.47A38,38,0,0,1,172.24,78a3.58,3.58,0,0,1,1.82-3.71l4.63-2c1.48-.62,3,.57,3.26,2.55C182.51,79.35,182.7,86.65,179.21,88.07Z"/><path class="cls-10" d="M172.89,91.74c-2.18.78-4.29,1.45-5.95-5.09a35.18,35.18,0,0,1-1.05-6A3.66,3.66,0,0,1,168,76.9l4.8-1.79c1.6-.55,3.19.81,3.36,2.91C176.54,82.84,176.37,90.51,172.89,91.74Z"/><path class="cls-11" d="M165.28,95.36c-2.34.71-4.21,1.51-6-5.72a32.72,32.72,0,0,1-1-6.37,3.72,3.72,0,0,1,2.35-3.83l5-1.54c1.72-.47,3.35,1.06,3.46,3.28C169.29,86.27,168.75,94.29,165.28,95.36Z"/><path class="cls-12" d="M156.55,98.75c-2.49.65-4.13,1.59-6.05-6.35a31.12,31.12,0,0,1-1-6.76,3.82,3.82,0,0,1,2.61-3.89l5.14-1.27c1.83-.4,3.51,1.3,3.56,3.64C160.92,89.49,160,97.84,156.55,98.75Z"/><path class="cls-13" d="M146.88,101.76c-2.65.58-4.06,1.66-6.11-7a30.51,30.51,0,0,1-1-7.14,3.91,3.91,0,0,1,2.87-4l5.3-1c2-.33,3.68,1.55,3.66,4C151.6,92.32,150.32,101,146.88,101.76Z"/><path class="cls-14" d="M136.44,104.23c-2.81.5-4,1.73-6.16-7.6a30,30,0,0,1-.92-7.54,4,4,0,0,1,3.14-4l5.47-.77c2.07-.25,3.84,1.8,3.75,4.38C141.52,94.61,139.86,103.62,136.44,104.23Z"/><path class="cls-15" d="M125.4,106c-3,.42-3.91,1.8-6.21-8.23a29.6,29.6,0,0,1-.89-7.92c.16-2.2,1.61-3.92,3.4-4.06l5.64-.51c2.18-.18,4,2,3.85,4.74C130.84,96.2,128.8,105.52,125.4,106Z"/><path class="cls-16" d="M113.92,106.91c-3.12.33-3.84,1.88-6.26-8.86a29.77,29.77,0,0,1-.86-8.3c.22-2.3,1.78-4,3.67-4.12l5.8-.26c2.31-.1,4.17,2.29,4,5.11C119.72,96.93,117.31,106.56,113.92,106.91Z"/><path class="cls-26" d="M180.91,56.09c2.44-1.13,5.65-1.87,6.83,3.38a36.42,36.42,0,0,1,.79,5.35,4.36,4.36,0,0,1-2.34,4l-5.8,2.92a2.39,2.39,0,0,1-3.69-1.94C176.3,65.4,176.4,58.18,180.91,56.09Z"/><path class="cls-27" d="M173,59.07c2.74-.91,6.32-1.29,7.32,4.59a41.93,41.93,0,0,1,.58,5.93,4.42,4.42,0,0,1-2.8,4.07l-6.55,2.4a2.82,2.82,0,0,1-4-2.61C167.35,68.59,167.87,60.74,173,59.07Z"/><path class="cls-28" d="M162.34,61.24c3-.68,7-.69,7.82,5.8a45.56,45.56,0,0,1,.36,6.52,4.45,4.45,0,0,1-3.26,4.11L160,79.56a3.29,3.29,0,0,1-4.22-3.27C155.77,71,156.7,62.5,162.34,61.24Z"/><path class="cls-29" d="M149.31,62.67c3.36-.45,7.66-.1,8.31,7a48.82,48.82,0,0,1,.14,7.09A4.54,4.54,0,0,1,154,80.94l-8,1.37a3.78,3.78,0,0,1-4.48-3.93C141.75,72.62,143.09,63.51,149.31,62.67Z"/><path class="cls-30" d="M134.09,63.43c3.66-.23,8.32.48,8.8,8.23a52.16,52.16,0,0,1-.08,7.67,4.67,4.67,0,0,1-4.18,4.2l-8.78.86a4.29,4.29,0,0,1-4.73-4.6C125.55,73.59,127.3,63.85,134.09,63.43Z"/><path class="cls-31" d="M116.92,63.58c4,0,9,1.06,9.3,9.43a54.25,54.25,0,0,1-.3,8.26,4.82,4.82,0,0,1-4.63,4.25l-9.52.34a4.84,4.84,0,0,1-5-5.27C107.41,73.94,109.57,63.58,116.92,63.58Z"/><path class="cls-32" d="M32.59,56.09c-2.44-1.13-5.65-1.87-6.83,3.38A36.42,36.42,0,0,0,25,64.82a4.38,4.38,0,0,0,2.34,4l5.81,2.92a2.4,2.4,0,0,0,3.69-1.94C37.2,65.4,37.1,58.18,32.59,56.09Z"/><path class="cls-33" d="M40.55,59.07c-2.74-.91-6.32-1.29-7.32,4.59a40.28,40.28,0,0,0-.57,5.93,4.39,4.39,0,0,0,2.79,4.07L42,76.06a2.82,2.82,0,0,0,4-2.61C46.15,68.59,45.63,60.74,40.55,59.07Z"/><path class="cls-34" d="M51.16,61.24c-3-.68-7-.69-7.82,5.8A45.56,45.56,0,0,0,43,73.56a4.45,4.45,0,0,0,3.26,4.11l7.3,1.89a3.28,3.28,0,0,0,4.21-3.27C57.73,71,56.8,62.5,51.16,61.24Z"/><path class="cls-35" d="M64.19,62.67c-3.35-.45-7.66-.1-8.31,7a48.82,48.82,0,0,0-.14,7.09,4.54,4.54,0,0,0,3.72,4.16l8,1.37A3.77,3.77,0,0,0,72,78.38C71.75,72.62,70.41,63.51,64.19,62.67Z"/><path class="cls-36" d="M79.42,63.43c-3.66-.23-8.33.48-8.81,8.23a52.16,52.16,0,0,0,.08,7.67,4.67,4.67,0,0,0,4.18,4.2l8.78.86a4.29,4.29,0,0,0,4.73-4.6C88,73.59,86.2,63.85,79.42,63.43Z"/><path class="cls-37" d="M96.58,63.58c-4,0-9,1.06-9.3,9.43a54.25,54.25,0,0,0,.3,8.26,4.82,4.82,0,0,0,4.63,4.25l9.52.34a4.84,4.84,0,0,0,5-5.27C106.09,73.94,103.93,63.58,96.58,63.58Z"/><path class="cls-38" d="M186.19,67.54l-5.8,2.92-.19.07a4.27,4.27,0,0,1-2.15,1.83l-6.55,2.4a3.14,3.14,0,0,1-1.95.1,4.36,4.36,0,0,1-2.29,1.51L160,78.26a3.38,3.38,0,0,1-3-.57,4.47,4.47,0,0,1-3,2L146,81a3.76,3.76,0,0,1-3.66-1.37,4.66,4.66,0,0,1-3.72,2.6l-8.78.85A4.27,4.27,0,0,1,125.69,81a4.81,4.81,0,0,1-4.4,3.27l-9.52.34a4.84,4.84,0,0,1-5-4.18,1.36,1.36,0,0,1,0,.21,4.84,4.84,0,0,0,5,5.27l9.52-.34a4.84,4.84,0,0,0,4.4-3.27,4.29,4.29,0,0,0,4.16,2.14l8.78-.86a4.63,4.63,0,0,0,3.72-2.59A3.78,3.78,0,0,0,146,82.31l8-1.37a4.51,4.51,0,0,0,3-2,3.38,3.38,0,0,0,3,.57l7.29-1.89a4.37,4.37,0,0,0,2.29-1.52,3.13,3.13,0,0,0,1.95-.09l6.55-2.4a4.32,4.32,0,0,0,2.15-1.83l.19-.07,5.8-2.92a4.36,4.36,0,0,0,2.34-4c0-.16,0-.33,0-.5A4.44,4.44,0,0,1,186.19,67.54Z"/><path class="cls-39" d="M101.73,84.56l-9.52-.34A4.81,4.81,0,0,1,87.81,81a4.27,4.27,0,0,1-4.16,2.14l-8.78-.85a4.66,4.66,0,0,1-3.72-2.6A3.74,3.74,0,0,1,67.5,81l-8-1.37a4.47,4.47,0,0,1-3-2,3.37,3.37,0,0,1-3,.57l-7.3-1.89A4.36,4.36,0,0,1,44,74.86a3.1,3.1,0,0,1-1.94-.1l-6.56-2.4a4.27,4.27,0,0,1-2.15-1.83l-.18-.07-5.81-2.92A4.44,4.44,0,0,1,25,64.32c0,.17,0,.34,0,.5a4.38,4.38,0,0,0,2.34,4l5.81,2.92.18.07a4.32,4.32,0,0,0,2.15,1.83L42,76.06a3.1,3.1,0,0,0,1.94.09,4.37,4.37,0,0,0,2.29,1.52l7.3,1.89a3.37,3.37,0,0,0,3-.57,4.51,4.51,0,0,0,3,2l8,1.37a3.77,3.77,0,0,0,3.65-1.37,4.63,4.63,0,0,0,3.72,2.59l8.78.86a4.29,4.29,0,0,0,4.16-2.14,4.84,4.84,0,0,0,4.4,3.27l9.52.34a4.84,4.84,0,0,0,5-5.27,1.36,1.36,0,0,1,0-.21A4.84,4.84,0,0,1,101.73,84.56Z"/><path class="cls-40" d="M116.92,66.91c3.91,0,8.83,1,9.28,9.06,1.17-4.65,3.44-8.93,7.89-9.2,3.39-.22,7.65.39,8.63,6.67,1.06-3.74,3-7,6.59-7.43,2.84-.38,6.35-.18,7.76,4.2,1-2.77,2.57-5,5.27-5.63,2.25-.5,5-.63,6.58,1.91a6.82,6.82,0,0,1,4-4.09c1.6-.53,3.48-.86,5,.11a6.35,6.35,0,0,1,3-3.09c2.44-1.12,5.65-1.87,6.83,3.38.28,1.26.47,2.42.6,3.45a3.69,3.69,0,0,0,.19-1.43,36.42,36.42,0,0,0-.79-5.35c-1.18-5.25-4.39-4.51-6.83-3.38a6.29,6.29,0,0,0-3,3.08c-1.5-1-3.38-.63-5-.1a6.8,6.8,0,0,0-4,4.09c-1.61-2.55-4.33-2.42-6.58-1.92-2.7.6-4.31,2.86-5.27,5.63-1.41-4.37-4.92-4.58-7.76-4.2-3.57.49-5.53,3.7-6.59,7.43-1-6.28-5.24-6.88-8.63-6.67-4.45.28-6.72,4.55-7.89,9.21-.45-8-5.37-9.07-9.28-9.06-7.35,0-9.51,10.36-10.15,17a4.86,4.86,0,0,0,.18,1.75C107.77,75.75,110.14,66.92,116.92,66.91Z"/><path class="cls-41" d="M25.76,62.8c1.18-5.25,4.39-4.5,6.83-3.38a6.35,6.35,0,0,1,3,3.09c1.5-1,3.38-.64,5-.11a6.8,6.8,0,0,1,4,4.09c1.61-2.54,4.33-2.41,6.58-1.91,2.7.6,4.31,2.86,5.27,5.63,1.41-4.38,4.92-4.58,7.76-4.2,3.57.48,5.53,3.69,6.59,7.43,1-6.28,5.24-6.89,8.64-6.67,4.44.27,6.72,4.55,7.88,9.2.45-8,5.37-9.06,9.28-9.06,6.78,0,9.15,8.84,10,15.43a4.65,4.65,0,0,0,.18-1.75c-.64-6.65-2.8-17-10.15-17-3.91,0-8.83,1-9.28,9.06-1.16-4.66-3.44-8.93-7.88-9.21-3.4-.21-7.66.39-8.64,6.67-1.06-3.73-3-6.94-6.59-7.43-2.84-.38-6.35-.17-7.76,4.2-1-2.77-2.57-5-5.27-5.63-2.25-.5-5-.63-6.58,1.92a6.77,6.77,0,0,0-4-4.09c-1.6-.53-3.48-.87-5,.1a6.29,6.29,0,0,0-3-3.08c-2.44-1.13-5.65-1.87-6.83,3.38A36.42,36.42,0,0,0,25,64.82a3.69,3.69,0,0,0,.19,1.43C25.29,65.22,25.48,64.06,25.76,62.8Z"/><path class="cls-42" d="M184.09,83.08a4.4,4.4,0,0,1-2.5.49,4.51,4.51,0,0,1-2.38,3.08c-1.18.48-2.46.86-3.63-.05-.52,1.84-1.36,3.26-2.69,3.73-1.59.56-3.13,1.06-4.5-1.23-.57,2.43-1.54,4.36-3.11,4.84-2,.6-3.6,1.25-5.14-2.86-.63,3.15-1.74,5.77-3.59,6.25-2.29.61-3.87,1.43-5.6-4.63-.71,3.83-2,7.19-4.07,7.65-2.57.56-4,1.56-5.92-6.23-.82,4.34-2.3,8.3-4.52,8.7-2.8.5-4,1.71-6.14-7.51-1,4.66-2.62,9-4.9,9.28-3,.42-3.91,1.8-6.21-8.23l-.06-.29c-1.12,4.81-2.94,9.19-5.21,9.43-3.12.32-3.84,1.87-6.26-8.86a36.37,36.37,0,0,1-.89-6.33,31.81,31.81,0,0,0,.89,7.74c2.42,10.74,3.14,9.19,6.26,8.86,2.27-.23,4.09-4.62,5.21-9.43l.06.29c2.3,10,3.24,8.65,6.21,8.23,2.28-.32,3.94-4.62,4.9-9.28,2.16,9.23,3.34,8,6.14,7.51,2.22-.4,3.7-4.36,4.52-8.7,1.94,7.8,3.35,6.79,5.92,6.23,2.08-.46,3.36-3.82,4.07-7.64,1.73,6,3.31,5.23,5.6,4.63,1.85-.49,3-3.11,3.59-6.26,1.54,4.11,3.17,3.47,5.14,2.87,1.57-.49,2.54-2.41,3.11-4.84,1.37,2.28,2.91,1.79,4.5,1.22,1.33-.47,2.17-1.89,2.69-3.73,1.17.92,2.45.54,3.63.06A4.55,4.55,0,0,0,181.59,85a4.41,4.41,0,0,0,2.5-.5c2.28-1.06,2.83-4.39,2.75-7.76C186.74,79.58,186.05,82.17,184.09,83.08Z"/><path class="cls-43" d="M105.84,96.64c-2.42,10.73-3.13,9.18-6.26,8.86-2.27-.24-4.09-4.62-5.2-9.43,0,.09,0,.19-.07.29-2.29,10-3.24,8.65-6.21,8.23-2.28-.32-3.94-4.62-4.9-9.28-2.16,9.22-3.34,8-6.14,7.51-2.22-.4-3.7-4.36-4.52-8.7-1.94,7.79-3.35,6.79-5.92,6.23-2.07-.46-3.36-3.82-4.07-7.65-1.73,6.06-3.31,5.24-5.6,4.63-1.85-.48-3-3.1-3.59-6.25-1.54,4.11-3.17,3.46-5.14,2.86-1.57-.48-2.54-2.41-3.11-4.84-1.36,2.29-2.91,1.79-4.49,1.23-1.34-.47-2.18-1.89-2.7-3.73-1.17.91-2.45.53-3.63.05a4.53,4.53,0,0,1-2.38-3.08,4.42,4.42,0,0,1-2.5-.49c-2-.91-2.65-3.5-2.75-6.35-.08,3.37.47,6.7,2.75,7.76a4.43,4.43,0,0,0,2.5.5,4.58,4.58,0,0,0,2.38,3.08c1.18.48,2.46.86,3.63-.06.52,1.84,1.36,3.26,2.7,3.73,1.58.57,3.13,1.06,4.49-1.22.57,2.43,1.54,4.35,3.11,4.84,2,.6,3.6,1.24,5.14-2.87C54,95.64,55.1,98.26,57,98.75c2.29.6,3.87,1.42,5.6-4.63.71,3.82,2,7.18,4.07,7.64,2.57.56,4,1.57,5.92-6.23.82,4.34,2.3,8.3,4.52,8.7,2.8.5,4,1.72,6.14-7.51,1,4.66,2.62,9,4.9,9.28,3,.42,3.92,1.8,6.21-8.23,0-.1,0-.19.07-.29,1.11,4.81,2.93,9.2,5.2,9.43,3.13.33,3.84,1.88,6.26-8.86a31.81,31.81,0,0,0,.89-7.74A36.37,36.37,0,0,1,105.84,96.64Z"/><path class="cls-38" d="M106.8,91.31c.22-2.29,1.78-4,3.67-4.12l5.8-.25a3.57,3.57,0,0,1,3.09,1.72,3.36,3.36,0,0,1,2.34-1.3l5.64-.52a3.27,3.27,0,0,1,2.83,1.35,3.36,3.36,0,0,1,2.33-1.53l5.47-.77a3,3,0,0,1,2.53,1,3.27,3.27,0,0,1,2.19-1.61l5.3-1a2.74,2.74,0,0,1,2.17.6,3.19,3.19,0,0,1,2-1.52l5.14-1.27a2.41,2.41,0,0,1,1.69.25,3,3,0,0,1,1.66-1.3l5-1.53a2.32,2.32,0,0,1,1.11,0,2.87,2.87,0,0,1,1.29-1l4.8-1.78a1.83,1.83,0,0,1,.32-.07,2.7,2.7,0,0,1,1-.75l3.73-1.64a2.57,2.57,0,0,1,.91-.86l4.46-2.3c1.36-.7,2.86.32,3.17,2.19a37.28,37.28,0,0,1,.5,4.94,33.42,33.42,0,0,0-.5-6.51c-.31-1.87-1.81-2.89-3.17-2.19l-4.46,2.3a2.57,2.57,0,0,0-.91.86l-3.73,1.65a2.5,2.5,0,0,0-1,.75,1.8,1.8,0,0,0-.32.06L168,76.9a2.78,2.78,0,0,0-1.29,1,2.45,2.45,0,0,0-1.11,0l-5,1.54A2.91,2.91,0,0,0,159,80.73a2.46,2.46,0,0,0-1.69-.25l-5.14,1.27a3.19,3.19,0,0,0-2,1.52,2.74,2.74,0,0,0-2.17-.6l-5.3,1a3.25,3.25,0,0,0-2.19,1.62,3,3,0,0,0-2.53-1l-5.47.77a3.36,3.36,0,0,0-2.33,1.53,3.27,3.27,0,0,0-2.83-1.34l-5.64.51a3.4,3.4,0,0,0-2.34,1.3,3.57,3.57,0,0,0-3.09-1.72l-5.8.26c-1.89.08-3.45,1.82-3.67,4.12a17.11,17.11,0,0,0,0,2.06Z"/><path class="cls-44" d="M106.74,91.31c-.21-2.29-1.78-4-3.66-4.12l-5.81-.25a3.55,3.55,0,0,0-3.08,1.72,3.39,3.39,0,0,0-2.35-1.3l-5.63-.52a3.28,3.28,0,0,0-2.84,1.35,3.34,3.34,0,0,0-2.32-1.53l-5.47-.77a3,3,0,0,0-2.53,1,3.28,3.28,0,0,0-2.2-1.61l-5.3-1a2.71,2.71,0,0,0-2.16.6,3.18,3.18,0,0,0-2-1.52l-5.13-1.27a2.44,2.44,0,0,0-1.7.25A3,3,0,0,0,52.94,81l-5-1.53a2.28,2.28,0,0,0-1.1,0,2.84,2.84,0,0,0-1.3-1l-4.8-1.78a1.73,1.73,0,0,0-.31-.07,2.79,2.79,0,0,0-1-.75l-3.74-1.64a2.63,2.63,0,0,0-.9-.86l-4.47-2.3c-1.36-.7-2.85.32-3.16,2.19a37.2,37.2,0,0,0-.51,4.94,34.19,34.19,0,0,1,.51-6.51c.31-1.87,1.8-2.89,3.16-2.19l4.47,2.3a2.63,2.63,0,0,1,.9.86l3.74,1.65a2.57,2.57,0,0,1,1,.75,1.7,1.7,0,0,1,.31.06l4.8,1.79a2.75,2.75,0,0,1,1.3,1,2.41,2.41,0,0,1,1.1,0l5,1.54a2.89,2.89,0,0,1,1.65,1.29,2.49,2.49,0,0,1,1.7-.25l5.13,1.27a3.18,3.18,0,0,1,2,1.52,2.71,2.71,0,0,1,2.16-.6l5.3,1a3.27,3.27,0,0,1,2.2,1.62,3,3,0,0,1,2.53-1l5.47.77a3.34,3.34,0,0,1,2.32,1.53,3.27,3.27,0,0,1,2.84-1.34l5.63.51a3.42,3.42,0,0,1,2.35,1.3,3.55,3.55,0,0,1,3.08-1.72l5.81.26c1.88.08,3.45,1.82,3.66,4.12a15.26,15.26,0,0,1,0,2.06C106.76,91.64,106.76,91.47,106.74,91.31Z"/><path class="cls-6" d="M164.18,42.34a540.47,540.47,0,0,1-57.44,2.47V35.54H107A243.49,243.49,0,0,1,164.18,42.34Z"/><path class="cls-45" d="M189.71,44.3h0Z"/><path class="cls-45" d="M106.74,44.81v6C79.27,50.73,52.28,49,34.9,46.37c-4.13-.63-7.73-1.33-10.64-2.07l12.83-3.65c4,.57,8.46,1.1,13.27,1.56C66.43,43.78,86.45,44.73,106.74,44.81Z"/><path class="cls-46" d="M189.49,44.23c-3.13.79-6.61,1.51-10.37,2.14-6.79,1.15-14.51,2.07-22.83,2.76-2.39.19-4.86.37-7.34.54-13.34.88-27.85,1.24-42.21,1.17v-6a540.47,540.47,0,0,0,57.44-2.47h0c4.53-.47,8.83-1,12.83-1.66Z"/><path class="cls-5" d="M191,77.15V90.28l-2.54,5.31c-1.44,1.29-3,2.57-4.58,3.8a94.63,94.63,0,0,1-26.08,14.09c-13.5,4.9-30.29,8.06-51.08,8.06h0V108.42h0c20.79,0,37.58-3.19,51.08-8.06a94.39,94.39,0,0,0,26.08-14.12c1.62-1.22,3.14-2.5,4.58-3.79l2.52-5.3Z"/><path class="cls-47" d="M97.1,79.68a2.53,2.53,0,1,1-2.53-2.53A2.53,2.53,0,0,1,97.1,79.68Z"/><circle class="cls-47" cx="68.74" cy="92.67" r="2.53"/><path class="cls-47" d="M99.78,71.34a1,1,0,0,1-2,0,1,1,0,1,1,2,0Z"/><circle class="cls-47" cx="101.03" cy="100.78" r="1.03"/><path class="cls-47" d="M76.83,90.27a1.77,1.77,0,1,1-1.76-1.77A1.76,1.76,0,0,1,76.83,90.27Z"/><path class="cls-47" d="M41.86,67.41a1.77,1.77,0,1,1-1.77-1.77A1.77,1.77,0,0,1,41.86,67.41Z"/><path class="cls-47" d="M76.83,73.11a1.77,1.77,0,1,1-1.76-1.77A1.76,1.76,0,0,1,76.83,73.11Z"/><path class="cls-47" d="M89.6,100.37a1.77,1.77,0,1,1-1.77-1.76A1.77,1.77,0,0,1,89.6,100.37Z"/><path class="cls-47" d="M106.74,90.62c0,1-.44,1.77-1,1.77s-1-.79-1-1.77.45-1.77,1-1.77S106.74,89.64,106.74,90.62Z"/><path class="cls-47" d="M92.25,93.11A1.16,1.16,0,1,1,91.09,92,1.16,1.16,0,0,1,92.25,93.11Z"/><path class="cls-47" d="M59.23,92.67a1.34,1.34,0,1,1-1.33-1.33A1.33,1.33,0,0,1,59.23,92.67Z"/><path class="cls-47" d="M47.23,82.63a1.08,1.08,0,1,1-1-1.33A1.22,1.22,0,0,1,47.23,82.63Z"/><path class="cls-47" d="M30.52,64.32a1.21,1.21,0,0,1-1.05,1.33,1.37,1.37,0,0,1,0-2.66A1.22,1.22,0,0,1,30.52,64.32Z"/><path class="cls-47" d="M42.41,85A1.62,1.62,0,0,1,41,86.81a1.83,1.83,0,0,1,0-3.57A1.63,1.63,0,0,1,42.41,85Z"/><path class="cls-47" d="M54.69,75c0,1.14-.64,2.06-1.44,2.06S51.8,76.13,51.8,75s.65-2.07,1.45-2.07S54.69,73.85,54.69,75Z"/><path class="cls-47" d="M68.74,80.53a1.46,1.46,0,1,1-1.44-1.69A1.59,1.59,0,0,1,68.74,80.53Z"/><path class="cls-47" d="M35.54,74.24a1.45,1.45,0,1,1-1.44-1.5A1.47,1.47,0,0,1,35.54,74.24Z"/><ellipse class="cls-47" cx="35.54" cy="69.27" rx="1.44" ry="1.51"/><path class="cls-48" d="M97.29,78.73a2.53,2.53,0,1,1-2.53-2.53A2.54,2.54,0,0,1,97.29,78.73Z"/><path class="cls-48" d="M71.46,91.73a2.53,2.53,0,1,1-2.53-2.53A2.53,2.53,0,0,1,71.46,91.73Z"/><path class="cls-48" d="M100,70.39a1,1,0,1,1-1-1A1,1,0,0,1,100,70.39Z"/><path class="cls-48" d="M102.24,99.84a1,1,0,1,1-1-1A1,1,0,0,1,102.24,99.84Z"/><path class="cls-48" d="M77,89.32a1.77,1.77,0,1,1-1.77-1.76A1.77,1.77,0,0,1,77,89.32Z"/><path class="cls-48" d="M42.05,66.47a1.77,1.77,0,1,1-1.77-1.77A1.78,1.78,0,0,1,42.05,66.47Z"/><circle class="cls-48" cx="75.25" cy="72.16" r="1.77"/><path class="cls-48" d="M89.79,99.43A1.77,1.77,0,1,1,88,97.66,1.77,1.77,0,0,1,89.79,99.43Z"/><path class="cls-48" d="M106.92,89.68c0,1-.44,1.76-1,1.76s-1-.79-1-1.76.44-1.77,1-1.77S106.92,88.7,106.92,89.68Z"/><path class="cls-48" d="M92.44,92.17A1.16,1.16,0,1,1,91.28,91,1.16,1.16,0,0,1,92.44,92.17Z"/><path class="cls-48" d="M59.42,91.73a1.34,1.34,0,1,1-1.34-1.33A1.34,1.34,0,0,1,59.42,91.73Z"/><path class="cls-48" d="M47.42,81.69a1.08,1.08,0,1,1-1.05-1.33A1.21,1.21,0,0,1,47.42,81.69Z"/><path class="cls-48" d="M30.71,63.38a1.22,1.22,0,0,1-1.05,1.33,1.37,1.37,0,0,1,0-2.67A1.22,1.22,0,0,1,30.71,63.38Z"/><path class="cls-48" d="M42.6,84.08a1.63,1.63,0,0,1-1.4,1.79,1.83,1.83,0,0,1,0-3.57A1.63,1.63,0,0,1,42.6,84.08Z"/><path class="cls-48" d="M54.88,74c0,1.14-.65,2.07-1.44,2.07S52,75.18,52,74,52.64,72,53.44,72,54.88,72.9,54.88,74Z"/><path class="cls-48" d="M68.93,79.59a1.46,1.46,0,1,1-1.45-1.69A1.59,1.59,0,0,1,68.93,79.59Z"/><path class="cls-48" d="M35.73,73.3a1.45,1.45,0,1,1-1.44-1.5A1.48,1.48,0,0,1,35.73,73.3Z"/><path class="cls-48" d="M37.17,68.33a1.44,1.44,0,1,1-1.44-1.51A1.47,1.47,0,0,1,37.17,68.33Z"/></g></g></svg>