<svg xmlns="http://www.w3.org/2000/svg" viewBox="0 0 611.12 310.27"><defs><style>.cls-1{isolation:isolate;}.cls-2{fill:#324bb8;}.cls-13,.cls-3{fill:#3a2b63;}.cls-3{opacity:0.4;}.cls-3,.cls-6{mix-blend-mode:multiply;}.cls-4{fill:#e6ecf2;}.cls-14,.cls-5{fill:#fff;}.cls-6{fill:#766c93;opacity:0.2;}.cls-7{fill:#dae3ec;}.cls-8{fill:#74b9ff;}.cls-9{fill:#76d0d4;}.cls-10{fill:#1facaf;}.cls-11{fill:#292253;}.cls-12{fill:#ffc5a4;}.cls-14{opacity:0.7;mix-blend-mode:soft-light;}</style></defs><title>Skilled Doctor</title><g class="cls-1"><g id="Layer_2" data-name="Layer 2"><g id="OBJECTS"><path class="cls-2" d="M537.73,105.32C368.8-72.47,256.89,15.75,207.35,74.93c-40.82,48.76-81.17,40.63-97.09,81.12-18.83,47.91,55,85.83-28.78,95.14C25.73,257.38,6.58,289.48,0,310.27H606.58C619,252.31,609.1,180.44,537.73,105.32Z"/><ellipse class="cls-3" cx="319.81" cy="276.96" rx="169.62" ry="4.11"/><path class="cls-4" d="M397.69,173.64c-5,10.82-7.73,22.56-9.94,33.1C383.85,225.2,381.4,240,370.22,240c-17.11,0-20.43-54.58-37.77-54.58S309.86,240,292.38,240c-9.81,0-12.2-10.73-15.63-25.71-2.69-11.72-6-26-14.1-39.86-18.36-31.47-27.1-83.06,3.49-97.92s48.69,18.93,66.31,18.93,28.85-29,62.06-19.07S410.54,146.06,397.69,173.64Z"/><circle class="cls-5" cx="383.63" cy="108.54" r="20.12"/><ellipse class="cls-5" cx="268.72" cy="94.93" rx="16.64" ry="9.35" transform="translate(25.02 242.68) rotate(-50.68)"/><path class="cls-6" d="M387.75,206.74C383.85,225.2,381.4,240,370.22,240c-17.11,0-20.43-54.58-37.77-54.58S309.86,240,292.38,240c-9.81,0-12.2-10.73-15.63-25.71,5.08,1.48,11.64,2.42,18.09.67,13.51-3.68,12.7-45.86,37.26-45.86s20.48,38.07,32.35,43.2C372.75,215.9,382.57,210.39,387.75,206.74Z"/><polygon class="cls-5" points="230.89 267.73 220.89 268.58 213.88 225.17 211.5 210.4 210.5 204.23 209.96 200.86 230.4 198.49 230.56 221.22 230.89 267.73"/><polygon class="cls-5" points="213.95 205 211.5 210.4 205.17 224.35 185.82 267.01 176.14 263.41 189.48 218.82 194.89 200.77 210.5 204.23 213.95 205"/><path class="cls-7" d="M230.56,221.22a37.73,37.73,0,0,1-16.68,3.95L211.5,210.4l-6.33,13.95a59.22,59.22,0,0,1-15.69-5.53l5.41-18,15.61,3.46-.55-3.37,20.44-2.37Z"/><polygon class="cls-8" points="228.85 138.61 240.56 159.26 265.51 163.84 258.5 170.59 228.08 166.86 228.85 138.61"/><polygon class="cls-3" points="228.85 138.61 240.56 159.26 265.51 163.84 258.5 170.59 228.08 166.86 228.85 138.61"/><path class="cls-8" d="M232.35,210.58s-6,8.45-20.54,7.84-25.37-8.45-24.16-12.08c.28-.83,1.23-4.73,2.51-10.24,4.27-18.22,12.3-54,12.3-54,4.86-22.06,27.48-18.51,28.69-1,.47,6.82.75,18.88.93,31.07.07,4.61.12,9.24.15,13.6.09,9.95.11,18.54.11,22.49C232.35,209.75,232.35,210.58,232.35,210.58Z"/><path class="cls-3" d="M232.23,185.78c-6.32-1.38-19.18-4.54-20.76-7.71-2.1-4.21-1.51-36.17-1.51-36.17l7.58,23.79,14.54,6.49C232.15,176.79,232.2,181.42,232.23,185.78Z"/><path class="cls-9" d="M282.37,132.67s-6.52-8.58,3.16-13.19,16-8.14,12.33-14.48c6.87,3.87,10.57,11.62,4.23,17.08"/><path class="cls-10" d="M284.48,131.77s-3.53-6,1.23-9.23,18.14-7.15,12.15-17.54c7.07,8,7.4,12.14-1.59,20"/><polygon class="cls-8" points="311.07 129 288.88 143.5 282.92 135.25 280.78 132.3 305.44 116.31 306.41 118.5 311.07 129"/><path class="cls-11" d="M216.61,189.73l94.22-62.6,2.67,4.46-90.05,67.78a5.92,5.92,0,0,1-8.13-.91h0A5.92,5.92,0,0,1,216.61,189.73Z"/><path class="cls-12" d="M253,167.46s10.71.7,11.39,1.07c1,.54-.17,2-.17,2s1.4,1.75-1.19,3.1c1.07,1.49-.63,2.57-3.89,2.57a41.13,41.13,0,0,1-7-.77Z"/><path class="cls-8" d="M208.57,140s4.75,28.26,6.59,31.68,32.53,4.6,37,3.81a16.25,16.25,0,0,0,.87-8l-25-6.63-.24-25"/><path class="cls-12" d="M215.47,126.1l2.07-6.74L215.34,109l17-9.85s6,11.75,3.16,18.49-8.28,6.19-8.28,6.19L226,133.47Z"/><path class="cls-11" d="M216.67,122.2s-8.53-7-8.53-15.69,8.73-16.27,16.57-15.37c7.64-5.41,19.15,3.74,9.57,12.57-3.85.61-9.79-.41-9.79-.41s1.93,5.92-.43,8.93c-1.46-3.92-4.31-5.71-5.38-3.62-2.67,5.24,3,6.81,3,6.81Z"/><polyline class="cls-8" points="213.95 127.18 215.34 123.42 223.64 127.18 225.96 133.47 226.74 127.52 228.85 129.48 227.28 134.57"/><polygon class="cls-8" points="218.67 265.77 220.38 276.32 242.04 276.32 231.76 269.92 232.35 263.53 225.81 267.01 218.67 265.77"/><polygon class="cls-8" points="176.99 255.99 173.52 266.1 192.63 276.31 186.58 265.82 190.11 260.46 182.7 260.45 176.99 255.99"/><polygon class="cls-3" points="306.41 118.5 282.92 135.25 280.78 132.3 305.44 116.31 306.41 118.5"/><ellipse class="cls-5" cx="226.71" cy="138.96" rx="1.15" ry="1.65"/><path class="cls-12" d="M268,168.15c2-.71,4.79-4.76,5.19-6.2s-3.45-3.1-4.07-2.36.88,2.07.88,2.07-2.47-1.75-3-.8,1.42,3,1.42,3-2.28-1.68-3-.69,1.67,2.46,1.67,2.46-2.08-.46-2.74.13S266,168.86,268,168.15Z"/><path class="cls-3" d="M232.35,210.58s-6,8.45-20.54,7.84-25.37-8.45-24.16-12.08c.28-.83,1.23-4.73,2.51-10.24,4.49,8.22,15.85,20.44,42.18,12.17C232.35,209.75,232.35,210.58,232.35,210.58Z"/><path class="cls-11" d="M300.61,90.16s26.87,20,55.29,4.73C334.37,118.37,307.31,101.12,300.61,90.16Z"/><polygon class="cls-11" points="448.29 215.23 448.26 216.04 447.99 225.19 447.78 232 446.63 269.92 435.5 272.87 430.36 229.94 428.6 215.23 448.29 215.23"/><polygon class="cls-11" points="468.95 269.08 457.52 270.11 449.43 232.03 447.99 225.19 446.08 216.23 448.26 216.04 465.7 214.46 466.6 229.63 468.95 269.08"/><path class="cls-3" d="M466.6,229.63a54.51,54.51,0,0,1-17.17,2.4L448,225.19l-.21,6.81a101.43,101.43,0,0,1-17.42-2.06l-1.76-14.71h19.69l0,.81,17.44-1.58Z"/><path class="cls-13" d="M410,77.73c-15.76,0-28.53,13-28.53,29.1s12.77,29.1,28.53,29.1,28.52-13,28.52-29.1S425.8,77.73,410,77.73Zm0,51.55a22.45,22.45,0,1,1,22-22.45A22.22,22.22,0,0,1,410,129.28Z"/><path class="cls-14" d="M432.05,106.83a22.23,22.23,0,0,1-21.66,22.44H410a21.81,21.81,0,0,1-9.34-2.12,20.42,20.42,0,0,1-4.1-2.56A22.52,22.52,0,0,1,388,106.83a22.23,22.23,0,0,1,22-22.45,19.28,19.28,0,0,1,3,.22,20.58,20.58,0,0,1,4.44,1.08A21.17,21.17,0,0,1,422,88l.15.09a21.36,21.36,0,0,1,3.8,3.24,21.74,21.74,0,0,1,2.89,3.83A22.55,22.55,0,0,1,432.05,106.83Z"/><path class="cls-8" d="M468.41,219.47s-24.73,7.78-43.59,0a341.67,341.67,0,0,1,1.32-44.61q.84-8.22,2.09-15.22c3.5-19.85,9.21-32.24,15.45-36.57C472.58,103,468.41,219.47,468.41,219.47Z"/><path class="cls-3" d="M438.44,154.59c-1.48,9.86-7.57,16.49-12.3,20.27q.84-8.22,2.09-15.22C431,158.1,434.38,156.39,438.44,154.59Z"/><path class="cls-12" d="M389.71,144.15l-1.93-1.35a20.19,20.19,0,0,0-.14-3.76c-.24-.49-1.09-1-1.32-.3-.09.3-.47,2.45-.47,2.45s-3-5.39-3.2-5.63-1.47.16-1.23.64,1.7,3.72,1.7,3.72-2.15-2.55-2.89-3.22c-.31-.27-1.13.45-.92,1a35.1,35.1,0,0,0,2.45,3.7,26.36,26.36,0,0,0-3-2.13c-.41-.08-1.05.91-.56,1.47a29.53,29.53,0,0,0,2.87,2.4s-2.19-.52-2.91-.66c-.51-.1-1.1.84-.05,1.41s4.65,3.38,4.65,3.38l3.2,2.86"/><path class="cls-8" d="M434.83,135.8,415.1,156.4l-25.78-12.9-4.15,7s25,19.57,29.94,22.4,26-16.49,26-16.49"/><path class="cls-12" d="M434.61,100.12s-11,13,.54,24.39"/><path class="cls-5" d="M436.58,96c-7,4.14-11.73,8.23-3.95,18.3,5.23,6.78-2.91,18.1.86,26.19s14.39,2.61,19.77,5.4,15,2.71,14.71-8.11-9.14-18.42-9.4-26.33S452.75,86.51,436.58,96Z"/><path class="cls-5" d="M447.6,267.44v8.87H426.15l8-6.39S442.22,272,447.6,267.44Z"/><path class="cls-5" d="M470.19,264.81l1.12,8.79L450,276.33l7.09-7.35S465.43,270,470.19,264.81Z"/><path class="cls-14" d="M417.44,85.68,400.7,127.16a20.42,20.42,0,0,1-4.1-2.56c5.2-12.62,11.64-28.32,16.4-40A20.58,20.58,0,0,1,417.44,85.68Z"/><path class="cls-14" d="M428.83,95.15l-18.44,34.12H410a20.91,20.91,0,0,1-3-.21L422,88l.15.09a21.36,21.36,0,0,1,3.8,3.24A21.74,21.74,0,0,1,428.83,95.15Z"/><polygon class="cls-5" points="259.25 198.99 258.83 198.11 296.45 179.98 365.49 179.98 402.18 198.12 401.75 198.99 365.26 180.95 296.68 180.95 259.25 198.99"/><circle class="cls-5" cx="295.92" cy="180.47" r="4.68"/><rect class="cls-11" x="295.28" y="177.42" width="1.28" height="6.08"/><rect class="cls-11" x="295.28" y="177.42" width="1.28" height="6.08" transform="translate(476.39 -115.46) rotate(90)"/><circle class="cls-5" cx="365.37" cy="180.47" r="4.68"/><rect class="cls-11" x="364.73" y="177.42" width="1.28" height="6.08"/><rect class="cls-11" x="364.73" y="177.42" width="1.28" height="6.08" transform="translate(545.84 -184.91) rotate(90)"/><rect class="cls-5" x="267.41" y="197.03" width="0.97" height="52.94" transform="translate(-59.32 102.47) rotate(-19.54)"/><rect class="cls-5" x="366.22" y="223.01" width="53.15" height="0.97" transform="translate(47.29 514.81) rotate(-69.78)"/><circle class="cls-5" cx="259.04" cy="198.55" r="4.68"/><rect class="cls-11" x="258.4" y="195.51" width="1.28" height="6.08"/><rect class="cls-11" x="258.4" y="195.51" width="1.28" height="6.08" transform="translate(457.59 -60.49) rotate(90)"/><circle class="cls-5" cx="401.97" cy="198.55" r="4.68"/><rect class="cls-11" x="401.32" y="195.51" width="1.28" height="6.08"/><rect class="cls-11" x="401.32" y="195.51" width="1.28" height="6.08" transform="translate(600.52 -203.42) rotate(90)"/><rect class="cls-10" x="279.37" y="260.97" width="103.17" height="15.34"/><rect class="cls-3" x="279.37" y="260.97" width="103.17" height="7.67"/><path class="cls-10" d="M267.33,247.52H394.59a7.9,7.9,0,0,1,7.9,7.9v7.44a0,0,0,0,1,0,0H259.43a0,0,0,0,1,0,0v-7.44A7.9,7.9,0,0,1,267.33,247.52Z"/><path class="cls-9" d="M402.49,255.19H259.43a7.66,7.66,0,0,1,7.67-7.67H394.82a7.66,7.66,0,0,1,7.67,7.67Z"/><polygon class="cls-5" points="401.38 73.65 393.06 46.73 347.81 41.57 348.49 35.61 397.63 41.22 407.11 71.88 401.38 73.65"/><polyline class="cls-13" points="399.12 82.81 395.35 70.91 410.04 67.5 413.14 80.34"/><path class="cls-9" d="M409.06,75.16a2,2,0,1,0-2,2A2,2,0,0,0,409.06,75.16Z"/><circle class="cls-13" cx="395.35" cy="43.97" r="7.87" transform="translate(84.7 292.43) rotate(-45)"/><path class="cls-9" d="M400.09,44a4.74,4.74,0,1,0-4.74,4.74A4.74,4.74,0,0,0,400.09,44Z"/><path class="cls-9" d="M364.88,33.57V46.1a5.75,5.75,0,0,1-5.76,5.75H310.46a5.75,5.75,0,0,1-5.75-5.75V33.57a5.74,5.74,0,0,1,5.75-5.74h48.66A5.74,5.74,0,0,1,364.88,33.57Z"/><path class="cls-3" d="M319.52,27.83v24h-9.06a5.75,5.75,0,0,1-5.75-5.75V33.57a5.74,5.74,0,0,1,5.75-5.74Z"/><rect class="cls-3" x="325.19" y="27.83" width="4.68" height="24.02"/><path class="cls-5" d="M340.36,33.13a1.92,1.92,0,1,1-1.92-1.91A1.91,1.91,0,0,1,340.36,33.13Z"/><path class="cls-5" d="M350.07,33.13a1.92,1.92,0,1,1-1.92-1.91A1.91,1.91,0,0,1,350.07,33.13Z"/><path class="cls-5" d="M359.78,33.13a1.92,1.92,0,1,1-1.92-1.91A1.91,1.91,0,0,1,359.78,33.13Z"/><path class="cls-13" d="M180.07,184.72a7.15,7.15,0,0,1-.09,1.15,7.51,7.51,0,0,1-7.46,6.41H76.28a7.55,7.55,0,0,1-7.46-6.41,7.15,7.15,0,0,1-.09-1.15,7.53,7.53,0,0,1,7.55-7.54h96.24A7.54,7.54,0,0,1,180.07,184.72Z"/><rect class="cls-10" x="84.22" y="159.54" width="21.41" height="17.64"/><rect class="cls-10" x="121.37" y="143.38" width="13.85" height="33.8"/><rect class="cls-10" x="144.98" y="172.24" width="16.37" height="4.94"/><polygon class="cls-5" points="157.57 172.79 148.76 172.79 144.98 158.23 161.35 158.23 157.57 172.79"/><rect class="cls-5" x="143.81" y="155.57" width="18.91" height="3.96" rx="1.76"/><path class="cls-3" d="M180,185.87a7.51,7.51,0,0,1-7.46,6.41H76.28a7.55,7.55,0,0,1-7.46-6.41Z"/><rect class="cls-3" x="84.22" y="159.54" width="7.23" height="17.64"/><path class="cls-5" d="M130.12,153.15a1.83,1.83,0,1,0-1.83,1.83A1.82,1.82,0,0,0,130.12,153.15Z"/><circle class="cls-5" cx="128.29" cy="162.74" r="1.83"/><rect class="cls-11" x="84.83" y="84.98" width="86.93" height="59.93" rx="6.93"/><rect class="cls-9" x="90.13" y="89.83" width="76.32" height="50.22" rx="3.63"/><rect class="cls-5" x="94.92" y="94.93" width="24.11" height="2.92" rx="1.3"/><rect class="cls-5" x="94.92" y="101" width="24.11" height="2.92" rx="1.3"/><rect class="cls-5" x="94.92" y="107.08" width="24.11" height="2.92" rx="1.3"/><rect class="cls-5" x="94.92" y="113.15" width="19.61" height="2.92" rx="1.3"/><rect class="cls-5" x="123.11" y="94.93" width="10.5" height="12.17" rx="1.5"/><rect class="cls-5" x="136.48" y="94.93" width="10.5" height="12.17" rx="1.5"/><rect class="cls-5" x="149.85" y="94.93" width="10.5" height="12.17" rx="1.5"/><path class="cls-5" d="M150.31,126.37a19,19,0,0,0-1.26,4.18c-.49,2.34-.8,4.21-2.22,4.21-2.16,0-2.58-6.9-4.77-6.9s-2.86,6.9-5.07,6.9c-1.24,0-1.54-1.35-2-3.25a17.3,17.3,0,0,0-1.78-5c-2.32-4-3.43-10.51.44-12.39s6.16,2.4,8.39,2.4,3.65-3.66,7.85-2.41S151.93,122.88,150.31,126.37Z"/><circle class="cls-8" cx="141.73" cy="122.44" r="2.65"/><rect class="cls-11" x="141.37" y="120.72" width="0.73" height="3.44"/><rect class="cls-11" x="141.37" y="120.72" width="0.73" height="3.44" transform="translate(264.17 -19.29) rotate(90)"/><polygon class="cls-5" points="129.61 131.89 113.47 131.89 113.47 130.89 129.1 130.89 134.12 123.87 134.94 124.45 129.61 131.89"/><path class="cls-5" d="M161.69,119.79a2.58,2.58,0,1,0-2.57,2.57A2.57,2.57,0,0,0,161.69,119.79Z"/><path class="cls-5" d="M116,131.39a2.57,2.57,0,1,0-2.57,2.57A2.57,2.57,0,0,0,116,131.39Z"/><rect class="cls-5" x="149.85" y="119.29" width="6.69" height="1"/><path class="cls-2" d="M108.09,227.32c2.64-30.67-50.29.8-19.59,11.74C97.47,242.26,107.25,237.1,108.09,227.32Z"/><path class="cls-2" d="M180.07,21.57c-6.13,7.38-10.86,14.89-7.28,24.89,2.34,6.51,8.73,11.63,14.89,14.5C199.62,66.53,206,55.34,209,45.24s-1-17.27-9.75-23C193.81,18.81,185.77,16.64,180.07,21.57Z"/><path class="cls-2" d="M158.18,55.42c-2.47,3.47-2.65,8.66,2.61,9.88,3.84.88,7.16-1.94,8-5.64,1.4-6.34-5.76-9.61-9.85-5.15A9.09,9.09,0,0,0,158.18,55.42Z"/></g></g></g></svg>