<svg xmlns="http://www.w3.org/2000/svg" xmlns:xlink="http://www.w3.org/1999/xlink" viewBox="0 0 174.09 174.09"><defs><style>.cls-1{isolation:isolate;}.cls-2{fill:#c7ebfb;}.cls-3{fill:url(#Áåçûìÿííûé_ãðàäèåíò_91);}.cls-4{fill:url(#Áåçûìÿííûé_ãðàäèåíò_219);}.cls-5{fill:#b56f8d;}.cls-6{fill:url(#Áåçûìÿííûé_ãðàäèåíò_7);}.cls-7{fill:url(#Áåçûìÿííûé_ãðàäèåíò_63);}.cls-8{opacity:0.3;fill:url(#Áåçûìÿííûé_ãðàäèåíò_177);}.cls-8,.cls-9{mix-blend-mode:multiply;}.cls-12,.cls-9{opacity:0.5;}.cls-9{fill:url(#Áåçûìÿííûé_ãðàäèåíò_172);}.cls-10{fill:url(#Áåçûìÿííûé_ãðàäèåíò_64);}.cls-11{fill:#f3eaee;}.cls-12{mix-blend-mode:screen;fill:url(#Áåçûìÿííûé_ãðàäèåíò_42);}.cls-13{fill:#003772;}</style><linearGradient id="Áåçûìÿííûé_ãðàäèåíò_91" x1="61.56" y1="129.89" x2="61.56" y2="44.21" gradientUnits="userSpaceOnUse"><stop offset="0" stop-color="#cba3b4"/><stop offset="1" stop-color="#f6b5b8"/></linearGradient><linearGradient id="Áåçûìÿííûé_ãðàäèåíò_219" x1="92.83" y1="127.17" x2="92.83" y2="44.21" gradientUnits="userSpaceOnUse"><stop offset="0" stop-color="#ddb3be"/><stop offset="1" stop-color="#fff0d0"/></linearGradient><linearGradient id="Áåçûìÿííûé_ãðàäèåíò_7" x1="94.25" y1="123.61" x2="94.25" y2="45.57" gradientUnits="userSpaceOnUse"><stop offset="0" stop-color="#006aa4"/><stop offset="1" stop-color="#2cb5ad"/></linearGradient><linearGradient id="Áåçûìÿííûé_ãðàäèåíò_63" x1="93.35" y1="124.78" x2="93.35" y2="45.57" gradientUnits="userSpaceOnUse"><stop offset="0" stop-color="#00688f"/><stop offset="1" stop-color="#0075a1"/></linearGradient><linearGradient id="Áåçûìÿííûé_ãðàäèåíò_177" x1="71.64" y1="92.49" x2="116.83" y2="92.49" gradientUnits="userSpaceOnUse"><stop offset="0" stop-color="#fff"/><stop offset="1" stop-color="#04092e"/></linearGradient><linearGradient id="Áåçûìÿííûé_ãðàäèåíò_172" x1="112.6" y1="126.26" x2="112.6" y2="118.11" gradientUnits="userSpaceOnUse"><stop offset="0.01" stop-color="#fff"/><stop offset="0.24" stop-color="#c2c5d1"/><stop offset="0.5" stop-color="#848aa3"/><stop offset="0.73" stop-color="#575f81"/><stop offset="0.9" stop-color="#3b446c"/><stop offset="1" stop-color="#313a64"/></linearGradient><linearGradient id="Áåçûìÿííûé_ãðàäèåíò_64" x1="113.18" y1="119.95" x2="118.17" y2="119.95" gradientUnits="userSpaceOnUse"><stop offset="0" stop-color="#8196a5"/><stop offset="1" stop-color="#dde5db"/></linearGradient><linearGradient id="Áåçûìÿííûé_ãðàäèåíò_42" x1="99.1" y1="108.39" x2="99.1" y2="46.61" gradientUnits="userSpaceOnUse"><stop offset="0"/><stop offset="1" stop-color="#557775"/></linearGradient></defs><title>UV Mac</title><g class="cls-1"><g id="Layer_2" data-name="Layer 2"><g id="layer1"><rect class="cls-2" width="174.09" height="174.09"/><polygon class="cls-3" points="55.41 129.89 55.42 50.68 67.71 44.21 67.71 126.51 55.41 129.89"/><polygon class="cls-4" points="117.95 47.64 117.63 118.19 117.63 118.21 117.62 121.42 117.62 121.46 116.93 127.17 67.71 126.52 67.71 44.2 117.95 47.64"/><polygon class="cls-5" points="55.41 129.89 107.69 129.89 116.93 127.17 67.71 126.51 55.41 129.89"/><polygon class="cls-6" points="71.9 122.78 116.46 123.61 116.93 48.45 71.57 45.57 71.9 122.78"/><polygon class="cls-7" points="71.57 45.57 70.23 47.12 70.23 123.89 114.44 124.78 116.46 123.61 71.91 122.34 71.57 45.57"/><polygon class="cls-8" points="71.64 61.36 76.91 113.48 116.83 119.82 116.46 123.61 71.91 122.34 71.64 61.36"/><path class="cls-9" d="M115.38,121.82a16.71,16.71,0,0,1-.94,3c-.22.52-.45,1-.69,1.46l-4.16,0a17.29,17.29,0,0,1,1-3.1,12.3,12.3,0,0,1,3-4.56c.53-.42,1-.59,1.37-.43C115.66,118.47,115.79,119.92,115.38,121.82Z"/><path class="cls-10" d="M114.05,118l3.71.24s.93,2.17,0,3.25l-3.15.5C113.19,121.79,112.52,119.54,114.05,118Z"/><ellipse class="cls-11" cx="117.76" cy="119.82" rx="0.93" ry="1.62"/><polygon class="cls-12" points="87.98 46.61 84.81 108.39 89.13 108.39 113.38 48.45 87.98 46.61"/><polygon class="cls-13" points="70.23 123.89 72.5 122.36 116.46 123.61 114.44 124.78 70.23 123.89"/></g></g></g></svg>