<svg xmlns="http://www.w3.org/2000/svg" viewBox="0 0 35.38 35.38"><defs><style>.cls-1{fill:#fff;}</style></defs><title>web</title><g id="Layer_2" data-name="Layer 2"><g id="ELEMENTS"><circle cx="17.69" cy="17.69" r="17.69"/><path class="cls-1" d="M13.31,18.57c.2,6,2.4,10.08,4.38,10.08s4.19-4.1,4.38-10.08Z"/><path class="cls-1" d="M17.69,6.73c-2,0-4.18,4.1-4.38,10.08h8.76C21.88,10.83,19.68,6.73,17.69,6.73Z"/><path class="cls-1" d="M23.83,16.81h5.66A11.84,11.84,0,0,0,20.38,6.16C22.35,8,23.68,12,23.83,16.81Z"/><path class="cls-1" d="M23.83,18.57c-.15,4.84-1.48,8.77-3.45,10.65a11.84,11.84,0,0,0,9.11-10.65Z"/><path class="cls-1" d="M11.55,18.57H5.89A11.83,11.83,0,0,0,15,29.22C13,27.34,11.7,23.41,11.55,18.57Z"/><path class="cls-1" d="M11.55,16.81C11.7,12,13,8,15,6.16A11.83,11.83,0,0,0,5.89,16.81Z"/></g></g></svg>