<svg xmlns="http://www.w3.org/2000/svg" xmlns:xlink="http://www.w3.org/1999/xlink" viewBox="0 0 409 219.85"><defs><style>.cls-1{isolation:isolate;}.cls-2{fill:url(#linear-gradient);}.cls-3,.cls-49,.cls-50,.cls-54,.cls-55,.cls-56,.cls-57,.cls-60,.cls-61,.cls-64{opacity:0.5;}.cls-3{mix-blend-mode:overlay;fill:url(#linear-gradient-2);}.cls-4{fill:url(#linear-gradient-3);}.cls-5{fill:url(#linear-gradient-4);}.cls-6{fill:url(#linear-gradient-5);}.cls-7{fill:url(#linear-gradient-6);}.cls-8{fill:url(#linear-gradient-7);}.cls-9{fill:url(#linear-gradient-8);}.cls-10{fill:url(#linear-gradient-9);}.cls-11{fill:url(#linear-gradient-10);}.cls-12{fill:url(#linear-gradient-11);}.cls-13{fill:#e8a77d;}.cls-14{fill:#efcdaf;}.cls-15{fill:url(#linear-gradient-12);}.cls-16{fill:url(#linear-gradient-13);}.cls-17{fill:url(#linear-gradient-14);}.cls-18{fill:url(#linear-gradient-15);}.cls-19{opacity:0.6;fill:url(#linear-gradient-16);}.cls-19,.cls-27,.cls-29,.cls-34,.cls-86{mix-blend-mode:multiply;}.cls-20{fill:url(#linear-gradient-17);}.cls-21{fill:url(#linear-gradient-18);}.cls-22{fill:url(#linear-gradient-19);}.cls-23{fill:url(#linear-gradient-20);}.cls-24{fill:url(#linear-gradient-21);}.cls-25{fill:url(#linear-gradient-22);}.cls-26{fill:url(#linear-gradient-23);}.cls-27{fill:url(#linear-gradient-24);}.cls-28{fill:url(#linear-gradient-25);}.cls-29{fill:url(#linear-gradient-26);}.cls-30{fill:#fff;}.cls-31{fill:#1b2e59;}.cls-32{fill:url(#linear-gradient-27);}.cls-33{fill:url(#linear-gradient-29);}.cls-34{fill:url(#linear-gradient-30);}.cls-35{fill:url(#linear-gradient-31);}.cls-36{fill:#d17979;}.cls-37{fill:url(#linear-gradient-32);}.cls-38{fill:url(#linear-gradient-33);}.cls-39{fill:#e49191;}.cls-40{fill:url(#linear-gradient-34);}.cls-41{fill:url(#linear-gradient-35);}.cls-42{fill:#c55f60;}.cls-43{fill:url(#linear-gradient-36);}.cls-44{fill:url(#linear-gradient-37);}.cls-45{fill:url(#linear-gradient-38);}.cls-46{fill:url(#linear-gradient-39);}.cls-47{fill:url(#linear-gradient-40);}.cls-132,.cls-48,.cls-49,.cls-50,.cls-60,.cls-61{fill:none;stroke-miterlimit:10;}.cls-48,.cls-51,.cls-52,.cls-53{opacity:0.3;}.cls-48,.cls-49,.cls-50,.cls-51,.cls-52,.cls-53,.cls-54,.cls-55,.cls-56,.cls-57{mix-blend-mode:color-dodge;}.cls-48{stroke:url(#linear-gradient-41);}.cls-49{stroke-width:0.52px;stroke:url(#linear-gradient-42);}.cls-50{stroke-width:0.25px;stroke:url(#linear-gradient-43);}.cls-51{fill:url(#linear-gradient-44);}.cls-52{fill:url(#linear-gradient-45);}.cls-53{fill:url(#linear-gradient-46);}.cls-54{fill:url(#linear-gradient-47);}.cls-55{fill:url(#linear-gradient-48);}.cls-56{fill:url(#linear-gradient-49);}.cls-57{fill:url(#linear-gradient-50);}.cls-58{fill:url(#linear-gradient-51);}.cls-59{fill:url(#linear-gradient-52);}.cls-60{stroke-width:0.5px;stroke:url(#linear-gradient-53);}.cls-61{stroke-width:0.27px;stroke:url(#linear-gradient-54);}.cls-62{opacity:0.2;fill:url(#linear-gradient-55);}.cls-63{fill:url(#linear-gradient-56);}.cls-64{fill:url(#linear-gradient-57);}.cls-65{fill:url(#linear-gradient-58);}.cls-66{fill:url(#linear-gradient-59);}.cls-67{fill:url(#linear-gradient-60);}.cls-68{fill:url(#linear-gradient-61);}.cls-69{fill:url(#linear-gradient-62);}.cls-70{fill:url(#linear-gradient-63);}.cls-71{fill:url(#linear-gradient-64);}.cls-72{fill:url(#linear-gradient-65);}.cls-73{fill:url(#linear-gradient-66);}.cls-74{fill:url(#linear-gradient-67);}.cls-75{fill:url(#linear-gradient-68);}.cls-76{fill:url(#linear-gradient-69);}.cls-77{fill:#e8be9e;}.cls-78{fill:url(#linear-gradient-70);}.cls-79{fill:url(#linear-gradient-71);}.cls-80{fill:url(#linear-gradient-72);}.cls-81{fill:url(#linear-gradient-73);}.cls-82{fill:url(#linear-gradient-74);}.cls-83{fill:url(#linear-gradient-75);}.cls-84{fill:url(#linear-gradient-76);}.cls-85{fill:url(#linear-gradient-77);}.cls-86{fill:url(#linear-gradient-78);}.cls-87{fill:url(#linear-gradient-79);}.cls-88{fill:url(#linear-gradient-80);}.cls-89{fill:url(#linear-gradient-81);}.cls-90{fill:url(#linear-gradient-82);}.cls-91{fill:url(#linear-gradient-83);}.cls-92{mix-blend-mode:color-burn;fill:url(#linear-gradient-84);}.cls-93{fill:url(#linear-gradient-85);}.cls-94{fill:url(#linear-gradient-86);}.cls-95{fill:url(#linear-gradient-87);}.cls-96{fill:url(#linear-gradient-88);}.cls-97{fill:url(#linear-gradient-89);}.cls-98{fill:url(#linear-gradient-90);}.cls-99{fill:url(#linear-gradient-91);}.cls-100{fill:url(#linear-gradient-92);}.cls-101{fill:url(#linear-gradient-93);}.cls-102{fill:url(#linear-gradient-94);}.cls-103{fill:url(#linear-gradient-95);}.cls-104{fill:url(#linear-gradient-96);}.cls-105{fill:url(#linear-gradient-97);}.cls-106{fill:url(#linear-gradient-98);}.cls-107{fill:url(#linear-gradient-99);}.cls-108{fill:url(#linear-gradient-100);}.cls-109{fill:url(#linear-gradient-101);}.cls-110{fill:url(#linear-gradient-102);}.cls-111{fill:url(#linear-gradient-103);}.cls-112{fill:url(#linear-gradient-104);}.cls-113{fill:url(#linear-gradient-105);}.cls-114{fill:url(#linear-gradient-106);}.cls-115{fill:url(#linear-gradient-107);}.cls-116{fill:url(#linear-gradient-108);}.cls-117{fill:url(#linear-gradient-109);}.cls-118{fill:url(#linear-gradient-110);}.cls-119{fill:url(#linear-gradient-111);}.cls-120{fill:url(#linear-gradient-112);}.cls-121{fill:url(#linear-gradient-113);}.cls-122{fill:#22256f;}.cls-123{fill:url(#linear-gradient-114);}.cls-124{fill:url(#linear-gradient-115);}.cls-125{fill:url(#linear-gradient-116);}.cls-126{fill:url(#linear-gradient-117);}.cls-127{fill:url(#linear-gradient-118);}.cls-128{fill:url(#linear-gradient-119);}.cls-129{fill:url(#linear-gradient-120);}.cls-130{fill:url(#linear-gradient-121);}.cls-131{fill:url(#linear-gradient-122);}.cls-132{stroke:#fff;stroke-linecap:round;stroke-width:0.61px;}.cls-133{fill:url(#linear-gradient-123);}.cls-134{fill:#0a1a35;}</style><linearGradient id="linear-gradient" x1="204.5" y1="239.47" x2="204.5" y2="-8.2" gradientUnits="userSpaceOnUse"><stop offset="0" stop-color="#1d28b4"/><stop offset="1" stop-color="#79d3fd"/></linearGradient><linearGradient id="linear-gradient-2" x1="133.5" y1="31.79" x2="216.58" y2="31.79" gradientTransform="translate(120.65 -75.98) rotate(54.63)" gradientUnits="userSpaceOnUse"><stop offset="0" stop-color="#fff"/><stop offset="1" stop-color="#b9e8fe" stop-opacity="0"/></linearGradient><linearGradient id="linear-gradient-3" x1="133.66" y1="31.79" x2="126.74" y2="31.79" gradientTransform="translate(39.97 16.66) rotate(0.01)" gradientUnits="userSpaceOnUse"><stop offset="0" stop-color="#252786"/><stop offset="1" stop-color="#2245fc"/></linearGradient><linearGradient id="linear-gradient-4" x1="126.66" y1="31.79" x2="124.21" y2="31.79" gradientTransform="translate(120.65 -75.98) rotate(54.63)" xlink:href="#linear-gradient-3"/><linearGradient id="linear-gradient-5" x1="154.04" y1="26.21" x2="166.91" y2="43.83" gradientTransform="translate(39.13 145.37) rotate(-54.62)" gradientUnits="userSpaceOnUse"><stop offset="0" stop-color="#fff"/><stop offset="1" stop-color="#b9e8fe"/></linearGradient><linearGradient id="linear-gradient-6" x1="101.03" y1="73.76" x2="79.21" y2="73.76" gradientTransform="matrix(1.92, 0, 0, 1, -35.17, -37.1)" xlink:href="#linear-gradient-5"/><linearGradient id="linear-gradient-7" x1="118.13" y1="35.25" x2="96.31" y2="35.25" gradientTransform="matrix(1.39, 3.62, -0.93, 0.36, 19.44, -311.65)" xlink:href="#linear-gradient-5"/><linearGradient id="linear-gradient-8" x1="105.67" y1="31.79" x2="96.39" y2="31.79" gradientTransform="translate(120.65 -75.98) rotate(54.63)" xlink:href="#linear-gradient-3"/><linearGradient id="linear-gradient-9" x1="98.33" y1="31.79" x2="103.33" y2="31.79" gradientTransform="translate(120.65 -75.98) rotate(54.63)" gradientUnits="userSpaceOnUse"><stop offset="0" stop-color="#2527ce"/><stop offset="1" stop-color="#2297fc"/></linearGradient><linearGradient id="linear-gradient-10" x1="105.8" y1="72.92" x2="96.52" y2="72.92" gradientTransform="translate(120.65 -75.98) rotate(54.63)" xlink:href="#linear-gradient-3"/><linearGradient id="linear-gradient-11" x1="98.47" y1="72.92" x2="103.47" y2="72.92" xlink:href="#linear-gradient-9"/><linearGradient id="linear-gradient-12" x1="232.74" y1="70.79" x2="262.13" y2="70.79" gradientTransform="translate(-25.57 202.41) rotate(-38.84)" xlink:href="#linear-gradient-5"/><linearGradient id="linear-gradient-13" x1="179.91" y1="206.39" x2="179.91" y2="216.89" gradientUnits="userSpaceOnUse"><stop offset="0" stop-color="#3863fa"/><stop offset="1" stop-color="#1b2e59"/></linearGradient><linearGradient id="linear-gradient-14" x1="210.92" y1="173.63" x2="208.06" y2="140.86" gradientUnits="userSpaceOnUse"><stop offset="0" stop-color="#3863fa"/><stop offset="1" stop-color="#78d0fc"/></linearGradient><linearGradient id="linear-gradient-15" x1="178.14" y1="168.01" x2="135.3" y2="201.77" xlink:href="#linear-gradient-13"/><linearGradient id="linear-gradient-16" x1="162.58" y1="206.7" x2="159.91" y2="163.46" xlink:href="#linear-gradient-13"/><linearGradient id="linear-gradient-17" x1="162.05" y1="169.12" x2="191.85" y2="169.12" xlink:href="#linear-gradient-13"/><linearGradient id="linear-gradient-18" x1="118.04" y1="215.67" x2="118.04" y2="176.74" gradientUnits="userSpaceOnUse"><stop offset="0" stop-color="#1d92ff"/><stop offset="1" stop-color="#339afd"/></linearGradient><linearGradient id="linear-gradient-19" x1="81.31" y1="216.4" x2="88.47" y2="216.4" gradientUnits="userSpaceOnUse"><stop offset="0" stop-color="#00006c"/><stop offset="1" stop-color="#0029ae"/></linearGradient><linearGradient id="linear-gradient-20" x1="198.81" y1="216.4" x2="205.97" y2="216.4" xlink:href="#linear-gradient-19"/><linearGradient id="linear-gradient-21" x1="172.79" y1="148.82" x2="166.91" y2="164.98" xlink:href="#linear-gradient-14"/><linearGradient id="linear-gradient-22" x1="80.1" y1="149.52" x2="206.43" y2="149.52" gradientTransform="matrix(1, 0, 0, 1, 0, 0)" xlink:href="#linear-gradient-5"/><linearGradient id="linear-gradient-23" x1="142.41" y1="149.74" x2="142.41" y2="123.1" gradientUnits="userSpaceOnUse"><stop offset="0" stop-color="#00006c"/><stop offset="1" stop-color="#5793fb"/></linearGradient><linearGradient id="linear-gradient-24" x1="85.28" y1="144.04" x2="199.54" y2="144.04" xlink:href="#linear-gradient-23"/><linearGradient id="linear-gradient-25" x1="232.98" y1="137.94" x2="226.43" y2="127.46" xlink:href="#linear-gradient-23"/><linearGradient id="linear-gradient-26" x1="231.9" y1="136.21" x2="230.32" y2="133.67" xlink:href="#linear-gradient-23"/><linearGradient id="linear-gradient-27" x1="264.49" y1="114.77" x2="260.92" y2="109.05" xlink:href="#linear-gradient-23"/><linearGradient id="linear-gradient-29" x1="248.04" y1="124.91" x2="265.23" y2="124.91" xlink:href="#linear-gradient-14"/><linearGradient id="linear-gradient-30" x1="264.36" y1="114.56" x2="263.54" y2="113.25" xlink:href="#linear-gradient-23"/><linearGradient id="linear-gradient-31" x1="209.45" y1="130.77" x2="278.24" y2="130.77" gradientTransform="matrix(1, 0, 0, 1, 0, 0)" xlink:href="#linear-gradient-5"/><linearGradient id="linear-gradient-32" x1="104.56" y1="136.74" x2="93.31" y2="115.81" xlink:href="#linear-gradient-23"/><linearGradient id="linear-gradient-33" x1="141.25" y1="123.99" x2="134.56" y2="106.74" xlink:href="#linear-gradient-23"/><linearGradient id="linear-gradient-34" x1="107.01" y1="141.36" x2="100.72" y2="124.19" xlink:href="#linear-gradient-23"/><linearGradient id="linear-gradient-35" x1="160.31" y1="142.13" x2="160.31" y2="111.79" xlink:href="#linear-gradient-23"/><linearGradient id="linear-gradient-36" x1="193.76" y1="128.24" x2="245.54" y2="128.24" gradientUnits="userSpaceOnUse"><stop offset="0" stop-color="#2afff6"/><stop offset="1" stop-color="#79d3fd"/></linearGradient><linearGradient id="linear-gradient-37" x1="251.18" y1="103.28" x2="267.7" y2="103.28" gradientUnits="userSpaceOnUse"><stop offset="0" stop-color="#00006c"/><stop offset="1" stop-color="#3049b9"/></linearGradient><linearGradient id="linear-gradient-38" x1="223.48" y1="121.22" x2="242.51" y2="121.22" xlink:href="#linear-gradient-36"/><linearGradient id="linear-gradient-39" x1="177.07" y1="131.27" x2="211.07" y2="131.27" xlink:href="#linear-gradient-19"/><linearGradient id="linear-gradient-40" x1="199.29" y1="144.82" x2="213.2" y2="144.82" xlink:href="#linear-gradient-19"/><linearGradient id="linear-gradient-41" x1="369.61" y1="164.78" x2="374.67" y2="170.39" gradientTransform="matrix(1, 0, 0, 1, 0, 0)" xlink:href="#linear-gradient-5"/><linearGradient id="linear-gradient-42" x1="215.45" y1="190.37" x2="218.43" y2="193.68" gradientTransform="matrix(1, 0, 0, 1, 0, 0)" xlink:href="#linear-gradient-5"/><linearGradient id="linear-gradient-43" x1="199.35" y1="33.61" x2="200.77" y2="35.19" gradientTransform="matrix(1, 0, 0, 1, 0, 0)" xlink:href="#linear-gradient-5"/><linearGradient id="linear-gradient-44" x1="78.21" y1="176.61" x2="86.97" y2="186.33" gradientTransform="matrix(1, 0, 0, 1, 0, 0)" xlink:href="#linear-gradient-5"/><linearGradient id="linear-gradient-45" x1="50.28" y1="196.23" x2="54.01" y2="200.36" gradientTransform="matrix(1, 0, 0, 1, 0, 0)" xlink:href="#linear-gradient-5"/><linearGradient id="linear-gradient-46" x1="86.54" y1="79.94" x2="90.26" y2="84.07" gradientTransform="matrix(1, 0, 0, 1, 0, 0)" xlink:href="#linear-gradient-5"/><linearGradient id="linear-gradient-47" x1="268.17" y1="78.62" x2="273.5" y2="84.53" gradientTransform="matrix(1, 0, 0, 1, 0, 0)" xlink:href="#linear-gradient-5"/><linearGradient id="linear-gradient-48" x1="182.57" y1="7.7" x2="187.9" y2="13.6" gradientTransform="matrix(1, 0, 0, 1, 0, 0)" xlink:href="#linear-gradient-5"/><linearGradient id="linear-gradient-49" x1="346.58" y1="80.54" x2="351.9" y2="86.45" gradientTransform="matrix(1, 0, 0, 1, 0, 0)" xlink:href="#linear-gradient-5"/><linearGradient id="linear-gradient-50" x1="348.09" y1="137.36" x2="353.42" y2="143.27" gradientTransform="matrix(1, 0, 0, 1, 0, 0)" xlink:href="#linear-gradient-5"/><linearGradient id="linear-gradient-51" x1="98.44" y1="86.04" x2="111.89" y2="100.96" gradientTransform="matrix(1, 0, 0, 1, 0, 0)" xlink:href="#linear-gradient-5"/><linearGradient id="linear-gradient-52" x1="346.16" y1="184.34" x2="359.61" y2="199.26" gradientTransform="matrix(1, 0, 0, 1, 0, 0)" xlink:href="#linear-gradient-5"/><linearGradient id="linear-gradient-53" x1="223.79" y1="199.07" x2="230.77" y2="206.8" gradientTransform="matrix(1, 0, 0, 1, 0, 0)" xlink:href="#linear-gradient-5"/><linearGradient id="linear-gradient-54" x1="143.92" y1="56.47" x2="147.66" y2="60.62" gradientTransform="matrix(1, 0, 0, 1, 0, 0)" xlink:href="#linear-gradient-5"/><linearGradient id="linear-gradient-55" x1="209.19" y1="16.27" x2="222.65" y2="31.19" gradientTransform="matrix(1, 0, 0, 1, 0, 0)" xlink:href="#linear-gradient-5"/><linearGradient id="linear-gradient-56" x1="275.51" y1="41.36" x2="283.79" y2="50.54" gradientTransform="matrix(1, 0, 0, 1, 0, 0)" xlink:href="#linear-gradient-5"/><linearGradient id="linear-gradient-57" x1="62.64" y1="122.11" x2="80.23" y2="141.62" gradientTransform="matrix(1, 0, 0, 1, 0, 0)" xlink:href="#linear-gradient-5"/><linearGradient id="linear-gradient-58" x1="35.74" y1="192.78" x2="38.33" y2="140.55" xlink:href="#linear-gradient-14"/><linearGradient id="linear-gradient-59" x1="50.89" y1="193.84" x2="54.21" y2="140.69" gradientUnits="userSpaceOnUse"><stop offset="0" stop-color="#a6e5d4"/><stop offset="1" stop-color="#79d3fd"/></linearGradient><linearGradient id="linear-gradient-60" x1="57.56" y1="193.86" x2="60.15" y2="141.63" xlink:href="#linear-gradient-14"/><linearGradient id="linear-gradient-61" x1="32.5" y1="192.69" x2="35.82" y2="139.54" xlink:href="#linear-gradient-59"/><linearGradient id="linear-gradient-62" x1="46.33" y1="217.16" x2="46.33" y2="179.59" xlink:href="#linear-gradient-14"/><linearGradient id="linear-gradient-63" x1="348.45" y1="56.17" x2="327" y2="34.72" gradientUnits="userSpaceOnUse"><stop offset="0" stop-color="#2e3e9d"/><stop offset="1" stop-color="#79d3fd"/></linearGradient><linearGradient id="linear-gradient-64" x1="168.21" y1="160.83" x2="151.33" y2="209.84" gradientUnits="userSpaceOnUse"><stop offset="0" stop-color="#63b8e8"/><stop offset="1" stop-color="#79d3fd"/></linearGradient><linearGradient id="linear-gradient-65" x1="169.08" y1="214.61" x2="186.54" y2="214.61" gradientTransform="matrix(1, 0, 0, 1, 0, 0)" xlink:href="#linear-gradient-3"/><linearGradient id="linear-gradient-66" x1="186.45" y1="118.76" x2="163.95" y2="190.89" xlink:href="#linear-gradient-59"/><linearGradient id="linear-gradient-67" x1="190.43" y1="75.31" x2="155.29" y2="184.75" gradientTransform="matrix(1, 0, 0, 1, 0, 0)" xlink:href="#linear-gradient-5"/><linearGradient id="linear-gradient-68" x1="197.02" y1="76.37" x2="160.81" y2="189.15" gradientTransform="matrix(1, 0, 0, 1, 0, 0)" xlink:href="#linear-gradient-5"/><linearGradient id="linear-gradient-69" x1="197.87" y1="108.96" x2="186.44" y2="90.26" gradientUnits="userSpaceOnUse"><stop offset="0" stop-color="#a6e5d4" stop-opacity="0"/><stop offset="1" stop-color="#79d3fd"/></linearGradient><linearGradient id="linear-gradient-70" x1="232.7" y1="81.15" x2="244.27" y2="81.15" gradientTransform="translate(-8.75 28.06) rotate(-5.02)" xlink:href="#linear-gradient-5"/><linearGradient id="linear-gradient-71" x1="187.94" y1="76.04" x2="214.99" y2="103.23" gradientTransform="matrix(1, 0, 0, 1, 0, 0)" xlink:href="#linear-gradient-5"/><linearGradient id="linear-gradient-72" x1="202.96" y1="46.54" x2="203.8" y2="60.96" xlink:href="#linear-gradient-37"/><linearGradient id="linear-gradient-73" x1="140.83" y1="212.17" x2="157.9" y2="212.17" gradientTransform="matrix(1, 0, 0, 1, 0, 0)" xlink:href="#linear-gradient-3"/><linearGradient id="linear-gradient-74" x1="196.27" y1="66.92" x2="211.36" y2="66.92" xlink:href="#linear-gradient-59"/><linearGradient id="linear-gradient-75" x1="121.22" y1="165.72" x2="121.22" y2="160" xlink:href="#linear-gradient-23"/><linearGradient id="linear-gradient-76" x1="104.08" y1="166.59" x2="138.36" y2="166.59" gradientTransform="matrix(1, 0, 0, 1, 0, 0)" xlink:href="#linear-gradient-5"/><linearGradient id="linear-gradient-77" x1="116.48" y1="174.86" x2="125.95" y2="174.86" gradientTransform="matrix(1, 0, 0, 1, 0, 0)" xlink:href="#linear-gradient-5"/><linearGradient id="linear-gradient-78" x1="116.48" y1="168.31" x2="125.95" y2="168.31" gradientTransform="matrix(1, 0, 0, 1, 0, 0)" xlink:href="#linear-gradient-5"/><linearGradient id="linear-gradient-79" x1="119.69" y1="193.71" x2="122.75" y2="193.71" gradientTransform="matrix(1, 0, 0, 1, 0, 0)" xlink:href="#linear-gradient-5"/><linearGradient id="linear-gradient-80" x1="121.22" y1="215.62" x2="121.22" y2="203.04" gradientTransform="matrix(1, 0, 0, 1, 0, 0)" xlink:href="#linear-gradient-5"/><linearGradient id="linear-gradient-81" x1="100.9" y1="216.4" x2="104.13" y2="216.4" xlink:href="#linear-gradient-19"/><linearGradient id="linear-gradient-82" x1="138.3" y1="216.4" x2="141.54" y2="216.4" xlink:href="#linear-gradient-19"/><linearGradient id="linear-gradient-83" x1="243.52" y1="178.93" x2="283.3" y2="178.93" gradientUnits="userSpaceOnUse"><stop offset="0" stop-color="#1dc0ff"/><stop offset="1" stop-color="#339afd"/></linearGradient><linearGradient id="linear-gradient-84" x1="263.41" y1="208.98" x2="263.41" y2="137.2" xlink:href="#linear-gradient-83"/><linearGradient id="linear-gradient-85" x1="266.57" y1="130.75" x2="279.15" y2="130.75" xlink:href="#linear-gradient-83"/><linearGradient id="linear-gradient-86" x1="264.82" y1="137.81" x2="271.24" y2="137.81" gradientUnits="userSpaceOnUse"><stop offset="0" stop-color="#1dfcff"/><stop offset="1" stop-color="#339afd"/></linearGradient><linearGradient id="linear-gradient-87" x1="240.77" y1="164.23" x2="241.2" y2="164.23" xlink:href="#linear-gradient-14"/><linearGradient id="linear-gradient-88" x1="241.45" y1="163.46" x2="240.51" y2="163.46" xlink:href="#linear-gradient-13"/><linearGradient id="linear-gradient-89" x1="239.78" y1="156.96" x2="242.63" y2="156.96" gradientUnits="userSpaceOnUse"><stop offset="0" stop-color="#3852fa"/><stop offset="1" stop-color="#78d0fc"/></linearGradient><linearGradient id="linear-gradient-90" x1="242.33" y1="158.68" x2="239.75" y2="158.68" xlink:href="#linear-gradient-13"/><linearGradient id="linear-gradient-91" x1="246.27" y1="164.23" x2="246.7" y2="164.23" xlink:href="#linear-gradient-14"/><linearGradient id="linear-gradient-92" x1="246.95" y1="163.46" x2="246.01" y2="163.46" xlink:href="#linear-gradient-13"/><linearGradient id="linear-gradient-93" x1="245.28" y1="156.96" x2="248.13" y2="156.96" xlink:href="#linear-gradient-89"/><linearGradient id="linear-gradient-94" x1="247.83" y1="158.68" x2="245.25" y2="158.68" xlink:href="#linear-gradient-13"/><linearGradient id="linear-gradient-95" x1="251.77" y1="164.23" x2="252.2" y2="164.23" xlink:href="#linear-gradient-14"/><linearGradient id="linear-gradient-96" x1="252.45" y1="163.46" x2="251.51" y2="163.46" xlink:href="#linear-gradient-13"/><linearGradient id="linear-gradient-97" x1="250.78" y1="156.96" x2="253.63" y2="156.96" xlink:href="#linear-gradient-89"/><linearGradient id="linear-gradient-98" x1="253.33" y1="158.68" x2="250.75" y2="158.68" xlink:href="#linear-gradient-13"/><linearGradient id="linear-gradient-99" x1="253.81" y1="157.54" x2="253.81" y2="160.66" gradientUnits="userSpaceOnUse"><stop offset="0" stop-color="#5793fb"/><stop offset="1" stop-color="#00006c"/></linearGradient><linearGradient id="linear-gradient-100" x1="260.44" y1="172.41" x2="260.44" y2="159.62" xlink:href="#linear-gradient-99"/><linearGradient id="linear-gradient-101" x1="244.64" y1="167.59" x2="244.64" y2="171.4" xlink:href="#linear-gradient-99"/><linearGradient id="linear-gradient-102" x1="238.56" y1="159.76" x2="238.56" y2="194.64" xlink:href="#linear-gradient-99"/><linearGradient id="linear-gradient-103" x1="244.03" y1="159.76" x2="244.03" y2="194.64" xlink:href="#linear-gradient-99"/><linearGradient id="linear-gradient-104" x1="249.5" y1="159.76" x2="249.5" y2="194.64" xlink:href="#linear-gradient-99"/><linearGradient id="linear-gradient-105" x1="245.8" y1="216.67" x2="250.19" y2="216.67" xlink:href="#linear-gradient-19"/><linearGradient id="linear-gradient-106" x1="276.62" y1="216.67" x2="281.01" y2="216.67" xlink:href="#linear-gradient-19"/><linearGradient id="linear-gradient-107" x1="306.07" y1="211.68" x2="311.94" y2="136.74" gradientUnits="userSpaceOnUse"><stop offset="0" stop-color="#d1ffff"/><stop offset="1" stop-color="#84d8fe"/></linearGradient><linearGradient id="linear-gradient-108" x1="328.31" y1="214.68" x2="311.18" y2="214.68" gradientTransform="matrix(1, 0, 0, 1, 0, 0)" xlink:href="#linear-gradient-3"/><linearGradient id="linear-gradient-109" x1="316.25" y1="216.76" x2="322.11" y2="141.86" gradientUnits="userSpaceOnUse"><stop offset="0" stop-color="#d1ffff"/><stop offset="1" stop-color="#9fdffe"/></linearGradient><linearGradient id="linear-gradient-110" x1="379.71" y1="56.12" x2="376.11" y2="79.84" gradientTransform="matrix(-1, -0.02, -0.02, 1, 692.14, 9.28)" gradientUnits="userSpaceOnUse"><stop offset="0" stop-color="#000051"/><stop offset="1" stop-color="#30389c"/></linearGradient><linearGradient id="linear-gradient-111" x1="374.42" y1="55.32" x2="370.83" y2="79.04" xlink:href="#linear-gradient-110"/><linearGradient id="linear-gradient-112" x1="303.57" y1="83.77" x2="303.57" y2="98.19" gradientTransform="matrix(1, 0.02, -0.02, 1, 3, -6.57)" xlink:href="#linear-gradient-5"/><linearGradient id="linear-gradient-113" x1="317.43" y1="82.44" x2="317.43" y2="127.67" gradientTransform="matrix(1, 0.02, -0.02, 1, 3, -6.57)" xlink:href="#linear-gradient-5"/><linearGradient id="linear-gradient-114" x1="326.38" y1="82.44" x2="326.38" y2="104.16" gradientTransform="matrix(1, 0.02, -0.02, 1, 3, -6.57)" xlink:href="#linear-gradient-5"/><linearGradient id="linear-gradient-115" x1="305.77" y1="214.68" x2="287.78" y2="214.68" gradientTransform="matrix(1, 0, 0, 1, 0, 0)" xlink:href="#linear-gradient-3"/><linearGradient id="linear-gradient-116" x1="315.09" y1="75.44" x2="315.85" y2="65.66" xlink:href="#linear-gradient-59"/><linearGradient id="linear-gradient-117" x1="359.89" y1="107.32" x2="359.89" y2="120.32" xlink:href="#linear-gradient-86"/><linearGradient id="linear-gradient-118" x1="359.89" y1="107.32" x2="359.89" y2="120.32" xlink:href="#linear-gradient-86"/><linearGradient id="linear-gradient-119" x1="369.67" y1="99.98" x2="370.38" y2="100.69" gradientTransform="matrix(1, 0, 0, 1, 0, 0)" xlink:href="#linear-gradient-5"/><linearGradient id="linear-gradient-120" x1="371.97" y1="99.98" x2="372.69" y2="100.69" gradientTransform="matrix(1, 0, 0, 1, 0, 0)" xlink:href="#linear-gradient-5"/><linearGradient id="linear-gradient-121" x1="374.27" y1="99.98" x2="374.99" y2="100.69" gradientTransform="matrix(1, 0, 0, 1, 0, 0)" xlink:href="#linear-gradient-5"/><linearGradient id="linear-gradient-122" x1="346.17" y1="96.53" x2="373.62" y2="123.98" gradientTransform="matrix(1, 0, 0, 1, 0, 0)" xlink:href="#linear-gradient-5"/><linearGradient id="linear-gradient-123" x1="234.5" y1="55.86" x2="249.68" y2="55.86" gradientUnits="userSpaceOnUse"><stop offset="0" stop-color="#8affff"/><stop offset="1" stop-color="#79d3fd"/></linearGradient></defs><title>Welcome Image 1</title><g class="cls-1"><g id="Layer_2" data-name="Layer 2"><g id="OBJECTS"><path class="cls-2" d="M402.34,218.94c1.06-8.21-.81-15.28-5.2-22.29-2.81-4.49-6.61-8.36-8.91-13.14-3-6.27-3.18-13.51-2.92-20.46.36-9.56,7.37-48.43-9.44-75.83-24.78-40.43-64.2-45.57-74.81-46.92-44-5.61-70.4-41-128.58-40.29C84.87,1.14,79.75,73.56,72.74,96.48c-2.56,8.38-4.55,17.08-9,24.61C52.51,139.88,31.81,141.58,16.44,166c-9.68,15.38-12.28,33-8.23,52.95Z"/><polygon class="cls-3" points="188.33 141.58 160.46 59.48 183.57 43.07 251.89 96.45 188.33 141.58"/><path class="cls-4" d="M172.28,30.67h.63a.56.56,0,0,1,.56.56V65.71a.56.56,0,0,1-.56.56h-.63a5.71,5.71,0,0,1-5.71-5.71V36.37A5.71,5.71,0,0,1,172.28,30.67Z" transform="translate(111.09 -118.21) rotate(54.62)"/><path class="cls-5" d="M158.53,52.4h0l19-13.49h0a2.44,2.44,0,0,0-3.4-.57L159.1,49A2.43,2.43,0,0,0,158.53,52.4Z"/><rect class="cls-6" x="149.44" y="32.96" width="21.75" height="3.69" transform="translate(95.88 -116.06) rotate(54.62)"/><rect class="cls-7" x="115.75" y="34.81" width="41.66" height="3.69" transform="translate(269.1 -12.69) rotate(144.55)"/><polygon class="cls-8" points="144.26 129.44 117.87 49.16 121.31 47.84 155.29 125.22 144.26 129.44"/><path class="cls-9" d="M155.78,28.41A4.63,4.63,0,1,1,156.87,22,4.63,4.63,0,0,1,155.78,28.41Z"/><path class="cls-10" d="M154.55,26.68a2.5,2.5,0,1,1,.59-3.48A2.5,2.5,0,0,1,154.55,26.68Z"/><path class="cls-11" d="M122.32,52.34a4.63,4.63,0,1,1,1.09-6.45A4.63,4.63,0,0,1,122.32,52.34Z"/><path class="cls-12" d="M121.09,50.6a2.5,2.5,0,1,1,.59-3.48A2.5,2.5,0,0,1,121.09,50.6Z"/><path class="cls-13" d="M243.22,101.77s0,.23-.45.59a2.3,2.3,0,0,1-1,.46s0,.09-.42.46a29,29,0,0,1-3,1.42,2.64,2.64,0,0,1-1.07-.34.65.65,0,0,1-.07-.78,5.51,5.51,0,0,1,1.1-1.2,16.42,16.42,0,0,1,2-1s.86,0,1,0S243.22,101.77,243.22,101.77Z"/><path class="cls-14" d="M230.6,104.7s2.24.26,2.67.22,1.59-1.39,2.85-2.6c.68-.65,2.93-1.23,4.21-1.43a12.74,12.74,0,0,1,3.3.18c.4.07.23.75-.68,1a11.33,11.33,0,0,1-2.43.3,19.83,19.83,0,0,0-2.65,1.25c-.52.35-.26.68.06.63a15.5,15.5,0,0,0,2-.94c.34-.16,1.37-.34,1.4.17s-2,2.08-2.49,2.42-2.76,2.24-3.41,2.53a52.25,52.25,0,0,1-5.26.79S229.78,106.23,230.6,104.7Z"/><path class="cls-15" d="M207.57,101.31l24.8,3.45s.22,6-1.13,8.41c0,0-20.31,1-27-.94-4.21-1.23-8.69-6-14.32-13.38C190,98,193,86.9,197,89.23,199.25,90.51,206.87,100.68,207.57,101.31Z"/><path class="cls-16" d="M203.55,207.33H150v7.9H208.1a1.68,1.68,0,0,0,1.68-1.67h0A6.23,6.23,0,0,0,203.55,207.33Z"/><path class="cls-17" d="M227.71,153.26a21.28,21.28,0,0,1-35.87,15.49l4.47-4.74a14.76,14.76,0,0,0,23.33-17.34l5.67-3.24A21.1,21.1,0,0,1,227.71,153.26Z"/><polygon class="cls-18" points="189.87 170.76 151.07 206.14 131.9 187.64 138.92 183.29 170.47 163.79 184.31 168.76 189.87 170.76"/><path class="cls-19" d="M189.87,170.76l-38.79,35.38-19.18-18.5,7-4.35c24.94,9.2,42.7-13,42.7-13l2.69-1.49Z"/><path class="cls-20" d="M162.18,161.48s-.54,4.05.54,5.23,22.75,9.63,24.93,10,4.2-4.59,4.2-4.59Z"/><path class="cls-21" d="M158.05,215.23H79.23a1.2,1.2,0,0,1-.85-2C85.05,206.52,106.6,186,118.55,186h10.24a29.26,29.26,0,0,1,29.26,29.26Z"/><rect class="cls-22" x="81.31" y="215.23" width="7.16" height="2.33"/><rect class="cls-23" x="198.81" y="215.23" width="7.16" height="2.33"/><path class="cls-24" d="M141.67,142.56s6.74,13.45,10,16,26,10.57,40.18,15c5.88,1.84,11.45-17.12,11.45-17.12Z"/><path class="cls-25" d="M80.15,153.87h0a2.36,2.36,0,0,0,2.6,1.84l71.68-9.05,47.48,11.82a3.71,3.71,0,0,0,4.4-2.65h0a3.7,3.7,0,0,0-2.84-4.58l-50-10.78L82.1,151.05A2.35,2.35,0,0,0,80.15,153.87Z"/><path class="cls-26" d="M199.54,149.34a9.91,9.91,0,0,1-.12,1.08c-7.94-1.62-46-9.95-46-9.95l-67.73,10a1.87,1.87,0,0,1-.44-1.19c0-1.35,1.32-3.67,9.32-6C107,139.7,145.43,130.71,153.67,131s31,5.42,36.06,6.58C195.75,139,199.8,144.06,199.54,149.34Z"/><path class="cls-27" d="M199.54,149.34a9.91,9.91,0,0,1-.12,1.08c-7.94-1.62-46-9.95-46-9.95l-67.73,10a1.87,1.87,0,0,1-.44-1.19l63.5-9.58a6.32,6.32,0,0,1,6-2.1,4.91,4.91,0,0,1,4,2.83Z"/><path class="cls-28" d="M252.83,121.82l-34.16,22.64-3.58,2.37-4.51,3a5.5,5.5,0,0,1-.72-1c-1-1.7-2.29-5.42,2.65-9.57.2-.17.42-.34.64-.51.65-.5,1.37-1,2.13-1.58,9.77-7,27.53-17.43,27.53-17.43s6.17-3.3,9.43,1.12A7.17,7.17,0,0,1,252.83,121.82Z"/><path class="cls-29" d="M252.24,120.88l-42.38,28a5.5,5.5,0,0,0,.72,1l42.25-28A7.17,7.17,0,0,0,252.24,120.88Z"/><path class="cls-30" d="M158.55,143.76a4.88,4.88,0,1,1-4.88-4.89A4.87,4.87,0,0,1,158.55,143.76Z"/><path class="cls-31" d="M156.18,143.76a2.51,2.51,0,1,1-2.51-2.51A2.51,2.51,0,0,1,156.18,143.76Z"/><path class="cls-32" d="M274.28,107.6,254.11,121c-.19-.26-.36-.53-.51-.77-2.68-4.41.5-5.87.5-5.87s11-6.68,14.63-8.12a4.52,4.52,0,0,1,4.93.73A4,4,0,0,1,274.28,107.6Z"/><path class="cls-32" d="M274.28,107.6,254.11,121c-.19-.26-.36-.53-.51-.77-2.68-4.41.5-5.87.5-5.87s11-6.68,14.63-8.12a4.52,4.52,0,0,1,4.93.73A4,4,0,0,1,274.28,107.6Z"/><path class="cls-33" d="M264.56,118.64l.09-.06a3.29,3.29,0,0,1-.86,4.59l-11,7.49a3.3,3.3,0,0,1-4.53-.78l-.21-.29Z"/><path class="cls-34" d="M274.28,107.6,254.11,121c-.19-.26-.36-.53-.51-.77l20.06-13.26A4,4,0,0,1,274.28,107.6Z"/><path class="cls-35" d="M210,153.53h0a2.52,2.52,0,0,0,3.34.5l63.74-42.31a2.51,2.51,0,0,0,.65-3.57h0a2.52,2.52,0,0,0-3.43-.63l-63.75,42.3A2.52,2.52,0,0,0,210,153.53Z"/><path class="cls-36" d="M116.68,136.19l-8.26.75s-3.18-1.33-2.66-4.4l7.72-2.79"/><path class="cls-37" d="M108.42,136.94a4.85,4.85,0,0,1-1.49,2.3,14.4,14.4,0,0,1-3.38,1.67c-.27.17-7.93-13.51-8-14.23s1.71-2,3.66.72c1.12,1.56,3.22,2.78,4.73,3.75a15.41,15.41,0,0,1,1.83,1.39S107.56,136.31,108.42,136.94Z"/><path class="cls-38" d="M112,130.11s37-13.9,42.44-15,16.73,4,16.73,4l-15,7s-31.78,9.07-41.87,10.2C113.2,134.57,112,130.11,112,130.11Z"/><path class="cls-39" d="M116.65,136.19l-7.49,2a5.38,5.38,0,0,1-1.66-4.87l7.63-2.73"/><path class="cls-40" d="M109.16,138.22a4.9,4.9,0,0,1-1.94,1.93,14.73,14.73,0,0,1-3.66.91c-.31.1-4.87-14.9-4.8-15.62s2.1-1.55,3.43,1.49c.77,1.76,2.56,3.41,3.82,4.67a14.8,14.8,0,0,1,1.49,1.75S108.46,137.42,109.16,138.22Z"/><path class="cls-41" d="M201.77,122.76s-36-5.6-44.77-6.14h0a11.74,11.74,0,0,0-1.23,0c-9.41,2.17-42.88,14.38-42.88,14.38a46.89,46.89,0,0,0,2.61,7c2-.52,25.14-4.66,34.39-6.3a17.48,17.48,0,0,1,7.58.33c6.22,1.68,14.35,3.48,22.14,5.55,3.13.83,7.82,3.42,10.53,4.16,12.33,3.38,17,.44,17,.44C210,137,201.77,122.76,201.77,122.76Z"/><path class="cls-39" d="M244.67,105.94v0a5.56,5.56,0,0,1-.88,3.3c-1.07,1.81-3.92,3.23-5.44,3.91-1.12.51,1.52,8.67,3.2,7.2a83.47,83.47,0,0,1,6.81-5.26,39.85,39.85,0,0,1,6.28-2.41l-.58-3.06S244.45,102.21,244.67,105.94Z"/><path class="cls-42" d="M244.67,106a5.56,5.56,0,0,1-.88,3.3c4.37,2.87,7.54,2,7.54,2l-5.38-5S245.4,106.06,244.67,106Z"/><path class="cls-39" d="M256.09,96.19s-11.67,3.92-14.09,6.75c0,0,.52,5.06,7.73,9s12-3.08,12.89-5.31S262.56,96.05,256.09,96.19Z"/><path class="cls-43" d="M245.54,117.15s-3-.07-5-5.1c0,0-6.16-2.74-11.83-1.45-4.77,1.07-9.73,3.71-13.32,5.57-2.61,1.36-16.68,5.27-20.73,5.21a.83.83,0,0,0-.9,1s1.26,15.41,8.57,23.81c0,0,23.53-15.93,27.72-18.54C235.12,124.55,243.16,121.27,245.54,117.15Z"/><path class="cls-44" d="M252.4,114.08c-.65,0-1.2-.11-1.22-.49,0-1,1.37-1.14,2.32-1.79s.54-1,1.2-1.85,1.93-.76,2.45-1.67-.09-2-1.13-1.65-2.42,1-2.34.46,2.08-1.61,2.47-2.11-.42-1-1-2,.34-1.19,1-2.89-1.09-2.07-1.7-3.36,1.94-5.12,3.88-4.48,1.08,3.39,2.23,4S264.83,95,267,98.59c1.95,3.31-.48,5.91-.81,7.37.48.45,1.08,1.08-.91,2.7a53.64,53.64,0,0,1-6.24,4.06,11.39,11.39,0,0,1-4.13,1.6A11,11,0,0,1,252.4,114.08Z"/><path class="cls-39" d="M239,122.88l-5.79-8.07s-12.68,7-17,10.2c-1.18,0-5.4-.06-9.5.09-4.83.17-13.64-.43-13.64-.43a10.31,10.31,0,0,1-1.65-.31c-1.06-.27-1.87-.71-3.13-1s-4.52,1-5.65,1.11-1.15,1-.42,1.21,3.62-.1,4.36,0,1.47,1.06,2.51,1.61a13.49,13.49,0,0,0,3.55.78.64.64,0,0,1,0,.07s1.94.37,6.8,1.55,15.35,4.53,18.78,3.34h0C223.06,131.94,239,122.88,239,122.88Z"/><path class="cls-45" d="M240.48,114.72a6.1,6.1,0,0,1,1.87,5.74c-2.27,2.33-9.85,6-14.25,8.5a40.55,40.55,0,0,1-4.62-9.11S235,110.1,240.48,114.72Z"/><path class="cls-46" d="M209.7,137.58l-31.27-9a1.87,1.87,0,0,1-1.3-2.26h0a1.88,1.88,0,0,1,2.23-1.36l31.71,7.26Z"/><path class="cls-30" d="M214.82,136.79a4.75,4.75,0,1,1-2.51-6.23A4.75,4.75,0,0,1,214.82,136.79Z"/><path class="cls-47" d="M211.52,132.41a2.73,2.73,0,0,0-3.6,1.45l-8.41,19.77a2.75,2.75,0,1,0,5.06,2.15L213,136A2.74,2.74,0,0,0,211.52,132.41Z"/><path class="cls-48" d="M374.88,169.38a3.27,3.27,0,1,1-.95-4.54A3.27,3.27,0,0,1,374.88,169.38Z"/><path class="cls-49" d="M218.59,193.1a2,2,0,0,1-2.72.57,2,2,0,0,1,2.14-3.29A2,2,0,0,1,218.59,193.1Z"/><path class="cls-50" d="M200.84,34.91a.94.94,0,0,1-1.57-1,.94.94,0,1,1,1.57,1Z"/><path class="cls-51" d="M85.91,183.94a3.16,3.16,0,1,1-.92-4.38A3.17,3.17,0,0,1,85.91,183.94Z"/><path class="cls-52" d="M53.55,199.34a1.34,1.34,0,1,1-.39-1.86A1.34,1.34,0,0,1,53.55,199.34Z"/><path class="cls-53" d="M89.81,83.05a1.34,1.34,0,1,1-.39-1.86A1.34,1.34,0,0,1,89.81,83.05Z"/><path class="cls-54" d="M272.85,83.07a1.92,1.92,0,1,1-.56-2.66A1.92,1.92,0,0,1,272.85,83.07Z"/><path class="cls-55" d="M187.25,12.15a1.92,1.92,0,1,1-.56-2.66A1.92,1.92,0,0,1,187.25,12.15Z"/><path class="cls-56" d="M351.26,85a1.92,1.92,0,1,1-.56-2.66A1.93,1.93,0,0,1,351.26,85Z"/><path class="cls-57" d="M352.77,141.82a1.92,1.92,0,1,1-.56-2.66A1.92,1.92,0,0,1,352.77,141.82Z"/><polygon class="cls-58" points="111.19 92.93 107.89 92.93 107.89 89.63 104.48 89.63 104.48 92.93 101.19 92.93 101.19 96.33 104.48 96.33 104.48 99.63 107.89 99.63 107.89 96.33 111.19 96.33 111.19 92.93"/><polygon class="cls-59" points="358.91 191.23 355.61 191.23 355.61 187.93 352.2 187.93 352.2 191.23 348.9 191.23 348.9 194.63 352.2 194.63 352.2 197.93 355.61 197.93 355.61 194.63 358.91 194.63 358.91 191.23"/><polygon class="cls-60" points="232.28 201.23 228.98 201.23 228.98 197.93 225.58 197.93 225.58 201.23 222.28 201.23 222.28 204.64 225.58 204.64 225.58 207.94 228.98 207.94 228.98 204.64 232.28 204.64 232.28 201.23"/><polygon class="cls-61" points="148.48 57.63 146.71 57.63 146.71 55.86 144.88 55.86 144.88 57.63 143.11 57.63 143.11 59.46 144.88 59.46 144.88 61.23 146.71 61.23 146.71 59.46 148.48 59.46 148.48 57.63"/><polygon class="cls-62" points="221.94 23.16 218.65 23.16 218.65 19.87 215.24 19.87 215.24 23.16 211.94 23.16 211.94 26.57 215.24 26.57 215.24 29.87 218.65 29.87 218.65 26.57 221.94 26.57 221.94 23.16"/><polygon class="cls-63" points="283.36 45.6 281.33 45.6 281.33 43.57 279.23 43.57 279.23 45.6 277.2 45.6 277.2 47.7 279.23 47.7 279.23 49.73 281.33 49.73 281.33 47.7 283.36 47.7 283.36 45.6"/><polygon class="cls-64" points="79.31 131.12 75 131.12 75 126.81 70.54 126.81 70.54 131.12 66.23 131.12 66.23 135.57 70.54 135.57 70.54 139.89 75 139.89 75 135.57 79.31 135.57 79.31 131.12"/><path class="cls-65" d="M44.72,178.18a6.92,6.92,0,0,1,.09-2.9,28.57,28.57,0,0,0-.32-15.6C41,148.91,27.07,139.37,27.07,139.37S30.86,155.26,34,162a85.69,85.69,0,0,0,8.49,13.56,6.5,6.5,0,0,1,1.22,2.78,116.6,116.6,0,0,1,1.93,22.33l1.05,0A117.17,117.17,0,0,0,44.72,178.18Z"/><path class="cls-66" d="M55.87,168.06a126.2,126.2,0,0,0,4.06-19.12S47.4,159.28,46.37,167.28a27,27,0,0,0,.86,11.14,7.57,7.57,0,0,1,.29,3,106.13,106.13,0,0,0-.25,20.94l.94-.11a103.74,103.74,0,0,1,.15-19.66,7.86,7.86,0,0,1,1.72-4.15A32.77,32.77,0,0,0,55.87,168.06Z"/><path class="cls-67" d="M68.6,148.53s-13.5,5-17,16a29.38,29.38,0,0,0-.29,16.12,5.57,5.57,0,0,1,0,2.75,123.91,123.91,0,0,0-3.21,26h1.08A123,123,0,0,1,52.24,184a9.42,9.42,0,0,1,1.6-3.42A86,86,0,0,0,62.33,167C65.53,160.05,68.6,148.53,68.6,148.53Z"/><path class="cls-68" d="M44.78,195.05a37.69,37.69,0,0,0-3.12-12.26,4.19,4.19,0,0,1-.32-2.21A20.22,20.22,0,0,0,41,174c-1.1-5.41-8.28-17.1-18.67-17.78a74.74,74.74,0,0,1,5.43,10.59c2.34,6.1,5.67,12.49,11.2,14.94A4.15,4.15,0,0,1,41.13,184a36.19,36.19,0,0,1,2.7,11.16Z"/><path class="cls-69" d="M46.33,187.14c-7.41,0-13.41.94-13.41,2.09l4.83,29.49H54.9l4.83-29.49C59.73,188.08,53.73,187.14,46.33,187.14Z"/><path class="cls-70" d="M348.87,40.21H330.46a.78.78,0,0,0-.78.78V53.24a.78.78,0,0,0,.78.78h.94a.35.35,0,0,1,.35.35V56a.3.3,0,0,0,.51.22l2.13-2.13a.35.35,0,0,1,.24-.1h14.24a.78.78,0,0,0,.78-.78V41A.78.78,0,0,0,348.87,40.21Z"/><path class="cls-30" d="M335.59,47.12a1.34,1.34,0,1,1-1.34-1.34A1.34,1.34,0,0,1,335.59,47.12Z"/><path class="cls-30" d="M341,47.12a1.34,1.34,0,1,1-1.34-1.34A1.34,1.34,0,0,1,341,47.12Z"/><circle class="cls-30" cx="345.07" cy="47.12" r="1.34"/><path class="cls-14" d="M147.44,199.65l-2.59,7.13s2.75,2.92,5.9,2.63l3.4-7.18"/><path class="cls-71" d="M159.32,165.13l-13.49,38.58s5.88,3,9.49,3.32c0,0,14.27-29.88,16-33.33s1.92-9.53,1.92-9.53"/><path class="cls-14" d="M169.52,204l.41,7.57s3.68,1.61,6.46.1l.31-7.94"/><path class="cls-72" d="M169.93,211.55a7.92,7.92,0,0,0-.79,2.51,12,12,0,0,0,.24,3.43c0,.33,16.14.11,16.76.08s.78-2-2.74-3.29c-1.83-.66-7-2.63-7-2.63S171.22,212.14,169.93,211.55Z"/><path class="cls-73" d="M163,132.1c.16-6.49,2.66-9.33,2.66-9.33,5.81-1.41,20.12,2.27,20.12,2.27s-.42,3.36-1,8.1c-1.2,12.59-3.64,54.05-4.21,58.69-.72,5.87-1.87,16.63-1.87,16.63-2.85,1-9.81,0-9.81,0-.39-2.91-1.27-21-1.25-27.26a80.42,80.42,0,0,1,.52-10.88l-3.26-22.86h0C163.84,141.88,162.92,135.58,163,132.1Z"/><path class="cls-14" d="M203.11,71.09h0a6.19,6.19,0,0,0-3.38,1.69,10.68,10.68,0,0,0-2.5,3.63,3.42,3.42,0,0,1-.91,2.16c-.92,1-7.08-.15-9-1.66s-2.68-3.34-1.56-4.14c.57-.4,2.58-1.53,3.79-2.41s3.7-3.36,3.87-4.47a20.23,20.23,0,0,0,.21-4.05l3.42-.06S207.19,70.5,203.11,71.09Z"/><path class="cls-13" d="M203.1,71.1a6.19,6.19,0,0,0-3.38,1.69c-4.07-4.07-3.8-7.7-3.8-7.7l6.65,4.68S202.82,70.34,203.1,71.1Z"/><path class="cls-14" d="M210.49,62.6h0c.23-1.08.95-3.76,1.1-4.87.07-.48-.48-1-.62-1.42-1.76-6.17-10.35-5.3-12.46-3.94s-8.67,8.12-2.83,14.94a18.31,18.31,0,0,0,7.63,5.59c2.13.76,4.8.06,5.41-2.11.27-1,.5-1.87.7-2.72.77-.07,1.79-.25,1.84-.69A42.7,42.7,0,0,0,210.49,62.6Z"/><path class="cls-74" d="M160.45,121c3.84-7.57,11-26.85,13.06-32.42,2.3-6.22,7.56-14.3,13.62-16.73a15.83,15.83,0,0,1,3.23-2.26c1,.25,5.92,5.61,7.45,7.14.42.42-.47,1.94-.47,1.94h0a43.66,43.66,0,0,1,.58,9.32A44.94,44.94,0,0,1,196.37,97c-.07.27-.14.54-.22.8-.57,2.13-1.19,4.14-1.72,6-.15.47-.28.92-.4,1.36-.28,1-.6,2.46-1,4.22-.86,4.45-1.9,10.49-2.58,13.52-.3,1.3-1,1.31-1,1.31s-16.74,9.67-28.41,3.1C161.07,127.23,159.56,122.62,160.45,121Z"/><path class="cls-75" d="M192.51,112.25s-1.5,29.62-2,39.78c-.38,8-.58,15.84-.58,15.84s-26.28,2.74-32.27-2.36c0,0-2.84-30.09,2.61-44.07,1.38-3.54,7-16.4,7.86-18.63"/><path class="cls-76" d="M182.47,89.44c.2.46,6,13.36,10.6,19.86.36-1.76.68-3.27,1-4.22.12-.44.25-.89.4-1.36.53-1.82,1.15-3.83,1.72-6Z"/><path class="cls-77" d="M234.19,90.73a2.54,2.54,0,0,1-.12,1.22c-.23.49-1.71,1.35-1.71,1.35l-.43-1.73.35-.67Z"/><path class="cls-13" d="M226.76,88.09a4.61,4.61,0,0,1,1.32-1.18,44.12,44.12,0,0,1,5.25-1.52c.32,0,.21,1.75-1.76,2"/><path class="cls-78" d="M242,93.38c-.47-.37-2.69-1.89-3.25-2.25s-1.41-.17-2.14-.31a1.77,1.77,0,0,1-1.22-.74l-4.11-7.56a.84.84,0,1,0-1.42.88l4.94,7a3,3,0,0,0,1.3,1c.7.17,1.78.16,2.22.25a36.26,36.26,0,0,1,3.59,2.17C242.25,94.07,242.42,93.73,242,93.38Z"/><path class="cls-77" d="M235.23,89.41a1.19,1.19,0,0,1-.45,1,5.76,5.76,0,0,1-1.93.59s-.82-.92-.62-1.16l.71-.88,1.67-.14Z"/><path class="cls-14" d="M221.57,92.91l2.75-1.72s1.47-1.88,2-2.67A3.79,3.79,0,0,1,229,87.28c.89-.08,3.94-.1,4.27-.08a16.38,16.38,0,0,1,4,1.06c.59.36.41,1-.59,1.11a20.51,20.51,0,0,1-3.29-.09,4.41,4.41,0,0,1-.18,1.24,1.57,1.57,0,0,1-.3.52,1.9,1.9,0,0,1,.23,1.12,4.47,4.47,0,0,1-.72,1.14,2,2,0,0,1-.12,1.24,2.24,2.24,0,0,1-1.14.77,23.45,23.45,0,0,1-3.22.53c-1,.16-4.64,2.56-4.64,2.56"/><path class="cls-79" d="M223.89,91.33s-11.12,4.41-17.37,6.84c-3.32-4.36-10.1-21.78-17.55-21.06,0,0-7.59.12-8,8-.3,5,11.46,16.63,18.25,22.57,5.08,4.45,7.89,3.85,9.37,2.89.42-.08,14.75-8,18.73-11.23C227.28,99.37,226,93.92,223.89,91.33Z"/><path class="cls-80" d="M210.9,58.89a9.68,9.68,0,0,1-5.57.8c-1.24-.17-3.15-1.33-3.6-.78,0,.05-.68,2.2-.68,2.2L199.89,61c.05-.6.1-1.4.11-1.54A1.79,1.79,0,0,0,197,58c-.86.77-.7,2.32-.73,3.9-.71.89-1.6,4.09-2.63,4.25-.41.06-.65-.5-.79-1.18-.25-1.33-2.57-18.07,5-16.4,2.52-3.18,3.39-1.55,3-.84,1.34-.46,2.72-.3,5.4.61,4.32,1.47,5.87,0,7.37,1.81C216.7,54,212.49,58.1,210.9,58.89Z"/><path class="cls-81" d="M144.85,206.78a12.34,12.34,0,0,0-2.06,1.88,26.24,26.24,0,0,0-2,3.19s6.6,5.72,8.33,5.72h8a.74.74,0,0,0,.7-.45c.14-.42,0-1.11-1.33-2s-3.85-2.29-3.85-2.29l-1.93-3.38A7.65,7.65,0,0,1,144.85,206.78Z"/><path class="cls-82" d="M211.05,65.56a36.56,36.56,0,0,1-5.48-.55A7.45,7.45,0,0,1,200,60.36v0c0,.21-.08.76-.1.93a17.61,17.61,0,0,0,1.33,3.13l-1.84,3.36A25.5,25.5,0,0,1,196.27,61c0,.39,0,.91,0,.91a21.1,21.1,0,0,0,2.41,7.07s2.71,3.85,6.18,4.52c2.72.53,6.28-3.38,6.49-5.31A9.74,9.74,0,0,0,211.05,65.56Z"/><path class="cls-83" d="M107,158.93h28.38a2.31,2.31,0,0,1,2.31,2.31v4.44a0,0,0,0,1,0,0h-33a0,0,0,0,1,0,0v-4.44A2.31,2.31,0,0,1,107,158.93Z"/><path class="cls-84" d="M137.45,167.5H105a.91.91,0,0,1-.91-.91h0a.9.9,0,0,1,.91-.91h32.46a.91.91,0,0,1,.91.91h0A.91.91,0,0,1,137.45,167.5Z"/><path class="cls-85" d="M116.48,167.5H126a0,0,0,0,1,0,0v12.64a2.07,2.07,0,0,1-2.07,2.07h-5.34a2.07,2.07,0,0,1-2.07-2.07V167.5A0,0,0,0,1,116.48,167.5Z"/><rect class="cls-86" x="116.48" y="167.5" width="9.47" height="1.62"/><rect class="cls-87" x="119.69" y="182.21" width="3.06" height="23"/><polygon class="cls-88" points="122.75 205.21 119.69 205.21 100.89 213.22 100.89 215.24 104.14 215.24 121.22 208.55 138.29 215.24 141.54 215.24 141.54 213.22 122.75 205.21"/><rect class="cls-89" x="100.9" y="215.23" width="3.24" height="2.33"/><rect class="cls-90" x="138.3" y="215.23" width="3.24" height="2.33"/><path class="cls-91" d="M283.3,145.78v69.13a.86.86,0,0,1-.86.85H244.37a.85.85,0,0,1-.85-.85V156.55a7.18,7.18,0,0,1,3-5.83l10.27-7.3a7.12,7.12,0,0,1,4.15-1.33h18.67A3.69,3.69,0,0,1,283.3,145.78Z"/><path class="cls-92" d="M281,147.86v63a2.18,2.18,0,0,1-2.17,2.18H248a2.18,2.18,0,0,1-2.17-2.18V157.39a6.33,6.33,0,0,1,2.66-5.16l9.09-6.47a6.36,6.36,0,0,1,3.67-1.17h16.53A3.26,3.26,0,0,1,281,147.86Z"/><path class="cls-93" d="M279.15,142.09h-2v-16.2a4.42,4.42,0,0,0-3.86-4.46,4.29,4.29,0,0,0-4.72,4.27v1.66a1,1,0,0,1-1,1h0a1,1,0,0,1-1-1v-1.44a6.44,6.44,0,0,1,5.46-6.46,6.3,6.3,0,0,1,7.12,6.24Z"/><polygon class="cls-94" points="270.4 142.09 265.65 142.09 264.82 133.53 271.24 133.53 270.4 142.09"/><path class="cls-95" d="M240.94,165.76h0a.23.23,0,0,1-.23-.23v-2.6a.23.23,0,0,1,.23-.23h0a.23.23,0,0,1,.24.23v2.6A.23.23,0,0,1,240.94,165.76Z"/><rect class="cls-96" x="240.43" y="162.7" width="1.02" height="1.53" rx="0.33"/><path class="cls-97" d="M242.51,152.09v.07l-.18,5.08-.11,2.88-.07,2.08a1.21,1.21,0,0,1-2.41,0l-.07-2.08-.11-2.88-.18-5.08a1.57,1.57,0,1,1,3.13-.07Z"/><polygon class="cls-98" points="242.32 157.24 242.22 160.12 239.66 160.12 239.56 157.24 242.32 157.24"/><path class="cls-99" d="M246.44,165.76h0a.23.23,0,0,1-.23-.23v-2.6a.23.23,0,0,1,.23-.23h0a.23.23,0,0,1,.24.23v2.6A.23.23,0,0,1,246.44,165.76Z"/><rect class="cls-100" x="245.93" y="162.7" width="1.02" height="1.53" rx="0.33"/><path class="cls-101" d="M248,152.09v.07l-.18,5.08-.11,2.88-.07,2.08a1.21,1.21,0,0,1-2.41,0l-.07-2.08-.11-2.88-.18-5.08a1.57,1.57,0,1,1,3.13-.07Z"/><polygon class="cls-102" points="247.82 157.24 247.72 160.12 245.16 160.12 245.06 157.24 247.82 157.24"/><path class="cls-103" d="M251.94,165.76h0a.23.23,0,0,1-.23-.23v-2.6a.23.23,0,0,1,.23-.23h0a.23.23,0,0,1,.24.23v2.6A.23.23,0,0,1,251.94,165.76Z"/><rect class="cls-104" x="251.43" y="162.7" width="1.02" height="1.53" rx="0.33"/><path class="cls-105" d="M253.51,152.09v.07l-.18,5.08-.11,2.88-.07,2.08a1.21,1.21,0,0,1-2.41,0l-.07-2.08-.11-2.88-.18-5.08a1.57,1.57,0,1,1,3.13-.07Z"/><polygon class="cls-106" points="253.32 157.24 253.22 160.12 250.66 160.12 250.56 157.24 253.32 157.24"/><path class="cls-107" d="M271.43,159.77H236.19a1,1,0,0,1-1.05-1.05h0a1,1,0,0,1,1.05-1h35.24a1,1,0,0,1,1,1h0A1,1,0,0,1,271.43,159.77Z"/><path class="cls-108" d="M261.26,170h-7.45v-1h7.45a4.82,4.82,0,0,0,4.81-4.81v-4.41h1v4.41A5.82,5.82,0,0,1,261.26,170Z"/><path class="cls-109" d="M252.23,171.4H237.05a1.92,1.92,0,0,1-1.91-1.91h0a1.91,1.91,0,0,1,1.91-1.9h15.18a1.9,1.9,0,0,1,1.9,1.9h0A1.91,1.91,0,0,1,252.23,171.4Z"/><path class="cls-110" d="M238.68,194.47a.8.8,0,0,1-.47.17l-.21,0c-2.82-.82-1.2-28.61-.8-34.85h.51c-.85,13.09-1.47,33.81.43,34.36a.22.22,0,0,0,.23-.05c1.8-1.38,1.94-16.67,1.84-22.67h.5C240.76,174.27,241,192.71,238.68,194.47Z"/><path class="cls-111" d="M244.15,194.47a.8.8,0,0,1-.47.17l-.21,0c-2.82-.82-1.2-28.61-.8-34.85h.51c-.85,13.09-1.47,33.81.43,34.36a.22.22,0,0,0,.23-.05c1.8-1.38,1.94-16.67,1.84-22.67h.5C246.23,174.27,246.44,192.71,244.15,194.47Z"/><path class="cls-112" d="M249.62,194.47a.8.8,0,0,1-.47.17l-.21,0c-2.82-.82-1.2-28.61-.8-34.85h.51c-.85,13.09-1.47,33.81.43,34.36a.22.22,0,0,0,.23-.05c1.8-1.38,1.94-16.67,1.84-22.67h.5C251.7,174.27,251.91,192.71,249.62,194.47Z"/><rect class="cls-113" x="245.8" y="215.76" width="4.4" height="1.82"/><rect class="cls-114" x="276.62" y="215.76" width="4.4" height="1.82"/><path class="cls-14" d="M298.44,205l-.34,7.68a16.37,16.37,0,0,0,6.34.75l.84-7.88"/><path class="cls-115" d="M317.4,143.72c-.41.81-1.1,8.17-3.55,19.59-.17.77-.34,1.56-.53,2.37-2.23,23.19-4.73,32.84-6.86,44.08a19.9,19.9,0,0,1-9-.91l1.44-42.3c.87-7.41,2.43-25.09,3.51-36.51H323C323.6,138,318.81,141,317.4,143.72Z"/><path class="cls-14" d="M320.46,204.75l.75,7.91a26,26,0,0,0,6,0l.79-8.07"/><path class="cls-116" d="M321.14,211.77a53.53,53.53,0,0,1-5.35,2.3c-3.19,1.2-5.77,2.13-5.32,3,.31.6,2,.5,4.47.5h12.93s.58-3.52-.61-5.43C327.26,212.15,323.8,213.22,321.14,211.77Z"/><path class="cls-117" d="M331.68,136.83c-1.33,5.21-2.24,21.67-3,29.12,2,13.53.05,43.71.05,43.71s-5.39,1-9.38.23c0,0-4.41-36.34-5.14-43.29-.11-1-.21-2.14-.32-3.29-1-10.2-2-24-2.7-33.27h21.18A19,19,0,0,1,331.68,136.83Z"/><path class="cls-118" d="M308.73,59.34a6.84,6.84,0,0,0,.21,7.19,18.89,18.89,0,0,1,1.9,5.33c.72,3.39-.47,9.9-.47,9.9s4.28.69,6.2-.16.64-11.66.64-11.66-1.18-6.06-1.37-6.65S312,58.1,312,58.1Z"/><path class="cls-14" d="M314.49,78.77A5,5,0,0,0,315,76c0-1.82,0-3.67,0-3.67l.57-.91,2.6-4.17s4.07-2.4,4.42.09c.19,1.34,0,6.94-.1,9.78a2.36,2.36,0,0,0,1.52,2.27l2.79,1c-1.65,4-7.14,4.27-7.14,4.27-7.82.56-10.76-4.14-10.76-4.14S313.81,79.29,314.49,78.77Z"/><path class="cls-13" d="M320.46,70.82A8.67,8.67,0,0,1,315,76l0-1.48Z"/><path class="cls-14" d="M308.85,58.22s-.39,15.9,4,16.6c2,.32,6.23-1.85,8.44-5,0,0,3.31-4.49,3-9.46S311,51.4,308.85,58.22Z"/><path class="cls-119" d="M308.56,65.89s-.86-3.18.3-4.88c0,0,.8-.92,2.83-.22,1.48.51,4.38,1.7,7.24-.39,0,0-.4,3.63,2.18,5.39a11.33,11.33,0,0,1,.84,3.66c0,1.37.16,4.49.39,7.67A2.6,2.6,0,0,0,324,79.34l3.78,1.39s-.17-1.8-.18-8c0-6,2.06-13.12-3.25-15.36,0,0-1.52-5.65-9.12-4.63S304.19,59.74,308.56,65.89Z"/><polygon class="cls-14" points="299.86 93.29 293.3 104.21 297.66 108.47 305.54 97.3 299.86 93.29"/><path class="cls-120" d="M309.9,96.05s-1.09,1.79-2.65,4a17.87,17.87,0,0,1-4.5-2.25,25.23,25.23,0,0,1-3.86-3.23c.71-1.48,2.46-4.53,3.83-7.53a28.89,28.89,0,0,1,1.35-2.64.31.31,0,0,1,.05-.1.36.36,0,0,0,.08-.12,10.57,10.57,0,0,1,2.74-3,5.76,5.76,0,0,1,.66-.33l.24-.1Z"/><path class="cls-121" d="M332.88,131.89s-18.08,4.89-30.33-.65c0,0-.47-.19-.32-1.31.27-2.06,2.61-26.34,2.61-26.34a41.91,41.91,0,0,1-2.09-5.77c-.08-.29-.14-.56-.19-.82-.45-2.51,2.49-6.79,2.87-8.71.31-1.57,1.69-5.91,2.17-7.42l.24-.1a51.39,51.39,0,0,1,5.26-1.59l.12,0s2.51,7,11.33.26c.47.1,6.44,1.27,8.35,4.7s.56,10.13.19,13.21c-.54,4.42-1.47,9-1.86,13.2-.32,3.35,1.73,18.44,1.94,20.3C333.27,131.67,332.88,131.89,332.88,131.89Z"/><path class="cls-122" d="M302.62,120.08l-17,.55a1.3,1.3,0,0,1-1.32-1.09l-4.51-26.71a1.31,1.31,0,0,1,1.24-1.52l17-.55a1.3,1.3,0,0,1,1.32,1.09l4.5,26.71A1.3,1.3,0,0,1,302.62,120.08Z"/><path class="cls-14" d="M321.73,99.19l-.89,8.22-14.64-.8-4.53-1.08.2,1.19c-.9,0-3.14-1-4.1-.89-.54.07-.42.32-.12.58h0s-.71-.29-1-.14-.24.84.48,1.18c0,0-.08.19.22.67a4,4,0,0,0,1.24.95,1.5,1.5,0,0,0,.38.69,11.39,11.39,0,0,0,2.76,1.75,15.57,15.57,0,0,0,3.19-.12s.94-.1,1.85-.15c1.41-.08,14.23,3.69,18.94,2.82,2.82-.52,5.22-13.23,5.22-13.23Z"/><path class="cls-123" d="M333.25,93.43s-.43,4.23-1.22,8.88a37.51,37.51,0,0,1-11-1.73c.22-3.37.63-6.83.85-9.29.54-6.23,4.44-8.46,7.65-8.17A5.7,5.7,0,0,1,333,86.84,20.06,20.06,0,0,1,333.25,93.43Z"/><path class="cls-124" d="M298.14,211.77a53.91,53.91,0,0,1-5.34,2.3c-3.2,1.2-5.77,2.13-5.32,3,.3.6,2,.5,4.47.5h13.27s.59-3.43-.61-5.34C304.61,212.24,300.81,213.22,298.14,211.77Z"/><path class="cls-125" d="M321.88,68.3a25.77,25.77,0,0,1-1.68,2l-1.37-3.2a4.93,4.93,0,0,0,.9-1.34V65a6.1,6.1,0,0,1-2.8,2.2,14,14,0,0,1-5.34,1,4.3,4.3,0,0,1-2.2-.55s.61,8.27,4.47,7.38a13.76,13.76,0,0,0,6.61-4.2,17.94,17.94,0,0,0,1.46-1.9Z"/><path class="cls-14" d="M319.64,65.17s.95-2.51,2.58-1.2c1.19,1,.82,5.31-1.36,5.45"/><path class="cls-126" d="M363.25,108.92a3.38,3.38,0,1,1-3.36-3.81A3.62,3.62,0,0,1,363.25,108.92Z"/><path class="cls-127" d="M361.36,114.06h0a12,12,0,0,0-2.93,0h0c-4.14.49-5.32,3.45-6.42,7.47h15.76C366.68,117.51,365.49,114.55,361.36,114.06Z"/><path class="cls-128" d="M370.53,100.34a.5.5,0,0,1-.5.5.5.5,0,0,1-.51-.5.51.51,0,0,1,.51-.51A.5.5,0,0,1,370.53,100.34Z"/><path class="cls-129" d="M372.83,100.34a.5.5,0,0,1-.5.5.5.5,0,0,1-.51-.5.51.51,0,0,1,.51-.51A.5.5,0,0,1,372.83,100.34Z"/><path class="cls-130" d="M375.14,100.34a.5.5,0,0,1-.51.5.5.5,0,0,1-.5-.5.5.5,0,0,1,.5-.51A.51.51,0,0,1,375.14,100.34Z"/><path class="cls-131" d="M375.43,98.81H344.36a1.12,1.12,0,0,0-1.13,1.13v20.63a1.12,1.12,0,0,0,1.13,1.13h31.07a1.13,1.13,0,0,0,1.13-1.13V99.94A1.13,1.13,0,0,0,375.43,98.81Zm-31.07.35h31.07a.77.77,0,0,1,.77.78v1.45H343.58V99.94A.78.78,0,0,1,344.36,99.16Zm31.07,22.19H344.36a.78.78,0,0,1-.78-.78V101.75H376.2v18.82A.77.77,0,0,1,375.43,121.35Z"/><rect class="cls-132" x="231.5" y="44.47" width="33.86" height="22.79" rx="2.94"/><rect class="cls-133" x="234.5" y="48.27" width="15.18" height="15.18" rx="1.17"/><line class="cls-132" x1="253.66" y1="49.9" x2="261.68" y2="49.9"/><line class="cls-132" x1="253.66" y1="51.65" x2="260.7" y2="51.65"/><line class="cls-132" x1="253.66" y1="53.41" x2="260.7" y2="53.41"/><line class="cls-132" x1="253.66" y1="55.17" x2="261.68" y2="55.17"/><line class="cls-132" x1="253.66" y1="56.93" x2="259.15" y2="56.93"/><line class="cls-132" x1="253.66" y1="58.69" x2="261.68" y2="58.69"/><line class="cls-132" x1="253.66" y1="60.45" x2="261.68" y2="60.45"/><line class="cls-132" x1="253.66" y1="62.21" x2="259.28" y2="62.21"/><path class="cls-30" d="M246.88,53.37s0-.08,0-.12a2.35,2.35,0,0,0-.78-1.81,2.52,2.52,0,0,0-1.67-.59h-.33l-.2,0h0l0,0h0a3.64,3.64,0,0,0-.47.14,3.32,3.32,0,0,1-2.48,0,3.64,3.64,0,0,0-.47-.14h0l0,0h0l-.2,0h-.33a2.52,2.52,0,0,0-1.67.59,2.35,2.35,0,0,0-.78,1.81s0,.08,0,.12a8.33,8.33,0,0,0,1.15,3.76l.21.44c.06.11.11.22.16.33a6.3,6.3,0,0,1,.41,1.32,5.5,5.5,0,0,0,.31,1,1,1,0,0,0,.92.64h0a1,1,0,0,0,.89-.68,6,6,0,0,0,.31-1,5.79,5.79,0,0,1,.36-1.11s0,0,.06,0,0,0,.06,0a5.79,5.79,0,0,1,.36,1.11,6,6,0,0,0,.31,1,1,1,0,0,0,.89.68h0a1,1,0,0,0,.92-.64,5.5,5.5,0,0,0,.31-1,6.3,6.3,0,0,1,.41-1.32c0-.11.1-.22.16-.33l.21-.44A8.33,8.33,0,0,0,246.88,53.37Z"/><path class="cls-134" d="M407.87,219.85H1.13A1.14,1.14,0,0,1,0,218.72H0a1.14,1.14,0,0,1,1.13-1.14H407.87a1.14,1.14,0,0,1,1.13,1.14h0A1.14,1.14,0,0,1,407.87,219.85Z"/></g></g></g></svg>