<svg xmlns="http://www.w3.org/2000/svg" viewBox="0 0 60.75 60.75"><defs><style>.cls-1{isolation:isolate;}.cls-2{fill:#c7ebfb;}.cls-3{fill:#282f39;}.cls-4{fill:#218eba;}.cls-5{fill:#1d2530;}.cls-6{fill:#2bbaf3;}.cls-7{fill:#3dd0fc;}.cls-8{mix-blend-mode:overlay;}.cls-9{fill:#8f9296;}.cls-10{fill:#36afdf;}.cls-11{fill:#37b7e6;}.cls-12{fill:#39bfed;}</style></defs><title>X ray_1</title><g class="cls-1"><g id="Layer_2" data-name="Layer 2"><g id="Layer_1-2" data-name="Layer 1"><circle class="cls-2" cx="30.38" cy="30.38" r="30.38"/><path class="cls-3" d="M46.55,10.5H14.2a6.41,6.41,0,0,0-6.42,6.42V43.84a6.42,6.42,0,0,0,6.42,6.42H46.55A6.42,6.42,0,0,0,53,43.84V16.92A6.41,6.41,0,0,0,46.55,10.5Zm5.19,33.33A5.2,5.2,0,0,1,46.55,49H30.37v-.5H46.55a4.7,4.7,0,0,0,4.7-4.69V16.92a4.71,4.71,0,0,0-4.7-4.7H30.37v-.49H46.55a5.2,5.2,0,0,1,5.19,5.19Z"/><path class="cls-4" d="M51.74,16.92V43.83A5.2,5.2,0,0,1,46.55,49H30.37v-.5H46.55a4.7,4.7,0,0,0,4.7-4.69V16.92a4.71,4.71,0,0,0-4.7-4.7H30.37v-.49H46.55A5.2,5.2,0,0,1,51.74,16.92Z"/><path class="cls-5" d="M46.55,48.52H30.37V12.22H46.55a4.71,4.71,0,0,1,4.7,4.7V43.83A4.7,4.7,0,0,1,46.55,48.52Z"/><path class="cls-5" d="M53,16.92V43.84a6.42,6.42,0,0,1-6.42,6.42H30.37V49H46.55a5.2,5.2,0,0,0,5.19-5.19V16.92a5.2,5.2,0,0,0-5.19-5.19H30.37V10.5H46.55A6.41,6.41,0,0,1,53,16.92Z"/><path class="cls-6" d="M14.2,12.22H30.37v-.49H14.2A5.2,5.2,0,0,0,9,16.92V43.83A5.2,5.2,0,0,0,14.2,49H30.37v-.5H14.2a4.69,4.69,0,0,1-4.69-4.69V16.92A4.7,4.7,0,0,1,14.2,12.22Z"/><path class="cls-7" d="M13.86,44.58v-.25h1v.25h-.36v1.06h-.27V44.58Z"/><path class="cls-7" d="M15.17,45.46A.65.65,0,0,1,15,45a.66.66,0,0,1,.19-.49.63.63,0,0,1,.47-.19.6.6,0,0,1,.46.19.66.66,0,0,1,.19.49.65.65,0,0,1-.19.48.6.6,0,0,1-.46.19A.63.63,0,0,1,15.17,45.46Zm.2-.78a.44.44,0,0,0-.1.3.47.47,0,0,0,.1.3.36.36,0,0,0,.27.12.34.34,0,0,0,.26-.12A.48.48,0,0,0,16,45a.44.44,0,0,0-.11-.3.32.32,0,0,0-.26-.13A.34.34,0,0,0,15.37,44.68Z"/><path class="cls-7" d="M16.65,45.46a.65.65,0,0,1-.19-.48.66.66,0,0,1,.19-.49.6.6,0,0,1,.46-.19.63.63,0,0,1,.47.19.71.71,0,0,1,0,1,.63.63,0,0,1-.47.19A.6.6,0,0,1,16.65,45.46Zm.2-.78a.44.44,0,0,0-.11.3.48.48,0,0,0,.11.3.34.34,0,0,0,.26.12.36.36,0,0,0,.27-.12.47.47,0,0,0,.1-.3.44.44,0,0,0-.1-.3.34.34,0,0,0-.27-.13A.32.32,0,0,0,16.85,44.68Z"/><path class="cls-7" d="M17.9,44.58v-.25h1v.25h-.36v1.06h-.28V44.58Z"/><path class="cls-7" d="M19.09,45.64V44.33h.28v.55h.49v-.55h.28v1.31h-.28v-.52h-.49v.52Z"/><path class="cls-7" d="M20.78,45.64,21.2,45l-.39-.64h.34l.24.39.23-.39H22l-.39.63.42.68h-.34l-.26-.43-.27.43Z"/><path class="cls-7" d="M22.13,45.2V45h.63v.25Z"/><path class="cls-7" d="M23,45.64V44.33h.47a.69.69,0,0,1,.42.1.42.42,0,0,1,.12.33.38.38,0,0,1-.24.41l.32.47h-.34l-.28-.42h-.19v.42Zm.28-.67h.2a.27.27,0,0,0,.19,0,.18.18,0,0,0,.06-.15.16.16,0,0,0-.06-.15.3.3,0,0,0-.19,0h-.2Z"/><path class="cls-7" d="M24.17,45.64l.54-1.31H25l.54,1.31h-.3l-.11-.28h-.52l-.12.28Zm.52-.54H25l-.15-.38Z"/><path class="cls-7" d="M25.49,44.33h.3l.27.49.27-.49h.31l-.44.79v.52h-.28v-.52Z"/><path class="cls-7" d="M27.18,46.59h-14V43.47h14Zm-13.63-.34H26.84V43.82H13.55Z"/><rect class="cls-7" x="27.86" y="43.64" width="5.22" height="0.21"/><rect class="cls-7" x="35.62" y="44.4" width="3.63" height="0.21"/><rect class="cls-7" x="39.55" y="44.4" width="1.48" height="0.21"/><rect class="cls-7" x="41.3" y="44.4" width="3.33" height="0.21"/><rect class="cls-7" x="33.57" y="43.64" width="2.86" height="0.21"/><rect class="cls-7" x="30.54" y="45.16" width="5.88" height="0.21"/><rect class="cls-7" x="36.76" y="45.16" width="3.29" height="0.21"/><rect class="cls-7" x="40.48" y="45.16" width="4.16" height="0.21"/><rect class="cls-7" x="37.07" y="43.64" width="7.56" height="0.21"/><rect class="cls-7" x="27.86" y="44.4" width="7.56" height="0.21"/><rect class="cls-7" x="27.86" y="45.16" width="2.35" height="0.21"/><g class="cls-8"><path class="cls-9" d="M43.18,10.5,8,45.64a6.69,6.69,0,0,1-.25-1.8V38.46l27.95-28Z"/><path class="cls-9" d="M53,16.92v3.39L23,50.26H15.58L52.12,13.72A6.4,6.4,0,0,1,53,16.92Z"/><polygon class="cls-9" points="52.97 32 52.97 39.44 42.16 50.26 34.72 50.26 52.97 32"/><path class="cls-9" d="M27.6,10.5,9.34,28.61a2.69,2.69,0,0,1-1.56.75V22.74L20.12,10.5Z"/></g><path class="cls-10" d="M42.43,33.16c-2.33.67-4,1.5-5.83-5.79a30.38,30.38,0,0,1-1-6.33A3.63,3.63,0,0,1,38,17.31l4.87-1.38c1.72-.43,3.32,1.13,3.4,3.33C46.46,24.3,45.78,32.2,42.43,33.16Z"/><path class="cls-11" d="M32.23,36.72c-2.5.6-4,1.58-5.89-6.49a30,30,0,0,1-.94-6.75,3.74,3.74,0,0,1,2.68-3.8l5.06-1.09c1.84-.35,3.49,1.4,3.5,3.73C36.65,27.66,35.56,35.93,32.23,36.72Z"/><path class="cls-12" d="M21,39.69c-2.67.51-3.88,1.66-6-7.19a29.43,29.43,0,0,1-.9-7.18,3.85,3.85,0,0,1,3-3.86l5.24-.81c2-.27,3.68,1.67,3.61,4.13C25.78,30.42,24.28,39.06,21,39.69Z"/></g></g></g></svg>